<?xml version="1.0" encoding="utf-8"?>
<!-- Generator: Adobe Illustrator 28.2.0, SVG Export Plug-In . SVG Version: 6.00 Build 0)  -->
<svg version="1.1" id="Layer_1" xmlns="http://www.w3.org/2000/svg" xmlns:xlink="http://www.w3.org/1999/xlink" x="0px" y="0px"
	 viewBox="0 0 286.1 121.2" style="enable-background:new 0 0 286.1 121.2;" xml:space="preserve">
<style type="text/css">
	.st0{fill:#1D1D1B;}
</style>
<g>
	<path class="st0" d="M47.7,89.4h1v5h7v-5h0.9v11.5h-0.9v-5.6h-7v5.6h-1V89.4z"/>
	<path class="st0" d="M66.6,101.1c-3.1,0-5.3-2.4-5.3-5.9s2.2-5.9,5.4-5.9c3.1,0,5.4,2.4,5.4,5.9S69.8,101.1,66.6,101.1z M66.6,90.1
		c-2.4,0-4.4,1.8-4.4,5s2,5.1,4.4,5.1s4.4-1.8,4.4-5.1S69.1,90.1,66.6,90.1z"/>
	<path class="st0" d="M75,89.4h9.3v0.9h-4.2v10.6h-0.9V90.3H75V89.4z"/>
	<path class="st0" d="M88.5,89.4h7.9v0.9h-6.9v4.3h6.3v0.9h-6.3v4.6h7v0.9h-8V89.4z"/>
	<path class="st0" d="M101.3,89.4h1V100h6.3v0.9h-7.3L101.3,89.4z"/>
	<path class="st0" d="M112.1,97.6h1c0.1,1.7,1.5,2.6,3.5,2.6s3.3-0.9,3.3-2.3c0-0.9-0.6-1.6-1.8-1.9l-3.2-0.8
		c-1.5-0.4-2.5-1.3-2.5-2.8c0-1.8,1.7-3.1,4-3.1c2.3,0,4,1.3,4.1,3.3h-1c-0.1-1.7-1.5-2.5-3.1-2.5c-1.7,0-3,0.9-3,2.3
		c0,0.9,0.5,1.6,1.8,1.9l3.2,0.8c1.5,0.4,2.5,1.3,2.5,2.8c0,1.8-1.6,3.2-4.3,3.2C114,101.1,112.3,99.8,112.1,97.6L112.1,97.6z"/>
	<path class="st0" d="M138.2,99.5c-1,1.1-2.4,1.6-3.9,1.6c-2.1,0-3.6-1.2-3.6-2.9c0-1.5,1-2.4,2.9-3.4c-0.8-0.9-1.5-1.8-1.5-3
		c0-1.5,1.3-2.6,2.7-2.6c0,0,0.1,0,0.1,0c1.4-0.1,2.7,1,2.8,2.5c0,0,0,0.1,0,0.1c0,1.4-1.1,2.3-2.7,3.2l3.1,3.2
		c0.6-1,0.9-2.2,0.8-3.4h0.9c0,1.4-0.4,2.8-1.1,4l2,2.1h-1.2L138.2,99.5z M137.6,98.9l-3.4-3.5c-1.9,1-2.5,1.7-2.5,2.8
		s1.1,2.1,2.7,2.1C135.6,100.3,136.8,99.8,137.6,98.9L137.6,98.9z M134.4,94.3c1.6-0.8,2.3-1.5,2.3-2.6c0-1-0.8-1.8-1.8-1.8
		c0,0-0.1,0-0.1,0c-1-0.1-1.8,0.7-1.9,1.6c0,0,0,0.1,0,0.1C133,92.6,133.5,93.4,134.4,94.3z"/>
	<path class="st0" d="M150.8,89.4h4.8c2.4,0,3.8,1.2,3.8,3.2c0,1.7-1,2.8-2.8,3.1l3.3,5.2h-1.1l-3.3-5.1h-3.7v5.2h-1L150.8,89.4z
		 M155.5,94.9c1.8,0,2.8-0.8,2.8-2.3c0-1.5-1-2.3-2.8-2.3h-3.8v4.6L155.5,94.9z"/>
	<path class="st0" d="M164.4,89.4h7.9v0.9h-6.9v4.3h6.3v0.9h-6.3v4.6h7v0.9h-7.9V89.4z"/>
	<path class="st0" d="M176.4,97.6h1c0.1,1.7,1.5,2.6,3.5,2.6s3.3-0.9,3.3-2.3c0-0.9-0.6-1.6-1.8-1.9l-3.2-0.8
		c-1.5-0.4-2.5-1.3-2.5-2.8c0-1.8,1.7-3.1,4-3.1c2.3,0,4,1.3,4.1,3.3h-1c-0.1-1.7-1.5-2.5-3.1-2.5c-1.7,0-3,0.9-3,2.3
		c0,0.9,0.5,1.6,1.8,1.9l3.2,0.8c1.5,0.4,2.5,1.3,2.5,2.8c0,1.8-1.6,3.2-4.3,3.2C178.3,101.1,176.5,99.8,176.4,97.6L176.4,97.6z"/>
	<path class="st0" d="M194.5,101.1c-3.1,0-5.4-2.4-5.4-5.9s2.2-5.9,5.4-5.9c3.1,0,5.4,2.4,5.4,5.9S197.7,101.1,194.5,101.1z
		 M194.5,90.1c-2.4,0-4.4,1.8-4.4,5s2,5.1,4.4,5.1s4.4-1.8,4.4-5.1S197,90.1,194.5,90.1z"/>
	<path class="st0" d="M204.7,89.4h4.8c2.4,0,3.8,1.2,3.8,3.2c0,1.7-1,2.8-2.8,3.1l3.3,5.2h-1.1l-3.3-5.1h-3.7v5.2h-1L204.7,89.4z
		 M209.4,94.9c1.8,0,2.8-0.8,2.8-2.3c0-1.5-1-2.3-2.8-2.3h-3.8v4.6L209.4,94.9z"/>
	<path class="st0" d="M217,89.4h9.3v0.9h-4.2v10.6h-0.9V90.3H217V89.4z"/>
	<path class="st0" d="M229.7,97.6h1c0.2,1.7,1.5,2.6,3.5,2.6c2,0,3.3-0.9,3.3-2.3c0-0.9-0.6-1.6-1.8-1.9l-3.2-0.8
		c-1.5-0.4-2.5-1.3-2.5-2.8c0-1.8,1.7-3.1,4-3.1c2.3,0,4,1.3,4.1,3.3h-1c-0.1-1.7-1.5-2.5-3.1-2.5c-1.7,0-3,0.9-3,2.3
		c0,0.9,0.5,1.6,1.8,1.9L236,95c1.5,0.4,2.5,1.3,2.5,2.8c0,1.8-1.6,3.2-4.3,3.2C231.6,101.1,229.8,99.8,229.7,97.6L229.7,97.6z"/>
	<path class="st0" d="M81,64.2c-1.5,0.1-3,0.6-4.3,1.5h-0.4c1.1-4.2,1.5-8.5,1.5-12.8v-4.7c0-3.3-0.2-6.6-0.6-9.8V38l10-1v0.3
		c-0.5,3.9-0.7,7.8-0.7,11.7c0,8.4,1.3,11.5,5.3,11.5c4.9,0,8.4-5.1,8.4-13c0-10.3-4.5-13.9-12.1-13.9c-3.9,0-8.3,1.2-12,1.2
		c-7.5,0-11.1-4.3-11.1-12.1h0.5c1.9,3.9,5.6,5.2,9.2,5.2c5.2,0,10.1-2.2,15.8-2.2c10,0,18.8,6.7,18.8,20.6
		c0,12.3-6.4,19.9-16.3,19.9C88.1,66.3,83.8,64.2,81,64.2z"/>
	<path class="st0" d="M111.4,53.3c0-8.6,6.7-13.5,6.7-21.9c0-2.6-0.3-5.1-1-7.6h0.5c3.5,3,6.1,8.8,6.1,14.6c0,9.1-3.5,12-3.5,16.5
		c0,3.5,2.1,5.4,5.4,5.4c3.8,0,6.3-2.8,6.3-8.1c0-3.7-0.3-11-0.7-17.3v-0.3h8.7v0.2c-0.1,3-0.3,7.6-0.3,10.7v7.6
		c0,4.4,0.3,9.6,0.6,12.6h-0.4c-1.5-0.9-3.3-1.4-5.1-1.5c-3.1,0-5.3,2-10.3,2C116.7,66.3,111.4,61.1,111.4,53.3z"/>
	<path class="st0" d="M150.4,58.1c3.2,0,5.9,1.7,8.4,1.7c2.3,0,3.8-1.4,3.8-3.4c0-6.8-18.8-0.1-18.8-13.3c0-6.3,4.5-9.4,10.5-9.4
		c4.4,0,7.8,1.7,11,1.7c1.9,0,3.2-0.6,3.9-1.8h0.4c0.7,4.4-1.2,7.8-6.1,7.8c-2.8,0-5.8-1.4-7.9-1.4c-2.2,0-3.4,1.2-3.4,3
		c0,6.7,18.9,0.1,18.9,13.2c0,6.5-4.8,9.8-10.9,9.8c-4.6,0-8.5-1.9-12.1-1.9c-1.8,0-3.5,0.5-5,1.5h-0.4
		C143.1,60.5,146,58.1,150.4,58.1L150.4,58.1z"/>
	<path class="st0" d="M173.6,24.9c0-2.8,2.3-4.7,5.6-4.7c3.4,0,5.6,1.9,5.6,4.7s-2.2,4.7-5.6,4.7C175.9,29.5,173.6,27.7,173.6,24.9z
		 M174.4,34.6h9.7v0.2c-0.5,4.9-0.9,9.9-0.9,15.1s0.4,10.2,0.9,15.1v0.2h-9.7V65c0.5-4.9,0.8-10,0.8-15.1s-0.4-10.2-0.8-15.1V34.6z"
		/>
	<path class="st0" d="M199,33c0,1.2,0.5,1.7,2.1,1.7h8.2v1.8l-1.1,0.1c-6.9,0.7-9,2.3-9,7.2v11.4c0,3.2,1.8,5.4,4.4,5.4
		c2,0,4.3-1.2,6.3-2.9h0.2c-2.8,6.2-6.2,8.7-10.5,8.7c-5.6,0-8.7-3.4-8.6-9.5l0.1-14.2c0.1-4.2-0.8-5.6-3.9-7v-0.4
		c6-0.5,8.4-4.1,11.3-11.8h0.7L199,33z"/>
</g>
</svg>
