<?xml version="1.0" encoding="utf-8"?>
<!-- Generator: Adobe Illustrator 28.2.0, SVG Export Plug-In . SVG Version: 6.00 Build 0)  -->
<svg version="1.0"
	 id="svg815" xmlns:inkscape="http://www.inkscape.org/namespaces/inkscape" xmlns:svg="http://www.w3.org/2000/svg" xmlns:rdf="http://www.w3.org/1999/02/22-rdf-syntax-ns#" xmlns:sodipodi="http://sodipodi.sourceforge.net/DTD/sodipodi-0.dtd" xmlns:cc="http://creativecommons.org/ns#" xmlns:dc="http://purl.org/dc/elements/1.1/"
	 xmlns="http://www.w3.org/2000/svg" xmlns:xlink="http://www.w3.org/1999/xlink" x="0px" y="0px" viewBox="0 0 534 129.4"
	 style="enable-background:new 0 0 534 129.4;" xml:space="preserve">
<style type="text/css">
	.st0{fill:#4B77A9;}
</style>
<sodipodi:namedview  bordercolor="#666666" borderopacity="1" fit-margin-bottom="0" fit-margin-left="0" fit-margin-right="0" fit-margin-top="0" gridtolerance="10" guidetolerance="10" id="namedview817" inkscape:current-layer="g823" inkscape:cx="298.90479" inkscape:cy="-244.47566" inkscape:pageopacity="0" inkscape:pageshadow="2" inkscape:window-height="480" inkscape:window-width="640" inkscape:zoom="0.81912879" objecttolerance="10" pagecolor="#ffffff" showgrid="false">
	</sodipodi:namedview>
<g id="g859">
	<g id="g865" transform="translate(117.7602,681.1927)">
		<path id="path867" inkscape:connector-curvature="0" class="st0" d="M155.4-610.3L140-649l-15.3,38.5c4-0.1,8-0.2,12.1-0.2
			C143.2-610.7,149.4-610.6,155.4-610.3 M283.2-571c-33-14.4-70.1-25-113.7-28.6l13.3,32.3h-10.3l-13.1-33
			c-7.3-0.4-14.8-0.6-22.5-0.6c-5.5,0-10.8,0.1-16.1,0.3l-13.2,33.3H97.2l13.5-32.7C64.4-597,25-586-9.6-571v-2
			c23.1-12.9,45.9-22.5,70.6-28.8v-19.8l-27.8-42.6h10.3l22,35.4l22-35.4h10.3l-27.8,42.6l0,17.6c14.1-3.1,28.9-5.1,44.6-6
			l22.9-55.6h4.6l23.1,56.1c15.5,1.2,30,3.5,43.9,6.9v-54.1h-22.7v-7.4h54.8v7.4h-22.7v56.5C241-594.1,262-585,283.2-573V-571z
			 M319.9-664.3h-54.8v7.4h22.7v66.9h9.4v-66.9h22.7V-664.3z M5.5-590l-9.4,0v-36.6h-40.5v36.6h-9.4v-74.3h9.4v30.2h40.5v-30.2h9.4
			V-590z"/>
	</g>
	<g id="g869" transform="translate(175.1554,695.8162)">
		<path id="path871" inkscape:connector-curvature="0" class="st0" d="M287.3-673.1c-0.4-0.3-1.2-0.4-2.2-0.4h-1.5v3.7h1.6
			c0.8,0,1.3-0.1,1.7-0.2c0.7-0.3,1.1-0.8,1.1-1.6C288-672.4,287.8-672.8,287.3-673.1 M285.4-674.7c1.3,0,2.2,0.1,2.8,0.4
			c1.1,0.4,1.6,1.3,1.6,2.6c0,0.9-0.3,1.6-1,2c-0.4,0.2-0.8,0.4-1.5,0.5c0.8,0.1,1.4,0.5,1.8,1c0.4,0.5,0.5,1.1,0.5,1.6v0.7
			c0,0.2,0,0.5,0,0.8c0,0.3,0,0.4,0.1,0.5l0.1,0.1h-1.7c0,0,0-0.1,0-0.1c0,0,0-0.1,0-0.1l0-0.3v-0.8c0-1.2-0.3-2-1-2.3
			c-0.4-0.2-1-0.3-2-0.3h-1.4v4h-1.8v-10.2H285.4z M279.9-675.2c-1.6,1.6-2.3,3.5-2.3,5.7c0,2.2,0.8,4.1,2.3,5.7
			c1.6,1.6,3.4,2.4,5.7,2.4c2.2,0,4.1-0.8,5.7-2.4c1.5-1.6,2.3-3.5,2.3-5.7c0-2.2-0.8-4.1-2.3-5.7c-1.6-1.6-3.5-2.3-5.7-2.3
			C283.3-677.6,281.5-676.8,279.9-675.2 M292.1-663c-1.8,1.8-4,2.7-6.6,2.7c-2.6,0-4.8-0.9-6.6-2.7c-1.8-1.8-2.7-4-2.7-6.6
			c0-2.6,0.9-4.7,2.7-6.6c1.8-1.8,4-2.7,6.5-2.7c2.6,0,4.8,0.9,6.6,2.7c1.8,1.8,2.7,4,2.7,6.6S293.9-664.8,292.1-663"/>
	</g>
</g>
</svg>
