<?xml version="1.0" encoding="utf-8"?>
<!-- Generator: Adobe Illustrator 28.2.0, SVG Export Plug-In . SVG Version: 6.00 Build 0)  -->
<svg version="1.1" id="layer" xmlns="http://www.w3.org/2000/svg" xmlns:xlink="http://www.w3.org/1999/xlink" x="0px" y="0px"
	 viewBox="0 0 1310.5 652" style="enable-background:new 0 0 1310.5 652;" xml:space="preserve">
<path d="M935.7,156.1c-6.5,0-11.7,5.2-11.7,11.7c0,6.7,5.2,11.7,11.7,11.7s11.7-5.1,11.7-11.7C947.5,161.4,942.4,156.1,935.7,156.1
	 M935.7,177.7c-5.4,0-9.7-4-9.7-9.8c0-5.7,4-9.8,9.7-9.8s9.7,4,9.7,9.8C945.3,173.6,941.1,177.7,935.7,177.7 M940.2,165.5
	L940.2,165.5c0-2.4-1.7-3.5-4.4-3.5h-4.1v11.6h2.5v-4.4h1.3l2.9,4.4h2.7l-3-4.9C939.2,168.2,940.2,167.3,940.2,165.5 M937.6,165.5
	c0,1.1-0.6,1.7-2.1,1.7h-1.4v-3.3h1.4C937,163.9,937.6,164.2,937.6,165.5L937.6,165.5z M646.8,154.1h29.7v196.3h-29.7v-89.6H539.9
	v89.6h-29.4V154.1h29.4v86.3h106.9V154.1z M423.5,350.3h-29.4V154.1h29.4V350.3z M846.9,353.5c-64.1,0-107.9-42.4-107.9-100.7
	c0-53.3,40.6-102,107.2-102c27.6,0,53.9,6.2,63.5,8.6v34.1h-1.4C895,176.8,876.9,162,845.2,162c-46,0-73.5,39.7-73.5,88.1
	c0,51.2,31.4,91.9,77.4,91.9c15.7,0,29.7-4.4,37.9-10.2v-76h29.7v81.7C903.2,341.4,878.6,353.5,846.9,353.5 M227.5,437.4h7v53.6h-7
	v-23.8h-41.2v23.8h-7v-53.6h7v24.3h41.1v-24.3H227.5z M285.3,436.8c-21.4,0-35.2,12.1-35.2,27.3v0.6c0,15.1,14,27.1,35.5,27.1
	c21.1,0,35.1-12.2,35.1-27.3v-0.6C320.7,448.7,306.7,436.8,285.3,436.8 M313.4,464.4c0,12.9-10.6,21.9-27.8,21.9
	c-16.7,0-28.2-8.9-28.2-21.7v-0.6c0-12.7,10.2-21.9,27.9-21.9c17.8,0,27.9,9.7,27.9,21.7v0.6H313.4z M327.2,437.4h51.1v5.4h-22.1
	v48.2h-7v-48.2h-22.1L327.2,437.4L327.2,437.4z M399.2,485.7h40v5.4h-47v-53.6h45.2v5.4h-38.2v18.1h32.2v5.4h-32.2V485.7
	L399.2,485.7z M460.7,485.7h34.6v5.4h-41.6v-53.6h7V485.7z M532.3,460.3c15.7,1.7,24.1,4.9,24.1,15.5c0,9.4-9.2,16-24.7,16
	c-18.1,0-26-7.6-27.3-17h6.8c1.1,6.7,6.2,11.7,20.5,11.7c11.4,0,17.9-4,17.9-10.5c0-6.3-4.8-8.4-19.4-10c-14.8-1.7-23-5.2-23-14.9
	c0-8.2,8.6-14.3,22.7-14.3c14,0,22.8,4.9,24.3,14.8h-6.3c-1.6-7-7.5-9.5-17.9-9.5c-11.3,0-16.2,3.5-16.2,8.9
	C513.9,455.7,517.4,458.5,532.3,460.3 M735.4,453.5v-0.3c0-11.3-10-15.7-22.1-15.7h-25.5v53.6h7v-21.7h17.1l19.2,21.7h8.4
	l-19.7-22.4C727.4,467.4,735.4,462.8,735.4,453.5 M694.8,464.1v-21.3h19c8.4,0,14.6,2.9,14.6,10.5v0.3c0,6.8-5.7,10.5-14.6,10.5
	L694.8,464.1L694.8,464.1z M760.3,485.7h40v5.4h-47v-53.6h45.2v5.4h-38.2v18.1h32.2v5.4h-32.2V485.7z M838.5,460.3
	c15.7,1.7,24.1,4.9,24.1,15.5c0,9.4-9.2,16-24.7,16c-17.9,0-26-7.6-27.3-17h6.8c1.1,6.7,6.2,11.7,20.5,11.7c11.4,0,17.9-4,17.9-10.5
	c0-6.3-4.8-8.4-19.4-10c-14.8-1.7-23-5.2-23-14.9c0-8.2,8.6-14.3,22.7-14.3c14,0,22.8,4.9,24.3,14.8H854c-1.6-7-7.5-9.5-17.9-9.5
	c-11.3,0-16.2,3.5-16.2,8.9C819.9,455.7,823.6,458.5,838.5,460.3 M909.9,436.8c-21.4,0-35.2,12.1-35.2,27.3v0.6
	c0,15.1,13.8,27.1,35.5,27.1c21.1,0,35.1-12.2,35.1-27.3v-0.6C945.3,448.7,931.3,436.8,909.9,436.8 M938,464.4
	c0,12.9-10.6,21.9-27.8,21.9c-16.7,0-28.2-8.9-28.2-21.7v-0.6c0-12.7,10.2-21.9,27.9-21.9s27.9,9.7,27.9,21.7v0.6H938z
	 M1008.6,453.5v-0.3c0-11.3-10-15.7-22.1-15.7H961v53.6h7v-21.7h17.1l19.2,21.7h8.4L993,468.7
	C1000.8,467.4,1008.6,462.8,1008.6,453.5 M968.1,464.1v-21.3h19c8.4,0,14.6,2.9,14.6,10.5v0.3c0,6.8-5.7,10.5-14.6,10.5L968.1,464.1
	L968.1,464.1z M1020,437.4h51.1v5.4H1049v48.2h-7v-48.2H1020L1020,437.4L1020,437.4z M1107.1,460.3c15.7,1.7,24.1,4.9,24.1,15.5
	c0,9.4-9.2,16-24.7,16c-18.1,0-26-7.6-27.3-17h6.8c1.1,6.7,6.2,11.7,20.5,11.7c11.4,0,17.9-4,17.9-10.5c0-6.3-4.8-8.4-19.4-10
	c-14.8-1.7-23-5.2-23-14.9c0-8.2,8.6-14.3,22.7-14.3c14,0,22.8,4.9,24.3,14.8h-6.3c-1.6-7-7.5-9.5-17.9-9.5
	c-11.3,0-16.2,3.5-16.2,8.9C1088.5,455.7,1092.2,458.5,1107.1,460.3 M646.7,463.3H641l-8.4,12.7l-13-13.2
	c8.2-3.2,12.4-8.4,12.4-13.8c0-7.1-5.4-12.4-13.5-12.4c-7.6,0-14.3,4.6-14.3,12.9c0,5.1,2.4,8.7,5.9,11.9
	c-6.8,2.5-13.5,7.1-13.5,15.7c0,9,7.3,14.3,18.2,14.3c7.8,0,13.5-3.5,17.5-7.9l7.1,7.3h7.9l-11.3-11.4L646.7,463.3z M609.6,449.6
	c0-5.4,3.8-8.1,8.6-8.1c5.2,0,8.1,3.2,8.1,7.3c0,4.3-2.9,7.6-10.3,10.8C612.4,456.8,609.6,453.6,609.6,449.6 M614.8,486.5
	c-7.9,0-12.2-3.6-12.2-9.5c0-6.3,4.6-9.8,10.9-12.2l15.4,15.9C625.9,483.9,621.1,486.5,614.8,486.5"/>
</svg>
