<?xml version="1.0" encoding="utf-8"?>
<!-- Generator: Adobe Illustrator 28.2.0, SVG Export Plug-In . SVG Version: 6.00 Build 0)  -->
<svg version="1.1" id="layer" xmlns="http://www.w3.org/2000/svg" xmlns:xlink="http://www.w3.org/1999/xlink" x="0px" y="0px"
	 viewBox="0 0 1063 652" style="enable-background:new 0 0 1063 652;" xml:space="preserve">
<style type="text/css">
	.st0{fill-rule:evenodd;clip-rule:evenodd;fill:#74BE44;}
	.st1{fill:#74BE44;}
	.st2{fill:#F9ED20;}
	.st3{fill:#FBB62F;}
</style>
<g>
	<polygon class="st0" points="483.9,562.9 483.9,499.2 476.7,499.2 476.7,526.9 450.4,526.9 450.4,499.2 443.2,499.2 443.2,562.9 
		450.4,562.9 450.4,532.8 476.7,532.8 476.7,562.9 	"/>
	<path class="st0" d="M563.5,530.9c0,10-1.4,27-14.7,27c-13.4,0-14.9-17-14.9-27c0-10,1.4-26.7,14.9-26.7
		C562.1,504.2,563.5,521,563.5,530.9 M571.5,530.9c0-15.3-3.9-32.7-22.6-32.7s-22.6,17.5-22.6,32.7s4,32.9,22.6,32.9
		C567.4,563.9,571.5,546.1,571.5,530.9"/>
	<polygon class="st0" points="643.4,505.2 643.4,499.3 605.8,499.3 605.8,505.2 620.9,505.2 620.9,562.9 628.2,562.9 628.2,505.2 	
		"/>
	<polygon class="st0" points="712.4,562.9 712.4,556.9 688,556.9 688,532.5 710.5,532.5 710.5,526.6 688,526.6 688,505.2 
		711.7,505.2 711.7,499.2 680.8,499.2 680.8,562.9 	"/>
	<polygon class="st0" points="783.1,562.9 783.1,556.9 760.4,556.9 760.4,499.2 753.1,499.2 753.1,562.9 	"/>
	<path class="st0" d="M853.9,546.1c0-9.5-6.1-13.4-13.4-17.5l-5.9-3.2c-4.5-2.3-10.7-5.5-10.7-11.3c0-6.8,5.9-9.7,12-9.7
		c4.6,0,9.7,1,13.8,2.7V500c-4.5-0.9-8.8-1.7-13.3-1.7c-10.4,0-20.5,4.5-20.5,16.4c0,9.2,6.8,12.6,13.7,16.4l5.6,3.2
		c5.5,3,10.5,5.8,10.5,12.8c0,7.8-6.9,10.8-13.7,10.8c-5.3,0-10.5-1.3-15.4-3.3v7.4c4.8,1.2,9.7,2,14.6,2
		C843.2,563.9,853.9,559.5,853.9,546.1"/>
	<path class="st1" d="M593.8,295.9c11,0,21.6-3.5,30.2-10.5c11.8-10,17.3-25.1,16.3-40.8c-11.5-2.2-23.9,0.6-33.6,8.7
		C593.8,263.7,589.3,280.6,593.8,295.9 M520.2,208.2c0-25.2,7.2-48.6,19.6-68.4c3.6,5.5,8.4,10.4,14.1,14c13.1,8.2,29.3,8.8,44,2.9
		c-1.4-11.7-7.9-22.6-18.6-29.3c-7.8-4.9-16.7-6.8-25.4-5.9c23.5-25.5,57.1-41.7,94.6-41.7c42.1,0,79.5,20.3,102.9,51.6
		c-1.9,1.6-3.8,3.2-5.5,5c-11.7,12.6-15.7,30-12.4,47.3c13.1,0.9,26.4-3.9,35.9-14.1l1.2-1.3c4,12.6,6.2,25.8,6.2,39.8v3
		c-4.5-3.5-9.7-5.9-15.4-7.5c-17.9-4.8-36.1,1.9-47,15.6c6.9,10.1,16.9,17.5,28.9,20.6c10.1,2.7,20.3,2,30-1.3
		c-7.8,31.7-27.3,58.9-53.7,76.5c-1.7-4.8-4.2-9.2-7.5-13.3c-9.7-12-24.8-17.7-40.5-17c-2.5,11.5,0.1,24.1,8.1,33.9
		c3.6,4.3,7.9,7.9,12.7,10.2c-12,4.3-24.5,6.9-37.8,7.5l-25.1-1.3c-36.8-5.5-68.4-26.7-88-56.3c5.6-0.9,11.1-2.6,16.2-5.3
		c15.3-8.1,24.7-23.2,27.1-40.7c-12.1-5-26.3-4.9-38.5,1.7c-7.9,4.2-14.1,10.5-18.2,17.9C523.1,238.5,520.2,223.6,520.2,208.2
		 M614.3,90.3c-6.9,8.5-11,18.9-10.7,30c0.3,15.4,8.5,29.3,21.5,38.4c9.1-7.6,14.7-19,14.4-31.6C639.3,110.5,629,96.4,614.3,90.3"/>
	<path class="st2" d="M650.1,169.5c0-18.6,15-33.6,33.6-33.6s33.6,15,33.6,33.6c0,18.6-15,33.6-33.6,33.6S650.1,188,650.1,169.5"/>
	<path class="st3" d="M586.9,193.2c-0.3-15,11.7-27.3,26.7-27.6c15-0.3,27.3,11.7,27.6,26.5c0.3,15-11.7,27.3-26.5,27.6
		C599.4,220,587.2,208.2,586.9,193.2"/>
	<path class="st2" d="M663.5,247c-0.1-13.4,10.5-24.5,24.1-24.8c13.6-0.1,24.7,10.5,24.8,24.1c0.3,13.4-10.5,24.5-24.1,24.8
		C674.9,271.2,663.6,260.6,663.5,247"/>
	<path class="st1" d="M688.3,392.1h-27.6v53.1c0,11.3,2.7,19.3,15.9,19.3c3.3,0,6.9-0.4,10-1.4v14.7c-4.8,1-9.8,1.4-14.9,1.4
		c-17.3,0-29.9-5.2-29.9-24.2v-62.8h-17.7v-14.6h17.7v-82.2l18.8-11.7v93.9h27.6v14.4H688.3z"/>
	<rect x="98.7" y="288.7" class="st0" width="18.8" height="186.7"/>
	<path class="st0" d="M201,405.8h-37.9c0-2,0.6-4.2,1.4-6.1c3.3-7.5,10.2-11.4,18.3-11.4C193.4,388.4,201,395.3,201,405.8
		 M219.9,418.4v-4.8c0-22.9-11.5-39.8-35.9-39.8c-28.6,0-40.5,20.3-40.5,47.2c0,32.7,14,56.7,49.2,56.7c8.5,0,16.4-1.4,24.8-3.3
		v-14.9c-6.2,2.3-12.1,3.6-18.8,3.6c-24.8,0-36.5-22.5-36.5-44.7L219.9,418.4L219.9,418.4z"/>
	<path class="st0" d="M371.1,475.4v-68.8c0-17.6-6.9-32.7-27-32.7c-13.6,0-23.4,9.1-28.1,21.1h-0.4c-2-13.4-11.7-21.1-25.2-21.1
		c-14.4,0-23.2,9.4-27.7,22.1h-0.4v-19.8h-18.8v99.3h18.8v-42.1c0-12.3,6.1-40.7,22.6-40.7c11.3,0,12.6,7.9,13,17.2
		c0.1,3.9,0.1,7.6,0.1,11.4v54.2h18.8v-47.6c0-11.4,7.5-35.2,21.9-35.2c11.5,0,13.1,7.4,13.6,17.2c0.3,3.8,0.3,7.6,0.3,11.4v54.2
		L371.1,475.4L371.1,475.4z"/>
	<path class="st0" d="M461.4,425.7c0,15.7-2.7,37.4-22.9,37.4c-20.6,0-23.2-21.5-23.2-37.4c0-16,2.5-37.4,23.2-37.4
		C458.8,388.4,461.4,410,461.4,425.7 M482.3,425.7c0-29-11.8-51.9-43.9-51.9c-31.9,0-44,22.8-44,51.9c0,29,12.1,51.9,44,51.9
		C470.2,477.7,482.3,454.5,482.3,425.7"/>
	<path class="st0" d="M583.1,475.4v-68.8c0-17.3-6.8-32.7-26.7-32.7c-15.9,0-25.8,9.4-31.6,23.7h-0.3v-21.4h-18.9v99.3h18.9v-42.1
		c0-14.6,7.9-40.7,26.3-40.7c10.8,0,12.8,6.9,13.4,16.3c0.1,4.2,0.1,8.4,0.1,12.3v54.2L583.1,475.4L583.1,475.4z"/>
	<path class="st0" d="M756.7,394.3v-20.5c-14.6,0-26.1,8.7-30.7,22.4h-0.4v-20.1h-18.8v99.3h18.8v-42.1
		C725.7,411.8,732.7,394.3,756.7,394.3"/>
	<path class="st0" d="M826.7,405.8h-37.9c0-2,0.6-4.2,1.4-6.1c3.3-7.5,10.1-11.4,18.3-11.4C819,388.4,826.7,395.3,826.7,405.8
		 M845.6,418.4v-4.8c0-22.9-11.5-39.8-35.9-39.8c-28.6,0-40.4,20.3-40.4,47.2c0,32.7,14,56.7,49.2,56.7c8.5,0,16.4-1.4,24.8-3.3
		v-14.9c-6.3,2.3-12.1,3.6-18.8,3.6c-24.8,0-36.5-22.5-36.5-44.7L845.6,418.4L845.6,418.4z"/>
	<path class="st0" d="M919.3,405.8h-37.9c0-2,0.6-4.2,1.4-6.1c3.3-7.5,10.2-11.4,18.3-11.4C911.6,388.4,919.3,395.3,919.3,405.8
		 M938.2,418.4v-4.8c0-22.9-11.5-39.8-35.9-39.8c-28.6,0-40.5,20.3-40.5,47.2c0,32.7,14,56.7,49.3,56.7c8.5,0,16.4-1.4,24.8-3.3
		v-14.9c-6.3,2.3-12.1,3.6-18.8,3.6c-24.8,0-36.5-22.5-36.5-44.7L938.2,418.4L938.2,418.4z"/>
	<path class="st1" d="M951.3,364c-6.2,0.1-11.3,5.2-11.1,11.5c0.1,6.2,5.2,11.3,11.4,11.1c6.2-0.1,11.3-5.2,11.1-11.5
		C962.6,368.9,957.5,364,951.3,364 M951.3,362.4c7.1-0.1,13,5.5,13,12.7c0.1,7.1-5.5,13-12.7,13c-7.1,0.1-13-5.6-13-12.7
		C938.5,368.5,944.1,362.6,951.3,362.4"/>
	<path class="st0" d="M954.9,368.8l1.3,0.9l0.7,1.2l0.1,1.4l-0.4,1.9l-1.6,1.3l1.3,1l0.4,2v0.9l0.1,1.3l0.4,0.7v0.4h-3l-0.1-0.7
		l-0.1-1.2v-1.3l-0.4-1.7l-1.7-0.4H949v5.3h-2.7v-13.4h6.5L954.9,368.8z M949,370.8v3.6h3.2l1.4-0.1l0.9-1.4l-0.9-1.7l-1.4-0.1H949
		V370.8z"/>
</g>
</svg>
