<?xml version="1.0" encoding="utf-8"?>
<!-- Generator: Adobe Illustrator 28.2.0, SVG Export Plug-In . SVG Version: 6.00 Build 0)  -->
<svg version="1.0" id="Layer_1" xmlns="http://www.w3.org/2000/svg" xmlns:xlink="http://www.w3.org/1999/xlink" x="0px" y="0px"
	 viewBox="0 0 100 50.5" style="enable-background:new 0 0 100 50.5;" xml:space="preserve">
<style type="text/css">
	.st0{fill:#821A54;}
	.st1{fill:#FFFFFF;}
	.st2{fill-rule:evenodd;clip-rule:evenodd;fill:#821A54;}
</style>
<g>
	<g>
		<path class="st0" d="M49.7,10.2c-6.2,0-11.4,2.4-11.4,5c0,2.6,5.2,5,11.4,5c6.2,0,11.4-2.3,11.4-5C61.1,12.6,55.9,10.2,49.7,10.2"
			/>
		<path class="st0" d="M49.7,9.9c6.1,0,11.7,2.3,11.7,5.2c0,2.9-5.6,5.2-11.7,5.2c-6.1,0-11.7-2.3-11.7-5.2
			C38,12.3,43.6,9.9,49.7,9.9"/>
		<path class="st1" d="M39.5,15.2c0-2.5,4.6-4.6,10.2-4.6s10.2,2.1,10.2,4.6c0,2.5-4.6,4.6-10.2,4.6S39.5,17.7,39.5,15.2"/>
		<path class="st0" d="M44.8,16.4L44.8,16.4c-0.3-0.4-0.5-0.7-0.7-1c1.3,0.7,2.6,1.5,4.1,1.8c0.4,0.1,0.9,0.1,1.2,0
			c0.3-0.3,0.1-1,0.9-1.1c1.3-0.2,2.6,0.2,3.6,0.8c0.2,0.2,0.5,0.3,0.6,0.5l-0.3,1.1c-1.1-1-2.8-1.6-4.3-1.3c-0.7,0.2-0.2,1-1.1,1.1
			c-1.1,0-2.1-0.4-3-0.8c-0.6-0.3-1.3-0.6-1.8-1L44.8,16.4z"/>
		<path class="st0" d="M45.4,14.4l-0.7-1l0.1,0c1.5,0.8,2.9,1.7,4.6,1.9c0.3,0,0.5,0,0.7-0.2c0.2-0.3,0.1-0.9,0.7-1
			c1.5-0.2,3,0.3,4.1,1.2l0.1,0.1c-0.1,0.4-0.2,0.7-0.3,1.1c-1-0.9-2.4-1.4-3.9-1.4c-0.3,0.1-0.7,0.1-0.9,0.4
			c-0.2,0.3-0.1,0.7-0.6,0.8c-0.9,0.2-1.7-0.2-2.5-0.5c-0.9-0.4-1.7-0.8-2.5-1.3L45.4,14.4L45.4,14.4z"/>
		<path class="st0" d="M46,12.5l-0.7-1c0.8,0.4,1.8,1.2,3.8,1.7c0.4,0.1,1,0.2,1.4,0c0.4-0.4,0.2-1.1,1-1.1c1.6-0.1,3.1,0.4,4.1,1.4
			c-0.1,0.4-0.2,0.7-0.3,1.1c-1-0.9-2.4-1.5-3.9-1.4c-0.3,0-0.7,0.1-0.8,0.3c-0.2,0.3-0.1,0.7-0.6,0.8c-0.9,0.2-1.8-0.3-2.6-0.5
			c-0.8-0.4-1.6-0.8-2.4-1.2L46,12.5L46,12.5z"/>
		<path class="st2" d="M20.9,24.2L20.9,24.2c-0.3-0.1-0.6-0.3-1-0.3c-0.9,0-1.6,0.9-1.6,2.4c0,1.7,0.8,2.4,1.5,2.4
			c0.4,0,0.8-0.2,1-0.3l0,0l0.3,0.6l0,0c-0.3,0.2-0.8,0.4-1.4,0.4c-1.6,0-2.4-1.4-2.4-3c0-1.6,0.9-3,2.6-3c0.4,0,0.9,0.1,1.3,0.3
			l0,0L20.9,24.2z"/>
		<path class="st2" d="M24.3,23.4c0.6,0,1,0,1.5,0.2c0.5,0.3,0.7,0.9,0.7,1.2c0,0.7-0.3,1.4-1.4,1.6l1.9,2.8h-1.1l-1.7-2.6h-0.3v2.6
			h-1v-5.9H24.3z M23.9,24v2.1h0.3c0.5,0,1.3,0,1.3-1.1c0-0.5-0.2-0.7-0.4-0.8c-0.1-0.1-0.2-0.1-0.4-0.1c-0.1,0-0.3,0-0.4,0H23.9z"
			/>
		<path class="st2" d="M27.8,26.4c0-2,1.1-3,2.4-3c1,0,2.3,0.7,2.3,2.9c0,2-1,3.1-2.4,3.1C28.8,29.4,27.8,28.4,27.8,26.4L27.8,26.4z
			 M28.9,26.4c0,1.8,0.7,2.4,1.3,2.4c0.5,0,1.3-0.4,1.3-2.4c0-0.8-0.1-2.4-1.2-2.4C29.4,23.9,28.9,24.7,28.9,26.4L28.9,26.4z"/>
		<polygon class="st2" points="34.8,23.4 35.7,27.6 36.7,23.4 37.4,23.4 38.3,27.6 39.3,23.4 40,23.4 38.5,29.3 37.9,29.3 36.9,25 
			35.9,29.3 35.2,29.3 33.8,23.4 		"/>
		<polygon class="st2" points="42.6,23.4 45.2,27.6 45.2,23.4 46,23.4 46,29.3 45.3,29.3 42.6,25.1 42.6,29.3 41.9,29.3 41.9,23.4 
					"/>
		<polygon class="st2" points="51.6,23.4 51.6,24 49.5,24 49.5,26 51.4,26 51.4,26.6 49.5,26.6 49.5,28.7 51.6,28.7 51.6,29.3 
			48.5,29.3 48.5,23.4 		"/>
		<path class="st2" d="M58.3,23.4c0.7,0,1.1,0,1.6,0.3c0.5,0.3,0.6,0.9,0.6,1.2c0,0.9-0.6,1.8-2,1.8h-0.7v2.6h-1v-5.9H58.3z
			 M57.8,24v2.1h0.5c0.6,0,1.2-0.1,1.2-1.1c0-0.5-0.2-0.7-0.4-0.8c-0.1-0.1-0.2-0.1-0.4-0.1c-0.1,0-0.3,0-0.4,0H57.8z"/>
		<polygon class="st2" points="63.4,23.4 63.4,28.7 65.4,28.7 65.4,29.3 62.4,29.3 62.4,23.4 		"/>
		<path class="st2" d="M69.1,23.4l2,5.9h-1l-0.6-1.9h-1.6l-0.6,1.9h-0.7l2-5.9H69.1z M68,26.8h1.2l-0.6-2L68,26.8z"/>
		<polygon class="st2" points="76.3,23.4 76.3,23.9 73.4,28.7 76.4,28.7 76.4,29.3 72.3,29.3 72.3,28.8 75.1,24 72.5,24 72.5,23.4 
					"/>
		<path class="st2" d="M80.1,23.4l2,5.9h-1l-0.6-1.9h-1.6l-0.6,1.9h-0.7l2-5.9H80.1z M79,26.8h1.3l-0.6-2L79,26.8z"/>
		<rect x="22.9" y="32.2" class="st0" width="53.5" height="0.4"/>
		<path class="st2" d="M81.8,24.3h0.1V24H82c0.1,0,0.1,0,0.1,0c0,0,0.1,0.1,0.1,0.2v0.1l0,0l0.1,0c0,0,0,0,0,0c0,0,0,0,0-0.1v-0.1
			c0,0,0-0.1,0-0.1c0,0-0.1-0.1-0.1-0.1c0,0,0.1,0,0.1,0c0,0,0.1-0.1,0.1-0.1c0-0.1,0-0.2-0.1-0.2c0,0-0.1,0-0.2,0h-0.3V24.3z
			 M82.2,23.9c0,0-0.1,0-0.1,0h-0.1v-0.3H82c0.1,0,0.1,0,0.2,0c0,0,0,0.1,0,0.1C82.2,23.9,82.2,23.9,82.2,23.9z M82.6,23.5
			c-0.1-0.1-0.3-0.2-0.5-0.2c-0.2,0-0.3,0.1-0.5,0.2c-0.1,0.1-0.2,0.3-0.2,0.5c0,0.2,0.1,0.3,0.2,0.5c0.1,0.1,0.3,0.2,0.5,0.2
			c0.2,0,0.3-0.1,0.5-0.2c0.1-0.1,0.2-0.3,0.2-0.5C82.7,23.8,82.7,23.6,82.6,23.5z M82.5,23.6c0.1,0.1,0.2,0.3,0.2,0.4
			c0,0.2-0.1,0.3-0.2,0.4c-0.1,0.1-0.2,0.2-0.4,0.2c-0.2,0-0.3-0.1-0.4-0.2c-0.1-0.1-0.2-0.3-0.2-0.4c0-0.2,0.1-0.3,0.2-0.4
			c0.1-0.1,0.3-0.2,0.4-0.2C82.2,23.4,82.4,23.4,82.5,23.6z"/>
	</g>
	<g>
		<path class="st0" d="M32.9,39.7h-0.7v-1.6h-1.6v1.6h-0.7v-3.8h0.7v1.6h1.6v-1.6h0.7V39.7z"/>
		<path class="st0" d="M33.5,38.1v-0.6c0-0.6,0.1-1,0.4-1.2c0.3-0.3,0.7-0.4,1.2-0.4c0.5,0,0.9,0.1,1.1,0.4s0.4,0.7,0.4,1.2v0.6
			c0,0.5-0.1,1-0.4,1.2c-0.3,0.3-0.7,0.4-1.2,0.4s-0.9-0.1-1.1-0.4C33.7,39,33.5,38.6,33.5,38.1z M36,37.5c0-0.7-0.3-1.1-0.8-1.1
			c-0.3,0-0.5,0.1-0.6,0.3s-0.2,0.4-0.2,0.8V38c0,0.3,0.1,0.6,0.2,0.8c0.1,0.2,0.4,0.3,0.6,0.3c0.6,0,0.8-0.3,0.8-1V37.5z"/>
		<path class="st0" d="M38.8,36.5v3.2h-0.7v-3.2H37v-0.6h3v0.6H38.8z"/>
		<path class="st0" d="M41,37.4h1.7v0.6H41v1h2v0.6h-2.7v-3.8H43v0.6h-2V37.4z"/>
		<path class="st0" d="M44.3,35.9V39h2v0.6h-2.7v-3.8H44.3z"/>
		<path class="st0" d="M47.8,38.5h0.7c0,0.2,0.1,0.3,0.2,0.4s0.3,0.1,0.6,0.1c0.5,0,0.8-0.2,0.8-0.5c0-0.2-0.1-0.3-0.2-0.3
			s-0.3-0.1-0.5-0.2L49,38c-0.8-0.1-1.2-0.4-1.2-1.1c0-0.4,0.1-0.6,0.4-0.8s0.6-0.3,1-0.3c0.4,0,0.8,0.1,1,0.3
			c0.2,0.2,0.4,0.5,0.4,0.8H50c0-0.2-0.1-0.3-0.2-0.4c-0.1-0.1-0.3-0.1-0.5-0.1c-0.2,0-0.4,0-0.5,0.1c-0.1,0.1-0.2,0.2-0.2,0.4
			c0,0.1,0.1,0.2,0.2,0.3c0.1,0.1,0.3,0.1,0.5,0.2l0.5,0.1c0.4,0,0.6,0.2,0.8,0.3c0.2,0.2,0.3,0.4,0.3,0.7c0,0.4-0.1,0.7-0.4,0.9
			c-0.3,0.2-0.6,0.3-1.1,0.3c-0.5,0-0.8-0.1-1.1-0.3C47.9,39.2,47.8,38.9,47.8,38.5z"/>
		<path class="st0" d="M51.2,38.1v-0.6c0-0.6,0.1-1,0.4-1.2s0.7-0.4,1.2-0.4c0.5,0,0.9,0.1,1.1,0.4s0.4,0.7,0.4,1.2v0.6
			c0,0.5-0.1,1-0.4,1.2c-0.3,0.3-0.7,0.4-1.2,0.4c-0.5,0-0.9-0.1-1.1-0.4S51.2,38.6,51.2,38.1z M53.7,37.5c0-0.7-0.3-1.1-0.8-1.1
			c-0.3,0-0.5,0.1-0.6,0.3C52,36.9,52,37.1,52,37.5V38c0,0.3,0.1,0.6,0.2,0.8c0.1,0.2,0.4,0.3,0.6,0.3c0.6,0,0.8-0.3,0.8-1V37.5z"/>
		<path class="st0" d="M55.7,38.9l-0.3,0.7h-0.8l1.6-3.8h0.6l1.6,3.8h-0.8l-0.3-0.7H55.7z M56.5,36.8l-0.6,1.5h1.2L56.5,36.8z"/>
		<path class="st0" d="M59.4,35.9V39h2v0.6h-2.7v-3.8H59.4z"/>
		<path class="st0" d="M62.8,36.5v3.2h-0.7v-3.2H61v-0.6h3v0.6H62.8z"/>
		<path class="st0" d="M65,37.4h1.7v0.6H65v1h2v0.6h-2.7v-3.8H67v0.6h-2V37.4z"/>
		<path class="st0" d="M68.3,37.4H70v0.6h-1.7v1h2v0.6h-2.7v-3.8h2.7v0.6h-2V37.4z"/>
	</g>
</g>
<g>
</g>
<g>
</g>
<g>
</g>
<g>
</g>
<g>
</g>
<g>
</g>
</svg>
