<?xml version="1.0" encoding="utf-8"?>
<!-- Generator: Adobe Illustrator 28.2.0, SVG Export Plug-In . SVG Version: 6.00 Build 0)  -->
<svg version="1.1" id="Layer_1" xmlns="http://www.w3.org/2000/svg" xmlns:xlink="http://www.w3.org/1999/xlink" x="0px" y="0px"
	 viewBox="0 0 230 48" style="enable-background:new 0 0 230 48;" xml:space="preserve">
<style type="text/css">
	.st0{fill:#FFFFFF;}
</style>
<g>
	<rect x="111" y="31.7" class="st0" width="100.1" height="1.2"/>
	<rect x="18.5" y="31.7" class="st0" width="68.7" height="1.2"/>
	<path class="st0" d="M66.2,22.2c-0.6,1.2-1.2,2.2-2,3c-0.8,0.8-1.8,1.6-3,2C60,27.6,58.8,28,57.6,28c-1.4,0-2.6-0.2-3.8-0.8
		c-1.2-0.6-2.2-1.2-3-2.2c-0.8-0.8-1.4-2-2-3c-0.4-1.2-0.6-2.4-0.6-3.6s0.2-2.6,0.8-3.6c0.6-1.2,1.2-2.2,2-3c0.8-0.8,1.8-1.6,3-2
		c1.2-0.6,2.4-0.8,3.6-0.8c1.6,0,2.8,0.2,4,0.8c1.2,0.6,2.2,1.2,3,2.2s1.4,2,1.8,3c0.4,1.2,0.6,2.4,0.6,3.6
		C67.1,19.8,66.6,21.2,66.2,22.2 M63.8,13.9c0-0.4-0.4-0.8-0.6-1.2s-0.6-0.6-1.2-0.8c-0.4-0.2-1-0.2-1.6-0.2c-0.4,0-1,0-1.4,0.2
		c-0.4,0.2-0.8,0.4-1.2,0.8c-0.4,0.4-0.6,0.6-0.8,1.2c-0.2,0.4-0.4,1-0.4,1.4c0,0.6,0,1,0.2,1.6c0.2,0.4,0.4,1,0.8,1.2
		c0.4,0.4,0.8,0.6,1.2,0.8c0.4,0.2,1,0.4,1.6,0.4c0.4,0,1,0,1.4-0.2c0.4-0.2,0.8-0.4,1.2-0.8c0.4-0.4,0.6-0.8,0.8-1.2
		c0.2-0.4,0.2-1,0.2-1.6C64,14.9,64,14.3,63.8,13.9"/>
	<path class="st0" d="M36.8,27.8V16.5H31v11.3H18.7c0.6-0.4,1-1.2,1.2-2c0.4-0.8,0.6-1.8,0.6-3c0.2-1,0.2-2.4,0.2-3.6
		c0-1.4,0-2.6,0-4s0-2.8,0-4s-0.2-2.4-0.2-3.6c-0.2-1-0.4-2-0.6-2.8c-0.4-0.8-0.8-1.6-1.2-2H31v11.5h5.8V2.4h12.3
		c-0.6,0.6-1,1.2-1.2,2c-0.2,1-0.6,1.8-0.6,3c-0.2,1-0.2,2.2-0.2,3.6c0,1.2,0,2.6,0,4s0,2.8,0,4c0,1.4,0.2,2.6,0.2,3.6
		c0.2,1,0.4,2,0.6,3c0.4,0.8,0.8,1.4,1.2,2H36.8z"/>
	<path class="st0" d="M77.5,27.8c0.4-0.6,0.8-1,1.2-1.6c0.4-0.6,0.6-1.4,0.8-2.2c0.4-2.4,0.2-4.8,0.2-7.3c0-0.8-0.2-1.6-1-2.2
		c-0.8-0.6-1.6-0.2-2.2,0.6c-0.2,0.4-0.2,1-0.2,1.4c0,3.6,0,7.3,0,10.7c0,0.4,0,0.4-0.4,0.4c-2.8,0-5.6,0-8.5,0
		c-0.2,0-0.4,0.2-0.4,0s0.2-0.2,0.2-0.2c0.8-0.6,1.2-1.6,1.4-2.4c0.2-1,0.4-2,0.4-3.2c0-1.8,0-3.6,0-5.2c0-1.2-0.2-2.4-0.8-3.6
		c-0.4-0.6-0.6-1-1.2-1.4c-0.2,0-0.4-0.2-0.2-0.4c0-0.2,0.2-0.2,0.4-0.2c2.8,0,5.4,0,8.3,0c0.8,0,1,0.2,0.8,1c0,0.2,0,0.2,0,0.4
		c0.4-0.6,0.8-1.2,1.4-1.4c0.8-0.4,1.6-0.8,2.6-0.8c1.2,0,2.2,0,3.4,0.4c1.4,0.6,2.4,1.4,3,2.6c0,0.2,0,0.4,0.2,0.4s0.2-0.2,0.2-0.4
		c0.6-1.4,1.8-2.2,3.2-2.6c2-0.6,4-0.2,5.6,1c0.8,0.6,1.4,1.6,1.6,2.8c0,0.4,0,0.6,0,1c0,4.2,0,8.3,0,12.5c0,1.8,0.8,3.4,2.2,4.4
		c1.2,0.8,2.6,1,4.2,0.6c1.4-0.4,2.8-1.2,3.8-2.2c0,0,0.2-0.2,0.4-0.2s0,0.2,0,0.2c0,0.8-0.4,1.6-0.6,2.2c-0.8,1.6-1.8,3-3.4,4
		c-1.4,0.8-2.8,1.2-4.2,1.2c-1.2,0-2.4-0.2-3.6-0.6c-1.2-0.4-2.4-1-3.2-1.8c-0.6-0.6-1.2-1.4-1.6-2.4c-0.6-1.4-0.8-2.8-1-4.2
		c0-1.2,0-2.4,0-3.6c0-3,0-5.8,0-8.9c0-0.6,0-1.2-0.2-1.8c-0.4-0.6-1.2-1-1.8-1c-0.8,0.2-1.4,0.8-1.4,1.6c0,3.8,0,7.7,0,11.3
		c0,0.4-0.2,0.6-0.6,0.6c-2.8,0-5.8,0-8.7,0C77.9,27.8,77.7,27.8,77.5,27.8"/>
	<path class="st0" d="M200.4,22.4c0.6-0.2,1.2-0.6,1.8-0.6c0.8,0,1.6-0.2,2.4,0c0.4,0,0.6,0.2,0.8,0c0.2-0.2,0.2-0.4,0.2-0.8
		c-0.2-0.4-0.4-0.6-0.8-0.6l0,0c-0.2,0-0.4,0.2-0.4,0s0.2-0.4,0.2-0.6c0.6-0.6,1.4-0.6,2-0.6c0.8,0.2,1.6,0.4,2.2,0.8
		c1,0.6,1.4,1.6,1.4,2.6c0.2,1.2-0.2,2.4-1,3.4c-0.8,0.8-1.8,1.4-2.8,1.4c-1.4,0-2.6-0.2-3.8-0.8c-1.2-0.4-2.4-0.8-3.6-0.6
		c-1.4,0.2-2.6,0.6-3.8,1c-0.6,0.2-0.6,0.2-0.6-0.4c0-1.4,0-2.8,0.6-4.2c0.6-1.6,1.4-2.8,2.8-3.8c0.8-0.6,1.8-1,2.8-1.4
		c1-0.4,2-0.8,2.8-1.6c0.2-0.2,0.4-0.6,0.4-0.8c0-0.2,0-0.4-0.4-0.4c-1,0-1.8-0.2-2.8,0c-0.8,0.2-1.4,0.6-0.8,1.4l0.2,0.2l0.2,0.2
		c0,0.2-0.2,0.2-0.2,0.2c-0.8,0.2-1.8,0.2-2.6,0c-0.8-0.2-2-1.4-2.2-2.4c-0.2-1.2-0.2-2.2,0.4-3.2c0.6-1.4,1.6-2.2,3.2-2.4
		c1.6-0.2,3,0.2,4.6,0.6c0.6,0.2,1.4,0.4,2.2,0.4c1,0.2,2,0,3,0c0.8-0.2,1.4-0.4,2-0.6c0.4-0.2,0.6-0.2,0.6,0.2c0,2-0.6,3.8-1.8,5.4
		c-0.6,0.8-1.6,1.4-2.6,1.8c-1.2,0.6-2.4,0.8-3.4,1.6c-1.2,1-2.2,2.2-2.4,3.8C200.4,22,200.4,22.2,200.4,22.4"/>
	<path class="st0" d="M169.8,27.4c-0.4-0.4-0.8-0.8-1.2-1.4c-0.6-1.4-0.8-3-0.8-4.6c0-2,0-3.8,0-5.8c0-1.8,0.6-3.4,1.8-4.8
		c0-0.2,0.2-0.2,0.2-0.4s-0.2,0-0.4,0c-2.8,0-5.6,0.2-8.5,0c0,0,0,0-0.2,0c-0.4,0-0.4,0.2-0.4,0.4c0,0.4,0,0.6-0.2,1
		c-0.4-0.4-0.8-0.8-1.4-1c-1.8-1.2-4-1.8-6.2-1c-2,0.6-3.4,2.2-4.6,4c-0.6,1-1,2-1.2,3.2c-0.2,1-0.2,2.2-0.2,3.2
		c0,0.8,0.2,1.6,0.4,2.4c0.4,1.2,1,2.4,1.8,3.4c1,1.4,2.4,2,4,2.6c1.6,0.2,2.4,0.2,3.4,0.2c0.8,0,1.4-0.2,2.2-0.4
		c0.8-0.4,1.6-0.8,2.2-1.2c0.4-0.2,0.4,0,0.4,0.2s0,0.4,0,0.4c0.2,0.2,0.4,0.2,0.4,0.2c0.8,0,7.5,0,7.9,0c0,0,0.2,0,0.6,0h0.2l0,0
		C170,27.4,169.8,27.4,169.8,27.4 M157.5,19.8c-1.4,0-3.4-1.6-3.4-3.4c0-1.6,1.6-3.6,3.6-3.4c1.8,0,3.6,1.4,3.4,3.6
		C161.1,18.2,159.5,19.8,157.5,19.8"/>
	<path class="st0" d="M117.6,22.8c-0.6,1.2-1.2,2.2-2,3c-0.8,0.8-1.8,1.6-3,2c-1.2,0.4-2.4,0.8-3.6,0.8c-1.4,0-2.8-0.2-4-0.8
		c-1.2-0.6-2.2-1.2-3-2c-0.8-0.8-1.6-2-2-3.2s-0.8-2.4-0.8-3.8c0-1.4,0.2-2.6,0.8-3.8s1.2-2.2,2.2-3c0.8-0.8,2-1.6,3-2
		c1.2-0.4,2.4-0.8,3.6-0.8c1.2,0,2.4,0.2,3.4,0.6c1.2,0.4,2.2,1,3,1.8c0.8,0.8,1.6,1.6,2,2.6c0.6,1,0.8,1.8,0.8,2.8h-10.5
		c0,0.8,0.2,1.4,0.4,2c0.2,0.6,0.6,1.2,1.2,1.8c0.6,0.6,1.2,1,1.8,1.2c0.6,0.4,1.4,0.4,2.2,0.4c0.6,0,1.2-0.2,1.6-0.4
		c0.4-0.2,1-0.6,1.4-0.8c0.4-0.4,0.8-0.8,1-1.2c0.4-0.4,0.6-1,0.8-1.4l0,0v0.6C118.4,20.6,118,21.8,117.6,22.8 M112.6,11.9
		c-0.4-0.4-0.8-0.6-1.4-0.6c-0.4,0-0.8,0.2-1.2,0.4c-0.4,0.2-0.8,0.6-1.2,1s-0.6,0.8-0.8,1.4c-0.2,0.4-0.2,1-0.2,1.4h2.8
		c0.8,0,1.4-0.2,2-0.4c0.4-0.4,0.8-0.8,0.8-1.6C113,12.7,112.8,12.1,112.6,11.9"/>
	<path class="st0" d="M144.8,23.4c-0.6,1.2-1.4,2.2-2.4,3c-1,0.8-2,1.4-3.4,1.8c-1.2,0.4-2.4,0.6-3.8,0.6c-1.4,0-2.6,0-3.4-0.2
		c-1-0.2-1.8-0.2-2.4-0.4c-0.6-0.2-1.4-0.2-1.8-0.4c-0.6-0.2-1.2-0.2-1.8-0.2c-0.4,0-0.8,0-1,0.2c-0.2,0.2-0.6,0.4-0.8,0.6v-1
		c0-0.6,0-1.2,0-2s0-1.6,0-2.6v-3c0.2,0.6,0.4,1,0.6,1.4c0.2,0.4,0.4,0.6,0.6,1.2c0.2,0.4,0.6,0.8,1,1.4c0.4,0.4,0.8,0.8,1.6,1.2
		c0.6,0.4,1.4,0.6,2.2,1c0.8,0.2,2,0.4,3.2,0.4c0.2,0,0.6,0,1-0.2c0.4-0.2,0.6-0.4,1-0.6c0.2-0.2,0.6-0.4,0.8-0.8
		c0.2-0.4,0.2-0.6,0.2-1c0-0.6-0.2-1.2-0.6-1.6c-0.4-0.4-0.8-0.8-1.2-1.2c-0.6-0.4-1.2-0.6-1.8-0.8c-0.6-0.2-1.2-0.4-2-0.6
		c-0.6-0.2-1.2-0.4-1.8-0.6c-0.6-0.2-1-0.4-1.2-0.4c-0.8-0.4-1.4-0.8-2-1.2c-0.6-0.4-1-0.8-1.4-1.4s-0.8-1.2-1-2
		c-0.2-0.8-0.4-1.6-0.4-2.8c0-1.4,0.2-2.6,0.8-3.6c0.6-1,1.2-2,2.2-2.8c0.8-0.8,1.8-1.2,3-1.6c1.2-0.4,2.4-0.6,3.6-0.6h12.1v8.3
		c-0.4-0.8-1-1.6-1.6-2.4c-0.6-0.8-1.4-1.4-2.2-2s-1.6-1-2.6-1.2c-1-0.2-1.8-0.4-2.8-0.4c-0.2,0-0.6,0-1,0c-0.4,0-0.6,0.2-1,0.4
		c-0.4,0.2-0.6,0.4-0.8,0.8c-0.2,0.4-0.4,0.8-0.4,1.2c0,0.6,0.2,1,0.4,1.4c0.2,0.4,0.6,0.8,1,1c0.4,0.2,0.8,0.4,1.4,0.6
		c0.6,0.2,1.2,0.4,1.6,0.6c0.6,0,1.2,0.2,1.6,0.4c0.4,0.2,1,0.4,1.4,0.4c0.8,0.4,1.8,0.8,2.6,1.2s1.4,1,2,1.6c0.6,0.6,1,1.4,1.2,2.2
		c0.4,0.8,0.4,1.8,0.4,2.8C145.6,21,145.4,22.2,144.8,23.4"/>
	<path class="st0" d="M192.2,27.2L192.2,27.2c-0.8-0.8-1-1.6-1.2-2.4c-0.2-1-0.4-1.8-0.4-2.8c0-2.2,0-4.2,0-6.4c0-0.6,0-1.2,0.2-1.6
		c0.2-1.2,0.8-2.2,1.6-3c0.2-0.2,0.4-0.2,0.2-0.4c0-0.2-0.4,0-0.4,0c-2.2,0-4.4,0-6.6,0c-0.4,0-0.8,0-1.2,0c-1,0-1,0-1,1
		c0,0.2,0,0.2,0,0.4c-0.2,0-0.2,0-0.4-0.2c-1.2-1-2.4-1.6-3.8-2c-1.6-0.4-3-0.2-4.2,0.6c-1.6,0.4-2.6,1.4-3.4,2.6
		c-1.2,1.6-1.6,3.4-2,5.4c-0.2,1.4,0,3,0.6,4.4c0.8,2.2,2.2,4.2,4.4,5.4c1.8,0.8,3.6,1,5.4,0.4c1-0.2,2-0.8,3-1.4
		c0.2-0.2,0.4-0.2,0.4,0.2s0.2,0.6,0.6,0.6c1.4,0,2.8,0,4,0c0.4,0,3.6,0,4,0c0.2,0,0.2,0,0.4,0l0,0c0,0,0,0,0-0.2
		C192.4,27.4,192.2,27.2,192.2,27.2 M180.3,19.8c-2,0-3.4-1.6-3.4-3.4c0-1.8,1.4-3.6,3.4-3.4c1.8,0,3.4,1.6,3.4,3.4
		S182.3,19.8,180.3,19.8"/>
	<g>
		<path class="st0" d="M143.4,45.4l1-6.4H142l0.2-2h7.5l-0.2,2H147l-1,6.4H143.4z"/>
		<path class="st0" d="M158.7,45.4h-2.8l-1-3h-0.4l-0.4,3h-2.6l1.2-8.7h3.6c0.6,0,1,0,1.2,0.2c0.4,0.2,0.6,0.2,0.8,0.4
			c0.2,0.2,0.4,0.4,0.4,0.8c0,0.2,0.2,0.6,0.2,0.8c0,0.8-0.2,1.2-0.4,1.6c-0.4,0.4-0.8,0.8-1.2,1L158.7,45.4z M155.1,40.5
			c0.2,0,0.4,0,0.4,0c0.2,0,0.2,0,0.4-0.2c0.2,0,0.2-0.2,0.4-0.4c0-0.2,0.2-0.4,0.2-0.6s0-0.4-0.2-0.4c-0.2-0.2-0.4-0.2-0.6-0.2
			h-0.6l-0.2,1.8C154.9,40.5,155.1,40.5,155.1,40.5z"/>
		<path class="st0" d="M168.2,36.7l1.8,8.7h-2.8l-0.4-1.6h-2.4l-0.8,1.6h-2.8l4-8.7C164.8,36.7,168.2,36.7,168.2,36.7z M166.4,39.1
			L166.4,39.1l-1.2,2.6h1.6L166.4,39.1z"/>
		<path class="st0" d="M172.8,45.4l1.2-8.7h3.4c0.6,0,1.2,0,1.6,0.2s0.8,0.4,1.2,0.6c0.4,0.2,0.6,0.6,0.6,1c0.2,0.4,0.2,0.8,0.2,1.4
			c0,0.8-0.2,1.4-0.4,2c-0.2,0.6-0.6,1.2-1,1.6c-0.4,0.4-1,0.8-1.6,1c-0.6,0.2-1.4,0.4-2.2,0.4h-3V45.4z M176.2,43.3
			c0.8,0,1.4-0.2,1.8-0.8c0.4-0.4,0.6-1.2,0.6-2.4c0-0.6-0.2-1-0.4-1.2s-0.6-0.4-1.2-0.4h-0.6l-0.6,4.6h0.4V43.3z"/>
		<path class="st0" d="M183.9,45.4l1.2-8.7h2.6l-1.2,8.7H183.9z"/>
		<path class="st0" d="M194.8,45.4l-1.6-5l0,0l-0.6,5h-2.4l1.2-8.7h2.8l1.8,5.2l0,0l0.6-5.2h2.2l-1.2,8.7H194.8z"/>
		<path class="st0" d="M209.3,45.4h-1.8l-0.2-1c-0.2,0.2-0.2,0.4-0.4,0.6c-0.2,0.2-0.4,0.2-0.6,0.4c-0.2,0-0.4,0.2-0.6,0.2
			s-0.4,0-0.8,0c-0.6,0-1,0-1.4-0.2c-0.4-0.2-0.8-0.4-1-0.8c-0.2-0.4-0.4-0.6-0.6-1c-0.2-0.4-0.2-0.8-0.2-1.4c0-0.8,0-1.4,0.4-2.2
			c0.2-0.6,0.6-1.2,1-1.8c0.4-0.4,1-0.8,1.6-1.2c0.6-0.2,1.4-0.4,2.2-0.4c1,0,1.8,0.2,2.4,0.8c0.6,0.4,0.8,1.2,0.8,2.4l-2.4,0.2
			c0-0.2,0-0.2,0-0.4c0-0.2,0-0.4-0.2-0.4c0-0.2-0.2-0.2-0.4-0.4c-0.2,0-0.4-0.2-0.6-0.2c-0.4,0-0.8,0-1,0.2s-0.4,0.4-0.6,0.8
			c-0.2,0.4-0.2,0.6-0.4,1c0,0.4,0,0.8,0,1.2c0,0.2,0,0.4,0,0.6c0,0.2,0.2,0.4,0.2,0.6c0.2,0.2,0.2,0.2,0.4,0.4
			c0.2,0,0.4,0.2,0.6,0.2c0.4,0,0.8,0,1-0.2c0.2-0.2,0.4-0.4,0.4-0.8l0,0h-0.8l0.2-1.6h3.4L209.3,45.4z"/>
	</g>
</g>
</svg>
