<?xml version="1.0" encoding="utf-8"?>
<!-- Generator: Adobe Illustrator 28.2.0, SVG Export Plug-In . SVG Version: 6.00 Build 0)  -->
<svg version="1.1" id="Layer_1" xmlns="http://www.w3.org/2000/svg" xmlns:xlink="http://www.w3.org/1999/xlink" x="0px" y="0px"
	 viewBox="0 0 129 29" style="enable-background:new 0 0 129 29;" xml:space="preserve">
<style type="text/css">
	.st0{fill:#C42126;}
	.st1{fill:#231F20;}
</style>
<g>
	<rect x="62.6" y="18.4" class="st0" width="49.7" height="0.6"/>
	<rect x="16.7" y="18.4" class="st0" width="34.1" height="0.6"/>
	<path class="st0" d="M40.4,13.7c-0.3,0.6-0.6,1.1-1,1.5c-0.4,0.4-0.9,0.8-1.5,1c-0.6,0.2-1.2,0.4-1.8,0.4c-0.7,0-1.3-0.1-1.9-0.4
		c-0.6-0.3-1.1-0.6-1.5-1.1c-0.4-0.4-0.7-1-1-1.5c-0.2-0.6-0.3-1.2-0.3-1.8c0-0.6,0.1-1.3,0.4-1.8c0.3-0.6,0.6-1.1,1-1.5
		c0.4-0.4,0.9-0.8,1.5-1c0.6-0.3,1.2-0.4,1.8-0.4c0.8,0,1.4,0.1,2,0.4c0.6,0.3,1.1,0.6,1.5,1.1c0.4,0.5,0.7,1,0.9,1.5
		c0.2,0.6,0.3,1.2,0.3,1.8C40.8,12.5,40.6,13.2,40.4,13.7 M39.2,9.6C39.2,9.4,39,9.2,38.9,9c-0.1-0.2-0.3-0.3-0.6-0.4
		c-0.2-0.1-0.5-0.1-0.8-0.1c-0.2,0-0.5,0-0.7,0.1c-0.2,0.1-0.4,0.2-0.6,0.4c-0.2,0.2-0.3,0.3-0.4,0.6c-0.1,0.2-0.2,0.5-0.2,0.7
		c0,0.3,0,0.5,0.1,0.8c0.1,0.2,0.2,0.5,0.4,0.6c0.2,0.2,0.4,0.3,0.6,0.4c0.2,0.1,0.5,0.2,0.8,0.2c0.2,0,0.5,0,0.7-0.1
		c0.2-0.1,0.4-0.2,0.6-0.4c0.2-0.2,0.3-0.4,0.4-0.6c0.1-0.2,0.1-0.5,0.1-0.8C39.3,10.1,39.3,9.8,39.2,9.6"/>
	<path class="st0" d="M25.8,16.5v-5.6h-2.9v5.6h-6.1c0.3-0.2,0.5-0.6,0.6-1c0.2-0.4,0.3-0.9,0.3-1.5c0.1-0.5,0.1-1.2,0.1-1.8
		c0-0.7,0-1.3,0-2c0-0.7,0-1.4,0-2c0-0.6-0.1-1.2-0.1-1.8c-0.1-0.5-0.2-1-0.3-1.4c-0.2-0.4-0.4-0.8-0.6-1h6.1v5.7h2.9V3.9h6.1
		c-0.3,0.3-0.5,0.6-0.6,1C31.2,5.4,31,5.8,31,6.4c-0.1,0.5-0.1,1.1-0.1,1.8c0,0.6,0,1.3,0,2c0,0.7,0,1.4,0,2c0,0.7,0.1,1.3,0.1,1.8
		c0.1,0.5,0.2,1,0.3,1.5c0.2,0.4,0.4,0.7,0.6,1H25.8z"/>
	<path class="st0" d="M46,16.5c0.2-0.3,0.4-0.5,0.6-0.8c0.2-0.3,0.3-0.7,0.4-1.1c0.2-1.2,0.1-2.4,0.1-3.6c0-0.4-0.1-0.8-0.5-1.1
		c-0.4-0.3-0.8-0.1-1.1,0.3c-0.1,0.2-0.1,0.5-0.1,0.7c0,1.8,0,3.6,0,5.3c0,0.2,0,0.2-0.2,0.2c-1.4,0-2.8,0-4.2,0
		c-0.1,0-0.2,0.1-0.2,0c0-0.1,0.1-0.1,0.1-0.1c0.4-0.3,0.6-0.8,0.7-1.2c0.1-0.5,0.2-1,0.2-1.6c0-0.9,0-1.8,0-2.6
		c0-0.6-0.1-1.2-0.4-1.8c-0.2-0.3-0.3-0.5-0.6-0.7c-0.1,0-0.2-0.1-0.1-0.2c0-0.1,0.1-0.1,0.2-0.1c1.4,0,2.7,0,4.1,0
		c0.4,0,0.5,0.1,0.4,0.5c0,0.1,0,0.1,0,0.2c0.2-0.3,0.4-0.6,0.7-0.7c0.4-0.2,0.8-0.4,1.3-0.4c0.6,0,1.1,0,1.7,0.2
		c0.7,0.3,1.2,0.7,1.5,1.3c0,0.1,0,0.2,0.1,0.2c0.1,0,0.1-0.1,0.1-0.2c0.3-0.7,0.9-1.1,1.6-1.3c1-0.3,2-0.1,2.8,0.5
		c0.4,0.3,0.7,0.8,0.8,1.4c0,0.2,0,0.3,0,0.5c0,2.1,0,4.1,0,6.2c0,0.9,0.4,1.7,1.1,2.2c0.6,0.4,1.3,0.5,2.1,0.3
		c0.7-0.2,1.4-0.6,1.9-1.1c0,0,0.1-0.1,0.2-0.1c0.1,0,0,0.1,0,0.1c0,0.4-0.2,0.8-0.3,1.1c-0.4,0.8-0.9,1.5-1.7,2
		c-0.7,0.4-1.4,0.6-2.1,0.6c-0.6,0-1.2-0.1-1.8-0.3c-0.6-0.2-1.2-0.5-1.6-0.9c-0.3-0.3-0.6-0.7-0.8-1.2c-0.3-0.7-0.4-1.4-0.5-2.1
		c0-0.6,0-1.2,0-1.8c0-1.5,0-2.9,0-4.4c0-0.3,0-0.6-0.1-0.9c-0.2-0.3-0.6-0.5-0.9-0.5c-0.4,0.1-0.7,0.4-0.7,0.8c0,1.9,0,3.8,0,5.6
		c0,0.2-0.1,0.3-0.3,0.3c-1.4,0-2.9,0-4.3,0C46.2,16.5,46.1,16.5,46,16.5"/>
	<path class="st0" d="M107,13.8c0.3-0.1,0.6-0.3,0.9-0.3c0.4,0,0.8-0.1,1.2,0c0.2,0,0.3,0.1,0.4,0c0.1-0.1,0.1-0.2,0.1-0.4
		c-0.1-0.2-0.2-0.3-0.4-0.3c0,0,0,0,0,0c-0.1,0-0.2,0.1-0.2,0c0-0.1,0.1-0.2,0.1-0.3c0.3-0.3,0.7-0.3,1-0.3c0.4,0.1,0.8,0.2,1.1,0.4
		c0.5,0.3,0.7,0.8,0.7,1.3c0.1,0.6-0.1,1.2-0.5,1.7c-0.4,0.4-0.9,0.7-1.4,0.7c-0.7,0-1.3-0.1-1.9-0.4c-0.6-0.2-1.2-0.4-1.8-0.3
		c-0.7,0.1-1.3,0.3-1.9,0.5c-0.3,0.1-0.3,0.1-0.3-0.2c0-0.7,0-1.4,0.3-2.1c0.3-0.8,0.7-1.4,1.4-1.9c0.4-0.3,0.9-0.5,1.4-0.7
		c0.5-0.2,1-0.4,1.4-0.8c0.1-0.1,0.2-0.3,0.2-0.4c0-0.1,0-0.2-0.2-0.2c-0.5,0-0.9-0.1-1.4,0c-0.4,0.1-0.7,0.3-0.4,0.7
		c0,0,0.1,0.1,0.1,0.1c0,0,0.1,0.1,0.1,0.1c0,0.1-0.1,0.1-0.1,0.1c-0.4,0.1-0.9,0.1-1.3,0c-0.4-0.1-1-0.7-1.1-1.2
		c-0.1-0.6-0.1-1.1,0.2-1.6c0.3-0.7,0.8-1.1,1.6-1.2c0.8-0.1,1.5,0.1,2.3,0.3c0.3,0.1,0.7,0.2,1.1,0.2c0.5,0.1,1,0,1.5,0
		c0.4-0.1,0.7-0.2,1-0.3c0.2-0.1,0.3-0.1,0.3,0.1c0,1-0.3,1.9-0.9,2.7c-0.3,0.4-0.8,0.7-1.3,0.9c-0.6,0.3-1.2,0.4-1.7,0.8
		c-0.6,0.5-1.1,1.1-1.2,1.9C107,13.6,107,13.7,107,13.8"/>
	<path class="st0" d="M91.8,16.3c-0.2-0.2-0.4-0.4-0.6-0.7c-0.3-0.7-0.4-1.5-0.4-2.3c0-1,0-1.9,0-2.9c0-0.9,0.3-1.7,0.9-2.4
		c0-0.1,0.1-0.1,0.1-0.2c0-0.1-0.1,0-0.2,0c-1.4,0-2.8,0.1-4.2,0c0,0,0,0-0.1,0c-0.2,0-0.2,0.1-0.2,0.2c0,0.2,0,0.3-0.1,0.5
		c-0.2-0.2-0.4-0.4-0.7-0.5c-0.9-0.6-2-0.9-3.1-0.5c-1,0.3-1.7,1.1-2.3,2c-0.3,0.5-0.5,1-0.6,1.6c-0.1,0.5-0.1,1.1-0.1,1.6
		c0,0.4,0.1,0.8,0.2,1.2c0.2,0.6,0.5,1.2,0.9,1.7c0.5,0.7,1.2,1,2,1.3C84.1,17,84.5,17,85,17c0.4,0,0.7-0.1,1.1-0.2
		c0.4-0.2,0.8-0.4,1.1-0.6c0.2-0.1,0.2,0,0.2,0.1c0,0.1,0,0.2,0,0.2c0.1,0.1,0.2,0.1,0.2,0.1c0.4,0,3.7,0,3.9,0c0,0,0.1,0,0.3,0
		c0,0,0.1,0,0.1,0c0,0,0,0,0,0C91.9,16.3,91.8,16.3,91.8,16.3 M85.7,12.5c-0.7,0-1.7-0.8-1.7-1.7C84,10,84.8,9,85.8,9.1
		c0.9,0,1.8,0.7,1.7,1.8C87.5,11.7,86.7,12.5,85.7,12.5"/>
	<path class="st0" d="M65.9,14c-0.3,0.6-0.6,1.1-1,1.5c-0.4,0.4-0.9,0.8-1.5,1c-0.6,0.2-1.2,0.4-1.8,0.4c-0.7,0-1.4-0.1-2-0.4
		c-0.6-0.3-1.1-0.6-1.5-1c-0.4-0.4-0.8-1-1-1.6s-0.4-1.2-0.4-1.9c0-0.7,0.1-1.3,0.4-1.9c0.3-0.6,0.6-1.1,1.1-1.5
		c0.4-0.4,1-0.8,1.5-1c0.6-0.2,1.2-0.4,1.8-0.4c0.6,0,1.2,0.1,1.7,0.3c0.6,0.2,1.1,0.5,1.5,0.9c0.4,0.4,0.8,0.8,1,1.3
		c0.3,0.5,0.4,0.9,0.4,1.4h-5.2c0,0.4,0.1,0.7,0.2,1c0.1,0.3,0.3,0.6,0.6,0.9c0.3,0.3,0.6,0.5,0.9,0.6c0.3,0.2,0.7,0.2,1.1,0.2
		c0.3,0,0.6-0.1,0.8-0.2c0.2-0.1,0.5-0.3,0.7-0.4c0.2-0.2,0.4-0.4,0.5-0.6c0.2-0.2,0.3-0.5,0.4-0.7h0l0,0.3
		C66.3,12.9,66.1,13.5,65.9,14 M63.4,8.6c-0.2-0.2-0.4-0.3-0.7-0.3c-0.2,0-0.4,0.1-0.6,0.2c-0.2,0.1-0.4,0.3-0.6,0.5
		c-0.2,0.2-0.3,0.4-0.4,0.7c-0.1,0.2-0.1,0.5-0.1,0.7l1.4,0c0.4,0,0.7-0.1,1-0.2c0.2-0.2,0.4-0.4,0.4-0.8C63.6,9,63.5,8.7,63.4,8.6"
		/>
	<path class="st0" d="M79.4,14.3c-0.3,0.6-0.7,1.1-1.2,1.5c-0.5,0.4-1,0.7-1.7,0.9c-0.6,0.2-1.2,0.3-1.9,0.3c-0.7,0-1.3,0-1.7-0.1
		c-0.5-0.1-0.9-0.1-1.2-0.2c-0.3-0.1-0.7-0.1-0.9-0.2c-0.3-0.1-0.6-0.1-0.9-0.1c-0.2,0-0.4,0-0.5,0.1c-0.1,0.1-0.3,0.2-0.4,0.3v-0.5
		c0-0.3,0-0.6,0-1c0-0.4,0-0.8,0-1.3v-1.5c0.1,0.3,0.2,0.5,0.3,0.7c0.1,0.2,0.2,0.3,0.3,0.6c0.1,0.2,0.3,0.4,0.5,0.7
		c0.2,0.2,0.4,0.4,0.8,0.6c0.3,0.2,0.7,0.3,1.1,0.5c0.4,0.1,1,0.2,1.6,0.2c0.1,0,0.3,0,0.5-0.1c0.2-0.1,0.3-0.2,0.5-0.3
		c0.1-0.1,0.3-0.2,0.4-0.4c0.1-0.2,0.1-0.3,0.1-0.5c0-0.3-0.1-0.6-0.3-0.8c-0.2-0.2-0.4-0.4-0.6-0.6c-0.3-0.2-0.6-0.3-0.9-0.4
		c-0.3-0.1-0.6-0.2-1-0.3c-0.3-0.1-0.6-0.2-0.9-0.3c-0.3-0.1-0.5-0.2-0.6-0.2c-0.4-0.2-0.7-0.4-1-0.6c-0.3-0.2-0.5-0.4-0.7-0.7
		c-0.2-0.3-0.4-0.6-0.5-1c-0.1-0.4-0.2-0.8-0.2-1.4c0-0.7,0.1-1.3,0.4-1.8c0.3-0.5,0.6-1,1.1-1.4c0.4-0.4,0.9-0.6,1.5-0.8
		c0.6-0.2,1.2-0.3,1.8-0.3h6V8c-0.2-0.4-0.5-0.8-0.8-1.2c-0.3-0.4-0.7-0.7-1.1-1c-0.4-0.3-0.8-0.5-1.3-0.6C75.5,5.1,75.1,5,74.6,5
		c-0.1,0-0.3,0-0.5,0c-0.2,0-0.3,0.1-0.5,0.2c-0.2,0.1-0.3,0.2-0.4,0.4c-0.1,0.2-0.2,0.4-0.2,0.6c0,0.3,0.1,0.5,0.2,0.7
		c0.1,0.2,0.3,0.4,0.5,0.5c0.2,0.1,0.4,0.2,0.7,0.3C74.7,7.8,75,7.9,75.2,8C75.5,8,75.8,8.1,76,8.2c0.2,0.1,0.5,0.2,0.7,0.2
		C77.1,8.6,77.6,8.8,78,9c0.4,0.2,0.7,0.5,1,0.8c0.3,0.3,0.5,0.7,0.6,1.1c0.2,0.4,0.2,0.9,0.2,1.4C79.8,13.1,79.7,13.7,79.4,14.3"/>
	<path class="st0" d="M102.9,16.2C102.9,16.2,102.9,16.2,102.9,16.2c-0.4-0.4-0.5-0.8-0.6-1.2c-0.1-0.5-0.2-0.9-0.2-1.4
		c0-1.1,0-2.1,0-3.2c0-0.3,0-0.6,0.1-0.8c0.1-0.6,0.4-1.1,0.8-1.5c0.1-0.1,0.2-0.1,0.1-0.2c0-0.1-0.2,0-0.2,0c-1.1,0-2.2,0-3.3,0
		c-0.2,0-0.4,0-0.6,0c-0.5,0-0.5,0-0.5,0.5c0,0.1,0,0.1,0,0.2c-0.1,0-0.1,0-0.2-0.1c-0.6-0.5-1.2-0.8-1.9-1
		c-0.8-0.2-1.5-0.1-2.1,0.3C93.5,8,93,8.5,92.6,9.1c-0.6,0.8-0.8,1.7-1,2.7c-0.1,0.7,0,1.5,0.3,2.2c0.4,1.1,1.1,2.1,2.2,2.7
		c0.9,0.4,1.8,0.5,2.7,0.2c0.5-0.1,1-0.4,1.5-0.7c0.1-0.1,0.2-0.1,0.2,0.1c0,0.2,0.1,0.3,0.3,0.3c0.7,0,1.4,0,2,0c0.2,0,1.8,0,2,0
		c0.1,0,0.1,0,0.2,0c0,0,0,0,0,0c0,0,0,0,0-0.1C103,16.3,102.9,16.2,102.9,16.2 M97,12.5c-1,0-1.7-0.8-1.7-1.7C95.3,9.9,96,9,97,9.1
		c0.9,0,1.7,0.8,1.7,1.7C98.7,11.7,98,12.5,97,12.5"/>
	<g>
		<path class="st1" d="M78.7,25.2l0.5-3.2h-1.2l0.1-1h3.7l-0.1,1h-1.2L80,25.2H78.7z"/>
		<path class="st1" d="M86.3,25.2h-1.4l-0.5-1.5h-0.2L84,25.2h-1.3l0.6-4.3h1.8c0.3,0,0.5,0,0.6,0.1c0.2,0.1,0.3,0.1,0.4,0.2
			c0.1,0.1,0.2,0.2,0.2,0.4c0,0.1,0.1,0.3,0.1,0.4c0,0.4-0.1,0.6-0.2,0.8c-0.2,0.2-0.4,0.4-0.6,0.5L86.3,25.2z M84.5,22.8
			c0.1,0,0.2,0,0.2,0c0.1,0,0.1,0,0.2-0.1c0.1,0,0.1-0.1,0.2-0.2c0-0.1,0.1-0.2,0.1-0.3c0-0.1,0-0.2-0.1-0.2
			c-0.1-0.1-0.2-0.1-0.3-0.1h-0.3l-0.1,0.9H84.5z"/>
		<path class="st1" d="M91,20.9l0.9,4.3h-1.4l-0.2-0.8h-1.2l-0.4,0.8h-1.4l2-4.3H91z M90.1,22.1L90.1,22.1l-0.6,1.3h0.8L90.1,22.1z"
			/>
		<path class="st1" d="M93.3,25.2l0.6-4.3h1.7c0.3,0,0.6,0,0.8,0.1c0.2,0.1,0.4,0.2,0.6,0.3c0.2,0.1,0.3,0.3,0.3,0.5
			c0.1,0.2,0.1,0.4,0.1,0.7c0,0.4-0.1,0.7-0.2,1c-0.1,0.3-0.3,0.6-0.5,0.8c-0.2,0.2-0.5,0.4-0.8,0.5c-0.3,0.1-0.7,0.2-1.1,0.2H93.3z
			 M95,24.2c0.4,0,0.7-0.1,0.9-0.4c0.2-0.2,0.3-0.6,0.3-1.2c0-0.3-0.1-0.5-0.2-0.6s-0.3-0.2-0.6-0.2h-0.3l-0.3,2.3H95z"/>
		<path class="st1" d="M98.8,25.2l0.6-4.3h1.3l-0.6,4.3H98.8z"/>
		<path class="st1" d="M104.2,25.2l-0.8-2.5l0,0l-0.3,2.5h-1.2l0.6-4.3h1.4l0.9,2.6h0l0.3-2.6h1.1l-0.6,4.3H104.2z"/>
		<path class="st1" d="M111.4,25.2h-0.9l-0.1-0.5c-0.1,0.1-0.1,0.2-0.2,0.3c-0.1,0.1-0.2,0.1-0.3,0.2c-0.1,0-0.2,0.1-0.3,0.1
			c-0.1,0-0.2,0-0.4,0c-0.3,0-0.5,0-0.7-0.1c-0.2-0.1-0.4-0.2-0.5-0.4c-0.1-0.2-0.2-0.3-0.3-0.5c-0.1-0.2-0.1-0.4-0.1-0.7
			c0-0.4,0-0.7,0.2-1.1c0.1-0.3,0.3-0.6,0.5-0.9c0.2-0.2,0.5-0.4,0.8-0.6c0.3-0.1,0.7-0.2,1.1-0.2c0.5,0,0.9,0.1,1.2,0.4
			c0.3,0.2,0.4,0.6,0.4,1.2l-1.2,0.1c0-0.1,0-0.1,0-0.2c0-0.1,0-0.2-0.1-0.2c0-0.1-0.1-0.1-0.2-0.2c-0.1,0-0.2-0.1-0.3-0.1
			c-0.2,0-0.4,0-0.5,0.1c-0.1,0.1-0.2,0.2-0.3,0.4s-0.1,0.3-0.2,0.5c0,0.2,0,0.4,0,0.6c0,0.1,0,0.2,0,0.3c0,0.1,0.1,0.2,0.1,0.3
			c0.1,0.1,0.1,0.1,0.2,0.2c0.1,0,0.2,0.1,0.3,0.1c0.2,0,0.4,0,0.5-0.1c0.1-0.1,0.2-0.2,0.2-0.4l0,0h-0.4L110,23h1.7L111.4,25.2z"/>
	</g>
</g>
</svg>
