<?xml version="1.0" encoding="UTF-8"?>
<svg xmlns="http://www.w3.org/2000/svg" version="1.1" viewBox="0 0 500 230">
  <defs>
    <style>
      .cls-1 {
        fill: #751a53;
      }

      .cls-1, .cls-2, .cls-3, .cls-4, .cls-5 {
        fill-rule: evenodd;
      }

      .cls-2 {
        fill: #fff;
      }

      .cls-3 {
        fill: #1b1c1c;
      }

      .cls-4 {
        fill: #1e1917;
      }

      .cls-5 {
        fill: #bbd531;
      }
    </style>
  </defs>
  <!-- Generator: Adobe Illustrator 28.6.0, SVG Export Plug-In . SVG Version: 1.2.0 Build 709)  -->
  <g>
    <g id="Layer_1">
      <path class="cls-3" d="M420,203.72v10.32h-1.9v-10.32h-2.97v-1.96h2.97v-4.41h1.9v4.41h2.88v1.96h-2.88ZM404.38,192.48h1.9v10.72l.37-.4.34-.34.37-.31.4-.25.4-.18.43-.12.43-.09.46-.03.52.03.49.09.43.12.43.18.18.12.18.12.18.12.18.15.31.34.28.4.15.28.12.31.12.37.09.4.06.43.06.46.03.49v8.15h-1.9v-7.47l-.03-.67-.06-.61-.06-.25-.06-.25-.06-.21-.09-.18-.15-.21-.15-.21-.21-.18-.24-.12-.25-.12-.28-.09-.31-.03-.34-.03-.43.03-.37.06-.34.12-.31.15-.28.21-.25.24-.21.31-.18.34-.12.27-.06.31-.09.34-.06.34-.06.43-.03.43v.46l-.03.49v6.12h-1.9v-21.56ZM395.26,203.36l.43.03.4.06.37.12.34.15.34.18.31.24.31.28.25.31.25.34.18.34.15.37.15.4.09.43.09.43.03.46.03.46-.03.46-.03.43-.06.4-.09.4-.12.37-.15.34-.18.34-.18.31-.31.34-.31.31-.31.28-.37.21-.37.15-.4.12-.4.06-.43.03-.4-.03-.4-.06-.37-.09-.34-.15-.34-.21-.31-.25-.28-.28-.25-.31-.21-.34-.21-.37-.15-.37-.12-.37-.12-.43-.06-.4-.03-.46-.03-.46.03-.43.03-.4.06-.4.06-.37.12-.34.12-.34.15-.34.18-.31.28-.4.31-.34.34-.28.34-.21.37-.18.4-.12.43-.09.43-.03ZM399.58,218.03l.28-.46.25-.49.21-.49.15-.52.12-.55.09-.55.06-.58.03-.61v-12h-1.9v1.44l-.18-.21-.18-.18-.18-.18-.18-.18-.21-.15-.21-.15-.25-.12-.21-.12-.25-.09-.25-.09-.28-.06-.28-.06-.55-.09-.61-.03h-.31l-.28.03-.31.03-.28.06-.28.06-.25.09-.28.09-.25.12-.25.12-.25.15-.21.15-.21.15-.21.21-.21.18-.18.21-.21.24-.34.46-.28.52-.25.52-.21.55-.15.58-.09.61-.09.64v1.32l.06.64.12.61.15.55.18.55.25.52.28.46.34.46.4.46.43.4.21.18.25.18.21.15.25.12.24.12.28.09.25.09.28.06.25.06.28.03.31.03h.28l.61-.03.58-.06.28-.06.28-.09.25-.09.25-.09.25-.12.24-.12.21-.15.21-.15.21-.18.18-.18.18-.18.18-.21v1.5l-.03.55-.06.49-.09.49-.15.43-.21.4-.25.37-.28.31-.31.31-.28.18-.24.15-.28.15-.31.12-.28.09-.31.06-.34.03h-.67l-1.87-.15-.12,2.05h2.36l.4-.03.4-.03.37-.06.34-.06.34-.09.34-.12.31-.12.28-.15.31-.15.25-.18.25-.18.24-.21.21-.21.21-.25.18-.28ZM385.79,195.64l.28.03.25.09.25.15.18.18.18.21.12.25.09.28v.61l-.09.31-.12.24-.15.25-.21.18-.25.12-.25.09-.28.03h-.15l-.12-.03-.15-.03-.12-.06-.21-.15-.21-.18-.15-.21-.12-.28-.09-.28-.03-.31.03-.31.09-.28.12-.25.18-.21.18-.18.25-.15.25-.09.28-.03ZM386.74,214.04h-1.9v-12.28h1.9v12.28ZM372.32,201.76h1.9v1.5l.34-.43.34-.37.37-.31.4-.25.4-.18.43-.15.46-.06.46-.03.52.03.49.06.25.06.21.06.21.09.18.09.21.12.18.12.15.15.18.15.31.34.28.4.12.28.12.34.12.34.09.4.06.43.06.46.03.49v8.15h-1.9v-7.26l-.03-.8-.06-.64-.06-.28-.06-.25-.06-.25-.09-.18-.15-.21-.18-.21-.21-.18-.21-.15-.28-.09-.28-.09-.31-.06h-.34l-.4.03-.37.06-.34.12-.31.15-.28.18-.21.25-.21.31-.18.34-.09.28-.09.31-.09.34-.06.37-.06.4-.03.43-.03.49v6.61h-1.9v-12.28ZM362,214.04h-1.9v-21.56h1.9v21.56ZM356.52,214.01h-1.93v-1.04l-.24.25-.34.25-.43.31-.55.31-.28.09-.34.09-.46.03-.55.03-.52-.03-.49-.09-.21-.06-.21-.06-.21-.09-.21-.09-.18-.12-.18-.12-.18-.12-.15-.15-.15-.18-.15-.18-.15-.18-.12-.18-.15-.31-.12-.31-.09-.37-.09-.4-.09-.4-.03-.46-.03-.52v-8.15h1.9v8.05l.09.67.03.28.06.25.09.21.09.18.15.25.18.21.18.15.24.15.25.12.31.06.31.06h.61l.31-.06.31-.06.28-.12.28-.15.28-.18.25-.21.24-.25.12-.18.12-.25.09-.34.06-.4.06-.46.03-.55.03-.61v-6.83h1.93v12.28ZM344.6,192.15l-.43.03-.4.06-.37.09-.34.15-.34.18-.28.21-.28.28-.25.31-.15.28-.12.28-.12.34-.09.37-.06.4-.06.46-.03.49v5.7h-2.48v1.96h2.48v10.32h1.9v-10.32h2.51v-1.96h-2.51v-4.72l.03-.64.03-.52.06-.43.06-.31.09-.25.12-.18.12-.15.15-.12.18-.12.21-.06.21-.03.25.03.31.06.28.09.28.18.21.25,1.19-1.53-.31-.25-.31-.24-.31-.21-.28-.15-.31-.12-.31-.09-.31-.06-.28-.03ZM338.05,203.72l-1.59.89-.15-.28-.15-.25-.18-.21-.18-.18-.18-.12-.21-.09-.21-.06-.25-.03-.28.03-.25.09-.21.12-.21.15-.15.21-.12.21-.06.28-.03.28.03.25.06.21.15.21.18.25.28.21.31.21.34.18.43.21.7.34.58.31.46.31.37.25.28.25.25.28.21.31.18.34.12.34.09.37.06.4.03.43-.03.43-.06.43-.06.37-.12.4-.15.34-.18.34-.25.31-.25.31-.28.25-.31.25-.31.18-.34.15-.34.12-.37.09-.37.06h-.73l-.34-.06-.31-.06-.31-.06-.31-.12-.28-.12-.25-.15-.25-.21-.24-.18-.21-.25-.21-.24-.18-.31-.18-.31-.18-.31-.15-.37-.15-.37,1.68-.8.21.49.25.4.24.34.28.28.15.12.15.12.15.06.15.09.15.06.15.03.15.03h.37l.18-.03.18-.06.15-.06.18-.06.15-.09.12-.12.12-.09.12-.15.09-.15.09-.15.09-.15.06-.18.03-.21.03-.18v-.43l-.03-.18-.03-.18-.06-.18-.09-.15-.09-.15-.12-.15-.12-.12-.21-.15-.28-.18-.34-.18-.43-.21-.7-.34-.61-.34-.49-.31-.4-.28-.21-.21-.21-.21-.15-.28-.15-.28-.09-.31-.09-.31-.03-.37-.03-.37.03-.37.03-.34.06-.34.12-.31.12-.31.15-.28.18-.28.21-.25.25-.25.28-.18.25-.18.31-.12.28-.09.31-.09.34-.03.34-.03h.25l.25.03.21.06.25.06.21.06.18.09.21.12.18.12.18.15.18.15.18.18.15.21.31.46.28.52ZM328.71,203.72l-1.59.89-.15-.28-.15-.25-.18-.21-.18-.18-.18-.12-.21-.09-.24-.06-.21-.03-.28.03-.25.09-.21.12-.21.15-.15.21-.12.21-.09.28-.03.28.03.25.09.21.15.21.18.25.25.21.31.21.37.18.43.21.67.34.61.31.46.31.37.25.28.25.25.28.21.31.15.34.15.34.09.37.06.4v.86l-.06.43-.09.37-.12.4-.15.34-.18.34-.21.31-.25.31-.31.25-.28.25-.31.18-.34.15-.34.12-.37.09-.4.06h-.73l-.31-.06-.34-.06-.31-.06-.28-.12-.28-.12-.25-.15-.28-.21-.21-.18-.25-.25-.18-.24-.21-.31-.18-.31-.15-.31-.15-.37-.15-.37,1.65-.8.25.49.25.4.25.34.28.28.15.12.12.12.15.06.15.09.15.06.15.03.18.03h.37l.18-.03.18-.06.15-.06.15-.06.15-.09.15-.12.12-.09.12-.15.09-.15.09-.15.06-.15.06-.18.06-.21.03-.18v-.43l-.03-.18-.06-.18-.06-.18-.06-.15-.09-.15-.12-.15-.12-.12-.21-.15-.28-.18-.34-.18-.43-.21-.7-.34-.61-.34-.52-.31-.37-.28-.24-.21-.18-.21-.18-.28-.12-.28-.12-.31-.06-.31-.06-.37v-.73l.06-.34.06-.34.09-.31.15-.31.15-.28.18-.28.21-.25.25-.25.25-.18.28-.18.28-.12.31-.09.31-.09.31-.03.34-.03h.25l.25.03.25.06.21.06.21.06.21.09.21.12.18.12.18.15.18.15.15.18.18.21.31.46.28.52ZM317.99,195.64l.28.03.28.09.21.15.21.18.15.21.12.25.09.28.03.31-.03.31-.09.31-.12.24-.15.25-.21.18-.21.12-.28.09-.28.03h-.15l-.12-.03-.12-.03-.15-.06-.21-.15-.21-.18-.15-.21-.12-.28-.06-.28-.03-.31.03-.31.06-.28.12-.25.18-.21.21-.18.21-.15.28-.09.25-.03ZM318.94,214.04h-1.9v-12.28h1.9v12.28ZM313.4,214.04h-1.9v-21.56h1.9v21.56ZM303.01,203.39l-.43.03-.4.06-.37.12-.37.15-.37.21-.31.24-.34.31-.28.34-.21.27-.18.34-.15.34-.12.37-.09.4-.06.43-.06.43v.49l.03.49.03.43.06.43.12.43.12.4.15.37.21.34.21.34.28.31.28.31.31.21.34.21.37.12.37.12.4.06.43.03.4-.03.43-.06.37-.12.37-.15.34-.21.31-.25.28-.31.28-.37.21-.31.18-.34.15-.37.12-.37.09-.4.06-.4.06-.43v-.98l-.06-.52-.12-.46-.12-.46-.18-.43-.21-.4-.25-.4-.31-.34-.25-.21-.28-.21-.28-.18-.28-.15-.31-.09-.31-.09-.34-.06-.34-.03ZM299.4,192.48v11.06l.43-.49.43-.4.21-.18.21-.18.25-.15.25-.12.25-.12.24-.09.25-.09.28-.09.25-.03.28-.06.28-.03h.58l.31.03.28.06.28.03.28.09.28.09.25.09.25.12.24.12.25.15.25.15.21.18.43.43.4.46.31.46.28.46.24.52.18.52.15.58.09.58.06.61.03.64-.03.77-.09.7-.06.34-.06.34-.09.31-.09.34-.12.28-.12.31-.15.28-.15.27-.18.28-.18.25-.18.25-.21.25-.4.37-.4.34-.43.28-.43.21-.46.18-.49.12-.49.06-.52.03h-.28l-.28-.03-.28-.03-.28-.06-.24-.09-.25-.06-.28-.12-.21-.12-.25-.12-.24-.15-.21-.18-.21-.18-.21-.21-.21-.21-.18-.21-.21-.25v1.68h-1.9v-21.56h1.9ZM282.28,212.51h.31l.28-.03.31-.06.28-.09.28-.09.28-.12.28-.15.25-.15.28-.21.25-.21.18-.21.18-.21.12-.21.09-.21.03-.24.03-.21v-.24l-.03-.21-.06-.21-.09-.21-.09-.18-.12-.18-.12-.18-.18-.15-.25-.25-.28-.18-.31-.15-.34-.15-.37-.09-.37-.09-.4-.06-.43-.03h-.4l-.4.03-.37.06-.31.09-.31.09-.28.12-.21.15-.18.18-.43.43-.18.25-.09.24-.09.28-.03.34v.58l.03.25.06.21.09.21.09.21.15.25.12.21.18.21.15.15.21.12.28.12.28.09.37.06.37.06.46.03h.46ZM281.79,201.43h.34l.31-.03.61.03.55.09.55.12.52.15.46.21.46.28.4.31.4.37.25.28.21.34.15.34.15.4.09.4.09.46.06.49v8.51h-1.81v-1.16l-.37.34-.4.28-.43.21-.43.21-.43.12-.46.12-.49.06-.49.03-.52-.03-.46-.03-.46-.09-.43-.09-.43-.15-.4-.18-.37-.18-.34-.25-.37-.28-.34-.34-.25-.37-.24-.4-.15-.46-.12-.46-.06-.49-.03-.52v-.55l.09-.52.12-.46.15-.43.21-.43.25-.37.31-.34.34-.31.34-.25.37-.21.4-.15.4-.15.43-.12.46-.09.49-.03.52-.03h.64l.58.06.52.12.46.15.21.09.21.09.18.12.18.12.18.12.12.15.15.15.12.15v-1.32l-.06-.25-.03-.28-.09-.24-.09-.25-.12-.25-.15-.21-.18-.21-.15-.12-.28-.12-.37-.12-.49-.12-.46-.09-.43-.06-.43-.03h-.83l-.46.06-.58.06-.61.12-.15-1.93,2.17-.18ZM265.5,203.78l.25-.15.21-.09.21-.06h.18-.25l-.25.09-.21.09-.25.15-.21.21-.18.25-.21.31-.18.34-.06.18-.06.25-.06.34-.03.43-.06,1.01v6.92h-1.93v-12.28h1.93v1.04l.18-.21.28-.25.34-.28.43-.28.15-.09.28-.06.37-.03h.7l.21.03.21.03.18.06.18.09.18.09.18.09.18.12.15.15.15.15.12.15.15.18.25.43.18.49-1.71.61-.12-.18-.12-.18-.15-.12-.15-.12-.15-.09-.18-.06-.21-.03-.21-.03-.89.31ZM253.65,203.39l-.49.03-.43.06-.4.12-.4.18-.37.21-.34.28-.34.34-.28.37-.21.34-.18.31-.15.34-.12.37-.09.37-.06.4-.03.4-.03.4.03.49.03.46.09.43.12.43.12.4.18.37.21.37.25.31.28.34.31.28.31.25.34.18.37.15.4.09.4.06.43.03.49-.03.43-.06.43-.15.4-.15.4-.24.34-.25.34-.34.31-.37.18-.31.18-.34.15-.34.12-.37.09-.37.06-.4.03-.4.03-.46-.03-.46-.06-.46-.06-.46-.12-.43-.15-.4-.18-.37-.25-.34-.25-.34-.28-.31-.31-.25-.31-.24-.34-.18-.37-.12-.4-.12-.4-.06-.43-.03ZM253.65,201.49h.31l.34.03.31.03.31.06.28.09.31.06.28.12.28.12.28.15.25.15.25.15.28.21.25.18.21.25.25.25.21.25.37.46.31.49.25.52.21.52.15.55.12.58.06.61.03.61v.37l-.03.34-.03.37-.06.34-.06.34-.09.31-.09.31-.12.31-.12.31-.15.31-.15.28-.18.28-.18.28-.21.24-.21.25-.21.25-.43.4-.46.31-.46.28-.49.25-.49.18-.52.12-.55.06-.55.03h-.43l-.37-.06-.4-.06-.37-.09-.4-.12-.37-.18-.34-.18-.37-.21-.34-.25-.31-.25-.28-.28-.28-.31-.28-.34-.25-.34-.21-.37-.18-.4-.15-.34-.15-.4-.12-.37-.09-.4-.06-.4-.06-.4-.03-.43v-.43l.03-.64.06-.64.09-.31.06-.31.09-.28.12-.31.12-.28.12-.28.15-.28.15-.28.37-.52.43-.49.43-.4.46-.37.46-.28.49-.25.52-.18.52-.15.58-.09.58-.03ZM245.41,192.15l-.43.03-.4.06-.37.09-.34.15-.31.18-.31.21-.28.28-.21.31-.15.28-.15.28-.09.34-.09.37-.09.4-.03.46-.03.49-.03.49v5.21h-2.48v1.96h2.48v10.32h1.93v-10.32h2.51v-1.96h-2.51v-5.36l.03-.52.06-.43.09-.31.09-.25.09-.18.15-.15.15-.12.18-.12.18-.06.21-.03.25.03.31.06.28.09.28.18.25.25,1.16-1.53-.31-.25-.28-.24-.31-.21-.31-.15-.31-.12-.28-.09-.31-.06-.31-.03ZM232.18,203.72l-1.56.89-.15-.28-.15-.25-.18-.21-.18-.18-.21-.12-.21-.09-.21-.06-.21-.03-.28.03-.25.09-.25.12-.18.15-.15.21-.12.21-.09.28-.03.28.03.25.09.21.12.21.21.25.25.21.31.21.37.18.43.21.67.34.58.31.49.31.34.25.31.25.25.28.21.31.15.34.15.34.09.37.03.4.03.43v.43l-.06.43-.09.37-.12.4-.15.34-.18.34-.21.31-.28.31-.28.25-.28.25-.34.18-.31.15-.37.12-.37.09-.37.06h-.73l-.34-.06-.31-.06-.31-.06-.28-.12-.28-.12-.28-.15-.25-.21-.24-.18-.21-.25-.21-.24-.18-.31-.18-.31-.18-.31-.15-.37-.12-.37,1.65-.8.24.49.25.4.25.34.28.28.12.12.15.12.15.06.15.09.15.06.15.03.18.03h.34l.18-.03.18-.06.18-.06.15-.06.15-.09.15-.12.12-.09.09-.15.12-.15.09-.15.06-.15.06-.18.03-.21.03-.18.03-.21-.03-.21-.03-.18-.03-.18-.06-.18-.09-.15-.09-.15-.09-.15-.15-.12-.18-.15-.28-.18-.37-.18-.4-.21-.73-.34-.61-.34-.49-.31-.37-.28-.25-.21-.21-.21-.15-.28-.15-.28-.09-.31-.06-.31-.06-.37v-.73l.03-.34.09-.34.09-.31.12-.31.18-.28.18-.28.21-.25.24-.25.25-.18.28-.18.28-.12.31-.09.31-.09.31-.03.34-.03h.24l.25.03.25.06.21.06.21.06.21.09.18.12.21.12.18.15.18.15.15.18.15.21.31.46.28.52ZM213.56,201.76h1.9v1.5l.34-.43.34-.37.37-.31.4-.25.4-.18.43-.15.46-.06.46-.03.52.03.49.06.24.06.21.06.21.09.18.09.21.12.18.12.15.15.18.15.31.34.28.4.12.28.12.34.12.34.09.4.06.43.06.46.03.49v8.15h-1.9v-7.26l-.03-.8-.06-.64-.06-.28-.06-.25-.06-.25-.09-.18-.15-.21-.18-.21-.21-.18-.21-.15-.28-.09-.28-.09-.31-.06h-.34l-.4.03-.37.06-.34.12-.31.15-.28.18-.21.25-.21.31-.18.34-.09.28-.09.31-.09.34-.06.37-.06.4-.03.43-.03.49v6.61h-1.9v-12.28ZM204.77,203.39l-.46.03-.43.06-.43.12-.4.18-.37.21-.34.28-.31.34-.31.37-.21.34-.15.31-.15.34-.12.37-.09.37-.09.4-.03.4v.89l.06.46.06.43.12.43.15.4.18.37.18.37.24.31.28.34.31.28.34.25.34.18.37.15.37.09.43.06.43.03.46-.03.46-.06.43-.15.4-.15.37-.24.37-.25.31-.34.31-.37.21-.31.15-.34.15-.34.12-.37.09-.37.06-.4.06-.4v-.92l-.06-.46-.09-.46-.12-.43-.15-.4-.18-.37-.21-.34-.24-.34-.28-.31-.31-.25-.34-.24-.34-.18-.37-.12-.37-.12-.43-.06-.43-.03ZM204.77,201.49h.34l.31.03.31.03.31.06.31.09.28.06.28.12.28.12.28.15.28.15.25.15.25.21.25.18.25.25.21.25.25.25.34.46.31.49.28.52.18.52.18.55.12.58.06.61.03.61-.03.37v.34l-.06.37-.03.34-.09.34-.06.31-.12.31-.09.31-.15.31-.12.31-.18.28-.15.28-.18.28-.21.24-.21.25-.24.25-.43.4-.43.31-.46.28-.49.25-.49.18-.55.12-.52.06-.58.03h-.4l-.4-.06-.4-.06-.37-.09-.37-.12-.37-.18-.37-.18-.34-.21-.34-.25-.31-.25-.31-.28-.28-.31-.25-.34-.25-.34-.21-.37-.21-.4-.15-.34-.12-.4-.12-.37-.09-.4-.09-.4-.03-.4-.03-.43-.03-.43.03-.64.09-.64.06-.31.09-.31.09-.28.09-.31.12-.28.15-.28.12-.28.18-.28.37-.52.43-.49.43-.4.43-.37.46-.28.52-.25.49-.18.55-.15.55-.09.58-.03ZM195.06,195.64l.28.03.25.09.21.15.21.18.15.21.15.25.06.28.03.31-.03.31-.06.31-.12.24-.18.25-.18.18-.25.12-.28.09-.28.03h-.12l-.15-.03-.12-.03-.12-.06-.24-.15-.18-.18-.18-.21-.12-.28-.06-.28-.03-.31.03-.31.09-.28.12-.25.15-.21.21-.18.25-.15.25-.09.28-.03ZM195.98,214.04h-1.9v-12.28h1.9v12.28ZM189.37,203.72v10.32h-1.9v-10.32h-3v-1.96h3v-4.41h1.9v4.41h2.88v1.96h-2.88ZM182.69,214.01h-1.9v-1.04l-.28.25-.34.25-.43.31-.55.31-.25.09-.37.09-.46.03-.52.03-.52-.03-.49-.09-.25-.06-.21-.06-.21-.09-.21-.09-.18-.12-.18-.12-.18-.12-.15-.15-.15-.18-.15-.18-.15-.18-.12-.18-.15-.31-.12-.31-.09-.37-.09-.4-.06-.4-.06-.46-.03-.52v-8.15h1.9v7.26l.03.8.06.67.03.28.09.25.06.21.09.18.15.25.18.21.18.15.25.15.25.12.31.06.31.06h.64l.28-.06.31-.06.28-.12.28-.15.28-.18.25-.21.28-.25.12-.18.09-.25.09-.34.06-.4.06-.46.03-.55.03-.61.03-.7v-6.12h1.9v12.28ZM170.23,214.04h-1.93v-21.56h1.93v21.56ZM159.54,203.39l-.49.03-.43.06-.4.12-.4.18-.37.21-.34.28-.34.34-.28.37-.21.34-.18.31-.15.34-.12.37-.09.37-.06.4-.03.4-.03.4.03.49.03.46.09.43.12.43.12.4.18.37.21.37.25.31.28.34.31.28.31.25.34.18.37.15.4.09.4.06.43.03.49-.03.43-.06.43-.15.4-.15.4-.24.34-.25.34-.34.31-.37.18-.31.18-.34.15-.34.12-.37.09-.37.06-.4.03-.4.03-.46-.03-.46-.06-.46-.06-.46-.12-.43-.15-.4-.18-.37-.21-.34-.28-.34-.28-.31-.31-.25-.31-.24-.34-.18-.37-.12-.4-.12-.4-.06-.43-.03ZM159.54,201.49h.31l.34.03.31.03.31.06.28.09.31.06.28.12.28.12.28.15.25.15.28.15.24.21.25.18.21.25.24.25.21.25.37.46.31.49.25.52.21.52.15.55.12.58.06.61.03.61v.37l-.03.34-.03.37-.06.34-.06.34-.09.31-.09.31-.12.31-.12.31-.15.31-.15.28-.18.28-.18.28-.21.24-.21.25-.21.25-.43.4-.46.31-.46.28-.46.25-.52.18-.52.12-.55.06-.55.03h-.4l-.4-.06-.4-.06-.37-.09-.4-.12-.37-.18-.34-.18-.37-.21-.34-.25-.31-.25-.28-.28-.28-.31-.28-.34-.21-.34-.25-.37-.18-.4-.15-.34-.15-.4-.12-.37-.09-.4-.06-.4-.06-.4-.03-.43v-.43l.03-.64.09-.64.06-.31.06-.31.09-.28.12-.31.12-.28.12-.28.15-.28.15-.28.37-.52.43-.49.43-.4.46-.37.46-.28.49-.25.52-.18.55-.15.55-.09.58-.03ZM151.15,203.72l-1.56.89-.15-.28-.18-.25-.15-.21-.18-.18-.21-.12-.21-.09-.21-.06-.24-.03-.25.03-.28.09-.21.12-.18.15-.18.21-.12.21-.06.28-.03.28.03.25.09.21.12.21.21.25.25.21.31.21.37.18.4.21.7.34.58.31.46.31.37.25.28.25.28.28.18.31.18.34.12.34.09.37.06.4.03.43-.03.43-.03.43-.09.37-.12.4-.15.34-.18.34-.25.31-.25.31-.28.25-.31.25-.31.18-.34.15-.34.12-.37.09-.37.06h-.74l-.34-.06-.31-.06-.31-.06-.28-.12-.28-.12-.28-.15-.25-.21-.25-.18-.21-.25-.21-.24-.18-.31-.18-.31-.18-.31-.15-.37-.15-.37,1.68-.8.21.49.25.4.28.34.28.28.12.12.15.12.15.06.15.09.15.06.15.03.15.03h.37l.18-.03.18-.06.18-.06.15-.06.15-.09.12-.12.12-.09.12-.15.12-.15.06-.15.09-.15.06-.18.03-.21.03-.18v-.43l-.03-.18-.03-.18-.06-.18-.09-.15-.09-.15-.12-.15-.12-.12-.21-.15-.28-.18-.34-.18-.4-.21-.73-.34-.61-.34-.49-.31-.4-.28-.21-.21-.21-.21-.15-.28-.15-.28-.09-.31-.09-.31-.03-.37-.03-.37.03-.37.03-.34.09-.34.09-.31.12-.31.15-.28.18-.28.25-.25.21-.25.28-.18.28-.18.28-.12.28-.09.31-.09.34-.03.34-.03h.25l.24.03.21.06.25.06.21.06.21.09.18.12.18.12.21.15.15.15.18.18.15.21.31.46.28.52ZM129.86,203.39l-.43.03-.4.06-.4.12-.37.15-.34.21-.34.28-.31.31-.28.37-.21.31-.18.34-.15.37-.12.37-.09.4-.06.4-.03.43-.03.46.03.49.03.43.09.43.09.43.15.37.15.37.21.37.21.31.28.34.28.25.31.25.34.18.37.15.37.09.4.06.43.03.4-.03.37-.06.37-.09.34-.15.34-.18.31-.25.28-.28.28-.31.21-.34.21-.34.15-.37.15-.37.09-.4.09-.43.03-.43.03-.43-.03-.49-.03-.46-.09-.43-.09-.43-.12-.4-.15-.37-.18-.34-.21-.34-.28-.34-.28-.31-.31-.25-.34-.18-.34-.15-.37-.12-.4-.06-.43-.03ZM126.28,220.97h-1.93v-19.2h1.9v1.75l.4-.49.43-.4.25-.18.21-.15.25-.15.21-.15.25-.12.25-.09.28-.09.25-.06.28-.06.25-.03.28-.03h.58l.31.03.31.03.28.06.28.06.28.09.28.12.25.12.25.12.25.15.21.18.25.18.21.21.21.21.21.25.18.25.31.46.28.49.21.49.18.55.15.58.09.58.06.61.03.64-.03.77-.09.7-.06.34-.06.34-.09.34-.09.31-.12.31-.12.28-.15.28-.15.28-.18.28-.18.24-.21.25-.18.21-.4.37-.4.31-.43.28-.43.21-.46.15-.46.12-.49.06-.49.03h-.28l-.28-.03-.28-.03-.28-.06-.25-.09-.28-.06-.25-.12-.24-.12-.25-.12-.21-.15-.25-.18-.21-.18-.21-.21-.21-.21-.21-.25-.18-.25v8.64ZM119.45,206.57l-.12-.49-.12-.46-.18-.4-.21-.37-.25-.34-.28-.31-.31-.24-.31-.21-.34-.15-.37-.12-.37-.06-.4-.03-.31.03-.31.03-.28.09-.28.09-.28.12-.25.15-.25.18-.21.21-.21.21-.21.25-.15.28-.15.28-.12.28-.12.31-.09.34-.06.34h6.52ZM121.47,208.35h-8.67l.06.61.09.58.15.52.18.46.12.21.12.21.15.21.15.18.15.15.18.18.18.15.18.12.21.12.21.12.21.09.21.06.21.06.25.06.21.03h.25l.31-.03.28-.03.28-.03.25-.09.25-.09.25-.12.21-.15.25-.15.31-.34.37-.43.34-.52.37-.61,1.59,1.01-.34.61-.34.52-.34.46-.37.4-.4.34-.4.31-.43.28-.46.21-.49.15-.49.12-.52.06-.52.03h-.34l-.31-.03-.31-.03-.31-.06-.31-.09-.28-.09-.28-.09-.28-.12-.25-.15-.28-.15-.25-.18-.21-.18-.25-.21-.21-.21-.18-.25-.21-.28-.28-.43-.28-.46-.21-.52-.15-.52-.15-.55-.09-.55-.06-.61v-1.32l.06-.67.12-.61.15-.61.21-.55.21-.52.31-.49.31-.46.18-.21.21-.21.18-.21.21-.18.21-.18.24-.15.21-.12.25-.12.28-.12.24-.09.28-.09.28-.06.28-.06.31-.03.31-.03h.61l.31.03.31.03.28.06.28.06.28.09.25.09.25.12.24.12.25.12.21.15.21.18.21.18.18.21.21.21.18.21.31.46.28.49.21.52.21.55.12.58.12.64.06.64.03.7v.37ZM106.59,206.57l-.09-.49-.15-.46-.18-.4-.21-.37-.25-.34-.28-.31-.31-.24-.31-.21-.34-.15-.37-.12-.37-.06-.4-.03-.31.03-.31.03-.28.09-.28.09-.28.12-.25.15-.24.18-.21.21-.21.21-.21.25-.15.28-.15.28-.12.28-.12.31-.09.34-.06.34h6.52ZM108.61,208.35h-8.67l.06.61.09.58.15.52.18.46.12.21.12.21.15.21.15.18.15.15.18.18.18.15.18.12.21.12.21.12.21.09.21.06.21.06.25.06.24.03h.21l.31-.03.28-.03.28-.03.25-.09.25-.09.24-.12.25-.15.21-.15.34-.34.34-.43.34-.52.37-.61,1.59,1.01-.34.61-.34.52-.34.46-.34.4-.4.34-.43.31-.43.28-.46.21-.49.15-.49.12-.49.06-.55.03h-.34l-.31-.03-.31-.03-.31-.06-.31-.09-.28-.09-.28-.09-.28-.12-.25-.15-.24-.15-.25-.18-.25-.18-.21-.21-.21-.21-.21-.25-.21-.28-.28-.43-.25-.46-.21-.52-.18-.52-.15-.55-.09-.55-.06-.61v-1.32l.09-.67.09-.61.15-.61.21-.55.25-.52.28-.49.31-.46.18-.21.21-.21.18-.21.21-.18.24-.18.21-.15.25-.12.24-.12.25-.12.25-.09.28-.09.28-.06.31-.06.28-.03.31-.03h.61l.31.03.31.03.28.06.28.06.28.09.25.09.25.12.25.12.25.12.21.15.21.18.21.18.21.21.18.21.18.21.31.46.28.49.25.52.18.55.15.58.09.64.06.64.03.7v.37ZM95.01,214.04h-1.9v-21.56h1.9v21.56ZM89.31,197.08l-1.56,1.16-.25-.43-.25-.34-.25-.31-.21-.24-.21-.18-.24-.18-.25-.15-.25-.12-.28-.09-.28-.06-.31-.03-.31-.03-.31.03-.28.03-.31.06-.25.09-.28.12-.21.15-.25.15-.21.21-.21.21-.15.25-.15.25-.12.28-.09.28-.09.31-.03.31v.64l.06.31.09.31.12.25.15.28.18.24.21.21.28.21.43.28.64.37.89.46,1.13.55.46.25.43.24.4.25.4.25.34.28.31.25.28.28.25.25.28.37.25.37.18.4.18.43.12.43.09.46.06.49v.83l-.03.34-.03.34-.06.31-.06.31-.06.31-.09.31-.12.28-.12.28-.15.28-.15.28-.15.25-.18.25-.18.24-.21.25-.25.25-.4.34-.43.31-.43.28-.46.21-.49.15-.52.12-.52.06-.55.03-.52-.03-.52-.06-.46-.09-.49-.15-.43-.21-.43-.21-.37-.31-.37-.31-.34-.37-.31-.37-.28-.43-.24-.43-.25-.49-.18-.52-.15-.52-.15-.58,1.93-.61.15.64.15.55.21.46.21.4.28.37.28.31.34.28.37.25.37.15.4.12.43.09.46.03.37-.03.37-.06.34-.09.31-.12.31-.15.31-.18.28-.21.28-.28.24-.28.21-.31.15-.31.15-.34.12-.37.09-.37.03-.4.03-.4-.03-.43-.06-.4-.12-.4-.15-.37-.21-.34-.25-.31-.31-.31-.34-.28-.43-.28-.67-.37-.92-.46-1.13-.58-.46-.25-.4-.24-.37-.25-.37-.25-.31-.28-.31-.28-.28-.27-.25-.31-.21-.31-.15-.34-.18-.31-.12-.34-.09-.37-.06-.37-.06-.37v-.37l.03-.61.09-.58.06-.25.06-.28.09-.28.09-.25.12-.25.15-.21.12-.24.18-.21.15-.21.18-.18.21-.21.21-.18.37-.25.37-.25.37-.18.4-.18.4-.12.43-.09.43-.03.46-.03h.37l.34.06.37.06.34.06.31.12.34.12.31.15.28.18.28.21.28.21.28.24.25.28.21.31.24.34.21.34.21.37Z"/>
      <path class="cls-4" d="M494.7,56.32h-1.22v-7.69l-2.54,7.69h-1.22l-2.6-7.69v7.69h-1.19v-9.16h1.78l2.63,7.75,2.6-7.75h1.78v9.16ZM477.39,48.27v-1.1h7.44v1.1h-3.09v8.05h-1.26v-8.05h-3.09Z"/>
      <polygon class="cls-5" points="341.51 13.97 341.27 16.96 340.79 19.85 340.3 22.74 339.71 25.61 338.99 28.37 338.15 31.26 337.18 34.02 336.1 36.79 335.51 38.11 334.9 39.42 333.82 41.7 332.62 43.75 331.42 45.91 330.1 47.96 328.78 49.99 327.33 51.92 325.77 53.84 324.21 55.64 323.13 56.72 322.06 57.68 320.85 58.53 319.53 59.24 318.09 59.96 316.64 60.45 315.21 60.93 313.64 61.41 310.52 62.01 307.28 62.37 304.16 62.49 301.27 62.49 303.08 62.85 304.76 63.21 306.56 63.44 308.48 63.57 310.52 63.8 312.57 63.8 314.61 63.69 316.64 63.44 317 63.44 317 63.69 317.13 63.93 316.89 64.05 314.97 65 313.16 65.97 311.37 67.05 309.56 68.13 308 69.22 306.44 70.42 304.87 71.5 303.2 72.57 301.63 73.65 300.07 74.62 298.39 75.46 296.71 76.18 294.79 76.9 292.75 77.5 290.59 77.98 288.55 78.22 286.86 78.35 285.18 78.35 283.62 78.35 281.93 78.22 278.7 77.86 275.45 77.38 273.17 76.9 270.65 76.3 267.88 75.46 265.12 74.74 262.36 73.9 259.96 73.18 257.68 72.57 255.99 72.21 259.24 73.06 263.8 74.62 268.37 76.06 271.25 77.02 272.45 77.38 273.65 77.74 274.73 78.22 275.94 78.58 277.37 78.94 278.93 79.42 280.37 79.91 281.82 80.27 283.98 80.86 286.14 81.47 288.3 81.94 290.22 82.67 289.39 82.67 288.42 82.67 286.74 82.55 285.18 82.78 283.74 83.03 282.06 83.5 281.34 83.87 280.62 84.11 279.29 84.83 277.98 85.43 276.78 86.26 275.45 86.99 274.13 87.82 272.69 88.67 271.25 89.4 269.8 90.11 268.12 90.83 266.45 91.43 264.64 92.03 262.84 92.39 261.52 92.63 260.2 92.75 258.88 92.88 257.55 92.88 255.76 92.88 253.95 92.63 255.63 93.24 257.08 93.95 258.16 94.55 259.11 95.28 260.08 96 260.92 96.84 261.64 97.8 262.12 98.76 262.24 99.36 262.36 99.96 262.48 100.45 262.36 101.04 262.24 101.76 262 102.24 261.76 102.73 261.52 103.2 261.52 102.37 261.52 101.64 261.52 100.8 261.28 100.07 260.8 99.12 260.08 98.28 259.24 97.56 258.27 96.84 257.19 96.36 256.12 95.88 255.04 95.52 254.07 95.16 252.51 94.67 250.95 94.44 249.27 94.08 247.7 93.83 245.91 93.6 244.22 93.47 242.43 93.35 240.62 93.24 239.06 93.24 237.62 93.11 232.58 93.24 227.53 93.47 225.01 93.72 222.48 93.95 219.97 94.31 217.44 94.8 214.91 95.39 212.52 96 210.12 96.72 207.72 97.44 205.31 98.4 203.03 99.36 200.74 100.45 198.46 101.76 197.26 102.48 196.06 103.2 194.86 104.04 193.78 105 192.94 105.6 192.1 106.21 190.78 107.53 189.46 108.72 188.26 110.17 187.05 111.48 184.9 114.37 182.98 117.38 181.17 120.38 179.49 123.5 179.37 123.74 178.28 123.14 177.33 122.42 177.45 122.18 178.89 119.18 180.22 116.05 181.65 113.06 183.21 110.05 184.29 107.77 185.49 105.49 186.69 103.2 188.02 100.92 188.61 99.84 189.22 98.87 189.94 97.56 190.78 96.36 191.5 95.03 192.34 93.83 193.42 92.27 194.5 90.83 195.59 89.4 196.67 87.95 197.98 86.39 199.18 84.83 200.51 83.26 201.83 81.83 203.39 80.02 204.83 78.22 206.39 76.54 207.83 74.74 208.67 73.9 209.39 72.93 210.35 71.62 211.43 70.17 212.63 68.5 213.6 66.57 214.08 65.73 214.44 64.77 214.8 63.8 215.04 62.85 215.16 62.01 215.16 61.04 215.04 60.21 214.8 59.48 214.55 58.89 214.2 58.4 213.84 58.04 213.35 57.56 212.4 56.96 211.32 56.48 210.23 56.12 210.84 55.89 211.43 55.89 212.04 56 212.63 56.12 213.72 56.48 214.68 57.08 215.52 57.68 216.36 58.4 217.08 59.24 217.8 60.21 218.28 61.29 218.77 62.37 218.77 62.6 218.88 62.97 218.77 63.57 218.64 64.17 219 63.33 219.48 62.49 220.08 61.52 220.81 60.68 222.25 58.89 223.81 57.45 225.37 56.25 227.05 55.04 228.73 54.08 230.66 53.24 232.58 52.39 234.73 51.8 236.78 51.19 238.95 50.72 240.38 50.47 241.94 50.24 243.38 49.99 244.94 49.88 246.39 49.76 247.83 49.63 249.27 49.52 250.71 49.52 253.48 49.27 256.12 49.04 258.88 48.55 261.4 47.83 263.08 47.35 264.64 46.63 266.09 45.91 267.4 44.95 268.73 43.99 269.93 42.79 271.13 41.59 272.21 40.27 273.05 38.95 273.77 38.11 273.41 39.06 272.93 40.14 272.45 41.11 271.97 42.19 271.25 43.28 270.65 44.35 269.93 45.43 269.09 46.51 268.24 47.71 267.29 48.8 266.32 49.88 265.37 50.96 264.17 52.03 262.72 53.36 261.16 54.56 259.6 55.52 261.03 54.92 262.48 54.33 263.92 53.72 265.12 53.24 266.68 52.52 268.24 51.68 269.8 50.72 271.37 49.63 272.69 48.43 273.89 47.12 274.37 46.4 274.85 45.67 275.33 44.84 275.69 43.99 275.69 43.75 275.94 43.87 277.5 43.87 279.17 43.87 280.74 43.75 282.3 43.64 284.1 43.51 285.9 43.15 287.58 42.79 289.39 42.31 291.31 41.83 293.35 41.11 295.27 40.14 297.19 39.19 298.15 38.58 298.99 37.86 299.83 37.27 300.55 36.55 301.27 35.82 302 34.99 302.6 34.15 303.08 33.18 303.44 32.34 303.8 31.5 303.67 32.7 303.56 33.9 303.08 35.46 302.6 37.02 302 38.47 301.39 39.91 300.67 41.34 299.83 42.67 298.87 43.99 297.91 45.2 297.31 45.91 296.71 46.51 298.51 45.2 300.32 43.75 301.39 42.79 302.47 41.7 303.56 40.63 304.51 39.55 305.48 38.58 306.32 37.5 307.15 36.3 308 35.22 308 35.1 308.12 34.99 308.96 34.86 309.68 34.62 310.88 34.38 311.96 34.02 313.52 33.43 314.97 32.94 316.53 32.34 317.97 31.74 319.76 30.9 321.57 30.06 323.26 29.09 325.05 28.14 325.54 27.9 326.02 27.53 327.58 26.58 329.14 25.5 330.58 24.41 332.14 23.33 333.34 22.25 334.54 21.18 335.62 19.97 336.71 18.77 337.79 17.57 338.63 16.25 339.58 14.92 340.3 13.48 340.66 12.64 341.03 11.8 341.75 10 341.63 12.05 341.63 13 341.51 13.97"/>
      <polygon class="cls-2" points="179.48 123.5 181.89 117.62 184.65 112.09 187.66 107.05 191.14 102.37 194.98 98.04 199.07 94.08 203.39 90.47 208.08 87.1 212.88 83.98 217.92 81.22 223.09 78.58 228.49 76.3 234.02 74.02 239.54 71.98 245.3 70.06 250.95 68.25 262.48 64.77 274.02 61.29 279.65 59.6 285.18 57.92 290.7 56 295.99 54.08 301.16 52.03 306.08 49.88 310.88 47.48 315.44 44.95 319.65 42.07 323.73 39.06 327.33 35.82 330.7 32.23 327.82 35.71 324.57 38.95 320.97 41.83 317.13 44.59 312.93 46.99 308.48 49.27 303.8 51.32 298.87 53.24 293.71 55.04 288.42 56.72 283.02 58.28 277.5 59.84 266.09 62.97 254.55 66.21 248.79 67.89 243.02 69.7 237.26 71.73 231.61 73.9 225.96 76.18 220.56 78.82 215.16 81.58 210 84.7 205.07 88.07 200.27 91.79 195.7 95.88 191.5 100.32 187.54 105.24 183.81 110.53 180.45 116.29 177.45 122.53 178.41 123.14 179.37 123.74 179.48 123.5"/>
      <path class="cls-1" d="M454.79,110.41h9.03l.25.03h.49l.25.03.25.03.25.03.25.03.21.03.25.06.24.03.21.06.25.06.21.06.25.09.21.06.25.09.21.09.21.09.21.09.21.12.21.09.21.12.21.12.18.12.21.12.18.15.21.12.18.15.18.15.21.15.18.15.18.15.18.18.18.18.15.18.18.18.15.18.15.18.15.18.15.21.15.18.12.21.12.21.12.18.12.21.12.21.09.24.12.21.09.21.09.21.06.25.09.21.06.25.06.25.06.21.06.25.03.25.06.24.03.25.03.25v.25l.03.25v1.22l-.03.25-.03.24-.03.25-.03.25-.06.25-.06.25-.03.21-.06.25-.09.21-.06.24-.09.21-.09.25-.09.21-.09.21-.09.21-.12.21-.12.21-.09.21-.15.21-.12.18-.12.21-.15.18-.15.21-.15.18-.15.18-.15.18-.18.18-.15.18-.18.18-.18.18-.18.15-.18.15-.18.18-.21.15-.18.12-.18.15-.21.15-.21.12-.21.12-.21.12-.21.12-.21.12-.21.09-.21.12-.21.09-.25.09-.21.06-.25.09-.25.06-.21.09-.24.06-.25.06-.25.03-.25.06-.25.03-.25.03-.25.03h-.24l-.28.03h-9.52v33.87l-.03.4-.03.37-.03.4-.06.37-.03.37-.06.4-.09.37-.06.37-.09.37-.09.34-.12.37-.09.37-.12.37-.15.34-.12.34-.15.37-.15.34-.15.34-.18.34-.18.34-.18.31-.18.34-.21.34-.21.31-.21.31-.21.31-.25.31-.24.31-.25.31-.28.31-.28.28-.25.28-.28.28-.28.28-.28.24-.28.25-.31.25-.28.25-.31.25-.31.21-.31.21-.31.21-.31.21-.34.21-.31.18-.34.18-.31.18-.34.18-.34.15-.34.15-.37.18-.34.12-.34.15-.37.12-.37.15-.34.12-.37.09-.37.12-.37.09-.37.12-.4.06-.37.09-5.39,1.16v-86.73l.06-.92.03-.86.09-.89.09-.89.09-.86.15-.86.15-.83.18-.86.18-.83.21-.83.25-.83.25-.8.28-.8.31-.8.34-.8.34-.77.37-.77.37-.77.4-.77.43-.73.46-.74.46-.7.49-.74.49-.7.52-.7.55-.67.55-.67.58-.67.61-.67.61-.64.64-.64.64-.61.67-.64.67-.58.67-.58.7-.58.7-.52.7-.52.7-.52.73-.49.74-.46.77-.43.77-.43.77-.4.77-.4.8-.37.8-.34.8-.34.8-.28.83-.31.83-.25.86-.25.83-.21.86-.21.89-.15.86-.18.89-.12.89-.12.89-.09.89-.06.92-.06.92-.03h1.68l.25.03.25.03.25.03.25.03.25.03.24.03.25.06.25.06.25.06.21.06.24.06.25.09.21.09.25.09.21.09.25.09.21.12.21.09.21.12.21.12.21.12.21.15.21.15.18.12.21.15.18.18.21.15.18.18.18.18.18.18.18.18.15.18.18.18.15.21.15.18.15.21.12.18.15.21.12.21.12.21.09.21.12.21.09.21.12.25.09.21.06.21.09.25.06.21.09.25.06.25.06.21.03.25.06.25.03.25.03.21.03.25.03.24v.25l.03.25v.8l-.03.31v.31l-.03.31-.06.28-.06.31-.06.31-.06.28-.09.28-.06.28-.12.28-.09.28-.12.28-.12.28-.15.24-.15.25-.15.24-.15.25-.18.24-.18.25-.18.21-.18.21-.21.21-.21.21-.21.18-.24.21-.25.18-.21.18-.28.18-.25.15-.28.15-.25.15-.18.09-.15.09-.15.09-.15.06-.18.09-.15.09-.15.09-.18.06-.15.09-.18.09-.18.06-.15.09-.18.06-.18.09-.18.06-.15.06-.18.06-.18.09-.18.06-.18.06-.18.06-.21.06-.18.03-.18.06-.18.06-.21.03-.18.06-.18.03-.21.03-.18.03-.21.03-.18.03-.21.03h-.21l-.4.03h-.37l-.4.03-.37.06-.37.03-.37.06-.34.06-.37.06-.34.09-.37.09-.34.09-.34.09-.34.12-.34.12-.31.12-.34.15-.31.12-.34.15-.31.15-.31.18-.31.18-.31.18-.31.18-.31.21-.28.18-.31.21-.31.24-.28.21-.28.25-.31.28-.28.25-.28.28-.31.28-.28.31-.28.31-.28.31-.25.31-.24.31-.25.31-.25.34-.21.31-.21.34-.18.31-.18.34-.18.34-.18.34-.15.34-.15.34-.15.34-.15.34-.12.37-.09.37-.12.34-.09.37-.09.37-.09.4-.06.37-.06.37-.06.4-.03.4-.03.4-.03.4-.03.4v15.4ZM54.98,90.04l-.09-.21-.06-.25-.09-.21-.09-.25-.09-.21-.09-.21-.09-.21-.09-.21-.12-.21-.09-.21-.12-.21-.12-.21-.12-.18-.12-.21-.12-.18-.12-.21-.15-.18-.12-.18-.15-.18-.15-.18-.15-.18-.15-.18-.15-.18-.18-.18-.15-.15-.18-.18-.18-.18-.18-.15-.15-.12-.12-.15-.28-.28-.31-.31-.28-.25-.31-.28-.28-.25-.31-.25-.31-.21-.31-.21-.31-.21-.31-.21-.31-.18-.34-.18-.31-.18-.34-.15-.31-.15-.34-.15-.34-.12-.34-.12-.37-.12-.34-.12-.34-.09-.37-.09-.37-.09-.37-.06-.37-.06-.4-.06-.37-.06-.4-.03-.4-.03-.4-.03h-.4l-.4-.03-.43.03h-.4l-.43.03-.4.03-.4.03-.4.06-.37.03-.4.09-.37.06-.37.09-.37.09-.37.09-.37.12-.34.09-.37.15-.34.12-.34.15-.34.15-.34.15-.31.18-.34.18-.31.18-.34.21-.31.21-.31.21-.31.21-.31.25-.31.25-.28.28-.31.28-.31.28-.28.31-.03.03-.03.03-.31.31-.28.28-.25.28-.25.31-.24.28-.25.31-.21.31-.21.31-.18.31-.21.31-.18.31-.15.31-.18.34-.15.31-.15.34-.12.34-.12.34-.12.34-.12.34-.09.34-.09.37-.09.34-.09.37-.06.37-.06.37-.06.37-.03.37-.06.37v.4l-.03.4-.03.37v51.02l.03.4.03.37.03.4.03.4.03.37.06.37.06.37.09.37.06.37.09.37.12.34.09.37.12.34.12.34.12.34.15.34.15.34.15.34.18.34.15.31.18.34.21.31.18.34.21.31.21.31.25.31.24.31.25.31.25.31.28.31.21.25.28.21.31.28.31.24.31.25.31.25.34.21.31.21.31.21.34.18.34.18.31.18.34.18.34.15.34.15.34.15.37.15.34.12.37.12.34.12.37.09.37.09.37.09.37.09.37.06.37.06.4.06.37.03.4.06.4.03h.4l.4.03h.83l.4-.03h.4l.4-.03.37-.03.4-.06.37-.03.37-.06.37-.09.37-.06.37-.09.37-.09.34-.09.34-.12.37-.09.34-.12.34-.15.34-.12.31-.15.34-.18.31-.15.34-.18.31-.18.31-.18.31-.21.31-.21.31-.21.31-.25.31-.25.28-.25.31-.28.25-.25.28-.28.28-.31.25-.31.28-.31.25-.31.21-.31.25-.31.21-.34.21-.31.21-.34.18-.31.18-.34.18-.34.18-.34.15-.31.15-.37.15-.34.12-.34.12-.34.12-.37.09-.34.12-.37.06-.37.09-.37.06-.37.06-.37.06-.37.06-.4.03-.4v-.37l.03-.4v-.89l.03-.25.03-.24v-.25l.03-.21.06-.25.03-.25.03-.21.06-.25.06-.21.06-.25.09-.21.06-.21.09-.21.09-.25.09-.21.09-.21.09-.21.12-.21.12-.18.12-.21.12-.21.12-.18.15-.21.12-.18.15-.18.15-.18.15-.21.18-.15.15-.18.18-.18.18-.18.18-.15.18-.15.18-.15.18-.15.21-.15.18-.15.21-.12.21-.12.18-.12.21-.12.21-.12.21-.09.21-.12.21-.09.25-.09.21-.09.21-.06.25-.09.21-.06.25-.06.25-.06.21-.06.24-.03.25-.06.25-.03.25-.03.24-.03h.25l.25-.03h.98l.24.03h.25l.25.03.25.03.25.03.21.06.25.03.25.06.24.06.21.06.25.06.21.09.25.06.21.09.21.09.21.09.21.12.21.09.21.12.21.12.21.12.21.12.18.12.21.15.18.15.18.15.21.15.18.15.18.15.15.18.18.18.18.18.15.18.15.18.15.18.15.18.15.18.12.21.15.18.12.21.12.21.12.18.09.21.12.21.09.21.09.21.09.21.06.25.09.21.06.21.06.25.06.21.06.25.06.21.03.25.03.25.03.21.03.25.03.24v1.62l-.03.86-.06.89-.06.86-.09.86-.12.86-.12.86-.15.83-.18.83-.18.83-.21.83-.25.8-.25.83-.28.8-.28.77-.34.8-.34.77-.34.77-.37.74-.4.77-.43.74-.43.7-.46.73-.46.7-.52.7-.49.7-.55.67-.55.67-.55.67-.58.64-.61.67-.64.64-.03.03-.67.61-.64.61-.67.55-.7.58-.67.52-.7.52-.7.52-.73.46-.7.46-.77.46-.74.43-.73.4-.77.4-.77.37-.8.34-.8.34-.8.31-.8.28-.8.28-.83.25-.83.21-.83.21-.86.18-.86.18-.86.15-.86.12-.86.12-.89.09-.89.06-.89.03-.92.03-.89.03-.92-.03-.89-.03-.89-.03-.89-.06-.86-.09-.89-.12-.86-.12-.86-.15-.83-.15-.86-.21-.83-.18-.83-.25-.8-.25-.83-.28-.8-.28-.8-.31-.77-.34-.8-.34-.77-.37-.73-.4-.77-.4-.73-.43-.74-.46-.7-.46-.7-.49-.7-.49-.7-.52-.67-.55-.67-.55-.67-.58-.67-.61-.64-.61-.64-.67-.58-.64-.61-.64-.55-.67-.55-.67-.55-.67-.49-.7-.49-.7-.49-.7-.46-.73-.43-.73-.4-.74-.4-.73-.37-.77-.37-.74-.34-.8-.31-.77-.31-.8-.28-.8-.25-.8-.25-.8-.21-.83-.18-.83-.18-.83-.15-.83-.12-.86-.12-.86-.09-.86-.06-.86-.06-.89-.03-.86v-52l.03-.86.06-.89.06-.86.09-.86.12-.86.12-.86.15-.83.18-.83.18-.83.21-.83.25-.8.25-.8.28-.8.31-.8.31-.77.34-.77.37-.77.37-.77.4-.74.4-.73.43-.74.46-.7.49-.73.49-.7.49-.67.55-.7.55-.67.55-.64.58-.67.61-.64.64-.64.64-.64.64-.58.67-.61.64-.55.7-.55.67-.55.7-.52.7-.49.73-.46.74-.46.73-.43.74-.43.77-.4.77-.37.77-.37.77-.34.8-.31.8-.31.83-.28.8-.25.83-.24.86-.21.83-.18.86-.18.86-.15.86-.12.89-.12.86-.09.89-.06.92-.06.89-.03h1.81l.92.03.89.06.89.06.89.09.86.12.89.12.83.15.86.18.86.18.83.21.83.24.8.25.83.28.8.31.8.31.77.34.77.34.77.4.77.4.74.4.73.43.73.46.74.49.7.49.7.52.67.52.67.55.67.58.67.58.64.61.64.61.61.61.64.64.58.64.58.64.58.67.55.67.52.67.49.7.49.7.46.7.46.74.4.73.43.74.37.74.37.77.34.77.34.77.31.77.28.8.25.8.24.83.21.8.21.83.18.83.15.86.12.83.12.86.09.86.06.86.06.89.03.89v1.59l-.03.25-.03.25-.03.24-.03.21-.03.24-.06.25-.06.21-.06.25-.06.21-.06.21-.09.25-.06.21-.09.21-.09.21-.09.21-.12.21-.09.21-.12.21-.12.21-.12.18-.15.21-.12.18-.15.18-.15.21-.15.18-.15.18-.15.18-.18.18-.18.15-.15.18-.18.15-.21.18-.18.15-.18.15-.18.15-.21.12-.18.12-.21.15-.21.12-.21.12-.21.09-.21.12-.21.09-.21.09-.21.09-.25.09-.21.09-.21.06-.25.06-.25.06-.21.06-.25.06-.25.06-.21.03-.25.03-.25.03-.25.03h-.25l-.24.03h-.98l-.25-.03h-.25l-.24-.03-.25-.03-.25-.03-.25-.03-.24-.06-.21-.06-.25-.06-.25-.06-.21-.06-.25-.06-.21-.09-.21-.09-.25-.09-.21-.09-.21-.09-.21-.12-.21-.09-.21-.12-.18-.12-.21-.15-.21-.12-.18-.15-.21-.12-.18-.15-.18-.15-.18-.18-.18-.15-.18-.18-.18-.18-.18-.18-.15-.18-.15-.18-.18-.18-.15-.21-.12-.18-.15-.21-.15-.21-.12-.21-.12-.21-.06-.15h-1.13v-4.84l-.03-.12v-.25l-.03-.12v-.12l-.03-.12v-.12l-.03-.12-.03-.12v-.12l-.03-.12-.03-.12-.03-.12-.03-.12-.03-.12-.03-.15-.03-.12-.03-.12v-.15l-.03-.15-.03-.12-.03-.15-.03-.15-.03-.15v-.15l-.03-.15v-.15l-.03-.03-.03-.12-.06-.25-.06-.24-.06-.25ZM108.64,155.92l.28.28.31.28.31.25.31.28.31.21.31.25.31.21.31.21.34.18.31.18.34.18.34.18.34.15.34.15.34.12.34.15.34.12.37.12.34.09.37.12.37.09.37.06.37.09.4.06.37.06.4.06.4.03.37.03.43.03.4.03h6.28l.4-.03.4-.03.4-.03.4-.03.37-.06.4-.06.37-.06.37-.09.37-.06.37-.12.37-.09.37-.09.34-.12.37-.12.34-.15.34-.12.34-.15.34-.18.34-.15.34-.18.31-.18.34-.21.31-.21.31-.21.31-.21.31-.25.31-.25.31-.28.31-.25.31-.31.28-.28.31-.31.25-.28.28-.31.25-.28.25-.31.21-.31.25-.31.18-.31.21-.31.18-.34.18-.31.15-.34.18-.31.15-.34.12-.34.15-.34.12-.34.12-.37.09-.34.09-.37.09-.34.09-.37.06-.37.06-.37.06-.4.06-.37.03-.4.03-.4v-.4l.03-.4v-50.81l-.03-.4v-.4l-.03-.4-.03-.37-.06-.4-.06-.37-.06-.37-.06-.37-.09-.37-.09-.37-.09-.37-.09-.34-.12-.34-.12-.34-.15-.37-.12-.31-.15-.34-.15-.34-.18-.31-.18-.34-.18-.31-.18-.31-.21-.31-.21-.31-.25-.31-.25-.31-.25-.31-.25-.28-.28-.31-.28-.28-.31-.28-.31-.28-.28-.28-.31-.25-.31-.25-.34-.24-.31-.21-.31-.25-.34-.18-.31-.21-.34-.18-.31-.18-.34-.18-.34-.15-.34-.15-.34-.15-.37-.12-.34-.12-.37-.12-.34-.12-.37-.09-.37-.09-.37-.09-.37-.09-.37-.06-.4-.06-.37-.06-.4-.03-.4-.06-.4-.03h-.4l-.43-.03h-5.45l-.4.03h-.4l-.4.03-.4.06-.4.03-.37.06-.4.06-.37.09-.37.06-.37.09-.37.09-.37.12-.34.09-.37.12-.34.15-.37.12-.34.15-.34.15-.34.18-.34.15-.34.18-.31.21-.34.18-.31.21-.34.21-.31.21-.31.25-.34.25-.31.25-.31.28-.28.25-.31.28-.28.31-.28.28-.25.31-.25.28-.25.31-.21.31-.25.31-.18.31-.21.31-.18.31-.18.34-.15.31-.18.34-.15.34-.12.34-.15.34-.12.34-.09.34-.12.37-.09.34-.09.37-.09.37-.06.37-.06.37-.06.37-.03.4-.03.37-.03.4-.03.4v.4l-.03.43v49.98l.03.4v.4l.03.4.03.4.03.4.03.37.06.4.06.37.09.37.06.37.09.37.09.34.12.37.12.34.12.34.12.34.15.34.15.34.15.34.18.31.15.34.21.31.18.31.21.31.21.31.24.31.25.31.25.31.25.28.28.31.31.28.31.31ZM83.8,95l.03-.89.03-.89.03-.89.09-.86.09-.86.12-.86.12-.86.15-.86.18-.83.21-.83.21-.83.24-.8.25-.8.31-.8.28-.8.34-.8.34-.77.37-.77.4-.74.4-.77.43-.73.43-.7.49-.74.46-.7.52-.7.52-.67.55-.7.55-.67.58-.64.58-.67.64-.64.64-.64.03-.03.67-.61.67-.58.67-.58.67-.55.7-.55.7-.52.7-.49.74-.49.73-.46.74-.46.73-.43.77-.43.77-.37.77-.4.8-.34.8-.34.8-.34.8-.31.83-.28.83-.25.83-.25.83-.21.86-.18.86-.18.86-.15.89-.15.86-.12.89-.09.92-.06.89-.06.92-.03h6.46l.89.03.92.06.89.06.89.09.86.12.89.12.86.15.86.18.83.18.83.21.86.24.8.25.83.28.8.31.8.31.8.34.77.37.77.37.77.4.77.4.73.46.74.43.73.49.7.49.7.49.7.55.67.55.67.55.67.58.67.61.64.61.64.64.61.64.61.64.58.67.58.64.55.7.52.67.52.7.46.7.49.73.43.74.43.73.4.74.4.77.37.77.34.77.31.77.31.8.28.8.28.8.25.83.21.83.18.83.18.83.15.86.12.86.12.86.09.86.06.86.06.89.03.89v51.79l-.03.89-.06.89-.06.89-.09.86-.12.89-.12.86-.15.83-.18.86-.21.83-.21.83-.25.83-.25.8-.28.8-.31.8-.31.8-.37.77-.34.77-.4.77-.4.77-.43.74-.46.73-.46.73-.49.7-.49.7-.52.7-.55.67-.55.7-.58.64-.61.67-.61.64-.64.64-.67.64-.64.58-.67.61-.67.55-.7.55-.7.52-.7.49-.7.49-.73.46-.74.46-.77.43-.74.4-.77.4-.77.37-.8.34-.8.34-.8.31-.8.28-.83.28-.8.25-.83.21-.86.21-.83.18-.86.15-.86.15-.89.12-.86.12-.89.09-.89.06-.89.06h-.92l-.89.03h-4.65l-.89-.03h-.92l-.89-.06-.89-.06-.89-.09-.89-.12-.86-.12-.89-.15-.86-.15-.83-.18-.86-.21-.83-.25-.83-.25-.83-.24-.8-.31-.83-.31-.8-.34-.77-.34-.8-.37-.77-.37-.77-.43-.74-.43-.73-.43-.74-.46-.73-.49-.7-.49-.74-.55-.67-.52-.7-.58-.67-.55-.67-.61-.64-.61-.06-.06-.03-.03-.61-.64-.61-.64-.58-.67-.58-.67-.55-.67-.52-.7-.52-.67-.49-.7-.49-.74-.46-.7-.43-.73-.43-.77-.4-.74-.4-.77-.37-.77-.34-.77-.31-.77-.31-.8-.31-.8-.25-.83-.25-.8-.25-.83-.18-.83-.18-.86-.15-.83-.15-.86-.12-.86-.09-.86-.09-.89-.03-.89-.03-.89-.03-.89v-50.01ZM178.31,60.03h.74l.25.03.24.03.25.03.21.03.25.03.25.06.25.03.21.06.25.06.21.06.24.09.21.06.21.09.21.09.25.09.21.09.21.09.21.12.21.09.18.12.21.12.21.12.18.12.21.15.18.12.18.15.21.15.18.12.18.18.18.15.18.18.18.18.18.18.18.18.15.18.15.18.15.21.15.18.15.21.15.21.12.21.12.21.12.21.12.21.09.21.12.21.09.25.09.25.06.21.09.25.06.24.06.25.06.24.06.25.03.25.03.25.03.25.03.24.03.28v.49l-.21,92.79v.77l-.03.4-.03.37-.03.4-.06.37-.03.37-.06.37-.09.37-.06.37-.09.37-.09.37-.12.37-.09.34-.12.37-.15.34-.12.37-.15.34-.15.34-.15.34-.18.34-.18.34-.18.31-.21.34-.21.31-.21.34-.21.31-.21.31-.25.31-.25.31-.28.28-.25.31-.28.28-.28.28-.28.25-.28.28-.28.25-.28.25-.31.25-.28.25-.31.21-.31.21-.31.21-.31.21-.31.21-.31.18-.34.18-.31.18-.34.18-.34.15-.34.18-.34.15-.34.15-.34.12-.37.15-.34.12-.37.12-.34.12-.37.12-.37.09-.37.12-.37.09-.37.09-.37.06-5.39,1.16v-111.23l.03-.21.03-.24v-.25l.03-.25.06-.21.03-.24.03-.25.06-.21.06-.25.06-.21.09-.21.06-.25.09-.21.09-.21.09-.21.09-.21.09-.21.12-.21.12-.21.12-.21.12-.18.12-.21.15-.18.12-.18.15-.21.15-.18.15-.18.18-.18.15-.18.18-.15.18-.18.18-.15.18-.18.18-.15.18-.15.21-.12.18-.15.21-.12.21-.15.18-.12.21-.12.21-.09.21-.12.21-.09.21-.09.25-.09.21-.09.21-.09.25-.06.21-.06.25-.09.24-.03.21-.06.25-.06.24-.03.25-.03.25-.03.25-.03.25-.03h.73ZM231.84,79.6l-.37.03-.4.03-.37.03-.37.03-.37.06-.37.03-.37.09-.37.06-.34.06-.34.09-.34.09-.34.12-.34.12-.34.09-.34.15-.31.12-.34.15-.31.15-.31.15-.31.15-.31.18-.31.18-.31.18-.31.21-.31.21-.28.21-.31.21-.28.25-.28.25-.31.24-.28.25-.28.28-.31.31-.28.31-.28.28-.28.31-.25.31-.25.34-.24.31-.25.31-.21.31-.21.34-.18.34-.18.31-.18.34-.18.34-.15.34-.15.34-.15.34-.15.37-.12.34-.09.37-.12.37-.09.37-.09.37-.09.37-.06.37-.06.4-.06.37-.03.4-.03.4-.03.4v.43l-.03.43v68.42l-.03.4-.03.37-.03.37-.03.4-.06.37-.06.37-.06.37-.09.37-.06.34-.09.37-.12.37-.09.37-.12.34-.12.34-.12.37-.15.34-.15.34-.15.34-.15.34-.18.34-.18.34-.18.31-.18.34-.21.31-.21.34-.21.31-.25.31-.25.31-.24.28-.25.31-.25.31-.28.28-.28.28-.28.27-.28.25-.28.28-.28.25-.31.25-.28.21-.31.25-.31.21-.31.21-.31.21-.31.21-.34.18-.31.18-.34.18-.34.18-.34.15-.34.18-.34.15-.34.15-.37.12-.34.15-.37.12-.34.12-.37.12-.37.09-.37.12-.37.09-.4.09-.37.06-5.39,1.16v-86.73l.03-.89.06-.86.06-.89.09-.86.12-.86.12-.83.15-.86.15-.83.21-.83.21-.83.21-.8.25-.8.28-.8.31-.8.31-.8.34-.77.34-.77.4-.74.4-.77.4-.73.43-.74.46-.7.49-.7.49-.7.52-.7.52-.67.58-.67.55-.67.61-.67.61-.64.64-.64.64-.61.67-.61.67-.58.67-.58.7-.55.7-.55.7-.52.73-.49.7-.49.77-.46.74-.43.77-.43.77-.4.77-.4.8-.37.8-.34.8-.34.8-.31.83-.28.83-.25.83-.25.86-.25.86-.18.86-.18.86-.15.89-.15.89-.12.89-.09.92-.06.89-.06.92-.03h1.44l.25.03h.28l.24.03.25.03.25.03.25.06.25.06.25.03.25.09.21.06.25.06.25.09.21.09.25.09.21.09.21.09.21.12.25.12.21.12.18.12.21.12.21.15.18.12.21.15.18.15.21.18.18.15.18.18.18.15.15.18.18.18.15.18.15.18.15.18.15.18.15.21.12.18.15.18.12.21.12.21.12.18.09.21.12.21.09.21.09.21.09.21.09.21.09.21.06.24.06.21.06.21.06.24.06.21.03.25.06.21.03.24.03.25.03.25v.21l.03.25v1.1l-.03.28-.03.31-.03.28-.06.31-.06.28-.06.28-.09.31-.06.28-.12.28-.09.25-.12.28-.12.28-.12.24-.12.25-.15.25-.15.25-.18.25-.18.21-.15.25-.21.21-.18.21-.21.21-.21.18-.21.21-.25.18-.21.18-.24.18-.28.18-.25.15-.25.15-.18.09-.15.09-.18.09-.18.09-.15.09-.18.09-.18.09-.15.09-.18.06-.18.09-.18.09-.18.06-.21.09-.18.06-.18.09-.18.06-.21.06-.18.06-.21.06-.18.06-.21.06-.18.03-.21.06-.21.03-.21.03-.21.03-.21.03-.21.03-.21.03h-.61ZM286.75,77.64l.15.15.18.18.15.21.15.18.15.18.15.21.15.18.12.21.12.18.12.21.12.21.09.21.09.21.12.21.06.21.09.21.09.25.06.21.06.21.06.21.06.25.06.21.03.25.06.21.03.24.03.21.03.25v.21l.03.25v.25l.03.21v.46l-.03.25v.21l-.03.25v.21l-.03.25-.03.21-.06.25-.03.21-.06.21-.03.21-.06.25-.06.21-.09.21-.06.21-.09.21-.06.21-.09.21-.12.18-.09.21-.12.21-.09.21-.12.18-.12.18-.12.21-.15.18-.15.18-.12.18-.15.18-.15.18-.18.18-.15.15-.15.15-.18.18-.18.18-.18.18-.21.15-.18.15-.21.18-.21.12-.18.15-.21.12-.25.15-.21.12-.21.09-.21.12-.24.09-.21.12-.24.09-.25.06-.25.09-.21.06-.24.06-.25.06-.25.06-.25.06-.25.03-.28.03-.25.03-.25.03-.25.03h-9.16v51.02l.03.4v.4l.03.4.06.4.03.4.06.37.06.4.09.37.06.37.09.37.12.37.09.37.12.34.12.37.15.34.12.34.15.34.18.34.15.34.18.34.21.31.18.34.21.31.21.34.24.31.25.31.25.31.28.31.24.31.31.28.31.31v.03l.31.28.28.28.28.25.28.25.31.21.28.25.31.21.31.18.31.21.31.18.31.18.31.15.31.15.34.15.34.15.34.15.34.12.34.12.34.12.34.09.37.12.34.09.37.06.37.09.37.06.37.06.4.06.37.06.4.03.37.03.4.03.43.03.31.03.34.06.34.06.37.09.34.09.37.09.34.12.37.12.34.12.34.12.34.15.34.12.31.15.34.18.34.15.31.18.31.18.25.15.18.09.31.15.25.15.28.18.25.18.25.18.24.18.21.21.21.21.21.21.21.21.18.25.18.21.15.25.15.24.15.25.15.28.12.24.12.28.12.28.09.25.09.28.09.31.06.28.06.28.06.28.06.31.03.28.03.31v.31l.03.28v.8l-.03.21v.24l-.03.25-.03.21-.03.25-.03.25-.03.21-.06.25-.06.21-.06.25-.06.21-.06.24-.06.21-.09.21-.09.25-.09.21-.09.21-.12.21-.09.21-.12.21-.12.21-.12.21-.15.18-.12.21-.15.18-.15.21-.18.18-.15.18-.18.18-.18.18-.18.18-.18.18-.18.15-.21.15-.18.15-.21.15-.21.12-.18.15-.21.12-.21.12-.21.09-.25.12-.21.09-.21.12-.21.09-.25.06-.21.09-.25.06-.21.06-.25.06-.24.06-.21.06-.25.06-.25.03-.24.03-.25.03-.21.03-.25.03h-.49l-.25.03h-.24l-.92-.03-.92-.03-.92-.03-.89-.06-.92-.09-.89-.12-.89-.12-.86-.15-.89-.15-.86-.18-.86-.21-.83-.25-.86-.25-.83-.28-.83-.28-.8-.34-.83-.31-.8-.37-.77-.37-.8-.4-.77-.43-.77-.43-.74-.46-.73-.49-.73-.49-.74-.52-.7-.52-.7-.58-.67-.58-.7-.61-.64-.61-.67-.64-.64-.67-.58-.64-.61-.64-.55-.67-.55-.7-.55-.67-.52-.7-.49-.7-.49-.7-.46-.73-.46-.7-.43-.77-.43-.73-.4-.77-.37-.77-.34-.77-.34-.77-.34-.8-.28-.8-.28-.8-.25-.83-.24-.83-.21-.83-.18-.83-.18-.86-.15-.86-.12-.86-.09-.89-.09-.86-.03-.89-.06-.89v-76.5l.03-.25.03-.25.03-.25.03-.21.03-.25.06-.25.06-.21.03-.24.09-.21.06-.25.09-.21.06-.21.09-.21.09-.21.12-.21.09-.21.12-.21.09-.18.12-.21.12-.18.15-.21.12-.18.15-.18.12-.18.15-.18.15-.18.15-.18.15-.18.18-.15.15-.18.18-.18.21-.15.15-.12.18-.15.21-.12.18-.12.18-.15.18-.12.21-.12.18-.12.21-.09.18-.12.21-.12.21-.09.21-.09.21-.12.21-.09.21-.06.21-.09.21-.09.25-.06.21-.09.25-.06.21-.06.25-.03.24-.06.21-.06.25-.03.25-.03.24-.03h.25l.25-.03h1.01l.25.03h.28l.25.03.25.03.24.03.25.06.25.03.25.06.21.06.25.09.25.06.21.09.25.06.21.09.21.09.24.12.21.09.21.12.21.12.21.12.21.12.18.12.21.15.21.12.18.15.18.15.21.15.18.18.18.15.18.18.15.18.18.15.15.18.15.18.15.18.15.18.12.18.15.18.12.18.15.21.12.18.12.21.09.18.12.21.09.21.12.21.09.21.09.21.06.21.09.21.06.25.09.21.03.24.06.21.06.25.03.25.03.21.03.25.03.25.03.25v5.42h9.16l.25.03.25.03.28.03.24.03.25.03.25.06.25.06.25.06.24.06.21.06.25.09.25.09.24.09.21.09.24.09.21.12.21.09.21.15.25.12.21.12.18.15.21.15.21.15.18.15.21.15.18.18.18.18.18.18.15.15ZM366.41,60.03h.77l.25.03.21.03.24.03.25.03.25.03.25.06.25.06.21.03.25.09.21.06.25.06.21.09.21.09.25.09.21.09.21.09.21.12.21.09.21.12.21.12.18.15.21.12.18.15.21.12.18.15.18.15.18.18.18.15.18.18.18.15.15.18.18.18.15.18.15.18.15.21.15.18.12.18.12.21.12.18.12.21.12.21.12.21.09.21.12.21.09.21.06.21.09.21.09.25.06.21.06.21.06.25.06.21.03.25.06.24.03.21.03.25.03.25v.24l.03.21v76.47l-.03.89-.06.89-.06.89-.09.86-.12.86-.15.86-.15.83-.18.83-.18.83-.21.83-.25.83-.28.8-.28.8-.31.8-.31.77-.37.77-.37.77-.37.77-.4.74-.43.73-.46.74-.46.7-.49.7-.49.7-.52.7-.55.67-.55.67-.58.67-.61.64-.61.64-.64.64-.64.61-.64.61-.67.58-.67.55-.67.55-.7.52-.7.49-.7.49-.74.46-.7.46-.77.43-.74.4-.77.37-.77.37-.77.37-.77.31-.8.31-.8.31-.83.28-.8.25-.83.21-.83.21-.86.18-.83.18-.86.15-.86.12-.86.09-.89.09-.89.06-.89.06-.89.03h-1.81l-.89-.03-.89-.06-.89-.06-.89-.09-.86-.09-.86-.12-.86-.15-.86-.18-.83-.18-.83-.21-.83-.21-.83-.25-.8-.28-.8-.28-.8-.34-.77-.31-.8-.37-.77-.37-.73-.37-.77-.4-.73-.43-.74-.46-.7-.46-.7-.49-.7-.49-.7-.52-.67-.55-.67-.55-.67-.58-.64-.61-.67-.61-.61-.64-.64-.64-.58-.64-.58-.67-.55-.67-.55-.67-.52-.7-.52-.7-.46-.7-.49-.7-.43-.74-.43-.73-.4-.74-.4-.77-.37-.77-.34-.77-.31-.77-.31-.8-.28-.8-.28-.8-.24-.83-.21-.83-.18-.83-.18-.83-.15-.83-.15-.86-.12-.86-.09-.86-.06-.89-.06-.89-.03-.89v-76.47l.03-.25v-.25l.03-.25.03-.24.06-.25.03-.25.06-.25.06-.21.06-.25.06-.25.09-.21.06-.21.09-.25.09-.21.12-.21.09-.21.12-.21.12-.21.12-.21.12-.21.12-.21.15-.18.15-.21.15-.18.15-.18.15-.18.18-.18.18-.18.15-.18.18-.15.18-.18.18-.15.21-.15.18-.15.18-.15.21-.12.18-.15.21-.12.18-.12.21-.12.21-.12.21-.09.21-.12.21-.09.21-.09.25-.09.21-.09.21-.06.25-.09.21-.06.25-.06.21-.06.25-.03.24-.06.25-.03.21-.03.25-.03.24-.03.25-.03h1.47l.25.03.25.03.24.03.25.03.25.03.25.06.21.06.25.03.25.09.21.06.25.06.21.09.21.09.25.09.21.09.21.09.21.12.21.09.21.12.21.12.18.15.21.12.18.15.21.12.18.15.18.15.18.18.18.15.18.18.18.15.15.18.18.18.15.18.15.18.15.21.12.18.15.18.12.21.12.18.12.21.12.21.12.21.09.21.09.21.09.21.09.21.09.21.06.25.09.21.06.21.06.25.06.21.03.25.06.24.03.21.03.25.03.25v.24l.03.21v75.98l.03.43v.37l.03.4.06.4.03.37.06.4.06.37.09.37.06.37.09.34.12.37.09.34.12.37.12.34.15.34.15.34.15.34.15.31.18.34.18.34.18.31.18.31.21.31.21.34.25.31.25.28.25.31.24.31.28.31.28.28.31.31.28.28.31.25.28.28.31.25.31.21.31.25.31.21.31.21.31.18.31.18.34.18.31.15.34.18.34.15.34.12.34.15.34.12.34.12.34.09.37.12.37.09.34.06.37.09.37.06.4.06.37.06.4.03.37.03.4.03.4.03h1.62l.4-.03.4-.03.4-.03.4-.03.4-.06.37-.06.37-.06.4-.09.37-.09.34-.09.37-.09.37-.12.34-.12.37-.12.34-.12.34-.15.34-.15.34-.15.34-.18.31-.18.34-.18.31-.18.34-.21.31-.21.31-.25.31-.21.31-.25.31-.28.31-.24.28-.28.28-.28.28-.28.28-.31.24-.31.25-.28.25-.31.21-.31.21-.31.18-.31.21-.34.18-.31.15-.31.18-.34.15-.34.12-.34.15-.34.12-.34.12-.34.12-.34.09-.37.09-.34.09-.37.06-.37.09-.37.06-.37.03-.4.06-.37.03-.4.03-.4v-.4l.03-.4v-75.98l.03-.25v-.25l.03-.25.03-.24.06-.25.03-.25.06-.25.06-.21.06-.25.06-.25.09-.21.06-.21.09-.25.09-.21.12-.21.09-.21.12-.21.12-.21.12-.21.12-.21.15-.21.12-.18.15-.21.15-.18.15-.18.18-.18.15-.18.18-.18.18-.18.18-.15.18-.18.18-.15.18-.15.18-.15.18-.15.21-.12.18-.15.21-.12.21-.12.18-.12.21-.12.21-.09.21-.12.21-.09.21-.09.25-.09.21-.09.21-.06.25-.09.21-.06.25-.06.24-.06.21-.03.24-.06.25-.03.25-.03.21-.03.25-.03.25-.03h.74ZM404.54,110.41h9.03l.25.03h.49l.25.03.25.03.21.03.25.03.25.03.25.06.21.03.25.06.25.06.21.06.25.09.21.06.21.09.25.09.21.09.21.09.21.12.21.09.21.12.18.12.21.12.21.12.18.15.21.12.18.15.18.15.18.15.18.15.18.15.18.18.18.18.18.18.18.18.15.18.15.18.15.18.15.21.12.18.15.21.12.21.12.18.12.21.12.21.09.24.12.21.09.21.09.21.06.25.09.21.06.25.06.25.06.21.06.25.03.25.06.24.03.25.03.25v.25l.03.25v.98l-.03.25v.25l-.03.24-.03.25-.06.25-.03.25-.06.25-.06.21-.06.25-.06.21-.06.24-.09.21-.09.25-.09.21-.09.21-.09.21-.12.21-.12.21-.12.21-.12.21-.12.18-.15.21-.12.18-.15.21-.15.18-.15.18-.15.18-.18.18-.15.18-.18.18-.18.18-.18.15-.18.15-.18.18-.21.15-.18.15-.21.12-.18.15-.21.12-.21.12-.21.12-.21.12-.21.12-.21.09-.21.12-.25.09-.21.09-.25.09-.21.06-.25.06-.21.09-.25.06-.25.06-.25.03-.25.06-.25.03-.25.03-.25.03h-.28l-.25.03h-9.52v33.87l-.03.4-.03.37-.03.4-.06.37-.03.37-.09.4-.06.37-.06.37-.09.37-.09.34-.12.37-.09.37-.12.37-.15.34-.12.34-.15.37-.15.34-.15.34-.18.34-.18.34-.18.31-.18.34-.21.34-.21.31-.21.31-.25.31-.21.31-.24.31-.28.31-.24.31-.28.28-.25.28-.28.28-.28.28-.28.24-.31.25-.28.25-.31.25-.28.25-.31.21-.31.21-.31.21-.31.21-.34.21-.31.18-.34.18-.34.18-.34.18-.34.15-.34.18-.34.15-.34.12-.37.15-.34.12-.37.15-.37.12-.34.09-.37.12-.37.09-.4.12-.37.06-.37.09-5.39,1.16v-86.73l.03-.92.06-.86.06-.89.09-.89.12-.86.15-.86.15-.83.15-.86.21-.83.21-.83.25-.83.25-.8.28-.8.31-.8.34-.8.34-.77.37-.77.37-.77.4-.77.43-.73.43-.74.49-.7.46-.74.52-.7.52-.7.55-.67.55-.67.58-.67.61-.67.61-.64.64-.64.64-.61.67-.64.67-.58.67-.58.7-.58.67-.52.74-.52.7-.52.74-.49.73-.46.77-.43.74-.43.77-.4.8-.4.77-.37.8-.34.83-.34.8-.28.83-.31.83-.25.86-.25.83-.21.86-.21.86-.15.89-.18.89-.12.89-.12.89-.09.89-.06.92-.06.92-.03h1.68l.25.03.25.03.24.03.25.03.25.03.25.03.24.06.25.06.21.06.25.06.24.06.21.09.25.09.21.09.25.09.21.09.25.12.21.09.21.12.21.12.21.12.21.15.21.15.18.12.21.15.18.18.21.15.18.18.18.18.18.18.18.18.15.18.18.18.15.21.15.18.12.21.15.18.12.21.12.21.12.21.12.21.12.21.09.21.09.25.09.21.09.21.09.25.06.21.06.25.06.25.06.21.06.25.03.25.06.25.03.21.03.25.03.24v.25l.03.25v.8l-.03.31-.03.31-.03.31-.03.28-.06.31-.06.31-.06.28-.09.28-.09.28-.09.28-.12.28-.09.28-.15.28-.12.24-.15.25-.15.24-.15.25-.18.24-.18.25-.18.21-.21.21-.18.21-.21.21-.25.18-.21.21-.25.18-.25.18-.24.18-.25.15-.28.15-.25.15-.18.09-.15.09-.15.09-.15.06-.18.09-.15.09-.18.09-.15.06-.15.09-.18.09-.18.06-.15.09-.18.06-.18.09-.18.06-.18.06-.15.06-.18.09-.18.06-.21.06-.18.06-.18.06-.18.03-.18.06-.18.06-.21.03-.18.06-.18.03-.21.03-.18.03-.21.03-.18.03-.21.03h-.21l-.4.03h-.37l-.4.03-.37.06-.37.03-.37.06-.37.06-.34.06-.37.09-.34.09-.34.09-.34.09-.34.12-.34.12-.34.12-.31.15-.34.12-.31.15-.31.15-.31.18-.31.18-.31.18-.31.18-.31.21-.31.18-.28.21-.31.24-.28.21-.31.25-.28.28-.28.25-.28.28-.31.28-.28.31-.28.31-.28.31-.24.31-.28.31-.21.31-.25.34-.21.31-.21.34-.18.31-.21.34-.18.34-.15.34-.18.34-.15.34-.12.34-.15.34-.12.37-.12.37-.09.34-.09.37-.09.37-.09.4-.06.37-.06.37-.06.4-.03.4-.03.4-.03.4-.03.4v15.4Z"/>
    </g>
  </g>
</svg>