<?xml version="1.0" encoding="UTF-8"?>
<svg xmlns="http://www.w3.org/2000/svg" version="1.1" viewBox="0 0 340.19 230">
  <defs>
    <style>
      .cls-1 {
        fill: #ef5334;
      }

      .cls-2 {
        fill: none;
        stroke: #19171c;
        stroke-miterlimit: 10;
        stroke-width: 0px;
      }

      .cls-3 {
        fill: #19171c;
      }

      .cls-4 {
        fill: #076eb6;
      }

      .cls-5 {
        fill: #ef5134;
      }

      .cls-6 {
        fill: #c5c8c8;
      }
    </style>
  </defs>
  <!-- Generator: Adobe Illustrator 28.6.0, SVG Export Plug-In . SVG Version: 1.2.0 Build 709)  -->
  <g>
    <g id="Layer_1">
      <g>
        <path class="cls-6" d="M166.32,34.49l-1.71-.93c-7.68,11.7-18.53,9.13-18.53,9.13-3.67-.69-6.4-3.35-6.4-6.48s2.48-5.88,6.92-6.66c0,0,13.07-1.45,16.22,6.48l3.33-3.15s.31-2.47-7.33-6.33c-8.46-4.27-16.99-2.21-16.99-2.21-6.28,1.45-10.85,5.73-10.85,10.79,0,4.63,3.82,8.59,9.27,10.36,0,0,11.14,3.41,22.67-5.18l3.41-5.82Z"/>
        <path class="cls-6" d="M155.88,35.26c-.2-.54-.6-1.01-1-1.45-2.18-2.37-5.72-2.61-7.92-.58-1.75,1.64-2.37,3.73-.8,6.29,0,0,2.65,3.95,7.52,4.1l1.8-.85s-6.33-2.39-6.66-5.47c-.34-3.07,5.3-3.41,4.94,5.38l2.48-.5s1.66-1.72-.36-6.92"/>
        <path class="cls-6" d="M170.29,31.89c-3.62-.73-6.02-3.46-6.69-7.69-.69-4.12,2.94-7.55,6.7-7.55v3.23c-1.18,0-2.44,1.24-2.44,3.43s1.53,3.58,2.42,4.43v4.15Z"/>
        <path class="cls-6" d="M163.15,35.52l4.29-4.96,2.81-.17v3.16s-5.86,5.57-7.92,7.07c-2.05,1.45.83-5.1.83-5.1"/>
        <path class="cls-6" d="M163.25,39.2s-5.12,11.59-16.41,13.66c-11.26,2.06-20.95-2.63-26.4-5.13-5.46-2.51-23.77-12.42-42.47-12.42s-29.99,22.2-11.91,36.68l2.13,1.47,1.47-4.57s-8.18-3.91-6.38-15.24c1.97-12.15,16.63-11.38,29.72-6.39,13.09,5.02,27.68,10.5,37.91,12.3,10.3,1.84,33.36.82,36.65-24.24l-4.32,3.89Z"/>
        <path class="cls-6" d="M68.3,68.38s-11.83,8.72-7.18,20.67c3.37,8.6,14.02,8.2,14.02,8.2l3.75-.17-3.42-4.79s-7.16-.84-7.33-10.42c-.1-6.06,3.43-10.24,3.43-10.24l-3.26-3.25Z"/>
        <path class="cls-6" d="M74.79,94.86s-3.23,8.71,5.3,11.11l2.05.51,1.87-2.91-2.39-1.87s-2.23-2.05-2.73-4.61l-4.1-2.22Z"/>
        <path class="cls-6" d="M78.89,104.25s-6.83,6.66-5.12,15.37c1.7,8.7,7.18,12.13,5.81,15.71l4.08,1.53s1.9-3.76-2.22-11.78c-4.09-8.03-.15-17.09,1.21-19.3,1.36-2.23-3.76-1.54-3.76-1.54"/>
        <path class="cls-6" d="M78.2,133.45s15.54-.68,24.94,3.93c0,0,3.93,1.37,8.7,7.68,4.78,6.3,12.15,10.8,16.41,11.78,4.09.95,10.07,2.56,12.97-.86l1.71,3.75s-10.94,7.86-25.61.51c-14.69-7.34-18.62-21.68-35.02-22.7l-4.1-4.1Z"/>
        <path class="cls-6" d="M136.61,158.38s1.66,8.71,10.03,9.91c8.34,1.2,17.46-6.14,19.85-12.81l-3.24.16s-4.44,5.98-11.45,6.5c-6.99.5-10.41-3.25-10.41-3.25l-4.79-.52Z"/>
        <path class="cls-6" d="M163.61,158.38s2.03.86,2.71,1.72c0,0-4.78,2.72-4.78,6.65s5.4,4.73,8.77,4.73v-3.36s-4.16.34-5-2.21c-.92-2.77,5-4.8,5-4.8v-2.56s-2.8-.51-4.83-2.39l-1.87,2.22Z"/>
        <path class="cls-6" d="M162.57,157.36s-5.12-4.96-4.1-10.59c1.02-5.64,9.04-4.75,9.56.5.51,5.3-1.2,8.71-3.06,11.28-1.89,2.56-.87-2.04-.87-2.04,0,0,2.57-8.72-.5-9.91-3.08-1.19-4.64,4.77,1.87,9.55l-2.91,1.2Z"/>
        <path class="cls-6" d="M137.29,160.1s-3.75-5.64-1.54-13.15c2.23-7.52,15.19-4.96,14.01,2.21-1.2,7.18-5.81,10.58-9.05,11.95-3.25,1.37-1.87-3.07-1.87-3.07,0,0,7.51-5.97,5.29-9.57-2.22-3.59-8.55,2.56-3.58,9.73l-3.26,1.89Z"/>
        <path class="cls-6" d="M82.47,133.45s-30.9-.68-17.75,13.15c13.15,13.83,19.29-10.41,19.29-11.09s-4.27-1.19-4.27-1.19c0,0-.86,9.74-6.66,10.4-5.81.7-12.99-9.05,9.21-7.17l.17-4.1Z"/>
        <path class="cls-6" d="M78.4,104.59s8.18-9.91,15.87-7.34c7.68,2.56,3.23,14-13.66,8.88l3.41-2.57s9.57,2.57,8.37-1.87c-1.2-4.44-7.34.35-9.73,4.1l-4.25-1.2Z"/>
        <path class="cls-6" d="M74.62,95.55s2.56-13.32,11.45-13.84c8.89-.51,11.1,14-8.02,15.37v-4.45s10.41-.85,10.41-5.45-9.39-1.54-9.9,9.22l-3.94-.85Z"/>
        <path class="cls-6" d="M67.11,69.41s7.51-9.39,14.86-8.2c7.33,1.2,6.99,16.75-15.19,11.79l4.1-3.59s10.07,1.71,11.26-2.05c1.01-3.2-5.81-7.16-11.1,4.96l-3.93-2.91Z"/>
        <path class="cls-6" d="M174.07,34.49l1.72-.93c7.68,11.7,18.55,9.13,18.55,9.13,3.65-.69,6.38-3.35,6.38-6.48s-2.48-5.88-6.92-6.66c0,0-13.06-1.45-16.22,6.48l-3.32-3.15s-.3-2.47,7.34-6.33c8.43-4.27,16.97-2.21,16.97-2.21,6.3,1.45,10.85,5.73,10.85,10.79,0,4.63-3.82,8.59-9.27,10.36,0,0-11.14,3.41-22.67-5.18l-3.42-5.82Z"/>
        <path class="cls-6" d="M184.51,35.26c.21-.54.6-1.01,1.01-1.45,2.18-2.37,5.74-2.61,7.92-.58,1.75,1.64,2.37,3.73.78,6.29,0,0-2.63,3.95-7.51,4.1l-1.78-.85s6.3-2.39,6.66-5.47c.33-3.07-5.3-3.41-4.96,5.38l-2.48-.5s-1.67-1.72.37-6.92"/>
        <path class="cls-6" d="M170.11,31.89c3.62-.73,6.02-3.46,6.7-7.69.66-4.12-2.94-7.55-6.72-7.55l.02,3.23c1.14,0,2.44,1.24,2.44,3.43s-1.53,3.58-2.44,4.43v4.15Z"/>
        <path class="cls-6" d="M177.23,35.52l-4.26-4.96-2.81-.17v3.16s5.85,5.57,7.91,7.07c2.04,1.45-.84-5.1-.84-5.1"/>
        <path class="cls-6" d="M177.17,39.2s5.12,11.59,16.39,13.66c11.26,2.06,20.95-2.63,26.41-5.13,5.45-2.51,23.79-12.42,42.47-12.42s30,22.2,11.9,36.68l-2.11,1.47-1.48-4.57s8.2-3.91,6.38-15.24c-1.95-12.15-16.62-11.38-29.71-6.39-13.11,5.02-27.68,10.5-37.9,12.3-10.31,1.84-33.36.82-36.68-24.24l4.35,3.89Z"/>
        <path class="cls-6" d="M272.11,68.38s11.82,8.72,7.16,20.67c-3.36,8.6-14,8.2-14,8.2l-3.77-.17,3.43-4.79s7.18-.84,7.33-10.42c.12-6.06-3.41-10.24-3.41-10.24l3.25-3.25Z"/>
        <path class="cls-6" d="M265.62,94.86s3.24,8.71-5.3,11.11l-2.04.51-1.88-2.91,2.39-1.87s2.22-2.05,2.72-4.61l4.12-2.22Z"/>
        <path class="cls-6" d="M261.5,104.25s6.85,6.66,5.14,15.37c-1.71,8.7-7.18,12.13-5.81,15.71l-4.09,1.53s-1.88-3.76,2.22-11.78c4.09-8.03.16-17.09-1.2-19.3-1.37-2.23,3.74-1.54,3.74-1.54"/>
        <path class="cls-6" d="M262.19,133.45s-15.54-.68-24.93,3.93c0,0-3.92,1.37-8.71,7.68-4.77,6.3-12.14,10.8-16.4,11.78-4.09.95-10.05,2.56-12.96-.86l-1.71,3.75s10.93,7.86,25.62.51c14.68-7.34,18.62-21.68,35.01-22.7l4.1-4.1Z"/>
        <path class="cls-6" d="M203.79,158.38s-1.64,8.71-10.02,9.91c-8.37,1.2-17.47-6.14-19.87-12.81l3.27.16s4.44,5.98,11.42,6.5c7,.5,10.43-3.25,10.43-3.25l4.77-.52Z"/>
        <path class="cls-6" d="M176.81,158.38s-2.05.86-2.75,1.72c0,0,4.8,2.72,4.8,6.65s-5.41,4.73-8.77,4.73v-3.36s4.17.34,5.02-2.21c.91-2.77-5.02-4.8-5.02-4.8v-2.56s2.8-.51,4.83-2.39l1.89,2.22Z"/>
        <path class="cls-6" d="M177.84,157.36s5.12-4.96,4.09-10.59c-1.03-5.64-9.04-4.75-9.57.5-.5,5.3,1.21,8.71,3.09,11.28,1.88,2.56.85-2.04.85-2.04,0,0-2.56-8.72.52-9.91,3.08-1.19,4.6,4.77-1.89,9.55l2.92,1.2Z"/>
        <path class="cls-6" d="M203.1,160.1s3.77-5.64,1.54-13.15c-2.22-7.52-15.2-4.96-14,2.21,1.21,7.18,5.81,10.58,9.05,11.95,3.24,1.37,1.87-3.07,1.87-3.07,0,0-7.5-5.97-5.29-9.57,2.23-3.59,8.55,2.56,3.6,9.73l3.23,1.89Z"/>
        <path class="cls-6" d="M257.91,133.45s30.92-.68,17.79,13.15c-13.18,13.83-19.31-10.41-19.31-11.09s4.26-1.19,4.26-1.19c0,0,.85,9.74,6.67,10.4,5.81.7,12.99-9.05-9.22-7.17l-.18-4.1Z"/>
        <path class="cls-6" d="M262.03,104.59s-8.2-9.91-15.9-7.34c-7.68,2.56-3.24,14,13.66,8.88l-3.41-2.57s-9.57,2.57-8.38-1.87c1.22-4.44,7.36.35,9.74,4.1l4.27-1.2Z"/>
        <path class="cls-6" d="M265.78,95.55s-2.56-13.32-11.44-13.84c-8.88-.51-11.11,14,8.04,15.37v-4.45s-10.43-.85-10.43-5.45,9.39-1.54,9.91,9.22l3.91-.85Z"/>
        <path class="cls-6" d="M273.29,69.41s-7.51-9.39-14.85-8.2c-7.35,1.2-7,16.75,15.19,11.79l-4.1-3.59s-10.06,1.71-11.25-2.05c-1.03-3.2,5.79-7.16,11.09,4.96l3.92-2.91Z"/>
        <path class="cls-4" d="M166.75,32.2l-1.71-.95c-7.67,11.71-18.54,9.13-18.54,9.13-3.65-.7-6.38-3.34-6.38-6.49s2.47-5.89,6.92-6.67c0,0,13.07-1.43,16.23,6.51l3.31-3.17s.31-2.46-7.33-6.3c-8.46-4.27-17-2.22-17-2.22-6.27,1.46-10.85,5.74-10.85,10.79,0,4.62,3.83,8.6,9.29,10.36,0,0,11.13,3.42,22.66-5.2l3.41-5.8Z"/>
        <path class="cls-4" d="M156.33,32.96c-.23-.53-.61-1-1.01-1.45-2.19-2.36-5.73-2.61-7.91-.57-1.76,1.62-2.38,3.72-.8,6.29,0,0,2.64,3.93,7.52,4.1l1.78-.86s-6.32-2.39-6.66-5.47c-.35-3.07,5.31-3.41,4.95,5.38l2.48-.51s1.68-1.73-.35-6.92"/>
        <path class="cls-4" d="M170.73,29.59c-3.61-.72-6.02-3.46-6.71-7.68-.68-4.12,2.94-7.56,6.72-7.56v3.25c-1.17,0-2.44,1.23-2.44,3.41s1.53,3.57,2.43,4.43v4.15Z"/>
        <path class="cls-4" d="M163.61,33.22l4.26-4.95,2.82-.17v3.15s-5.88,5.59-7.91,7.06c-2.07,1.48.83-5.1.83-5.1"/>
        <path class="cls-4" d="M163.69,36.89s-5.12,11.61-16.4,13.67c-11.28,2.04-20.94-2.63-26.4-5.14-5.47-2.51-23.81-12.4-42.48-12.4s-29.98,22.2-11.9,36.66l2.13,1.48,1.47-4.55s-8.2-3.93-6.37-15.26c1.96-12.14,16.61-11.38,29.72-6.37,13.09,5.01,27.67,10.48,37.9,12.3,10.3,1.82,33.36.79,36.66-24.24l-4.31,3.87Z"/>
        <path class="cls-4" d="M68.74,66.09s-11.85,8.72-7.19,20.66c3.37,8.62,14.01,8.2,14.01,8.2l3.77-.15-3.42-4.79s-7.16-.86-7.34-10.42c-.12-6.07,3.41-10.24,3.41-10.24l-3.24-3.25Z"/>
        <path class="cls-4" d="M75.21,92.55s-3.23,8.72,5.3,11.1l2.05.52,1.89-2.91-2.39-1.87s-2.21-2.05-2.73-4.6l-4.11-2.24Z"/>
        <path class="cls-4" d="M79.32,101.94s-6.84,6.68-5.13,15.38c1.72,8.72,7.18,12.14,5.81,15.71l4.1,1.54s1.87-3.76-2.22-11.78c-4.1-8.03-.17-17.1,1.2-19.3,1.37-2.22-3.76-1.55-3.76-1.55"/>
        <path class="cls-4" d="M78.64,131.15s15.54-.67,24.92,3.93c0,0,3.94,1.36,8.71,7.69,4.78,6.31,12.15,10.8,16.41,11.78,4.07.94,10.07,2.57,12.96-.86l1.71,3.77s-10.92,7.84-25.62.51c-14.69-7.34-18.63-21.69-35.02-22.72l-4.09-4.1Z"/>
        <path class="cls-4" d="M137.05,156.1s1.65,8.69,10.01,9.89c8.37,1.2,17.47-6.15,19.86-12.81l-3.23.17s-4.45,5.98-11.44,6.49c-7.01.52-10.43-3.25-10.43-3.25l-4.78-.5Z"/>
        <path class="cls-4" d="M164.02,156.1s2.05.85,2.73,1.71c0,0-4.79,2.73-4.79,6.64s5.43,4.72,8.79,4.72v-3.36s-4.17.36-5.03-2.22c-.9-2.74,5.03-4.78,5.03-4.78v-2.57s-2.8-.51-4.85-2.39l-1.88,2.24Z"/>
        <path class="cls-4" d="M162.98,155.06s-5.1-4.94-4.08-10.59c1.02-5.63,9.04-4.76,9.56.5.52,5.31-1.2,8.71-3.07,11.28-1.86,2.57-.86-2.04-.86-2.04,0,0,2.58-8.72-.52-9.92-3.07-1.21-4.62,4.79,1.88,9.56l-2.91,1.2Z"/>
        <path class="cls-4" d="M137.73,157.8s-3.75-5.64-1.54-13.16c2.23-7.51,15.2-4.95,14,2.22-1.18,7.16-5.8,10.59-9.05,11.96-3.23,1.35-1.87-3.08-1.87-3.08,0,0,7.51-5.96,5.29-9.55-2.22-3.6-8.54,2.56-3.57,9.71l-3.26,1.9Z"/>
        <path class="cls-4" d="M82.9,131.15s-30.9-.67-17.75,13.15c13.13,13.83,19.29-10.42,19.29-11.09s-4.27-1.2-4.27-1.2c0,0-.86,9.73-6.66,10.42-5.81.67-12.99-9.05,9.21-7.18l.17-4.1Z"/>
        <path class="cls-4" d="M78.8,102.29s8.2-9.91,15.9-7.35c7.68,2.56,3.23,14.01-13.67,8.89l3.41-2.57s9.57,2.57,8.37-1.87c-1.2-4.45-7.34.34-9.73,4.1l-4.28-1.2Z"/>
        <path class="cls-4" d="M75.06,93.24s2.56-13.31,11.43-13.82c8.87-.52,11.11,13.99-8.03,15.38v-4.46s10.42-.84,10.42-5.46-9.39-1.54-9.91,9.22l-3.91-.86Z"/>
        <path class="cls-4" d="M67.55,67.12s7.51-9.4,14.86-8.2c7.33,1.2,6.99,16.74-15.21,11.78l4.11-3.59s10.07,1.71,11.26-2.05c1.04-3.21-5.79-7.17-11.08,4.95l-3.93-2.9Z"/>
        <path class="cls-4" d="M174.51,32.2l1.71-.95c7.67,11.71,18.54,9.13,18.54,9.13,3.65-.7,6.39-3.34,6.39-6.49s-2.49-5.89-6.91-6.67c0,0-13.08-1.43-16.24,6.51l-3.32-3.17s-.29-2.46,7.34-6.3c8.45-4.27,16.99-2.22,16.99-2.22,6.28,1.46,10.84,5.74,10.84,10.79,0,4.62-3.81,8.6-9.27,10.36,0,0-11.14,3.42-22.66-5.2l-3.41-5.8Z"/>
        <path class="cls-4" d="M184.95,32.96c.2-.53.59-1,1-1.45,2.17-2.36,5.74-2.61,7.94-.57,1.73,1.62,2.35,3.72.77,6.29,0,0-2.65,3.93-7.51,4.1l-1.79-.86s6.33-2.39,6.66-5.47c.34-3.07-5.31-3.41-4.95,5.38l-2.47-.51s-1.68-1.73.36-6.92"/>
        <path class="cls-4" d="M170.53,29.59c3.63-.72,6.03-3.46,6.7-7.68.67-4.12-2.93-7.56-6.7-7.56v3.25c1.16,0,2.44,1.23,2.44,3.41s-1.53,3.57-2.44,4.43v4.15Z"/>
        <path class="cls-4" d="M177.67,33.22l-4.26-4.95-2.81-.17v3.15s5.84,5.59,7.89,7.06c2.05,1.48-.83-5.1-.83-5.1"/>
        <path class="cls-4" d="M177.58,36.89s5.12,11.61,16.4,13.67c11.27,2.04,20.96-2.63,26.41-5.14,5.47-2.51,23.79-12.4,42.47-12.4s30,22.2,11.9,36.66l-2.11,1.48-1.47-4.55s8.19-3.93,6.38-15.26c-1.96-12.14-16.63-11.38-29.72-6.37-13.1,5.01-27.68,10.48-37.91,12.3-10.31,1.82-33.36.79-36.67-24.24l4.33,3.87Z"/>
        <path class="cls-4" d="M272.53,66.09s11.84,8.72,7.18,20.66c-3.37,8.62-14.01,8.2-14.01,8.2l-3.75-.15,3.42-4.79s7.16-.86,7.33-10.42c.12-6.07-3.41-10.24-3.41-10.24l3.25-3.25Z"/>
        <path class="cls-4" d="M266.03,92.55s3.25,8.72-5.29,11.1l-2.05.52-1.89-2.91,2.41-1.87s2.2-2.05,2.72-4.6l4.09-2.24Z"/>
        <path class="cls-4" d="M261.94,101.94s6.84,6.68,5.12,15.38c-1.71,8.72-7.17,12.14-5.81,15.71l-4.08,1.54s-1.9-3.76,2.21-11.78c4.1-8.03.17-17.1-1.18-19.3-1.39-2.22,3.75-1.55,3.75-1.55"/>
        <path class="cls-4" d="M262.63,131.15s-15.55-.67-24.95,3.93c0,0-3.91,1.36-8.7,7.69-4.78,6.31-12.14,10.8-16.38,11.78-4.1.94-10.08,2.57-12.99-.86l-1.7,3.77s10.93,7.84,25.62.51c14.67-7.34,18.6-21.69,35-22.72l4.1-4.1Z"/>
        <path class="cls-4" d="M204.22,156.1s-1.64,8.69-10,9.89c-8.39,1.2-17.5-6.15-19.87-12.81l3.23.17s4.44,5.98,11.45,6.49c7,.52,10.42-3.25,10.42-3.25l4.77-.5Z"/>
        <path class="cls-4" d="M177.23,156.1s-2.04.85-2.72,1.71c0,0,4.77,2.73,4.77,6.64s-5.4,4.72-8.75,4.72v-3.36s4.15.36,5-2.22c.92-2.74-5-4.78-5-4.78v-2.57s2.79-.51,4.83-2.39l1.86,2.24Z"/>
        <path class="cls-4" d="M178.26,155.06s5.14-4.94,4.11-10.59c-1.03-5.63-9.05-4.76-9.57.5-.5,5.31,1.19,8.71,3.08,11.28,1.88,2.57.85-2.04.85-2.04,0,0-2.56-8.72.51-9.92,3.08-1.21,4.63,4.79-1.86,9.56l2.89,1.2Z"/>
        <path class="cls-4" d="M203.54,157.8s3.76-5.64,1.52-13.16c-2.21-7.51-15.19-4.95-13.98,2.22,1.18,7.16,5.81,10.59,9.05,11.96,3.23,1.35,1.87-3.08,1.87-3.08,0,0-7.53-5.96-5.28-9.55,2.2-3.6,8.52,2.56,3.57,9.71l3.25,1.9Z"/>
        <path class="cls-4" d="M258.36,131.15s30.91-.67,17.76,13.15c-13.15,13.83-19.31-10.42-19.31-11.09s4.29-1.2,4.29-1.2c0,0,.85,9.73,6.65,10.42,5.81.67,12.98-9.05-9.21-7.18l-.18-4.1Z"/>
        <path class="cls-4" d="M262.46,102.29s-8.2-9.91-15.88-7.35c-7.68,2.56-3.25,14.01,13.66,8.89l-3.43-2.57s-9.55,2.57-8.36-1.87c1.2-4.45,7.35.34,9.74,4.1l4.26-1.2Z"/>
        <path class="cls-4" d="M266.21,93.24s-2.56-13.31-11.45-13.82c-8.87-.52-11.08,13.99,8.03,15.38v-4.46s-10.41-.84-10.41-5.46,9.39-1.54,9.91,9.22l3.93-.86Z"/>
        <path class="cls-4" d="M273.73,67.12s-7.52-9.4-14.86-8.2c-7.34,1.2-6.99,16.74,15.19,11.78l-4.09-3.59s-10.07,1.71-11.26-2.05c-1.02-3.21,5.81-7.17,11.09,4.95l3.94-2.9Z"/>
        <path class="cls-5" d="M168.9,72.02s-1.3.76.79,2.84c2.06,2.07,3.95,3.02,1.71,11.52-2.29,8.51,1.83,15.26,7.73,14.92,10.23-.59,7.36-11.81,7.36-11.81,0,0-5.48,4.5-8.12,2.05-4.08-3.78-3.13-7.94-.94-19.53.55-3-3.41-.75-4.53,0-1.14.76-2.84-.75-3.99,0"/>
        <path class="cls-5" d="M186.92,84.17s-4.53,2.43-6.4,1.89c0,0,1.3-7.57.18-9.07-1.16-1.54-.78-3.97.54-3.03,1.33.93,4.91,2.27,6.06.56,1.13-1.71-2.45,5.3-.38,9.65"/>
        <path class="cls-5" d="M193.91,66.42s3.07,12.8-6.39,21.12c0,0-.43,3.79,4.29,3.43,4.73-.39,6.82-4.83,6.82-4.83,0,0-2.63,6.91,2.26,10.27,0,0-.94-5.26,3.23-10.34,4.15-5.12,8.66-3.6,8.66-3.6,0,0-.31-6.45-12.78-4.57,0,0,1.66-10.55-6.1-11.48"/>
        <path class="cls-5" d="M188.43,68.76c0,2.24-1.82,4.06-4.05,4.06s-4.07-1.82-4.07-4.06,1.82-4.05,4.07-4.05,4.05,1.8,4.05,4.05"/>
        <path class="cls-5" d="M143.87,107.57c-.5,1.49-1.35,3.55-3.02,3.01-1.02-.35-.83-1.12-.55-2.05l.14-.41,1.54-4.85.06-.25c.05-.07.07-.14.16-.16.13-.05.27,0,.39.06,2.09.65,1.9,2.55,1.28,4.65M145.77,108.26c.91-2.86-.29-5.09-2.66-5.85-.59-.18-1.21-.33-1.78-.51-.62-.21-1.19-.42-1.78-.62l-.16.5c.8.24.99.51.67,1.52l-.25.9-1.16,3.56-.3.85c-.32,1.01-.61,1.1-1.42.86l-.16.51c.39.09.79.22,1.19.34l1.17.37,1.4.49c2.23.76,4.3-.13,5.23-2.92"/>
        <path class="cls-5" d="M156.03,113.4c-.08.48-.14.9-.23,1.37-.09-.05-.23-.07-.35-.09l-1.19-.22-1.17-.24-2-.36c-.64-.13-1.31-.22-1.98-.36l.09-.49c.81.13,1.14,0,1.34-1.04l.14-.87.68-3.71.17-.88c.22-1.08-.06-1.29-.89-1.46l.12-.52c.62.12,1.27.26,1.92.38l1.84.36c.81.13,1.65.24,2.45.39-.14.81-.25,1.61-.32,2.39l-.51-.11c.03-1.51-.71-1.87-1.88-2.08-.26-.05-.69-.12-.72-.05-.09.03-.1.15-.12.26-.01.14-.05.3-.05.33l-.52,2.72c.97.19,1.62-.02,1.91-1.22l.43.09c-.1.57-.27,1.13-.36,1.71l-.25,1.67-.05.21-.45-.09c0-1.28-.23-1.58-1.31-1.76l-.32,1.77c-.24,1.34-.15,1.95,1.06,2.19,1.26.21,1.87-.27,2.4-1.64l.44.09c-.1.41-.22.83-.31,1.24"/>
        <path class="cls-5" d="M167.19,115.8c-1-.08-1.99-.17-2.99-.22l-1.87-.15c-.73-.02-1.42-.07-2.1-.12l.04-.52c.81.05,1.07-.11,1.16-1.18l.1-.87.25-3.79.05-.88c.06-1.08-.17-1.27-.99-1.35l.03-.51c.66.07,1.32.13,2,.18.67.04,1.33.07,2,.1l-.02.51c-.86-.03-1.11.11-1.17,1.19l-.1.89-.24,3.74c-.11,1.43-.03,2.05,1.32,2.15,1.32.07,1.87-.36,2.32-1.82l.49.04c-.12.88-.19,1.73-.26,2.63"/>
        <path class="cls-5" d="M179.09,107.4c-.15.32-.15.72-.15,1.09.02.23.07.43.07.63l.13,2.66c.11,2.51-.88,3.92-3.06,4.02-.84.07-1.66-.06-2.39-.54-.92-.64-1.13-1.66-1.19-2.84l-.16-3.02-.08-.92c-.07-1.09-.31-1.26-1.16-1.2l-.02-.55c.62,0,1.26,0,1.86-.04.75-.03,1.43-.08,2.19-.15v.52c-.85.07-1.08.24-1.01,1.33l.02.91.14,3.05c.09,1.61.59,2.61,2.1,2.54,1.73-.07,2.3-1.19,2.18-3.11l-.12-2.62v-.13c-.02-.55-.09-1.39-.4-1.78-.21-.25-.55-.29-.83-.3l-.02-.53c.37,0,.78,0,1.18-.02.52,0,1.03-.06,1.55-.12l.06.54c-.4.08-.76.15-.88.57"/>
        <path class="cls-5" d="M190.51,113.86c-.57.09-1.18.22-1.8.36l-.09-.52s.04,0,.09,0c.26-.07.83-.11.77-.62-.06-.32-.41-.55-.59-.77l-1.39-1.47c-.28.55-1.15,2.04-1.04,2.68.09.54.61.4.93.4l.1.5c-.6.1-1.19.18-1.83.29-.38.07-.74.14-1.17.24l-.07-.49c.66-.25.97-.77,1.3-1.44.42-.89.87-1.8,1.32-2.68l-2.71-2.94c-.6-.62-.71-.81-1.48-.92l-.09-.51c.6-.07,1.21-.18,1.81-.29.74-.11,1.45-.24,2.2-.41l.07.51s-.1.02-.16.04c-.25.04-.69.14-.62.48.08.52.53.89.84,1.21l.99,1.1c.31-.63,1.05-1.94.95-2.64-.09-.46-.59-.41-.88-.38-.05,0-.09.02-.11.02l-.1-.51c.42-.06.8-.11,1.18-.18.59-.1,1.17-.21,1.8-.35l.09.51c-.81.28-1.07.76-1.4,1.59-.38.82-.73,1.62-1.12,2.39l2.81,2.97c.5.55.83,1.01,1.52.95l.1.51c-.75.09-1.49.22-2.23.36"/>
        <path class="cls-5" d="M202.85,109.26c.13.46.25.85.41,1.3-.12.03-.24.07-.35.11l-1.15.35-1.16.33-1.96.57c-.6.19-1.25.39-1.9.59l-.14-.5c.78-.25,1-.5.69-1.52l-.25-.86-1.08-3.63-.26-.85c-.3-1.04-.64-1.1-1.43-.89l-.14-.51c.62-.19,1.26-.35,1.88-.55l1.8-.54c.81-.21,1.58-.49,2.39-.72.24.78.47,1.55.78,2.27l-.5.15c-.66-1.36-1.49-1.35-2.62-1.02-.24.08-.68.21-.69.28-.02.07-.02.19.05.3.03.12.07.27.07.29l.81,2.66c.92-.28,1.41-.73,1.1-1.93l.47-.11c.14.56.24,1.14.44,1.7l.51,1.59.05.2-.43.13c-.57-1.14-.91-1.3-1.95-.97l.5,1.72c.38,1.29.73,1.81,1.94,1.45,1.21-.36,1.54-1.07,1.41-2.5l.41-.15c.12.41.19.85.31,1.25"/>
        <path class="cls-5" d="M117.22,76.15s-3.23-.35-3.93,4.1c-.39,2.53,1.37,4.61,4.28,4.44,3.41-.2,10.92-5.81,12.63-3.25,1.71,2.56,1.54,7.67-12.45,15.2-11.45,6.15-.52,12.3.51,12.64,0,0-2.23-3.42,2.23-6.49,4.44-3.08,8.01-5.63,10.07-7.87,2.04-2.21,8.89-9.55,2.04-17.41,0,0-1.87-2.39-4.61-1.71-2.98.76-5.8,3.77-7.85,4.28-2.04.51-3.91-.34-2.91-3.93"/>
        <path class="cls-1" d="M121.33,81.96s-.52,9.23,2.21,13.83l2.74-1.87s-1.88-10.08-1.37-14l-3.59,2.04Z"/>
        <path class="cls-5" d="M139.09,92.71c3.59.85,5.64-3.41,4.78-11.44-.84-8.01,2.9-7.18,2.9-7.18,3.08.36-1.28,11.33,2.24,16.58,4.15,6.19,8.02-1.89,8.02-1.89,0,0-5,2.4-5.82-3.08,0,0,.17-3.41.53-6.66.32-3.25,1.16-8.54-3.6-10.07-4.78-1.54-11.79,1.36-6.16,16.56,0,0,1.54,5.14-2.55,4.45-4.12-.69,4.26-7.68,9.9-7.68v-3.59s-23.19,10.91-10.25,14"/>
        <path class="cls-5" d="M158.91,80.24s5.55-7.64,2.65-10.38c-2.91-2.72-6.39-.63.24,8.68,4.98,6.99-1.34,19.91-10.91,18.94,0,0,10.58-5.64,7.51-11.78-3.07-6.14-11.21-19.02,1.54-20.83,9.62-1.36,8.21,13.14.85,16.74l-1.87-1.37Z"/>
        <path class="cls-1" d="M161.79,82.82s2.57-.35,2.75,2.72c.17,3.08,2.04,2.91,3.06,1.88,1.02-1.02,3.24-9.06-2.9-12.12l-2.91,7.52Z"/>
        <path class="cls-5" d="M221.3,90.97s-.37-7.94-8.12-7.2c-8.67.86-9.05,8.32-8.87,10.21.45,4.58,5.26,14.6,16.05,12.84,11.15-1.82,3.02-19.47-5.11-14.73,0,0,4.17,3.21.57,3.77-3.58.55-4.71-7.36.38-7.92,5.1-.59,5.1,3.02,5.1,3.02"/>
        <path class="cls-3" d="M11.42,204.4c0-3.57,0-4.23-.05-4.97-.04-.8-.21-1.18-.92-1.35-.17-.03-.54-.05-.83-.05-.24,0-.37-.06-.37-.22,0-.17.14-.22.47-.22,1.14,0,2.5.09,3.09.09.68,0,2.03-.09,3.31-.09,2.69,0,6.29,0,8.63,2.68,1.08,1.22,2.08,3.15,2.08,5.96,0,2.96-1.13,5.19-2.34,6.53-.99,1.09-3.22,2.75-7.21,2.75-.77,0-1.64-.06-2.47-.12-.82-.07-1.56-.14-2.11-.14-.22,0-.69,0-1.21,0-.51,0-1.06.05-1.48.05-.29,0-.44-.06-.44-.24,0-.12.09-.19.34-.19.32,0,.58-.05.78-.09.42-.1.54-.62.63-1.3.1-.98.1-2.83.1-4.98v-4.13ZM14.11,206.97c0,2.49.02,4.3.05,4.73.02.59.05,1.54.23,1.78.28.45,1.11.94,2.81.94,2.2,0,3.65-.46,4.95-1.67,1.39-1.3,1.8-3.42,1.8-5.85,0-2.96-1.13-4.88-2.06-5.86-1.98-2.06-4.43-2.34-6.11-2.34-.43,0-1.23.08-1.4.18-.2.09-.26.19-.26.46-.02.81-.02,2.84-.02,4.68v2.95Z"/>
        <path class="cls-2" d="M11.42,204.4c0-3.57,0-4.23-.05-4.97-.04-.8-.21-1.18-.92-1.35-.17-.03-.54-.05-.83-.05-.24,0-.37-.06-.37-.22,0-.17.14-.22.47-.22,1.14,0,2.5.09,3.09.09.68,0,2.03-.09,3.31-.09,2.69,0,6.29,0,8.63,2.68,1.08,1.22,2.08,3.15,2.08,5.96,0,2.96-1.13,5.19-2.34,6.53-.99,1.09-3.22,2.75-7.21,2.75-.77,0-1.64-.06-2.47-.12-.82-.07-1.56-.14-2.11-.14-.22,0-.69,0-1.21,0-.51,0-1.06.05-1.48.05-.29,0-.44-.06-.44-.24,0-.12.09-.19.34-.19.32,0,.58-.05.78-.09.42-.1.54-.62.63-1.3.1-.98.1-2.83.1-4.98v-4.13ZM14.11,206.97c0,2.49.02,4.3.05,4.73.02.59.05,1.54.23,1.78.28.45,1.11.94,2.81.94,2.2,0,3.65-.46,4.95-1.67,1.39-1.3,1.8-3.42,1.8-5.85,0-2.96-1.13-4.88-2.06-5.86-1.98-2.06-4.43-2.34-6.11-2.34-.43,0-1.23.08-1.4.18-.2.09-.26.19-.26.46-.02.81-.02,2.84-.02,4.68v2.95Z"/>
        <path class="cls-3" d="M31.64,210.15c-.08,0-.12.05-.16.15l-.97,2.8c-.18.48-.26.96-.26,1.18,0,.35.16.6.72.6h.27c.21,0,.27.05.27.16,0,.17-.12.2-.3.2-.58,0-1.36-.06-1.92-.06-.18,0-1.18.06-2.11.06-.24,0-.35-.03-.35-.2,0-.12.08-.16.22-.16.17,0,.42-.02.56-.04.83-.1,1.16-.77,1.53-1.75l4.5-12.26c.21-.57.32-.79.5-.79.16,0,.27.18.45.63.42,1.08,3.29,9.04,4.44,12.02.69,1.75,1.21,2.03,1.58,2.12.27.06.54.07.75.07.14,0,.24.03.24.16,0,.17-.17.2-.82.2s-1.96,0-3.39-.03c-.33-.03-.53-.03-.53-.17,0-.12.06-.16.24-.18.13-.04.26-.21.17-.46l-1.45-4.12c-.02-.09-.09-.14-.17-.14h-4ZM35.3,209.19c.09,0,.11-.07.09-.12l-1.62-4.83c0-.07-.02-.17-.07-.17-.06,0-.1.1-.11.17l-1.64,4.81c-.03.07,0,.14.07.14h3.29Z"/>
        <path class="cls-2" d="M31.64,210.15c-.08,0-.12.05-.16.15l-.97,2.8c-.18.48-.26.96-.26,1.18,0,.35.16.6.72.6h.27c.21,0,.27.05.27.16,0,.17-.12.2-.3.2-.58,0-1.36-.06-1.92-.06-.18,0-1.18.06-2.11.06-.24,0-.35-.03-.35-.2,0-.12.08-.16.22-.16.17,0,.42-.02.56-.04.83-.1,1.16-.77,1.53-1.75l4.5-12.26c.21-.57.32-.79.5-.79.16,0,.27.18.45.63.42,1.08,3.29,9.04,4.44,12.02.69,1.75,1.21,2.03,1.58,2.12.27.06.54.07.75.07.14,0,.24.03.24.16,0,.17-.17.2-.82.2s-1.96,0-3.39-.03c-.33-.03-.53-.03-.53-.17,0-.12.06-.16.24-.18.13-.04.26-.21.17-.46l-1.45-4.12c-.02-.09-.09-.14-.17-.14h-4ZM35.3,209.19c.09,0,.11-.07.09-.12l-1.62-4.83c0-.07-.02-.17-.07-.17-.06,0-.1.1-.11.17l-1.64,4.81c-.03.07,0,.14.07.14h3.29Z"/>
        <path class="cls-3" d="M43.47,206.15c0-2.97,0-3.52-.05-4.14-.02-.66-.17-.97-.76-1.11-.14-.03-.43-.05-.69-.05-.19,0-.3-.03-.3-.17,0-.13.13-.19.39-.19.95,0,2.07.07,2.44.07.61,0,1.98-.07,2.54-.07,1.13,0,2.33.14,3.29.85.51.37,1.22,1.37,1.22,2.68,0,1.43-.55,2.76-2.37,4.36,1.6,2.2,2.83,3.94,3.89,5.14,1.02,1.14,1.75,1.28,2.01,1.33.2.04.36.06.51.06.14,0,.21.06.21.16,0,.17-.13.2-.34.2h-1.71c-1,0-1.45-.1-1.92-.38-.78-.46-1.45-1.37-2.45-2.86-.72-1.08-1.54-2.41-1.78-2.7-.1-.12-.19-.14-.32-.14l-1.55-.05c-.1,0-.15.05-.15.15v.28c0,1.81,0,3.37.09,4.17.06.57.18,1.01.71,1.08.26.03.66.07.87.07.14,0,.21.06.21.16,0,.14-.11.2-.34.2-1.04,0-2.37-.07-2.64-.07-.34,0-1.47.07-2.18.07-.24,0-.38-.07-.38-.2,0-.1.08-.16.31-.16.26,0,.46-.04.64-.07.36-.07.44-.5.5-1.08.09-.81.09-2.36.09-4.16v-3.44ZM45.59,207.69c0,.21.03.3.17.35.38.14.92.21,1.37.21.72,0,.94-.09,1.27-.34.54-.43,1.05-1.33,1.05-2.93,0-2.76-1.68-3.57-2.74-3.57-.45,0-.77.03-.95.08-.13.04-.17.12-.17.27v5.93Z"/>
        <path class="cls-2" d="M43.47,206.15c0-2.97,0-3.52-.05-4.14-.02-.66-.17-.97-.76-1.11-.14-.03-.43-.05-.69-.05-.19,0-.3-.03-.3-.17,0-.13.13-.19.39-.19.95,0,2.07.07,2.44.07.61,0,1.98-.07,2.54-.07,1.13,0,2.33.14,3.29.85.51.37,1.22,1.37,1.22,2.68,0,1.43-.55,2.76-2.37,4.36,1.6,2.2,2.83,3.94,3.89,5.14,1.02,1.14,1.75,1.28,2.01,1.33.2.04.36.06.51.06.14,0,.21.06.21.16,0,.17-.13.2-.34.2h-1.71c-1,0-1.45-.1-1.92-.38-.78-.46-1.45-1.37-2.45-2.86-.72-1.08-1.54-2.41-1.78-2.7-.1-.12-.19-.14-.32-.14l-1.55-.05c-.1,0-.15.05-.15.15v.28c0,1.81,0,3.37.09,4.17.06.57.18,1.01.71,1.08.26.03.66.07.87.07.14,0,.21.06.21.16,0,.14-.11.2-.34.2-1.04,0-2.37-.07-2.64-.07-.34,0-1.47.07-2.18.07-.24,0-.38-.07-.38-.2,0-.1.08-.16.31-.16.26,0,.46-.04.64-.07.36-.07.44-.5.5-1.08.09-.81.09-2.36.09-4.16v-3.44ZM45.59,207.69c0,.21.03.3.17.35.38.14.92.21,1.37.21.72,0,.94-.09,1.27-.34.54-.43,1.05-1.33,1.05-2.93,0-2.76-1.68-3.57-2.74-3.57-.45,0-.77.03-.95.08-.13.04-.17.12-.17.27v5.93Z"/>
        <path class="cls-3" d="M59.25,209.59c0,2.5,0,3.85.38,4.21.31.29.77.42,2.17.42.95,0,1.66-.02,2.09-.54.22-.26.43-.81.47-1.17.02-.18.06-.31.2-.31.12,0,.14.11.14.34,0,.22-.12,1.67-.27,2.24-.11.44-.19.52-1.13.52-1.29,0-2.22-.04-3.03-.05-.8-.03-1.45-.07-2.18-.07-.2,0-.59,0-1.02.03-.41,0-.88.03-1.24.03-.22,0-.36-.07-.36-.21,0-.1.08-.16.29-.16.27,0,.49-.04.66-.07.35-.07.44-.5.5-1.08.1-.81.1-2.36.1-4.15v-3.44c0-2.97,0-3.52-.04-4.14-.04-.66-.19-.98-.78-1.11-.14-.04-.36-.05-.59-.05-.19,0-.3-.03-.3-.17,0-.14.12-.19.39-.19.84,0,1.97.07,2.46.07.42,0,1.74-.07,2.44-.07.25,0,.36.06.36.19,0,.14-.1.17-.33.17-.19,0-.47.02-.69.05-.49.1-.63.43-.67,1.11-.03.62-.03,1.17-.03,4.14v3.44Z"/>
        <path class="cls-2" d="M59.25,209.59c0,2.5,0,3.85.38,4.21.31.29.77.42,2.17.42.95,0,1.66-.02,2.09-.54.22-.26.43-.81.47-1.17.02-.18.06-.31.2-.31.12,0,.14.11.14.34,0,.22-.12,1.67-.27,2.24-.11.44-.19.52-1.13.52-1.29,0-2.22-.04-3.03-.05-.8-.03-1.45-.07-2.18-.07-.2,0-.59,0-1.02.03-.41,0-.88.03-1.24.03-.22,0-.36-.07-.36-.21,0-.1.08-.16.29-.16.27,0,.49-.04.66-.07.35-.07.44-.5.5-1.08.1-.81.1-2.36.1-4.15v-3.44c0-2.97,0-3.52-.04-4.14-.04-.66-.19-.98-.78-1.11-.14-.04-.36-.05-.59-.05-.19,0-.3-.03-.3-.17,0-.14.12-.19.39-.19.84,0,1.97.07,2.46.07.42,0,1.74-.07,2.44-.07.25,0,.36.06.36.19,0,.14-.1.17-.33.17-.19,0-.47.02-.69.05-.49.1-.63.43-.67,1.11-.03.62-.03,1.17-.03,4.14v3.44Z"/>
        <path class="cls-3" d="M67.84,206.15c0-2.97,0-3.52-.03-4.14-.05-.66-.21-1-.62-1.1-.19-.05-.43-.07-.64-.07-.17,0-.28-.03-.28-.2,0-.11.15-.17.43-.17.69,0,1.82.07,2.33.07.45,0,1.5-.07,2.18-.07.24,0,.38.06.38.17,0,.17-.12.2-.29.2s-.32.02-.53.05c-.49.1-.63.43-.67,1.11-.03.62-.03,1.17-.03,4.14v3.44c0,1.9,0,3.45.07,4.27.06.54.18.89.72.96.25.03.64.07.92.07.2,0,.28.06.28.16,0,.14-.13.21-.33.21-1.19,0-2.32-.07-2.8-.07-.41,0-1.54.07-2.26.07-.23,0-.37-.07-.37-.21,0-.1.08-.16.29-.16.27,0,.49-.04.64-.07.38-.07.47-.41.52-.97.1-.82.1-2.37.1-4.27v-3.44Z"/>
        <path class="cls-2" d="M67.84,206.15c0-2.97,0-3.52-.03-4.14-.05-.66-.21-1-.62-1.1-.19-.05-.43-.07-.64-.07-.17,0-.28-.03-.28-.2,0-.11.15-.17.43-.17.69,0,1.82.07,2.33.07.45,0,1.5-.07,2.18-.07.24,0,.38.06.38.17,0,.17-.12.2-.29.2s-.32.02-.53.05c-.49.1-.63.43-.67,1.11-.03.62-.03,1.17-.03,4.14v3.44c0,1.9,0,3.45.07,4.27.06.54.18.89.72.96.25.03.64.07.92.07.2,0,.28.06.28.16,0,.14-.13.21-.33.21-1.19,0-2.32-.07-2.8-.07-.41,0-1.54.07-2.26.07-.23,0-.37-.07-.37-.21,0-.1.08-.16.29-.16.27,0,.49-.04.64-.07.38-.07.47-.41.52-.97.1-.82.1-2.37.1-4.27v-3.44Z"/>
        <path class="cls-3" d="M76.95,212.61c.03,1.52.26,2.02.62,2.16.3.12.65.14.93.14.19,0,.3.04.3.16,0,.17-.16.2-.4.2-1.17,0-1.89-.07-2.23-.07-.17,0-1.01.07-1.94.07-.24,0-.4-.01-.4-.2,0-.12.11-.16.29-.16.23,0,.56-.02.81-.09.47-.16.54-.71.56-2.43l.15-11.55c0-.4.06-.67.24-.67.21,0,.37.25.67.61.22.25,2.94,3.44,5.55,6.26,1.23,1.35,3.64,4.16,3.95,4.46h.09l-.17-8.77c0-1.18-.18-1.56-.61-1.75-.28-.12-.71-.12-.95-.12-.21,0-.29-.06-.29-.17,0-.16.2-.19.46-.19.93,0,1.79.07,2.16.07.19,0,.88-.07,1.75-.07.25,0,.42.04.42.19,0,.12-.09.17-.32.17-.18,0-.32,0-.54.06-.5.16-.64.57-.65,1.67l-.21,12.31c0,.43-.07.6-.22.6-.21,0-.42-.21-.62-.43-1.13-1.17-3.42-3.73-5.29-5.73-1.94-2.12-3.94-4.56-4.26-4.93h-.05l.21,8.21Z"/>
        <path class="cls-2" d="M76.95,212.61c.03,1.52.26,2.02.62,2.16.3.12.65.14.93.14.19,0,.3.04.3.16,0,.17-.16.2-.4.2-1.17,0-1.89-.07-2.23-.07-.17,0-1.01.07-1.94.07-.24,0-.4-.01-.4-.2,0-.12.11-.16.29-.16.23,0,.56-.02.81-.09.47-.16.54-.71.56-2.43l.15-11.55c0-.4.06-.67.24-.67.21,0,.37.25.67.61.22.25,2.94,3.44,5.55,6.26,1.23,1.35,3.64,4.16,3.95,4.46h.09l-.17-8.77c0-1.18-.18-1.56-.61-1.75-.28-.12-.71-.12-.95-.12-.21,0-.29-.06-.29-.17,0-.16.2-.19.46-.19.93,0,1.79.07,2.16.07.19,0,.88-.07,1.75-.07.25,0,.42.04.42.19,0,.12-.09.17-.32.17-.18,0-.32,0-.54.06-.5.16-.64.57-.65,1.67l-.21,12.31c0,.43-.07.6-.22.6-.21,0-.42-.21-.62-.43-1.13-1.17-3.42-3.73-5.29-5.73-1.94-2.12-3.94-4.56-4.26-4.93h-.05l.21,8.21Z"/>
        <path class="cls-3" d="M103.62,213.95c0,.54-.02.57-.24.7-1.16.67-2.91.88-4.31.88-4.39,0-8.28-2.26-8.28-7.65,0-3.12,1.47-5.3,3.11-6.38,1.71-1.14,3.31-1.27,4.82-1.27,1.25,0,2.82.24,3.17.32.38.08,1.01.19,1.41.23.23,0,.27.08.27.21,0,.21-.12.76-.12,3.19,0,.32-.07.42-.21.42-.12,0-.16-.1-.18-.25-.05-.46-.13-1.08-.6-1.63-.54-.61-1.98-1.52-4-1.52-.98,0-2.31.08-3.55,1.21-1.01.93-1.65,2.38-1.65,4.79,0,4.19,2.45,7.34,6.23,7.34.47,0,1.09,0,1.53-.21.26-.14.33-.4.33-.73v-1.82c0-.99,0-1.72,0-2.32-.02-.66-.18-.96-.77-1.11-.14-.04-.45-.05-.71-.05-.16,0-.26-.03-.26-.15,0-.16.12-.2.37-.2.94,0,2.06.07,2.61.07s1.5-.07,2.1-.07c.23,0,.36.04.36.2,0,.12-.11.15-.24.15-.14,0-.26.01-.48.05-.48.1-.66.44-.67,1.11-.02.61-.02,1.38-.02,2.35v2.16Z"/>
        <path class="cls-2" d="M103.62,213.95c0,.54-.02.57-.24.7-1.16.67-2.91.88-4.31.88-4.39,0-8.28-2.26-8.28-7.65,0-3.12,1.47-5.3,3.11-6.38,1.71-1.14,3.31-1.27,4.82-1.27,1.25,0,2.82.24,3.17.32.38.08,1.01.19,1.41.23.23,0,.27.08.27.21,0,.21-.12.76-.12,3.19,0,.32-.07.42-.21.42-.12,0-.16-.1-.18-.25-.05-.46-.13-1.08-.6-1.63-.54-.61-1.98-1.52-4-1.52-.98,0-2.31.08-3.55,1.21-1.01.93-1.65,2.38-1.65,4.79,0,4.19,2.45,7.34,6.23,7.34.47,0,1.09,0,1.53-.21.26-.14.33-.4.33-.73v-1.82c0-.99,0-1.72,0-2.32-.02-.66-.18-.96-.77-1.11-.14-.04-.45-.05-.71-.05-.16,0-.26-.03-.26-.15,0-.16.12-.2.37-.2.94,0,2.06.07,2.61.07s1.5-.07,2.1-.07c.23,0,.36.04.36.2,0,.12-.11.15-.24.15-.14,0-.26.01-.48.05-.48.1-.66.44-.67,1.11-.02.61-.02,1.38-.02,2.35v2.16Z"/>
        <path class="cls-3" d="M114.67,197.64c.07-.4.2-.62.38-.62s.29.11.58.72l5.87,13.22,5.85-13.39c.17-.37.28-.56.47-.56s.33.24.4.72l1.96,14.48c.19,1.48.41,2.16,1.04,2.38.63.2,1.06.22,1.34.22.19,0,.35.03.35.18,0,.18-.26.26-.56.26-.54,0-3.52-.08-4.37-.16-.5-.05-.63-.1-.63-.25,0-.11.08-.19.24-.25.13-.05.19-.36.11-1.02l-1.29-10.32h-.09l-4.7,10.64c-.5,1.11-.59,1.32-.78,1.32s-.43-.47-.76-1.18c-.51-1.06-2.22-4.65-2.47-5.31-.19-.49-1.49-3.44-2.25-5.2h-.08l-1.13,9.33c-.03.42-.06.72-.06,1.09,0,.44.28.66.64.76.38.08.69.1.9.1.18,0,.33.06.33.18,0,.21-.19.26-.52.26-.9,0-1.87-.08-2.26-.08s-1.44.08-2.13.08c-.22,0-.39-.05-.39-.26,0-.12.13-.18.33-.18.19,0,.33,0,.65-.06.6-.14.78-1.06.89-1.85l2.12-15.27Z"/>
        <path class="cls-2" d="M114.67,197.64c.07-.4.2-.62.38-.62s.29.11.58.72l5.87,13.22,5.85-13.39c.17-.37.28-.56.47-.56s.33.24.4.72l1.96,14.48c.19,1.48.41,2.16,1.04,2.38.63.2,1.06.22,1.34.22.19,0,.35.03.35.18,0,.18-.26.26-.56.26-.54,0-3.52-.08-4.37-.16-.5-.05-.63-.1-.63-.25,0-.11.08-.19.24-.25.13-.05.19-.36.11-1.02l-1.29-10.32h-.09l-4.7,10.64c-.5,1.11-.59,1.32-.78,1.32s-.43-.47-.76-1.18c-.51-1.06-2.22-4.65-2.47-5.31-.19-.49-1.49-3.44-2.25-5.2h-.08l-1.13,9.33c-.03.42-.06.72-.06,1.09,0,.44.28.66.64.76.38.08.69.1.9.1.18,0,.33.06.33.18,0,.21-.19.26-.52.26-.9,0-1.87-.08-2.26-.08s-1.44.08-2.13.08c-.22,0-.39-.05-.39-.26,0-.12.13-.18.33-.18.19,0,.33,0,.65-.06.6-.14.78-1.06.89-1.85l2.12-15.27Z"/>
        <path class="cls-3" d="M138.93,210.15c-.09,0-.12.05-.15.15l-.97,2.8c-.17.48-.26.96-.26,1.18,0,.35.14.6.7.6h.28c.2,0,.26.05.26.16,0,.17-.11.2-.32.2-.57,0-1.34-.06-1.89-.06-.2,0-1.19.06-2.12.06-.23,0-.34-.03-.34-.2,0-.12.08-.16.22-.16.16,0,.4-.02.54-.04.84-.1,1.18-.77,1.54-1.75l4.5-12.26c.21-.57.33-.79.5-.79.16,0,.26.18.43.63.43,1.08,3.31,9.04,4.45,12.02.69,1.75,1.21,2.03,1.58,2.12.29.06.55.07.77.07.13,0,.22.03.22.16,0,.17-.16.2-.83.2s-1.94,0-3.39-.03c-.32-.03-.53-.03-.53-.17,0-.12.07-.16.24-.18.12-.04.26-.21.17-.46l-1.44-4.12c-.02-.09-.09-.14-.19-.14h-4ZM142.6,209.19c.09,0,.11-.07.09-.12l-1.61-4.83c-.03-.07-.05-.17-.1-.17-.05,0-.09.1-.11.17l-1.64,4.81c-.03.07,0,.14.07.14h3.3Z"/>
        <path class="cls-2" d="M138.93,210.15c-.09,0-.12.05-.15.15l-.97,2.8c-.17.48-.26.96-.26,1.18,0,.35.14.6.7.6h.28c.2,0,.26.05.26.16,0,.17-.11.2-.32.2-.57,0-1.34-.06-1.89-.06-.2,0-1.19.06-2.12.06-.23,0-.34-.03-.34-.2,0-.12.08-.16.22-.16.16,0,.4-.02.54-.04.84-.1,1.18-.77,1.54-1.75l4.5-12.26c.21-.57.33-.79.5-.79.16,0,.26.18.43.63.43,1.08,3.31,9.04,4.45,12.02.69,1.75,1.21,2.03,1.58,2.12.29.06.55.07.77.07.13,0,.22.03.22.16,0,.17-.16.2-.83.2s-1.94,0-3.39-.03c-.32-.03-.53-.03-.53-.17,0-.12.07-.16.24-.18.12-.04.26-.21.17-.46l-1.44-4.12c-.02-.09-.09-.14-.19-.14h-4ZM142.6,209.19c.09,0,.11-.07.09-.12l-1.61-4.83c-.03-.07-.05-.17-.1-.17-.05,0-.09.1-.11.17l-1.64,4.81c-.03.07,0,.14.07.14h3.3Z"/>
        <path class="cls-3" d="M151.98,201.57l-2.67.1c-1.03.02-1.47.12-1.72.56-.19.28-.29.51-.31.68-.04.16-.1.24-.2.24-.12,0-.17-.09-.17-.31,0-.32.36-2.07.38-2.24.05-.26.1-.38.22-.38.14,0,.32.2.77.24.52.06,1.19.09,1.8.09h7.09c.58,0,.97-.07,1.24-.09.27-.06.41-.11.49-.11.12,0,.14.12.14.42,0,.42-.07,1.75-.07,2.27-.02.19-.05.3-.15.3-.14,0-.17-.09-.21-.39v-.21c-.04-.5-.54-1.05-2.13-1.09l-2.26-.07v8.02c0,1.79,0,3.34.09,4.17.06.55.17.99.71,1.06.26.04.64.07.91.07.2,0,.29.06.29.16,0,.14-.14.2-.35.2-1.17,0-2.31-.06-2.81-.06-.41,0-1.53.06-2.25.06-.24,0-.37-.06-.37-.2,0-.1.07-.16.28-.16.27,0,.49-.04.65-.07.36-.07.47-.5.52-1.08.09-.81.09-2.36.09-4.15v-8.02Z"/>
        <path class="cls-2" d="M151.98,201.57l-2.67.1c-1.03.02-1.47.12-1.72.56-.19.28-.29.51-.31.68-.04.16-.1.24-.2.24-.12,0-.17-.09-.17-.31,0-.32.36-2.07.38-2.24.05-.26.1-.38.22-.38.14,0,.32.2.77.24.52.06,1.19.09,1.8.09h7.09c.58,0,.97-.07,1.24-.09.27-.06.41-.11.49-.11.12,0,.14.12.14.42,0,.42-.07,1.75-.07,2.27-.02.19-.05.3-.15.3-.14,0-.17-.09-.21-.39v-.21c-.04-.5-.54-1.05-2.13-1.09l-2.26-.07v8.02c0,1.79,0,3.34.09,4.17.06.55.17.99.71,1.06.26.04.64.07.91.07.2,0,.29.06.29.16,0,.14-.14.2-.35.2-1.17,0-2.31-.06-2.81-.06-.41,0-1.53.06-2.25.06-.24,0-.37-.06-.37-.2,0-.1.07-.16.28-.16.27,0,.49-.04.65-.07.36-.07.47-.5.52-1.08.09-.81.09-2.36.09-4.15v-8.02Z"/>
        <path class="cls-3" d="M164.71,201.57l-2.68.1c-1.04.02-1.47.12-1.73.56-.18.28-.28.51-.31.68-.05.16-.09.24-.19.24-.13,0-.17-.09-.17-.31,0-.32.34-2.07.38-2.24.05-.26.11-.38.22-.38.13,0,.31.2.76.24.52.06,1.21.09,1.8.09h7.1c.55,0,.96-.07,1.23-.09.26-.06.42-.11.47-.11.14,0,.17.12.17.42,0,.42-.07,1.75-.07,2.27-.02.19-.06.3-.15.3-.16,0-.19-.09-.2-.39l-.02-.21c-.02-.5-.51-1.05-2.11-1.09l-2.26-.07v8.02c0,1.79,0,3.34.09,4.17.06.55.16.99.7,1.06.25.04.64.07.92.07.19,0,.28.06.28.16,0,.14-.14.2-.35.2-1.17,0-2.3-.06-2.82-.06-.4,0-1.53.06-2.25.06-.25,0-.36-.06-.36-.2,0-.1.07-.16.28-.16.28,0,.49-.04.64-.07.36-.07.48-.5.53-1.08.09-.81.09-2.36.09-4.15v-8.02Z"/>
        <path class="cls-2" d="M164.71,201.57l-2.68.1c-1.04.02-1.47.12-1.73.56-.18.28-.28.51-.31.68-.05.16-.09.24-.19.24-.13,0-.17-.09-.17-.31,0-.32.34-2.07.38-2.24.05-.26.11-.38.22-.38.13,0,.31.2.76.24.52.06,1.21.09,1.8.09h7.1c.55,0,.96-.07,1.23-.09.26-.06.42-.11.47-.11.14,0,.17.12.17.42,0,.42-.07,1.75-.07,2.27-.02.19-.06.3-.15.3-.16,0-.19-.09-.2-.39l-.02-.21c-.02-.5-.51-1.05-2.11-1.09l-2.26-.07v8.02c0,1.79,0,3.34.09,4.17.06.55.16.99.7,1.06.25.04.64.07.92.07.19,0,.28.06.28.16,0,.14-.14.2-.35.2-1.17,0-2.3-.06-2.82-.06-.4,0-1.53.06-2.25.06-.25,0-.36-.06-.36-.2,0-.1.07-.16.28-.16.28,0,.49-.04.64-.07.36-.07.48-.5.53-1.08.09-.81.09-2.36.09-4.15v-8.02Z"/>
        <path class="cls-3" d="M175.05,206.15c0-2.97,0-3.52-.04-4.14-.04-.66-.18-.97-.77-1.11-.15-.03-.45-.05-.69-.05-.2,0-.32-.03-.32-.17,0-.13.13-.19.4-.19.95,0,2.08.07,2.46.07.62,0,1.97-.07,2.54-.07,1.13,0,2.32.14,3.29.85.51.37,1.22,1.37,1.22,2.68,0,1.43-.56,2.76-2.37,4.36,1.6,2.2,2.83,3.94,3.89,5.14,1.01,1.14,1.75,1.28,2.01,1.33.2.04.36.06.51.06.14,0,.21.06.21.16,0,.17-.12.2-.34.2h-1.7c-1,0-1.45-.1-1.92-.38-.77-.46-1.45-1.37-2.46-2.86-.73-1.08-1.54-2.41-1.78-2.7-.09-.12-.19-.14-.3-.14l-1.57-.05c-.09,0-.14.05-.14.15v.28c0,1.81,0,3.37.07,4.17.06.57.18,1.01.7,1.08.27.03.67.07.89.07.13,0,.21.06.21.16,0,.14-.13.2-.36.2-1.04,0-2.36-.07-2.64-.07-.34,0-1.47.07-2.19.07-.23,0-.36-.07-.36-.2,0-.1.08-.16.28-.16.28,0,.49-.04.66-.07.35-.07.44-.5.5-1.08.1-.81.1-2.36.1-4.16v-3.44ZM177.17,207.69c0,.21.02.3.14.35.38.14.92.21,1.37.21.72,0,.95-.09,1.28-.34.53-.43,1.05-1.33,1.05-2.93,0-2.76-1.69-3.57-2.75-3.57-.44,0-.77.03-.95.08-.12.04-.14.12-.14.27v5.93Z"/>
        <path class="cls-2" d="M175.05,206.15c0-2.97,0-3.52-.04-4.14-.04-.66-.18-.97-.77-1.11-.15-.03-.45-.05-.69-.05-.2,0-.32-.03-.32-.17,0-.13.13-.19.4-.19.95,0,2.08.07,2.46.07.62,0,1.97-.07,2.54-.07,1.13,0,2.32.14,3.29.85.51.37,1.22,1.37,1.22,2.68,0,1.43-.56,2.76-2.37,4.36,1.6,2.2,2.83,3.94,3.89,5.14,1.01,1.14,1.75,1.28,2.01,1.33.2.04.36.06.51.06.14,0,.21.06.21.16,0,.17-.12.2-.34.2h-1.7c-1,0-1.45-.1-1.92-.38-.77-.46-1.45-1.37-2.46-2.86-.73-1.08-1.54-2.41-1.78-2.7-.09-.12-.19-.14-.3-.14l-1.57-.05c-.09,0-.14.05-.14.15v.28c0,1.81,0,3.37.07,4.17.06.57.18,1.01.7,1.08.27.03.67.07.89.07.13,0,.21.06.21.16,0,.14-.13.2-.36.2-1.04,0-2.36-.07-2.64-.07-.34,0-1.47.07-2.19.07-.23,0-.36-.07-.36-.2,0-.1.08-.16.28-.16.28,0,.49-.04.66-.07.35-.07.44-.5.5-1.08.1-.81.1-2.36.1-4.16v-3.44ZM177.17,207.69c0,.21.02.3.14.35.38.14.92.21,1.37.21.72,0,.95-.09,1.28-.34.53-.43,1.05-1.33,1.05-2.93,0-2.76-1.69-3.57-2.75-3.57-.44,0-.77.03-.95.08-.12.04-.14.12-.14.27v5.93Z"/>
        <path class="cls-3" d="M188.58,206.15c0-2.97,0-3.52-.04-4.14-.05-.66-.18-.98-.78-1.11-.15-.04-.45-.05-.7-.05-.2,0-.3-.03-.3-.17,0-.14.12-.19.39-.19.49,0,1,.04,1.45.04.47.02.88.03,1.13.03.57,0,4.14,0,4.48,0,.34-.06.63-.08.77-.12.09-.02.19-.08.28-.08.1,0,.1.08.1.18,0,.13-.09.37-.13,1.26-.02.2-.06,1.06-.1,1.3,0,.1-.05.2-.17.2s-.17-.09-.17-.26c0-.14-.02-.48-.1-.71-.13-.35-.31-.58-1.22-.7-.29-.03-2.18-.07-2.54-.07-.07,0-.12.04-.12.19v4.95c0,.14.02.22.12.22.4,0,2.47,0,2.88-.04.43-.04.71-.11.86-.3.12-.15.2-.26.29-.26.07,0,.12.04.12.16s-.08.44-.15,1.42c-.02.4-.06,1.18-.06,1.32s0,.36-.17.36c-.12,0-.17-.1-.17-.17-.02-.19-.02-.44-.07-.71-.09-.39-.34-.68-1-.76-.35-.04-2.12-.05-2.55-.05-.09,0-.11.07-.11.19v1.54c0,.68-.01,2.46,0,3.03.04,1.35.32,1.65,2.14,1.65.47,0,1.24,0,1.7-.24.47-.23.69-.66.8-1.45.03-.21.06-.29.2-.29s.14.16.14.34c0,.46-.14,1.79-.24,2.18-.13.51-.29.51-.96.51-1.35,0-2.34-.04-3.1-.05-.77-.03-1.32-.07-1.86-.07-.21,0-.6,0-1.03.03-.4,0-.88.03-1.23.03-.24,0-.37-.07-.37-.21,0-.1.08-.16.28-.16.27,0,.49-.04.65-.07.36-.07.44-.5.52-1.08.1-.81.1-2.36.1-4.15v-3.44Z"/>
        <path class="cls-2" d="M188.58,206.15c0-2.97,0-3.52-.04-4.14-.05-.66-.18-.98-.78-1.11-.15-.04-.45-.05-.7-.05-.2,0-.3-.03-.3-.17,0-.14.12-.19.39-.19.49,0,1,.04,1.45.04.47.02.88.03,1.13.03.57,0,4.14,0,4.48,0,.34-.06.63-.08.77-.12.09-.02.19-.08.28-.08.1,0,.1.08.1.18,0,.13-.09.37-.13,1.26-.02.2-.06,1.06-.1,1.3,0,.1-.05.2-.17.2s-.17-.09-.17-.26c0-.14-.02-.48-.1-.71-.13-.35-.31-.58-1.22-.7-.29-.03-2.18-.07-2.54-.07-.07,0-.12.04-.12.19v4.95c0,.14.02.22.12.22.4,0,2.47,0,2.88-.04.43-.04.71-.11.86-.3.12-.15.2-.26.29-.26.07,0,.12.04.12.16s-.08.44-.15,1.42c-.02.4-.06,1.18-.06,1.32s0,.36-.17.36c-.12,0-.17-.1-.17-.17-.02-.19-.02-.44-.07-.71-.09-.39-.34-.68-1-.76-.35-.04-2.12-.05-2.55-.05-.09,0-.11.07-.11.19v1.54c0,.68-.01,2.46,0,3.03.04,1.35.32,1.65,2.14,1.65.47,0,1.24,0,1.7-.24.47-.23.69-.66.8-1.45.03-.21.06-.29.2-.29s.14.16.14.34c0,.46-.14,1.79-.24,2.18-.13.51-.29.51-.96.51-1.35,0-2.34-.04-3.1-.05-.77-.03-1.32-.07-1.86-.07-.21,0-.6,0-1.03.03-.4,0-.88.03-1.23.03-.24,0-.37-.07-.37-.21,0-.1.08-.16.28-.16.27,0,.49-.04.65-.07.36-.07.44-.5.52-1.08.1-.81.1-2.36.1-4.15v-3.44Z"/>
        <path class="cls-3" d="M198.91,215.02c-.28-.14-.34-.24-.34-.67,0-1.08.06-2.24.08-2.56.04-.28.07-.51.24-.51.15,0,.16.18.16.35,0,.24.07.66.18.99.38,1.45,1.45,1.97,2.55,1.97,1.63,0,2.4-1.18,2.4-2.22,0-.96-.25-1.86-1.75-3.14l-.81-.69c-1.99-1.67-2.65-3.04-2.65-4.62,0-2.16,1.64-3.7,4.12-3.7,1.18,0,1.94.2,2.39.33.15.05.25.1.25.24,0,.25-.08.82-.08,2.34,0,.44-.05.61-.19.61-.12,0-.18-.14-.18-.37,0-.18-.09-.77-.47-1.29-.27-.38-.8-.95-1.95-.95-1.34,0-2.13.83-2.13,2,0,.89.41,1.59,1.89,2.82l.51.41c2.17,1.78,2.94,3.1,2.94,4.98,0,1.14-.39,2.49-1.69,3.4-.89.62-1.89.79-2.85.79-1.03,0-1.83-.13-2.61-.5"/>
        <path class="cls-2" d="M198.91,215.02c-.28-.14-.34-.24-.34-.67,0-1.08.06-2.24.08-2.56.04-.28.07-.51.24-.51.15,0,.16.18.16.35,0,.24.07.66.18.99.38,1.45,1.45,1.97,2.55,1.97,1.63,0,2.4-1.18,2.4-2.22,0-.96-.25-1.86-1.75-3.14l-.81-.69c-1.99-1.67-2.65-3.04-2.65-4.62,0-2.16,1.64-3.7,4.12-3.7,1.18,0,1.94.2,2.39.33.15.05.25.1.25.24,0,.25-.08.82-.08,2.34,0,.44-.05.61-.19.61-.12,0-.18-.14-.18-.37,0-.18-.09-.77-.47-1.29-.27-.38-.8-.95-1.95-.95-1.34,0-2.13.83-2.13,2,0,.89.41,1.59,1.89,2.82l.51.41c2.17,1.78,2.94,3.1,2.94,4.98,0,1.14-.39,2.49-1.69,3.4-.89.62-1.89.79-2.85.79-1.03,0-1.83-.13-2.61-.5Z"/>
        <path class="cls-3" d="M209.34,215.02c-.28-.14-.34-.24-.34-.67,0-1.08.08-2.24.09-2.56.02-.28.08-.51.22-.51.16,0,.18.18.18.35,0,.24.07.66.16.99.4,1.45,1.45,1.97,2.57,1.97,1.6,0,2.39-1.18,2.39-2.22,0-.96-.26-1.86-1.76-3.14l-.81-.69c-1.97-1.67-2.65-3.04-2.65-4.62,0-2.16,1.66-3.7,4.14-3.7,1.17,0,1.93.2,2.38.33.17.05.25.1.25.24,0,.25-.06.82-.06,2.34,0,.44-.05.61-.21.61-.12,0-.18-.14-.18-.37,0-.18-.08-.77-.47-1.29-.26-.38-.78-.95-1.95-.95-1.32,0-2.13.83-2.13,2,0,.89.42,1.59,1.92,2.82l.49.41c2.17,1.78,2.95,3.1,2.95,4.98,0,1.14-.4,2.49-1.69,3.4-.88.62-1.9.79-2.85.79-1.04,0-1.85-.13-2.62-.5"/>
        <path class="cls-2" d="M209.34,215.02c-.28-.14-.34-.24-.34-.67,0-1.08.08-2.24.09-2.56.02-.28.08-.51.22-.51.16,0,.18.18.18.35,0,.24.07.66.16.99.4,1.45,1.45,1.97,2.57,1.97,1.6,0,2.39-1.18,2.39-2.22,0-.96-.26-1.86-1.76-3.14l-.81-.69c-1.97-1.67-2.65-3.04-2.65-4.62,0-2.16,1.66-3.7,4.14-3.7,1.17,0,1.93.2,2.38.33.17.05.25.1.25.24,0,.25-.06.82-.06,2.34,0,.44-.05.61-.21.61-.12,0-.18-.14-.18-.37,0-.18-.08-.77-.47-1.29-.26-.38-.78-.95-1.95-.95-1.32,0-2.13.83-2.13,2,0,.89.42,1.59,1.92,2.82l.49.41c2.17,1.78,2.95,3.1,2.95,4.98,0,1.14-.4,2.49-1.69,3.4-.88.62-1.9.79-2.85.79-1.04,0-1.85-.13-2.62-.5Z"/>
        <path class="cls-3" d="M225.59,215.02c-.28-.14-.32-.24-.32-.67,0-1.08.07-2.24.08-2.56.01-.28.06-.51.21-.51.17,0,.17.18.17.35,0,.24.09.66.19.99.38,1.45,1.44,1.97,2.54,1.97,1.63,0,2.39-1.18,2.39-2.22,0-.96-.26-1.86-1.74-3.14l-.83-.69c-1.97-1.67-2.65-3.04-2.65-4.62,0-2.16,1.66-3.7,4.15-3.7,1.17,0,1.91.2,2.38.33.17.05.26.1.26.24,0,.25-.07.82-.07,2.34,0,.44-.06.61-.22.61-.12,0-.16-.14-.16-.37,0-.18-.09-.77-.47-1.29-.27-.38-.78-.95-1.95-.95-1.34,0-2.14.83-2.14,2,0,.89.43,1.59,1.9,2.82l.51.41c2.16,1.78,2.93,3.1,2.93,4.98,0,1.14-.38,2.49-1.68,3.4-.9.62-1.9.79-2.86.79-1.04,0-1.84-.13-2.62-.5"/>
        <path class="cls-2" d="M225.59,215.02c-.28-.14-.32-.24-.32-.67,0-1.08.07-2.24.08-2.56.01-.28.06-.51.21-.51.17,0,.17.18.17.35,0,.24.09.66.19.99.38,1.45,1.44,1.97,2.54,1.97,1.63,0,2.39-1.18,2.39-2.22,0-.96-.26-1.86-1.74-3.14l-.83-.69c-1.97-1.67-2.65-3.04-2.65-4.62,0-2.16,1.66-3.7,4.15-3.7,1.17,0,1.91.2,2.38.33.17.05.26.1.26.24,0,.25-.07.82-.07,2.34,0,.44-.06.61-.22.61-.12,0-.16-.14-.16-.37,0-.18-.09-.77-.47-1.29-.27-.38-.78-.95-1.95-.95-1.34,0-2.14.83-2.14,2,0,.89.43,1.59,1.9,2.82l.51.41c2.16,1.78,2.93,3.1,2.93,4.98,0,1.14-.38,2.49-1.68,3.4-.9.62-1.9.79-2.86.79-1.04,0-1.84-.13-2.62-.5Z"/>
        <path class="cls-3" d="M236.83,206.15c0-2.97,0-3.52-.04-4.14-.05-.66-.22-1-.63-1.1-.19-.05-.42-.07-.63-.07-.18,0-.29-.03-.29-.2,0-.11.14-.17.43-.17.69,0,1.81.07,2.33.07.45,0,1.5-.07,2.19-.07.23,0,.37.06.37.17,0,.17-.11.2-.29.2s-.31.02-.53.05c-.48.1-.63.43-.67,1.11-.03.62-.03,1.17-.03,4.14v3.44c0,1.9,0,3.45.08,4.27.05.54.17.89.7.96.28.03.66.07.92.07.2,0,.29.06.29.16,0,.14-.14.21-.34.21-1.19,0-2.32-.07-2.79-.07-.42,0-1.54.07-2.26.07-.24,0-.36-.07-.36-.21,0-.1.07-.16.29-.16.27,0,.47-.04.64-.07.37-.07.47-.41.53-.97.1-.82.1-2.37.1-4.27v-3.44Z"/>
        <path class="cls-2" d="M236.83,206.15c0-2.97,0-3.52-.04-4.14-.05-.66-.22-1-.63-1.1-.19-.05-.42-.07-.63-.07-.18,0-.29-.03-.29-.2,0-.11.14-.17.43-.17.69,0,1.81.07,2.33.07.45,0,1.5-.07,2.19-.07.23,0,.37.06.37.17,0,.17-.11.2-.29.2s-.31.02-.53.05c-.48.1-.63.43-.67,1.11-.03.62-.03,1.17-.03,4.14v3.44c0,1.9,0,3.45.08,4.27.05.54.17.89.7.96.28.03.66.07.92.07.2,0,.29.06.29.16,0,.14-.14.21-.34.21-1.19,0-2.32-.07-2.79-.07-.42,0-1.54.07-2.26.07-.24,0-.36-.07-.36-.21,0-.1.07-.16.29-.16.27,0,.47-.04.64-.07.37-.07.47-.41.53-.97.1-.82.1-2.37.1-4.27v-3.44Z"/>
        <path class="cls-3" d="M245.93,212.61c.03,1.52.26,2.02.62,2.16.31.12.64.14.93.14.19,0,.31.04.31.16,0,.17-.17.2-.42.2-1.16,0-1.88-.07-2.22-.07-.17,0-1.01.07-1.95.07-.21,0-.38-.01-.38-.2,0-.12.11-.16.28-.16.25,0,.56-.02.82-.09.47-.16.54-.71.55-2.43l.17-11.55c0-.4.06-.67.24-.67.2,0,.36.25.67.61.22.25,2.94,3.44,5.56,6.26,1.21,1.35,3.63,4.16,3.95,4.46h.08l-.19-8.77c-.02-1.18-.16-1.56-.61-1.75-.26-.12-.69-.12-.94-.12-.21,0-.28-.06-.28-.17,0-.16.19-.19.45-.19.94,0,1.8.07,2.18.07.19,0,.86-.07,1.76-.07.22,0,.4.04.4.19,0,.12-.1.17-.32.17-.18,0-.33,0-.54.06-.51.16-.64.57-.66,1.67l-.19,12.31c0,.43-.08.6-.24.6-.2,0-.42-.21-.61-.43-1.14-1.17-3.43-3.73-5.29-5.73-1.95-2.12-3.93-4.56-4.27-4.93h-.05l.2,8.21Z"/>
        <path class="cls-2" d="M245.93,212.61c.03,1.52.26,2.02.62,2.16.31.12.64.14.93.14.19,0,.31.04.31.16,0,.17-.17.2-.42.2-1.16,0-1.88-.07-2.22-.07-.17,0-1.01.07-1.95.07-.21,0-.38-.01-.38-.2,0-.12.11-.16.28-.16.25,0,.56-.02.82-.09.47-.16.54-.71.55-2.43l.17-11.55c0-.4.06-.67.24-.67.2,0,.36.25.67.61.22.25,2.94,3.44,5.56,6.26,1.21,1.35,3.63,4.16,3.95,4.46h.08l-.19-8.77c-.02-1.18-.16-1.56-.61-1.75-.26-.12-.69-.12-.94-.12-.21,0-.28-.06-.28-.17,0-.16.19-.19.45-.19.94,0,1.8.07,2.18.07.19,0,.86-.07,1.76-.07.22,0,.4.04.4.19,0,.12-.1.17-.32.17-.18,0-.33,0-.54.06-.51.16-.64.57-.66,1.67l-.19,12.31c0,.43-.08.6-.24.6-.2,0-.42-.21-.61-.43-1.14-1.17-3.43-3.73-5.29-5.73-1.95-2.12-3.93-4.56-4.27-4.93h-.05l.2,8.21Z"/>
        <path class="cls-3" d="M261.98,213.41c-1.75-1.71-2.23-3.88-2.23-5.78,0-1.33.38-3.62,2.1-5.35,1.28-1.28,2.98-2.07,5.65-2.07,1.12,0,1.79.08,2.6.2.69.1,1.26.27,1.8.36.21,0,.29.1.29.21,0,.16-.05.39-.1,1.07-.03.65-.02,1.72-.05,2.11-.03.29-.05.45-.23.45-.13,0-.16-.16-.16-.45-.02-.59-.25-1.28-.7-1.78-.59-.69-1.99-1.21-3.64-1.21-1.55,0-2.58.42-3.36,1.21-1.33,1.3-1.65,3.16-1.65,5.05,0,4.64,3.23,6.95,5.65,6.95,1.57,0,2.55-.2,3.27-1.09.31-.37.55-.93.6-1.28.07-.33.1-.4.26-.4.13,0,.16.14.16.3,0,.22-.21,1.93-.41,2.6-.07.32-.14.42-.45.56-.72.31-2.08.44-3.23.44-2.45,0-4.52-.58-6.14-2.11"/>
        <path class="cls-2" d="M261.98,213.41c-1.75-1.71-2.23-3.88-2.23-5.78,0-1.33.38-3.62,2.1-5.35,1.28-1.28,2.98-2.07,5.65-2.07,1.12,0,1.79.08,2.6.2.69.1,1.26.27,1.8.36.21,0,.29.1.29.21,0,.16-.05.39-.1,1.07-.03.65-.02,1.72-.05,2.11-.03.29-.05.45-.23.45-.13,0-.16-.16-.16-.45-.02-.59-.25-1.28-.7-1.78-.59-.69-1.99-1.21-3.64-1.21-1.55,0-2.58.42-3.36,1.21-1.33,1.3-1.65,3.16-1.65,5.05,0,4.64,3.23,6.95,5.65,6.95,1.57,0,2.55-.2,3.27-1.09.31-.37.55-.93.6-1.28.07-.33.1-.4.26-.4.13,0,.16.14.16.3,0,.22-.21,1.93-.41,2.6-.07.32-.14.42-.45.56-.72.31-2.08.44-3.23.44-2.45,0-4.52-.58-6.14-2.11Z"/>
        <path class="cls-3" d="M276.05,206.15c0-2.97,0-3.52-.05-4.14-.03-.66-.18-.98-.76-1.11-.14-.04-.44-.05-.69-.05-.2,0-.31-.03-.31-.17,0-.14.13-.19.39-.19.49,0,1.01.04,1.45.04.47.02.88.03,1.14.03.57,0,4.12,0,4.47,0,.34-.06.64-.08.78-.12.1-.02.2-.08.29-.08s.11.08.11.18c0,.13-.09.37-.14,1.26-.02.2-.05,1.06-.09,1.3-.02.1-.05.2-.18.2s-.16-.09-.16-.26c0-.14-.02-.48-.1-.71-.12-.35-.31-.58-1.21-.7-.3-.03-2.18-.07-2.54-.07-.1,0-.13.04-.13.19v4.95c0,.14.01.22.13.22.38,0,2.44,0,2.87-.04.41-.04.69-.11.85-.3.12-.15.19-.26.29-.26.07,0,.13.04.13.16s-.07.44-.14,1.42c-.02.4-.08,1.18-.08,1.32s0,.36-.16.36c-.12,0-.17-.1-.17-.17-.02-.19-.02-.44-.07-.71-.08-.39-.33-.68-1-.76-.33-.04-2.12-.05-2.55-.05-.09,0-.1.07-.1.19v1.54c0,.68-.02,2.46,0,3.03.03,1.35.33,1.65,2.16,1.65.47,0,1.21,0,1.68-.24.47-.23.69-.66.81-1.45.04-.21.07-.29.19-.29.16,0,.16.16.16.34,0,.46-.16,1.79-.24,2.18-.13.51-.29.51-.98.51-1.33,0-2.32-.04-3.1-.05-.76-.03-1.33-.07-1.87-.07-.18,0-.59,0-1.02.03-.41,0-.88.03-1.24.03-.23,0-.37-.07-.37-.21,0-.1.08-.16.31-.16.26,0,.48-.04.64-.07.37-.07.45-.5.52-1.08.1-.81.1-2.36.1-4.15v-3.44Z"/>
        <path class="cls-2" d="M276.05,206.15c0-2.97,0-3.52-.05-4.14-.03-.66-.18-.98-.76-1.11-.14-.04-.44-.05-.69-.05-.2,0-.31-.03-.31-.17,0-.14.13-.19.39-.19.49,0,1.01.04,1.45.04.47.02.88.03,1.14.03.57,0,4.12,0,4.47,0,.34-.06.64-.08.78-.12.1-.02.2-.08.29-.08s.11.08.11.18c0,.13-.09.37-.14,1.26-.02.2-.05,1.06-.09,1.3-.02.1-.05.2-.18.2s-.16-.09-.16-.26c0-.14-.02-.48-.1-.71-.12-.35-.31-.58-1.21-.7-.3-.03-2.18-.07-2.54-.07-.1,0-.13.04-.13.19v4.95c0,.14.01.22.13.22.38,0,2.44,0,2.87-.04.41-.04.69-.11.85-.3.12-.15.19-.26.29-.26.07,0,.13.04.13.16s-.07.44-.14,1.42c-.02.4-.08,1.18-.08,1.32s0,.36-.16.36c-.12,0-.17-.1-.17-.17-.02-.19-.02-.44-.07-.71-.08-.39-.33-.68-1-.76-.33-.04-2.12-.05-2.55-.05-.09,0-.1.07-.1.19v1.54c0,.68-.02,2.46,0,3.03.03,1.35.33,1.65,2.16,1.65.47,0,1.21,0,1.68-.24.47-.23.69-.66.81-1.45.04-.21.07-.29.19-.29.16,0,.16.16.16.34,0,.46-.16,1.79-.24,2.18-.13.51-.29.51-.98.51-1.33,0-2.32-.04-3.1-.05-.76-.03-1.33-.07-1.87-.07-.18,0-.59,0-1.02.03-.41,0-.88.03-1.24.03-.23,0-.37-.07-.37-.21,0-.1.08-.16.31-.16.26,0,.48-.04.64-.07.37-.07.45-.5.52-1.08.1-.81.1-2.36.1-4.15v-3.44Z"/>
        <path class="cls-3" d="M294.39,206.22v-2.57c0-.46,0-.7-.25-.7-.34,0-1.69.78-2.07.93-.1.05-.19.09-.26.09-.06,0-.15-.1-.15-.21s.09-.23.19-.28c.07-.03,3.52-2.5,4.13-3.01.17-.12.33-.26.47-.26.16,0,.22.22.22.42,0,.16-.11,2.08-.11,5.08v3.62c0,1.86,0,3.51.07,4.38.06.63.15.91.73,1.05.26.06,1.04.12,1.17.12.09,0,.17.06.17.2s-.08.18-.29.18c-1.36,0-2.51-.07-3-.07-.41,0-1.92.07-3.05.07-.2,0-.31-.03-.31-.18s.07-.2.15-.2c.2,0,1.1-.06,1.43-.12.57-.14.66-.42.72-1.05.05-.87.11-2.52.09-4.38l-.04-3.11Z"/>
        <path class="cls-2" d="M294.39,206.22v-2.57c0-.46,0-.7-.25-.7-.34,0-1.69.78-2.07.93-.1.05-.19.09-.26.09-.06,0-.15-.1-.15-.21s.09-.23.19-.28c.07-.03,3.52-2.5,4.13-3.01.17-.12.33-.26.47-.26.16,0,.22.22.22.42,0,.16-.11,2.08-.11,5.08v3.62c0,1.86,0,3.51.07,4.38.06.63.15.91.73,1.05.26.06,1.04.12,1.17.12.09,0,.17.06.17.2s-.08.18-.29.18c-1.36,0-2.51-.07-3-.07-.41,0-1.92.07-3.05.07-.2,0-.31-.03-.31-.18s.07-.2.15-.2c.2,0,1.1-.06,1.43-.12.57-.14.66-.42.72-1.05.05-.87.11-2.52.09-4.38l-.04-3.11Z"/>
        <path class="cls-3" d="M310.42,205.52c0,5.48-4.4,8.9-6.62,10.05-.09.05-.18.09-.33.09-.07,0-.17-.12-.17-.2,0-.14.12-.25.22-.34,1.86-1.22,4.66-4.42,4.66-9.03,0-3.46-1.34-4.98-2.72-4.98-1.3,0-2.16,1.26-2.16,2.92,0,2.97,1.77,3.67,2.39,3.67s1-.1,1.21-.23c.2-.12.29-.22.36-.22.1,0,.15.07.15.17,0,.06-.06.17-.09.21-.52.62-1.45.9-2.39.9-2.56,0-3.64-2.13-3.64-3.77,0-2.63,1.83-4.55,4.59-4.55,2.92,0,4.53,2.35,4.53,5.3"/>
        <path class="cls-2" d="M310.42,205.52c0,5.48-4.4,8.9-6.62,10.05-.09.05-.18.09-.33.09-.07,0-.17-.12-.17-.2,0-.14.12-.25.22-.34,1.86-1.22,4.66-4.42,4.66-9.03,0-3.46-1.34-4.98-2.72-4.98-1.3,0-2.16,1.26-2.16,2.92,0,2.97,1.77,3.67,2.39,3.67s1-.1,1.21-.23c.2-.12.29-.22.36-.22.1,0,.15.07.15.17,0,.06-.06.17-.09.21-.52.62-1.45.9-2.39.9-2.56,0-3.64-2.13-3.64-3.77,0-2.63,1.83-4.55,4.59-4.55,2.92,0,4.53,2.35,4.53,5.3Z"/>
        <path class="cls-3" d="M312.04,209.93c0-3.83,2.76-7.9,6.65-9.6.17-.08.31-.12.4-.12.1,0,.22.06.22.18,0,.17-.27.32-.45.44-2.1,1.28-4.58,4.45-4.58,9.1,0,2.29.92,4.74,2.73,4.74,1.25,0,2.26-1.01,2.26-3.29,0-2.71-1.34-3.9-2.53-3.9-.45,0-.69.06-.92.14-.15.03-.33.11-.4.11s-.16-.06-.16-.19.11-.22.21-.29c.53-.4,1.35-.7,2.33-.7,2.52,0,3.65,2.23,3.65,3.96,0,3.03-2.06,5.01-4.69,5.01-2.76,0-4.73-2.06-4.73-5.59"/>
        <path class="cls-2" d="M312.04,209.93c0-3.83,2.76-7.9,6.65-9.6.17-.08.31-.12.4-.12.1,0,.22.06.22.18,0,.17-.27.32-.45.44-2.1,1.28-4.58,4.45-4.58,9.1,0,2.29.92,4.74,2.73,4.74,1.25,0,2.26-1.01,2.26-3.29,0-2.71-1.34-3.9-2.53-3.9-.45,0-.69.06-.92.14-.15.03-.33.11-.4.11s-.16-.06-.16-.19.11-.22.21-.29c.53-.4,1.35-.7,2.33-.7,2.52,0,3.65,2.23,3.65,3.96,0,3.03-2.06,5.01-4.69,5.01-2.76,0-4.73-2.06-4.73-5.59Z"/>
        <path class="cls-3" d="M326.66,206.22v-2.57c0-.46,0-.7-.27-.7-.34,0-1.68.78-2.08.93-.1.05-.18.09-.25.09-.05,0-.14-.1-.14-.21s.08-.23.17-.28c.06-.03,3.5-2.5,4.13-3.01.16-.12.33-.26.47-.26.16,0,.21.22.21.42,0,.16-.1,2.08-.1,5.08v3.62c0,1.86,0,3.51.07,4.38.05.63.14.91.72,1.05.27.06,1.04.12,1.17.12.07,0,.17.06.17.2s-.1.18-.29.18c-1.35,0-2.51-.07-3-.07-.39,0-1.92.07-3.05.07-.2,0-.31-.03-.31-.18s.08-.2.15-.2c.19,0,1.11-.06,1.43-.12.58-.14.66-.42.71-1.05.08-.87.1-2.52.1-4.38l-.02-3.11Z"/>
        <path class="cls-2" d="M326.66,206.22v-2.57c0-.46,0-.7-.27-.7-.34,0-1.68.78-2.08.93-.1.05-.18.09-.25.09-.05,0-.14-.1-.14-.21s.08-.23.17-.28c.06-.03,3.5-2.5,4.13-3.01.16-.12.33-.26.47-.26.16,0,.21.22.21.42,0,.16-.1,2.08-.1,5.08v3.62c0,1.86,0,3.51.07,4.38.05.63.14.91.72,1.05.27.06,1.04.12,1.17.12.07,0,.17.06.17.2s-.1.18-.29.18c-1.35,0-2.51-.07-3-.07-.39,0-1.92.07-3.05.07-.2,0-.31-.03-.31-.18s.08-.2.15-.2c.19,0,1.11-.06,1.43-.12.58-.14.66-.42.71-1.05.08-.87.1-2.52.1-4.38l-.02-3.11Z"/>
      </g>
    </g>
  </g>
</svg>