<?xml version="1.0" encoding="UTF-8"?>
<svg id="Layer_1" xmlns="http://www.w3.org/2000/svg" version="1.1" viewBox="0 0 695 190">
  <!-- Generator: Adobe Illustrator 29.8.2, SVG Export Plug-In . SVG Version: 2.1.1 Build 3)  -->
  <defs>
    <style>
      .st0 {
        fill: #747578;
      }

      .st1 {
        fill: #e5343e;
      }
    </style>
  </defs>
  <path class="st0" d="M677.8,112.78c-16.62,0-33.24.02-49.86.07-1.23,0-1.63-.35-1.62-1.61v-63.64c0-1.79.96-1.6,2.06-1.6h49.43v15.82c-10.47,0-20.95,0-31.43-.09-1.44,0-1.71.58-1.66,1.82.08,1.83,0,3.66,0,5.48,0,3.28-.35,2.85,2.75,2.86,9.02,0,18.05.07,27.07,0,2,0,2.47.56,2.37,2.46-.15,3.21-.16,6.44,0,9.65.1,2-.49,2.58-2.52,2.56-9.23-.11-18.47,0-27.7-.08-1.53,0-2.01.43-2.01,2.01.12,2.33.09,4.68,0,7.01,0,1.26.45,1.62,1.66,1.61,10.48,0,20.95,0,31.43-.07l.02,15.75Z"/>
  <path class="st0" d="M451.43,75.54l-7.51,21.53c-1.72,4.9-3.46,9.78-5.1,14.7-.18,1.03-1.16,1.72-2.19,1.55-4.18-.09-8.36-.12-12.53,0-1.3.23-2.54-.64-2.76-1.93,0-.02,0-.04,0-.07-5.02-15.42-10.19-30.82-15.29-46.21-1.82-5.48-3.64-10.96-5.44-16.45-.27-.82-.5-1.65-.81-2.7h18.42c1.42,0,1.43,1.07,1.68,1.9,2.59,8.53,5.13,17.04,7.7,25.62,1,3.47,2.12,6.94,3.33,10.95.84-2.48,1.53-4.47,2.19-6.45,3.38-10.2,6.79-20.39,10.1-30.61.42-1.29.95-1.73,2.28-1.71,4.01.08,8.07.11,12.09,0,1.68-.06,2.41.48,2.92,2.09,3.7,11.48,7.52,22.93,11.3,34.38.21.61.46,1.22.86,2.29l5.58-18.55c1.83-6.09,3.74-12.16,5.48-18.27.4-1.39,1.09-1.63,2.34-1.61,5.13,0,10.25.08,15.38,0,1.67,0,1.95.36,1.41,1.95-5.85,17.47-11.64,34.95-17.4,52.46-1.24,3.74-2.55,7.47-3.69,11.25-.15,1.09-1.16,1.86-2.26,1.71-.02,0-.04,0-.06,0-4.25-.08-8.5-.11-12.75,0-1.49,0-2.01-.58-2.45-1.85-3.85-11.27-7.74-22.53-11.66-33.77-.25-.68-.25-1.61-1.16-2.17"/>
  <path class="st0" d="M624.23,112.81h-20.05c-.87.04-1.69-.45-2.07-1.23-3.81-5.77-7.75-11.49-11.52-17.33-.64-1.25-2.01-1.96-3.4-1.77-1.46.12-2.93.12-4.39,0-1.35-.09-1.77.37-1.74,1.72.07,5.56,0,11.14.06,16.7,0,1.56-.42,2.01-1.95,1.92-5.01-.09-9.96-.07-14.94,0-1.23,0-1.64-.32-1.64-1.59.04-21.23.04-42.47,0-63.7,0-1.33.53-1.56,1.69-1.54,10.84,0,21.69-.14,32.54.09,6.02.12,11.94,1.37,17.04,5.07,4.14,2.88,6.94,7.33,7.75,12.31,1.93,11.47-1.78,20.51-11.8,25.34-1.65.79-.79,1.49-.23,2.31l13.72,20.14c.22.4.46.88.93,1.57M581.07,69.92v6.8c0,.68,0,1.35,1,1.32,4.82-.16,9.66.44,14.44-.36,4.78-.8,7.09-3.51,7.02-7.77s-2.46-6.95-7.15-7.68c-4.68-.73-9.49-.2-14.24-.34-1.12,0-1.07.69-1.07,1.46,0,2.19,0,4.39,0,6.57"/>
  <path class="st0" d="M405,112.8h-20.39c-1,0-1.32-.72-1.77-1.37-3.91-5.83-7.85-11.64-11.71-17.51-.5-.99-1.55-1.57-2.66-1.45-1.53.11-3.07.11-4.61,0-1.52-.12-2,.38-2,1.94.09,5.41,0,10.82.08,16.24,0,1.78-.53,2.2-2.22,2.17-4.76-.11-9.52-.09-14.28,0-1.47,0-2.01-.26-2.01-1.88.05-21.01.05-42.01,0-63.02,0-1.51.39-2.01,1.96-2.01,10.55.07,21.05,0,31.64.06,4.33,0,8.63.82,12.65,2.43,10.35,4.22,14.03,13.17,13.03,23.16-.77,7.83-4.83,13.53-11.86,16.99-1.62.82-1.31,1.47-.53,2.59,4.44,6.44,8.86,12.91,13.26,19.38.42.64.79,1.25,1.43,2.27M361.9,70.01c0,2.12.05,4.24,0,6.36,0,1.17.24,1.7,1.56,1.67,3.88-.09,7.76,0,11.63-.08,2.06.02,4.09-.54,5.85-1.61,2.72-1.67,4.04-4.92,3.25-8.02-.7-3.44-2.93-5.51-6.81-6.16-4.72-.76-9.49-.21-14.24-.37-1.19,0-1.24.7-1.23,1.57,0,2.27-.02,4.46-.02,6.63"/>
  <path class="st0" d="M252.59,73.68c4.55,0,9.09.05,13.63,0,1.37,0,1.75.39,1.74,1.73-.05,9.01-.05,18.01,0,27.01.06.81-.3,1.59-.95,2.07-13.91,11.25-36,13.22-50.44,2.8-11.19-8.02-15.27-19.45-13.5-32.74,2.22-16.52,15.04-28.07,31.73-29.51,10.68-.91,20.5,1.29,29.15,7.9,1.38,1.07,1.72,1.78.43,3.23-2.92,3.28-5.73,6.66-8.44,10.11-.94,1.21-1.5,1-2.57.21-5.32-4.18-11.35-6.07-18.05-4.76-8.08,1.57-13.46,8.42-13.65,17.31-.35,16.35,14.9,22.51,27.07,17.25,1.15-.34,1.88-1.49,1.68-2.68-.1-1.61-.1-3.21,0-4.82.06-1.15-.35-1.53-1.51-1.51-3.29.07-6.59,0-9.89.06-1.51.06-1.86-.48-1.83-1.87.08-3.29.11-6.58,0-9.87-.06-1.63.58-1.93,2.01-1.92,4.45.05,8.92,0,13.38,0"/>
  <path class="st0" d="M487.17,112.79c1.64-3.95,3.17-7.65,4.72-11.34,7.56-17.98,15.13-35.98,22.69-53.98.35-1.33,1.64-2.19,3.01-2,4.75.12,9.52.07,14.29,0,.95-.14,1.85.45,2.12,1.37,9.16,21.76,18.34,43.51,27.52,65.26.03.23.03.45,0,.68h-13.3c-2.1,0-4.67.85-6.19-.36-1.51-1.21-1.69-3.61-2.48-5.49-.11-.26-.24-.53-.35-.8q-2.14-5.31-7.78-5.31c-5.87,0-11.73.12-17.58-.07-2.09-.06-2.95.67-3.57,2.54-.91,2.77-2.1,5.46-3.2,8.16-.26.65-.42,1.37-1.43,1.37-6.02-.04-12.08-.03-18.46-.03M524.27,67.58l-7.12,17.85c-.36.88.13,1,.82,1h12.27c1,0,1.3-.4.93-1.33-2.2-5.67-4.44-11.34-6.89-17.53h-.02Z"/>
  <path class="st0" d="M267.03,112.81c2.13-5.12,4.15-10.02,6.21-14.95,7.01-16.77,14.15-33.53,21.15-50.32.38-1.42,1.78-2.33,3.23-2.09,4.46.14,8.94.16,13.4,0,1.8-.06,2.54.61,3.19,2.18,7.12,17.06,14.29,34.11,21.51,51.12,1.71,4.01,3.36,8.11,5.17,12.1.79,1.76.32,2.01-1.41,2.01-5.34-.09-10.7-.08-16.04,0-1.09.16-2.13-.56-2.35-1.64-1.06-2.95-2.34-5.83-3.42-8.78-.27-1.08-1.32-1.78-2.42-1.63-7.47.06-14.94.06-22.42,0-1.03-.14-2,.52-2.23,1.53-1.13,3.09-2.45,6.1-3.63,9.18-.32.83-.66,1.34-1.69,1.33-5.99-.05-11.99-.03-18.24-.03M304.12,67.52c-2.48,6.27-4.81,12.03-7.11,17.89-.33.82.18,1,.89,1h12.29c1.14,0,1.18-.41.82-1.3-2.22-5.69-4.45-11.4-6.87-17.59h-.03Z"/>
  <path class="st0" d="M541.41,138.73v22.92c0,1.09-.1,1.72-1.5,1.78-4.51.16-4.51.23-4.51-4.25v-27.67c0-1.48.3-2.16,1.92-2.01,1.53.15,3.08.15,4.61,0,2.01-.23,2.81.65,3.51,2.38,2.74,6.77,5.63,13.49,8.48,20.22.19.77.61,1.47,1.19,2.01,1.61-3.75,3.21-7.42,4.78-11.09,1.74-4.01,3.5-8.02,5.17-12.1.23-.95,1.12-1.57,2.09-1.44,1.9.09,3.81.06,5.71,0,1,0,1.62.16,1.62,1.41-.05,10.32-.05,20.65,0,30.96,0,1.14-.38,1.47-1.51,1.52-4.5.18-4.5.22-4.5-4.26v-19.85c-1,.29-1,1.11-1.3,1.69-2.89,6.79-5.78,13.58-8.58,20.42-.6,1.48-1.34,2.23-3.01,2.01-1.67-.22-3.27.34-4.2-2.01-3.01-7.65-6.36-15.18-9.58-22.74l-.4.09Z"/>
  <path class="st0" d="M598.61,164.24c-5.1.07-9.61-.6-13.72-3.01-2.04-1.2-3.7-2.94-4.83-5.01-.62-1.11-.67-1.91.85-2.19.72-.14,1.42-.37,2.08-.68,1.82-.87,3.22-.83,4.25,1.27.7,1.14,1.8,1.99,3.08,2.39,4.7,2,9.99,2.13,14.79.37,1.59-.56,3.2-1.51,3.15-3.52-.05-2.01-1.76-2.76-3.37-3.29-3.43-1.14-7.02-1.24-10.6-1.78-2.75-.28-5.46-.96-8.02-2.01-3.55-1.66-5.76-4.23-5.6-8.35.17-4.12,2.45-6.61,6.08-8.08,3.94-1.44,8.15-1.96,12.32-1.52,3.3.09,6.55.87,9.53,2.32,2.25,1.11,4.08,2.93,5.2,5.18.19.38.51,1.06.37,1.2-1.4,1.37-3.42,1.39-5.12,2.15-.9.4-1.11-.26-1.43-.85-.66-1.34-1.77-2.4-3.14-3.01-4.63-1.98-9.84-2.14-14.58-.45-1.51.33-2.57,1.68-2.54,3.23.07,1.69,1.48,2.28,2.82,2.68,4.16,1.23,8.5,1.47,12.75,2.19,2.09.31,4.15.87,6.12,1.64,3.45,1.42,5.74,3.76,5.9,7.69.36,3.84-1.73,7.51-5.22,9.16-3.44,1.73-7.28,2.52-11.13,2.29"/>
  <path class="st0" d="M312.5,146.39c0-4.9.05-9.8,0-14.7,0-1.52.26-2.22,2-2.2,8.88.1,17.75.1,26.61,0,1.74,0,2,.61,2,2.16-.07,3.62,0,3.62-3.56,3.62h-18.24c-1.47,0-2.01.29-2.01,1.91,0,5.96-.1,5.96,5.87,5.96,4.17,0,8.36.06,12.53,0,1.42,0,2.06.22,2.01,1.87-.07,3.89,0,3.89-3.95,3.88h-14.74c-1.32,0-1.83.36-1.75,1.72.13,2.25-.71,5.17.4,6.6,1.11,1.44,4.25.45,6.48.49,5.12.08,10.26.09,15.39,0,1.68,0,2.09.5,2.01,2.12-.09,3.67,0,3.67-3.76,3.67-8.43,0-16.85-.05-25.28,0-1.68,0-2.1-.49-2.07-2.1.12-5.03.06-10.01.07-15"/>
  <path class="st0" d="M203.51,146.56v-15.14c0-1.35.24-1.92,1.79-1.93,5.01,0,5.01-.1,5.01,4.87v7.02c0,1.21.37,1.68,1.64,1.67,6.44,0,12.89-.06,19.33,0,1.46,0,1.67-.6,1.65-1.83-.06-3.29,0-6.59,0-9.87,0-1.44.4-1.87,1.87-1.88,4.95,0,4.95-.09,4.95,4.89v26.79c0,1.75-.36,2.43-2.27,2.37-4.55-.11-4.55,0-4.55-4.51,0-2.86-.05-5.72,0-8.56,0-1.26-.42-1.62-1.65-1.62-6.44.05-12.89.06-19.32,0-1.47,0-1.66.6-1.64,1.83.06,3.66,0,7.32,0,10.97,0,1.33-.39,1.75-1.75,1.78-4.93.09-4.93.14-4.93-4.78v-12.03l-.12-.04Z"/>
  <path class="st0" d="M425.34,146.46v14.93c0,1.42-.22,2.01-1.88,2.01-4.81,0-4.81.05-4.81-4.81,0-2.71-.05-5.41,0-8.12,0-1.21-.34-1.66-1.62-1.65-6.51.05-13.03.05-19.55,0-1.25,0-1.64.41-1.62,1.64.06,3.73,0,7.46,0,11.19,0,1.36-.41,1.73-1.75,1.75-4.95.07-4.95.12-4.95-4.85v-26.99c0-1.64.41-2.12,2.06-2.09,4.65.07,4.65,0,4.65,4.54,0,2.42.06,4.83,0,7.24,0,1.28.28,1.82,1.69,1.8,6.44-.06,12.88-.06,19.32,0,1.33,0,1.8-.37,1.77-1.74-.08-3.36,0-6.73,0-10.1,0-1.37.44-1.72,1.76-1.75,4.94-.07,4.94-.12,4.94,4.91-.03,4.06-.02,8.08-.02,12.11"/>
  <path class="st0" d="M365.36,164.17c-3.23.24-6.46-.3-9.43-1.58-7.11-3.01-11.1-10.55-10.02-18.72,1.28-9.44,7.54-14.74,17.91-15.12,4.12-.32,8.25.39,12.03,2.06,3.4,1.64,6.01,4.58,7.25,8.15.38,1,.33,1.69-1.05,1.52-.58-.05-1.17-.05-1.76,0-1.91.27-3.81-.55-4.92-2.13-3.68-4.54-9.02-4.49-14.15-3.28-6.13,1.43-9.03,6.3-8.43,13.24.48,5.52,4.84,9.65,10.92,10.11,5.6.43,10.53-.76,13.31-6.31.27-.53.84-.82,1.43-.73h3.08q2.64,0,1.86,2.45c-1.91,5.93-7.54,9.82-14.93,10.31-1.03.08-2.06,0-3.09,0"/>
  <path class="st0" d="M449.08,146.31c0-5.01.05-9.96,0-14.93,0-1.41.37-1.89,1.84-1.88,9.24.06,18.47.06,27.69,0,1.58,0,1.77.62,1.77,1.93q0,3.83-3.78,3.83h-18.91c-1.54,0-2.01.42-2.01,2,0,5.92-.06,5.92,5.89,5.92,4.39,0,8.79.08,13.18,0,1.64,0,2.15.43,2.09,2.08-.08,3.69,0,3.68-3.73,3.68h-15.61c-1.46,0-1.87.42-1.84,1.84.1,3.66,0,7.33.06,11.03,0,1.24-.22,1.78-1.66,1.8-5.01.06-5.01.12-5.01-4.82v-12.49Z"/>
  <path class="st0" d="M289.85,129.52h16.04c1.63,0,2.36.29,2.31,2.15-.11,3.63,0,3.63-3.58,3.63-3.15,0-6.3.09-9.45,0-1.73-.07-2.26.43-2.24,2.19.09,7.9,0,15.81.08,23.72,0,1.82-.46,2.34-2.31,2.3-4.38-.13-4.38,0-4.38-4.36v-21.96c0-1.4-.34-1.91-1.82-1.88-3.81.09-7.62,0-11.43.06-1.45,0-2.08-.27-2-1.9.14-4.74-.36-3.8,3.84-3.85h14.93v-.09Z"/>
  <path class="st0" d="M499.85,146.48c0-4.83.07-9.65,0-14.49,0-1.81.32-2.59,2.38-2.51,4.43.14,4.43,0,4.43,4.54v21.5c0,1.65.45,2.09,2.09,2.07,6.74-.09,13.47,0,20.21-.07,1.55,0,2.19.29,2.15,2.01-.08,3.84,0,3.84-3.82,3.84-8.28,0-16.55-.09-24.82,0-2.2,0-2.67-.64-2.6-2.7.08-4.68-.02-9.46-.02-14.2"/>
  <path class="st0" d="M254.13,146.63v15.12c0,1.32-.38,1.75-1.73,1.78-5.02.11-5.02.16-5.02-4.86v-26.96c0-1.68.42-2.27,2.2-2.23,4.51.11,4.51,0,4.51,4.44l.04,12.71Z"/>
  <path class="st0" d="M485.24,146.62v-15.34c0-1.28.3-1.78,1.7-1.8,5.07-.08,5.07-.14,5.07,5.02v26.73c0,1.62-.29,2.31-2.15,2.25-4.64-.12-4.64,0-4.64-4.76.01-4.05.01-8.08,0-12.11"/>
  <path class="st1" d="M185.41,16.46h-8.4c-25.61,0-51.24-1.6-76.81.53-33.15,2.77-60.96,20.82-75.43,51.18-9.58,19.98-10.11,41.01-1.48,61.99,10.67,25.9,31.34,42.72,60.3,43.71,15.62.53,31.27,0,46.9.18,3.2,0,4.66-1.06,5.63-4.1,6.13-19.1,12.43-38.16,18.7-57.24,2.83-8.63,5.7-17.34,8.61-26.17-1-.19-33.88-.44-49.68-.2-1.48,0-3.69,2.01-4.29,3.52-2.64,6.8-4.76,13.79-7.16,20.69-3.58,10.31-4.46,10.8-15.55,8.96l-.49-.08c-15.34-2.76-23.15-20.89-14.33-33.7,6.65-9.72,15.85-14.94,27.79-14.92,21.29,0,42.6.07,63.88,0h4.94l2-7.1c1.36-4.01,2.55-8.24,3.86-12.33-1.23-.21-52.47-.8-77.55.14-24.9.94-51.85,25.13-46.54,54.2,2.91,15.94,11.68,28.87,28.58,32.08,10.15,1.91,20.82,1.15,31.25,1.31.93,0,2.33-1.91,2.79-3.19,3.08-8.76,5.88-17.63,9.02-26.37.5-1.41,2.07-3.27,3.34-3.42,3.96-.27,7.94-.33,11.9-.16.08.69.08,1.38,0,2.06-4.75,14.5-9.43,29.01-14.45,43.42-.48,1.37-3.15,2.79-4.84,2.83-11.03.23-21.98.54-32.93-.11-5.96-.35-11.8-1.74-17.28-4.11-28.96-12.9-41.71-49.94-23.38-80.06,13.44-22.17,33.79-34.26,60.55-33.97,21.46.23,42.93,0,64.39,0h11.19l2.87-10.41v-.07c.12-.42.24-.84.35-1.26v-.11c.62-2.3,1.04-4.69,1.71-7.73"/>
  <path class="st0" d="M266,147.83h2.41c3.2,0,3.85.91,3.12,4.15-.19.84-.69.81-1.26.81h-9.02c-1,0-1.26-.46-1.21-1.35.05-.67.05-1.34,0-2.01-.17-1.4.49-1.76,1.77-1.68,1.28.08,2.82.08,4.2.08"/>
</svg>