<?xml version="1.0" encoding="UTF-8"?>
<svg xmlns="http://www.w3.org/2000/svg" version="1.1" viewBox="0 0 388 170.1">
  <defs>
    <style>
      .cls-1 {
        fill: #8e6f3f;
      }

      .cls-2 {
        fill: #fff;
      }

      .cls-3 {
        fill: #231f20;
      }
    </style>
  </defs>
  <!-- Generator: Adobe Illustrator 28.6.0, SVG Export Plug-In . SVG Version: 1.2.0 Build 709)  -->
  <g>
    <g id="Layer_1">
      <g id="Layer_1-2" data-name="Layer_1">
        <g id="Layer_1-2">
          <path d="M158.8,87c-.2,10.7-4.2,20.7-12.5,28.8-5.6,5.5-12.4,9-20.1,10.6-3.4.7-6.7.9-10.1.6-8.9-.6-16.7-3.9-23.4-9.7-6.9-6-11.3-13.6-13.2-22.5-.8-3.6-1-7.2-.8-10.8.7-10.7,4.7-19.8,12.3-27.2,5.7-5.6,12.4-9.2,20.3-10.7,3.4-.7,6.8-.9,10.2-.6,8.7.6,16.4,3.8,23.1,9.5,7.1,6,11.4,13.7,13.5,22.8.6,2.8.9,5.6.9,9.4h0v-.2ZM147.6,90.3v.7c-.8,4.9-2.7,9.4-5.7,13.4-6.5,8.6-17,13-28,11.2-5.3-.9-10.1-3.1-14.2-6.7-7.8-6.7-11.3-17-10-26.7.5-3.8,1.7-7.4,3.6-10.8,5.6-10,16.5-16.1,28.5-14.8,2.9.3,5.7,1,8.4,2.2,7.4,3.3,12.6,8.8,15.6,16.3.2.4.3.8.4,1.2.8,0,4.1.2,6.6,0h.5c0-.3,0-.7-.2-1-.9-2.8-2-5.5-3.5-8-6.1-10.4-16.8-17-28.6-17.8-3.1-.2-6.4,0-9.4.6-6.9,1.4-12.8,4.6-17.9,9.5-8.6,8.4-12.4,20.3-10.7,32.2.8,5,2.4,9.6,5.1,14,7,11.3,19.6,18.2,33.1,17.1,3.1-.3,6.2-.9,9.2-1.9,10.1-3.6,18.2-11.4,21.9-21.6,1.1-3.1,1.9-6.4,2.2-9.7,0-1.3.2-2.5.2-3.8s0-.6-.2-1c-.4,0-.8,0-1.2,0h-47.5c-.2,0-.3,0-.5,0v4.9c0,0,0,.3,0,.4h42,0Z"/>
          <path class="cls-1" d="M264.3,45.2c0,.3.2.6.3.9,1.1,5.6,2.2,11.2,3.3,16.9.8,4.2,1.7,8.3,2.4,12.5.9,4.5,1.7,8.9,2.6,13.4.5,2.4,1,4.9,1.5,7.3,0,.2,0,.3,0,.4,0,0,.2,0,.3,0,.2-.3.3-.6.3-1,.7-3.7,1.5-7.4,2.3-11.1.7-3.7,1.5-7.3,2.2-10.9.7-3.4,1.3-6.7,2-10.1.5-2.8,1.1-5.6,1.7-8.4.6-3.1,1.2-6,1.8-9.1,0-.3.2-.5.2-.7.3-.3.6-.2,1-.2h8.9c.6,0,.7,0,.8.7v.6c.2,1.8.3,3.7.4,5.5.2,1.7.3,3.5.4,5.2,0,1,.2,2.1.3,3.1,0,1.1.2,2.3.3,3.4,0,.8.2,1.6.2,2.4s.2,2.1.3,3.1c0,1,.2,2.2.3,3.2,0,.8,0,1.5.2,2.3,0,1,.2,2,.3,3,0,1.1.2,2.3.3,3.4,0,.8.2,1.6.2,2.4s.2,2,.3,3c0,1.1.2,2.3.3,3.4,0,.8.2,1.7.2,2.4s.2,2.1.3,3.1c0,1,.2,2.1.3,3.1,0,.8.2,1.6.2,2.4s.2,2.1.3,3.1c0,1,.2,2.2.3,3.2,0,.8.2,1.7.2,2.4s.2,2.1.3,3.1c0,1,.2,2.2.3,3.2,0,.8.2,1.5.2,2.3s.2,2.1.3,3.1c0,1,.2,2.2.3,3.2,0,.8,0,1.5.2,2.3v.3h-10.8c0-.2-.2-.3-.2-.5,0-.5,0-1,0-1.5,0-1.8-.3-3.7-.3-5.4v-.3c0-1.7-.2-3.2-.3-4.8,0-2.1-.3-4.2-.3-6.3,0-2.1-.3-4.2-.3-6.2,0-2.1-.3-4.3-.3-6.4,0-2-.3-4-.3-6,0-2.1-.3-4.3-.3-6.4,0-1.6-.2-3.1-.3-4.7,0-.2,0-.3,0-.5-.2,0-.3.2-.3.3,0,.3-.2.6-.2.9-.8,4-1.6,8.1-2.4,12.1-.7,3.4-1.3,6.8-2,10.3-.6,3.1-1.2,6.3-1.8,9.5-.5,2.8-1.1,5.6-1.7,8.4-.4,2.3-.9,4.5-1.3,6.8,0,.3-.2.7-.3,1-.2,0-.3,0-.5,0h-7.4c-.3-.3-.3-.6-.3-.9-.7-3.6-1.3-7.2-2-10.7-.7-3.6-1.4-7.2-2-10.7-.7-3.9-1.5-7.8-2.2-11.7-.7-3.6-1.4-7.2-2-10.7-.3-1.3-.5-2.6-.8-3.9,0-.2,0-.3-.2-.4h-.3c0,0,0,.2,0,.3,0,.8,0,1.5-.2,2.3,0,.7,0,1.5-.2,2.2,0,1.3-.2,2.7-.3,4s-.2,2.7-.3,4v.4c0,1.4-.2,2.8-.3,4.1,0,1.2-.2,2.5-.3,3.8,0,1.1-.2,2.2-.3,3.3,0,.8,0,1.6-.2,2.4,0,1.4-.2,2.8-.3,4.1,0,1.3-.2,2.5-.3,3.8,0,1-.2,1.9-.2,2.9,0,1.4-.2,2.8-.3,4.2,0,1.2-.2,2.5-.3,3.8v1.7c0,.5,0,1-.3,1.6-.2,0-.3,0-.6,0h-10.1c-.2,0-.3-.2-.3-.3v-.2c.2-1.5.3-3.1.4-4.5,0-1,.2-2,.3-3,0-1,.2-2,.3-3,0-.7,0-1.3.2-2,0-1,.2-1.8.3-2.8,0-1,.2-2,.3-3.1,0-.8.2-1.5.2-2.3s.2-2,.3-3c0-1,.2-1.9.3-2.9,0-.7,0-1.3.2-2,0-1,.2-1.8.3-2.8,0-1,.2-2,.3-3.1,0-.9.2-1.8.3-2.7.2-1.8.3-3.6.5-5.4,0-1,.2-2,.3-3,0-1,.2-2,.3-3,0-.7.2-1.5.2-2.2s.2-2,.3-3c0-1,.2-1.8.3-2.8,0-.7.2-1.5.2-2.2s.2-1.9.3-2.9.2-1.9.3-2.9c0-.7.2-1.5.2-2.2s.2-1.9.3-2.9.2-1.9.3-2.9c0-1,.2-1.8.3-2.8.2-2,.3-3.9.5-5.9,0-.4.2-.5.6-.5h10v-.2Z"/>
          <path class="cls-1" d="M204.8,90.9h-18.4c-.3,0-.4.2-.4.5,0,.5,0,1,.3,1.6,1,5.3,3.4,10.1,7.1,14.2,3.9,4.3,8.7,7.2,14.4,8.6,1.5.3,3.1.6,4.6.7,2.1.2,4.1,0,6.2,0h4.7c.3,0,.4.2.5.5v10c0,.2-.2.3-.3.3h-10.9c-1.1,0-2.2-.2-3.3-.3-1.4,0-2.7-.4-4-.7-3.5-.8-6.8-2-10-3.7-6.3-3.4-11.4-8-15.3-14.1-2.8-4.3-4.6-9-5.6-14-.7-3.3-.9-6.6-.6-10,.4-6.5,2.3-12.5,5.6-18,5.7-9.3,13.8-15.5,24.4-18.4,1.7-.4,3.3-.8,5-1,1.7-.3,3.2-.3,4.9-.3h9.3c1,0,1,0,1,1v9.1c0,.6,0,.7-.7.7h-8.9c-3.1,0-6.2.6-9.1,1.7-6.6,2.4-11.7,6.6-15.3,12.7-1.2,2.1-2.2,4.3-2.9,6.6-.2.7-.2.9.7.9h35.8c.2,0,.3.2.3.3v10.5c0,.3-.2.4-.5.5h-18.5Z"/>
          <path class="cls-1" d="M63.2,137.5c.3,0,.4,0,.5,0h253.6c.3,0,.4.2.4.4v2.3c0,.3-.2.4-.4.4H63.7c-.3,0-.4-.2-.4-.4v-2.6h0Z"/>
          <path class="cls-1" d="M63.2,32.5v-2.8c.3,0,.3,0,.5-.2h253.5c.3,0,.5.2.5.4v2.1c0,.3-.2.4-.5.4H64.5c-.4,0-.8,0-1.3,0h0Z"/>
          <path class="cls-2" d="M147.6,90.3h-42c0-.2,0-.3,0-.4v-4.9c.2,0,.3,0,.5,0h48.7c.2.3.2.6.2,1,0,1.3,0,2.6-.2,3.8-.3,3.3-1,6.6-2.2,9.7-3.8,10.1-11.9,18-21.9,21.6-3,1-6,1.7-9.2,1.9-13.5,1-26.1-5.9-33.1-17.1-2.6-4.3-4.4-9-5.1-14-1.7-11.8,2.1-23.8,10.7-32.2,5.1-4.9,11-8.1,17.9-9.5,3.1-.6,6.3-.9,9.4-.6,11.8.8,22.5,7.4,28.6,17.8,1.5,2.5,2.6,5.2,3.5,8,0,.3.3.6.2,1h-7.1c-.2-.3-.3-.8-.4-1.2-3.1-7.5-8.2-12.9-15.6-16.3-2.6-1.2-5.5-1.9-8.4-2.2-12-1.3-22.9,4.9-28.5,14.8-1.9,3.4-3.1,7-3.6,10.8-1.3,9.8,2.2,19.9,10,26.7,4.1,3.6,8.8,5.9,14.2,6.7,11,1.8,21.5-2.7,28-11.2,3.1-4,4.9-8.5,5.7-13.4v-.7h0Z"/>
          <path class="cls-3" d="M310.8,52.3c0-1.2.3-2.4,1-3.5.6-1.1,1.5-1.9,2.5-2.5,1.1-.6,2.3-1,3.5-1s2.4.3,3.5,1,1.9,1.5,2.5,2.5c.6,1.1,1,2.3,1,3.5s-.3,2.4-.9,3.5c-.6,1-1.5,1.9-2.5,2.6-1.1.6-2.3,1-3.6,1s-2.4-.3-3.6-1c-1.1-.6-1.9-1.5-2.5-2.5-.6-1-.9-2.3-.9-3.5h0ZM311.8,52.3c0,1,.3,2.1.8,3.1.5,1,1.3,1.7,2.2,2.2,1,.5,1.9.8,3.1.8s2.1-.3,3.1-.8c1-.5,1.7-1.3,2.2-2.2.5-1,.8-1.9.8-3.1s-.3-2.1-.8-3.1-1.3-1.7-2.2-2.2-1.9-.8-3.1-.8-2.1.3-3.1.8-1.7,1.3-2.2,2.2c-.5,1-.8,1.9-.8,3.1h0ZM320.7,50.7c0,.5-.2,1-.4,1.3s-.6.7-1.1.9l2.2,3.7h-1.6l-1.9-3.3h-1.2v3.3h-1.4v-8.3h2.4c1,0,1.7.2,2.3.6s.7,1,.7,1.8h0ZM316.7,52.1h1c.5,0,.9-.2,1.2-.3s.4-.6.4-1-.2-.8-.4-1c-.3-.2-.7-.3-1.2-.3h-1v2.7h0Z"/>
        </g>
      </g>
    </g>
  </g>
</svg>