<?xml version="1.0" encoding="UTF-8"?>
<svg id="Layer_1" xmlns="http://www.w3.org/2000/svg" version="1.1" viewBox="0 0 695 190">
  <!-- Generator: Adobe Illustrator 29.8.2, SVG Export Plug-In . SVG Version: 2.1.1 Build 3)  -->
  <defs>
    <style>
      .st0 {
        fill: #50b748;
      }
    </style>
  </defs>
  <path class="st0" d="M139.5,21.46c-9.54,0-18.72,3.19-26.18,9.05v-8.76h-16.37v41.68c-7.14-5.04-15.72-7.79-24.47-7.79-23.43,0-42.48,19.06-42.48,42.48s19.05,42.48,42.48,42.48c9.4,0,18.48-3.12,25.9-8.84-.98,7.65-5.38,14.51-12.07,18.63l-.67.42v17.73l1.91-.72c7.76-2.9,14.46-7.99,19.36-14.7,5.01-6.87,7.78-14.99,8.01-23.47l.03-1.45h-.03c0-5.51,0-22.69-.03-29.66,7.16,5.1,15.79,7.88,24.61,7.88,23.42,0,42.47-19.06,42.47-42.47s-19.05-42.48-42.47-42.48M72.48,72.11c14.34,0,26.01,11.67,26.01,26.02s-11.67,26.02-26.01,26.02-26.03-11.67-26.03-26.02,11.67-26.02,26.03-26.02M139.5,89.96c-14.35,0-26.01-11.67-26.01-26.02s11.67-26.03,26.01-26.03,26.02,11.68,26.02,26.03-11.67,26.02-26.02,26.02"/>
  <path class="st0" d="M228.47,66.88c-2.81-2.69-6.98-4.18-10.62-4.18-8.96,0-14.38,6.8-14.38,15.39,0,6.86,4,13.97,14.38,13.97,3.28,0,6.15-.71,9.42-3.34v-7.4h-10.67v-7.04h17.9v17.61c-4.12,4.72-9.31,7.52-16.65,7.52-15.69,0-22.08-10.32-22.08-21.31,0-11.75,7.34-22.62,22.08-22.62,5.61,0,11.22,2.15,15.52,6.39l-4.9,5.02Z"/>
  <path class="st0" d="M285.77,98.46h-9.38l-12.17-13.97h-7.58v13.97h-7.88v-41.83c6.62,0,13.25.05,19.87.05,9.85.06,15.04,6.63,15.04,13.85,0,5.73-2.63,11.52-10.56,13.13l12.65,14.26v.54ZM256.64,64.02v13.36h12c5.02,0,7.17-3.34,7.17-6.68s-2.21-6.68-7.17-6.68h-12Z"/>
  <polygon class="st0" points="328.51 98.46 297.23 98.46 297.23 56.67 328.51 56.67 328.51 64.31 305.05 64.31 305.05 73.92 327.68 73.92 327.68 81.26 305.05 81.26 305.05 90.7 328.51 90.7 328.51 98.46"/>
  <polygon class="st0" points="374.12 98.46 342.84 98.46 342.84 56.67 374.12 56.67 374.12 64.31 350.66 64.31 350.66 73.92 373.28 73.92 373.28 81.26 350.66 81.26 350.66 90.7 374.12 90.7 374.12 98.46"/>
  <polygon class="st0" points="416.07 56.62 423.95 56.62 423.95 98.46 419.06 98.46 419.06 98.51 397.09 70.28 397.09 98.46 389.22 98.46 389.22 56.67 395.6 56.67 416.07 82.58 416.07 56.62"/>
  <path class="st0" d="M458.04,86.16h-11.81v12.3h-7.89v-41.78c6.57,0,13.13-.05,19.7-.05,20.41,0,20.47,29.53,0,29.53M446.23,78.94h11.81c10.08,0,10.02-14.81,0-14.81h-11.81v14.81Z"/>
  <path class="st0" d="M510.74,90.57h-21.84l-3.58,7.88h-8.54l18.74-41.78h8.59l18.74,41.78h-8.58l-3.53-7.88ZM499.82,65.45l-7.76,17.79h15.52l-7.76-17.79Z"/>
  <polygon class="st0" points="561.06 56.62 568.94 56.62 568.94 98.46 564.05 98.46 564.05 98.51 542.08 70.28 542.08 98.46 534.2 98.46 534.2 56.67 540.59 56.67 561.06 82.58 561.06 56.62"/>
  <polygon class="st0" points="613.29 98.46 582.01 98.46 582.01 56.67 613.29 56.67 613.29 64.31 589.83 64.31 589.83 73.92 612.45 73.92 612.45 81.26 589.83 81.26 589.83 90.7 613.29 90.7 613.29 98.46"/>
  <polygon class="st0" points="634.43 56.67 634.43 91.18 655.91 91.18 655.91 98.46 626.55 98.46 626.55 56.67 634.43 56.67"/>
  <path class="st0" d="M656.45,52.35v-.03c0-2.33,1.89-4.3,4.28-4.3s4.27,1.94,4.27,4.27v.03c0,2.33-1.89,4.3-4.27,4.3s-4.28-1.94-4.28-4.27M664.51,52.32v-.03c0-2.09-1.62-3.81-3.78-3.81s-3.79,1.74-3.79,3.83v.03c0,2.09,1.62,3.81,3.79,3.81s3.78-1.74,3.78-3.83M659.06,50.06h1.96c.96,0,1.67.47,1.67,1.37,0,.71-.42,1.16-1,1.33l1.15,1.65h-1.01l-1.03-1.5h-.91v1.5h-.83v-4.35ZM660.95,52.22c.57,0,.89-.3.89-.71,0-.46-.32-.71-.89-.71h-1.06v1.43h1.06Z"/>
</svg>