<?xml version="1.0" encoding="UTF-8"?>
<svg xmlns="http://www.w3.org/2000/svg" version="1.1" viewBox="0 0 552 123.9">
  <defs>
    <style>
      .cls-1 {
        fill: #d5a930;
      }

      .cls-1, .cls-2, .cls-3 {
        fill-rule: evenodd;
      }

      .cls-2 {
        fill: #383b3e;
      }

      .cls-3 {
        fill: #19171b;
      }
    </style>
  </defs>
  <!-- Generator: Adobe Illustrator 28.6.0, SVG Export Plug-In . SVG Version: 1.2.0 Build 709)  -->
  <g>
    <g id="Layer_1">
      <g id="Layer_1-2" data-name="Layer_1">
        <path class="cls-2" d="M85,91.6c-.9-.7-2.1-1.1-3.7-1.1h-4.1v14.2h1.8v-5.4h2c1.7,0,3-.4,4-1.3s1.5-2,1.5-3.3-.4-2.4-1.3-3.1h0ZM83.5,97c-.6.5-1.6.8-2.8.8h-1.9v-5.8h2.1c2.4,0,3.5.9,3.5,2.8s-.3,1.7-1,2.2h0Z"/>
        <path class="cls-2" d="M98,100.4c-.2-.3-.4-.6-.5-.8-.2-.2-.3-.4-.5-.6s-.3-.3-.5-.5c-.2-.1-.4-.3-.7-.4h0c.5-.2,1-.3,1.4-.6.4-.2.8-.5,1-.8.3-.3.5-.7.7-1.1.2-.4.2-.9.2-1.4s-.1-1.2-.3-1.7c-.2-.5-.5-.9-1-1.2-.4-.3-.9-.5-1.5-.7-.6-.2-1.2-.2-1.8-.2h-4.5v14.2h1.8v-6h1.5c.3,0,.6,0,.9.1.3,0,.5.2.7.4s.4.4.7.6c.2.3.4.6.7,1l2.5,4h2.1l-2.8-4.3h0ZM95.4,96.9c-.4.1-.8.2-1.2.2h-2.4v-5.1h2.4c1,0,1.7.2,2.3.6.5.4.8,1,.8,1.8s0,.8-.2,1.1c-.2.3-.4.6-.6.9s-.6.4-1,.5h0Z"/>
        <polygon class="cls-2" points="111.9 104.6 103.9 104.6 103.9 90.4 111.5 90.4 111.5 91.9 105.6 91.9 105.6 96.7 111.1 96.7 111.1 98.2 105.6 98.2 105.6 103.1 111.9 103.1 111.9 104.6 111.9 104.6"/>
        <path class="cls-2" d="M129.4,104.6h-1.8v-9.5c0-.4,0-.8,0-1.3,0-.5,0-1,.1-1.5h0c0,.2-.1.3-.2.5,0,.2-.2.4-.3.6s-.2.3-.3.5c0,.1-.1.3-.2.3l-3.9,6.7h-.9l-3.9-6.7c0,0,0-.2-.2-.3,0-.2-.2-.3-.3-.5,0-.2-.2-.4-.3-.6,0-.2-.1-.4-.2-.5h0c0,.3,0,.7,0,1.1,0,.5,0,1,0,1.7v9.5h-1.7v-14.2h2.2l3.9,6.8c.2.3.3.6.4.8.1.3.2.5.3.7h0c0-.2.2-.4.3-.7.1-.3.3-.5.4-.9l3.9-6.7h2.2v14.2h0Z"/>
        <polygon class="cls-2" points="136 104.6 134.2 104.6 134.2 90.4 136 90.4 136 104.6 136 104.6"/>
        <path class="cls-2" d="M151.9,98.9c0,4-1.9,6-5.7,6s-5.5-1.9-5.5-5.7v-8.7h1.8v8.6c0,2.9,1.3,4.4,3.9,4.4s3.8-1.4,3.8-4.2v-8.7h1.8v8.4h0Z"/>
        <path class="cls-2" d="M170.3,104.6h-1.8v-9.5c0-.4,0-.8,0-1.3,0-.5,0-1,.1-1.5h0c0,.2-.1.3-.2.5,0,.2-.2.4-.3.6s-.2.3-.3.5c0,.1-.1.3-.2.3l-3.9,6.7h-.9l-3.9-6.7c0,0,0-.2-.2-.3,0-.2-.2-.3-.3-.5,0-.2-.2-.4-.3-.6s-.1-.4-.2-.5h0c0,.3,0,.7,0,1.1,0,.5,0,1,0,1.7v9.5h-1.7v-14.2h2.2l3.9,6.8c.2.3.3.6.4.8s.2.5.3.7h0c0-.2.2-.4.3-.7.1-.3.3-.5.4-.9l3.9-6.7h2.2v14.2h0Z"/>
        <path class="cls-2" d="M192.4,103.7c-1.5.8-3.2,1.2-5,1.2s-3.9-.7-5.2-2-2-3-2-5.2.7-4,2.2-5.4c1.5-1.4,3.3-2.1,5.6-2.1s3,.3,4.1.8v1.8c-1.2-.7-2.7-1.1-4.3-1.1s-3.1.5-4.2,1.6-1.6,2.5-1.6,4.3.5,3.2,1.5,4.2,2.4,1.5,4.1,1.5,2.2-.2,3.1-.7v-4h-3.3v-1.5h5.1v6.4h0Z"/>
        <polygon class="cls-2" points="204.6 104.6 196.8 104.6 196.8 90.4 198.6 90.4 198.6 103.1 204.6 103.1 204.6 104.6 204.6 104.6"/>
        <path class="cls-2" d="M218.5,92.2c-1.3-1.3-3-2-5-2s-4,.7-5.4,2c-1.3,1.4-2,3.2-2,5.5s.6,3.8,1.9,5.2c1.3,1.3,3,2,5.1,2s3.9-.7,5.2-2c1.3-1.3,2-3.2,2-5.5s-.6-3.9-1.9-5.2ZM217.1,101.9c-1,1-2.3,1.5-3.9,1.5s-2.8-.5-3.8-1.6c-1-1.1-1.4-2.5-1.4-4.2s.5-3.2,1.5-4.2c1-1.1,2.3-1.6,3.9-1.6s2.9.5,3.8,1.5c.9,1,1.4,2.5,1.4,4.3s-.5,3.2-1.4,4.3h0Z"/>
        <path class="cls-2" d="M232.6,98.2c-.6-.6-1.4-1-2.4-1.1h0c.8-.3,1.5-.7,1.9-1.3s.7-1.3.7-2.1-.4-1.7-1.1-2.3-1.8-.9-3.1-.9h-4.3v14.2h4.4c1.4,0,2.6-.4,3.5-1.1s1.4-1.7,1.4-3-.3-1.8-.9-2.4h0ZM226,91.9h2c1.9,0,2.9.7,2.9,2.1s-.3,1.4-.8,1.9c-.6.4-1.3.7-2.3.7h-1.8s0-4.6,0-4.6ZM230.8,102.4c-.6.5-1.4.7-2.4.7h-2.4v-5.1h2c2.4,0,3.6.8,3.6,2.5s-.3,1.4-.9,1.9h0Z"/>
        <path class="cls-2" d="M243.4,90.4h-1.8l-5.8,14.2h2l1.5-4h6.4l1.6,4h2l-5.8-14.2h0ZM239.9,99.2l2.3-6c0-.2.2-.5.2-1h0c0,.4.2.8.2,1l2.4,6h-5.2Z"/>
        <polygon class="cls-2" points="260.2 104.6 252.4 104.6 252.4 90.4 254.1 90.4 254.1 103.1 260.2 103.1 260.2 104.6 260.2 104.6"/>
        <path class="cls-2" d="M283,104.6h-1.8v-9.5c0-.4,0-.8,0-1.3,0-.5,0-1,.1-1.5h0c0,.2-.1.3-.2.5,0,.2-.2.4-.3.6s-.2.3-.3.5c0,.1-.1.3-.2.3l-3.9,6.7h-.9l-3.9-6.7c0,0,0-.2-.2-.3,0-.2-.2-.3-.3-.5,0-.2-.2-.4-.3-.6s-.1-.4-.2-.5h0c0,.3,0,.7,0,1.1,0,.5,0,1,0,1.7v9.5h-1.7v-14.2h2.2l3.9,6.8c.2.3.3.6.4.8s.2.5.3.7h0c0-.2.2-.4.3-.7.1-.3.3-.5.4-.9l3.9-6.7h2.2v14.2h0Z"/>
        <path class="cls-2" d="M293.7,90.4h-1.8l-5.8,14.2h2l1.5-4h6.4l1.6,4h2l-5.8-14.2h0ZM290.2,99.2l2.3-6c0-.2.2-.5.2-1h0c0,.4.2.8.2,1l2.4,6h-5.2Z"/>
        <polygon class="cls-2" points="310.1 91.9 305.7 91.9 305.7 104.6 303.9 104.6 303.9 91.9 299.6 91.9 299.6 90.4 310.1 90.4 310.1 91.9 310.1 91.9"/>
        <polygon class="cls-2" points="322.7 91.9 318.3 91.9 318.3 104.6 316.6 104.6 316.6 91.9 312.2 91.9 312.2 90.4 322.7 90.4 322.7 91.9 322.7 91.9"/>
        <path class="cls-2" d="M334,100.4c-.2-.3-.4-.6-.5-.8-.2-.2-.3-.4-.5-.6s-.3-.3-.5-.5c-.2-.1-.4-.3-.7-.4h0c.5-.2,1-.3,1.4-.6.4-.2.8-.5,1-.8.3-.3.5-.7.7-1.1.2-.4.2-.9.2-1.4s-.1-1.2-.3-1.7c-.2-.5-.5-.9-1-1.2-.4-.3-.9-.5-1.5-.7-.6-.2-1.2-.2-1.8-.2h-4.5v14.2h1.8v-6h1.5c.3,0,.6,0,.9.1.3,0,.5.2.7.4.2.2.4.4.7.6.2.3.4.6.7,1l2.5,4h2.1l-2.8-4.3h0ZM331.4,96.9c-.4.1-.8.2-1.2.2h-2.4v-5.1h2.4c1,0,1.7.2,2.3.6.5.4.8,1,.8,1.8s0,.8-.2,1.1c-.2.3-.4.6-.6.9s-.6.4-1,.5h0Z"/>
        <polygon class="cls-2" points="347.8 104.6 339.8 104.6 339.8 90.4 347.4 90.4 347.4 91.9 341.5 91.9 341.5 96.7 347 96.7 347 98.2 341.5 98.2 341.5 103.1 347.8 103.1 347.8 104.6 347.8 104.6"/>
        <path class="cls-2" d="M350.9,104.1v-2c.2.2.5.4.9.5s.7.3,1,.4c.4.1.7.2,1.1.3s.7,0,1,0c1.1,0,1.9-.2,2.4-.6.5-.4.8-.9.8-1.6s0-.7-.3-1c-.2-.3-.4-.5-.7-.8-.3-.2-.7-.5-1.1-.7-.4-.2-.9-.4-1.4-.7-.5-.3-1-.5-1.5-.8-.5-.3-.9-.5-1.2-.9-.3-.3-.6-.7-.8-1-.2-.4-.3-.9-.3-1.4s.2-1.2.4-1.7c.3-.5.7-.9,1.2-1.2.5-.3,1-.5,1.7-.7.6-.2,1.3-.2,1.9-.2,1.5,0,2.6.2,3.3.5v1.9c-.9-.6-2-.9-3.4-.9s-.8,0-1.2.1-.7.2-1,.4c-.3.2-.5.4-.7.7s-.3.6-.3,1,0,.7.2.9.4.5.6.7c.3.2.6.4,1,.6s.9.4,1.4.7c.5.3,1,.5,1.5.8.5.3.9.6,1.3.9.4.3.7.7.9,1.1.2.4.3.9.3,1.4s-.1,1.3-.4,1.8-.7.9-1.2,1.2c-.5.3-1.1.5-1.7.7-.6.1-1.3.2-2,.2s-.5,0-.9,0c-.3,0-.7,0-1.1-.2-.4,0-.7-.2-1-.3-.3,0-.6-.2-.8-.3h0Z"/>
        <path class="cls-2" d="M363.2,104.1v-2c.2.2.5.4.9.5s.7.3,1,.4c.4.1.7.2,1.1.3s.7,0,1,0c1.1,0,1.9-.2,2.4-.6.5-.4.8-.9.8-1.6s0-.7-.3-1c-.2-.3-.4-.5-.7-.8-.3-.2-.7-.5-1.1-.7-.4-.2-.9-.4-1.4-.7-.5-.3-1-.5-1.5-.8-.5-.3-.9-.5-1.2-.9-.3-.3-.6-.7-.8-1-.2-.4-.3-.9-.3-1.4s.2-1.2.4-1.7c.3-.5.7-.9,1.2-1.2.5-.3,1-.5,1.7-.7.6-.2,1.3-.2,1.9-.2,1.5,0,2.6.2,3.3.5v1.9c-.9-.6-2-.9-3.4-.9s-.8,0-1.2.1-.7.2-1,.4c-.3.2-.5.4-.7.7s-.3.6-.3,1,0,.7.2.9.4.5.6.7c.3.2.6.4,1,.6s.9.4,1.4.7c.5.3,1,.5,1.5.8.5.3.9.6,1.3.9.4.3.7.7.9,1.1.2.4.3.9.3,1.4s-.1,1.3-.4,1.8-.7.9-1.2,1.2c-.5.3-1.1.5-1.7.7-.6.1-1.3.2-2,.2s-.5,0-.9,0c-.3,0-.7,0-1.1-.2-.4,0-.7-.2-1-.3-.3,0-.6-.2-.8-.3h0Z"/>
        <path class="cls-2" d="M390.6,98.2c-.6-.6-1.4-1-2.4-1.1h0c.8-.3,1.5-.7,1.9-1.3s.7-1.3.7-2.1-.4-1.7-1.1-2.3c-.8-.6-1.8-.9-3.1-.9h-4.3v14.2h4.4c1.4,0,2.6-.4,3.5-1.1s1.4-1.7,1.4-3-.3-1.8-.9-2.4h0ZM384,91.9h2c1.9,0,2.9.7,2.9,2.1s-.3,1.4-.8,1.9c-.6.4-1.3.7-2.3.7h-1.8v-4.6h0ZM388.8,102.4c-.6.5-1.4.7-2.4.7h-2.4v-5.1h2c2.4,0,3.6.8,3.6,2.5s-.3,1.4-.9,1.9h0Z"/>
        <path class="cls-2" d="M403.5,100.4c-.2-.3-.4-.6-.5-.8-.2-.2-.3-.4-.5-.6s-.3-.3-.5-.5c-.2-.1-.4-.3-.7-.4h0c.5-.2,1-.3,1.4-.6.4-.2.8-.5,1-.8.3-.3.5-.7.7-1.1.2-.4.2-.9.2-1.4s-.1-1.2-.3-1.7c-.2-.5-.5-.9-1-1.2s-.9-.5-1.5-.7c-.6-.2-1.2-.2-1.8-.2h-4.5v14.2h1.8v-6h1.5c.3,0,.6,0,.9.1.3,0,.5.2.7.4.2.2.4.4.7.6.2.3.4.6.7,1l2.5,4h2.1l-2.8-4.3h0ZM400.9,96.9c-.4.1-.8.2-1.2.2h-2.4v-5.1h2.4c1,0,1.7.2,2.3.6.5.4.8,1,.8,1.8s0,.8-.2,1.1c-.2.3-.4.6-.6.9s-.6.4-1,.5h0Z"/>
        <path class="cls-2" d="M415.2,90.4h-1.8l-5.8,14.2h2l1.5-4h6.4l1.6,4h2l-5.8-14.2h0ZM411.6,99.2l2.3-6c0-.2.2-.5.2-1h0c0,.4.2.8.2,1l2.4,6h-5.2Z"/>
        <path class="cls-2" d="M436.3,104.6h-2.2l-7.8-11.3c-.2-.3-.4-.6-.5-.9h0c0,.3,0,1,0,1.9v10.2h-1.8v-14.2h2.3l7.5,11.1c.3.5.5.8.6,1h0c0-.4-.1-1.1-.1-2.1v-10h1.8v14.2h0Z"/>
        <path class="cls-2" d="M445.3,90.4h-4.2v14.2h4c2.5,0,4.5-.7,5.9-2,1.5-1.3,2.2-3.1,2.2-5.3,0-4.6-2.7-6.9-8-6.9h0ZM449.8,101.6c-1.1,1-2.6,1.5-4.6,1.5h-2.3v-11.2h2.4c4.1,0,6.2,1.8,6.2,5.5s-.5,3.2-1.6,4.2h0Z"/>
        <path class="cls-3" d="M188.7,66.9l1,.5h0c.2.1.5.2.7.3h.3c0,.1.3.2.3.2.5.2.9.3,1.4.5h0c.5.2,1,.3,1.5.4.5.1,1,.2,1.5.3,2.5.5,5.2.8,7.8.8h2.8c0,0,0,0,0,0h.6c1,0,1.9,0,2.9-.1.3,0,1.2-.2,1.5-.3,0,0,0,0,0,0h0c0-.2,0-.3.1-.5,0-.2,0-.4,0-.6v-1.8h0v-5.6h0v-1.1c0-.4,0-.8-.1-1.1,0,0,0-.2-.1-.3,0,0-.2,0-.2,0-.3,0-.7,0-1.1,0h-.8s-1.6,0-1.6,0v-4.9h18.8v4.8h-1.5s-.3,0-.3,0h-.4c-.4,0-.9,0-1.3.2,0,0-.1,0-.2,0,0,0,0,.3-.1.4,0,.5,0,1,0,1.4v8.1c0,.4,0,.9,0,1.4,0,.3,0,.6.2.8h0s0,.1,0,.2c.1,0,.4,0,.6,0h3.1v4.8h-24.4c-1.7,0-3.3,0-5-.2-1.6-.1-3.2-.3-4.8-.7-1.6-.3-3.1-.8-4.7-1.4-1.6-.6-3.2-1.4-4.6-2.3l-.7-.4h0l-.2-.2h0c-.9-.6-1.7-1.2-2.5-1.8h0s-.3-.3-.3-.3h0l-.6-.5h0c-.5-.4-.9-.8-1.4-1.2h0c0,0-.8-.9-.8-.9-.7-.7-1.4-1.4-2-2.2-.6-.8-1.3-1.6-1.8-2.4-2.8-4-4.4-8.4-4.7-13.2h0v-2.6h0c0-.9.2-1.9.4-2.8,0-.3.1-.7.2-1,.4-1.7,1-3.4,1.8-5h0s0,0,0,0h0l.3-.6h0c.2-.3.3-.6.5-.9h0c.2-.4.4-.8.6-1.1.2-.4.4-.7.7-1.1,1.2-1.8,2.6-3.4,4.1-4.9h0l.2-.2.3-.2h0l.4-.4h0c.7-.6,1.3-1.2,2.1-1.7h0s0,0,0,0l.3-.2h0l.4-.3h0c.4-.4.9-.7,1.4-1h0c0,0,1-.6,1-.6.8-.4,1.5-.9,2.3-1.2.8-.4,1.6-.7,2.5-1.1,4.4-1.7,9-2.5,13.7-2.5s3.1,0,4.7.2c1.5.2,3,.4,4.5.7,1.5.3,3,.7,4.4,1.1,1.5.4,2.9.9,4.3,1.5h.4c0,.1.6.4.6.4l.2.6h0c0,.1,2.5,6.8,2.5,6.8l.9,2.4h-4.1l-.5.5-1-1.3-.2-.3-.3-.3c-.4-.4-.8-.8-1.2-1.2h0l-.3-.3-.3-.2c-.5-.4-1-.7-1.5-1h0c-.5-.4-1.1-.7-1.6-1-.6-.3-1.2-.6-1.8-.8-3.1-1.3-6.5-2-9.8-2h-.5c-2.5,0-4.9.5-7.2,1.3-.5.2-1.1.4-1.6.7-2.7,1.3-5,3.1-6.8,5.3l-.3.5h0c-.4.5-.8,1-1.1,1.5-.5.7-.9,1.4-1.3,2.1-2,3.8-3,8.1-3,12.4v.6c0,1.4.1,2.8.4,4.1,0,.3.1.7.2,1.1.4,1.8,1,3.5,1.8,5.1v.2c0,0,.2.3.2.3.2.4.4.7.6,1.1h0c.2.4.5.7.7,1s.5.7.8,1c1.4,1.7,3.2,3.1,5.1,4.1h0Z"/>
        <path class="cls-3" d="M108.4,70.8v-8.8c0,0,0-29.3,0-29.3,0-1.1,0-2.2-.2-3.3-.1-.9-.3-1.9-.7-2.7-.3-.6-.8-1.2-1.4-1.5-.9-.5-1.9-.6-2.9-.5h-.4s-.4,0-.4,0h-1.6c0,0,0-4.8,0-4.8h13.6l.4.5h.1c0,.1,37.3,37.4,37.3,37.4v-31c0-.5,0-1,0-1.4,0-.1,0-.4-.2-.5,0,0-.2,0-.2,0-.3,0-.8-.1-1.2-.1h-2.3v-4.8h15.2v4.8h-1.5s-.4,0-.4,0h-.4c-.4,0-1,0-1.4.2,0,0-.2,0-.3.1h0c-.1.2-.2.4-.2.6,0,.5,0,1.1,0,1.6v48.9l-1,.4-.6.2-1,.4-.7-.7-40.5-40.6v32.7c0,.6,0,1.2,0,1.7,0,0,0,.3,0,.4,0,0,.2,0,.2,0,.5.1,1.1.2,1.6.2h.4s.3,0,.3,0h1.4v.6h0v4.1h-15.1v-4.8h1.5c0,0,.3,0,.3,0h.4c.2,0,1.7,0,1.9,0h0Z"/>
        <path class="cls-3" d="M344.4,42.9l26.7-18.9v-4.3h16.4v4.8h-1.5s-.4,0-.4,0h-.4c-.7,0-1.3,0-2,.2-.6.1-1.2.3-1.8.5-.6.2-1.2.5-1.8.8-.5.3-1,.6-1.5.9l-.3.2-25.9,18.2,25.6,18.3h0l.2.2h.2c0,0,0,.1,0,.1h0c0,0,.5.4.5.4.5.3,1,.7,1.5,1,.4.3.9.6,1.4.9h.2c0,0,0,0,0,0,.4.3.9.6,1.3.9h0s0,0,0,0h0c2.3,1.6,5.1,3.4,8,3.4h2.3v4.8h-23.3v-4.4l-25.9-18.5v16h0c0,.3,0,.6,0,.9,0,.2,0,.9.3,1,.3.3,1.5.2,1.8.2h.4s.4,0,.4,0h1.6c0-.1,0,4.9,0,4.9h-20.2v-4.9h1.6c0,0,.4,0,.4,0h.4c.4,0,1.7,0,2-.2h0c.2-.2.2-1,.2-1.2,0-.3,0-.5,0-.7V26.7c0-.2,0-.4,0-.7,0-.2,0-1.1-.2-1.2-.3-.3-1.7-.2-2.1-.2h-.8s-1.6,0-1.6,0v-4.9h20.3v4.9h-1.6c0,0-.4,0-.4,0h-.4c-.5,0-1.2,0-1.7,0,0,0-.2,0-.3.1h0c0,.2-.2.5-.2.7,0,.6,0,1.3,0,1.9v15.5h0Z"/>
        <path class="cls-3" d="M24,42.9l26.7-18.9v-4.3h16.4v4.8h-1.5s-.4,0-.4,0h-.4c-.7,0-1.3,0-2,.2-.6.1-1.1.3-1.7.5h-.1c-.6.3-1.2.6-1.8.9-.5.3-1,.6-1.5.9l-26.2,18.4,25.5,18.2.5.3h0s.1,0,.1,0h.1c0,0,0,0,0,0l.5.3h0c.8.6,1.6,1.1,2.4,1.6l.4.2h.1s.2.2.2.2l.7.4h0l.7.5h0c1.3.8,2.6,1.7,3.9,2.3,1.2.6,2.6,1,4,1h2.3v4.8h-23.3v-4.4l-25.9-18.6v16.2h0c0,.2,0,.4,0,.7,0,.2,0,.9.3,1,.3.3,1.5.2,1.8.2h.4s.4,0,.4,0h1.6c0-.1,0,4.9,0,4.9H8.3v-4.9h1.6c0,0,.4,0,.4,0h.4c.4,0,1.7,0,2-.2h0c.2-.2.2-1,.3-1.2,0-.3,0-.5,0-.8V26.9c0-.3,0-.6,0-.9,0-.2,0-1.1-.2-1.2-.3-.3-1.7-.2-2.1-.2h-.8s-1.6,0-1.6,0v-4.9h20.3v4.9h-1.6c0,0-.4,0-.4,0h-.4c-.5,0-1.2,0-1.7,0,0,0-.2,0-.3,0h0c-.1.2-.2.5-.2.7,0,.6,0,1.3,0,1.9v15.5h0Z"/>
        <path class="cls-3" d="M94.1,24.6h-.4c-.2,0-.4,0-.5,0h-.1c0,0-.2,0-.3.1h0s0,0,0,0h0c0,0,0,.2,0,.2h0v.2h0c0,0,0,.2,0,.2h0c0,0,0,.8,0,.8h0v1.5h0v41.3h0c0,.3,0,.5,0,.7,0,.3,0,.6.1.9,0,0,0,.1,0,.2,0,0,.2,0,.3,0h0c.1,0,.3,0,.4,0,.3,0,.6,0,.9,0h.8s1.6,0,1.6,0v4.9h-19.3v-4.8h1.5c0,0,.3,0,.3,0h.4c.2,0,.4,0,.7,0s.4,0,.7,0c.1,0,.3,0,.4,0,.2-.5.2-1.8.2-2.3h0v-.6h0v-1.4h0V29.4h0v-1.6h0v-.4h0c0-.5,0-1,0-1.5,0-.2-.1-1-.3-1.2,0,0,0,0,0,0,0,0-.2,0-.3,0-.2,0-.3,0-.5,0h-1s-.4,0-.4,0h-1.6c0,0,0-4.9,0-4.9h19.3v5.1l-1.7-.2h-.4s-.2,0-.2,0h-.3s0,0,0,0Z"/>
        <path class="cls-3" d="M483.5,70.7c0,0,0-.2,0-.3,0-.4,0-.9,0-1.3v-1.4h0V28.2h0v-1.4c0-.5,0-1.1,0-1.6,0,0,0-.3,0-.3,0,0-.2,0-.2,0-.5-.1-1-.1-1.5-.1h-.8s-1.5,0-1.5,0v-4.8h19.3v4.9h-1.6s-.4,0-.4,0h-.4c-.4,0-1.1,0-1.5.1,0,0-.1,0-.2,0,0,.1-.1.5-.1.6,0,.6,0,1.1,0,1.7v36.2c0,1.1,0,2.4.5,3.4.3.7.7,1.3,1.3,1.7.7.5,1.6.8,2.4.9,1.2.2,2.5.3,3.8.3h6.9c1.3,0,2.7-.1,3.8-.6.8-.3,1.4-.8,1.9-1.4.6-.8.9-1.7,1.1-2.6.3-1.3.4-2.7.5-4v-.4s0-.3,0-.3v-1.4h5.1v16.7h-42.4v-4.8h2.3c.4,0,1,0,1.4-.1,0,0,.2,0,.2,0h0Z"/>
        <path class="cls-3" d="M472.3,24.6h-.4c-.2,0-.4,0-.6,0h-.1c0,0-.2,0-.3.1h0s0,0,0,0h0s0,0,0,0h0v.5h0v.2s0,.1,0,.2c0,.2,0,.4,0,.7h0v42.5h0c0,.3,0,.5,0,.7h0c0,.3,0,.6.1.9,0,0,0,.1,0,.2,0,0,.2,0,.3,0h0c.1,0,.3,0,.4,0,.3,0,.6,0,.9,0h.8s1.6,0,1.6,0v4.9h-19.3v-4.8h1.5c0,0,.3,0,.3,0h.4c.2,0,.4,0,.7,0,.2,0,.4,0,.7,0h0c0,0,.2,0,.3,0,.2-.5.2-1.8.2-2.3h0v-.6h0v-1.4h0V29.4h0v-1.6h0v-.4h0c0-.4,0-.8,0-1.3,0-.3-.1-1.1-.3-1.4,0,0,0,0,0,0,0,0-.2,0-.3,0-.2,0-.3,0-.5,0h-1s-.4,0-.4,0h-1.6c0,0,0-4.9,0-4.9h19.3v.7h0v4.4l-1.7-.2h-.4s-.3,0-.3,0h-.2s0,0,0,0Z"/>
        <path class="cls-3" d="M451.1,43.1c0-2.1-.5-4.2-1.1-6.2-.1-.5-.3-.9-.5-1.4s-.4-.9-.6-1.4h0c-.2-.4-.3-.7-.5-1.1h0l-.3-.6h0c0,0,0,0,0,0l-.4-.8h0c-.1-.2-.2-.3-.3-.5h0c0-.1-.2-.3-.2-.3h0c0,0-.3-.7-.3-.7h0c-1.5-2.1-3.4-4-5.5-5.5-.4-.3-.9-.6-1.3-.9-.4-.3-.9-.6-1.4-.8h0c-.5-.3-.9-.5-1.4-.7h-.3c0-.1,0-.1,0-.1h0s-.5-.3-.5-.3h0c-2-.9-4.2-1.6-6.4-2-.4,0-.9-.2-1.4-.2-1.4-.2-2.8-.4-4.2-.4h0s-1.5,0-1.5,0c-4.9,0-9.7.9-14.2,2.8-.9.4-1.7.8-2.5,1.2s-1.6.9-2.4,1.4h0c-.8.5-1.5,1.1-2.2,1.7h0s-.4.4-.4.4h0l-.3.3h0c-.6.6-1.2,1.1-1.7,1.6h0s-1.1,1.2-1.1,1.2c-1.6,1.7-2.9,3.6-4,5.6,0,.2-.2.4-.3.6h0l-.3.6c-.2.4-.4.8-.6,1.2h0c-.2.4-.4.9-.5,1.3v.2h0v.3h-.1c-.7,1.8-1.2,3.6-1.6,5.5,0,.4-.1.7-.2,1.1-.2,1-.3,2-.3,3.1h0v2.9h0c.3,4.6,1.7,9,4.3,12.9.5.8,1.1,1.5,1.8,2.3.6.7,1.3,1.4,2,2l.2.2h0c2.6,2.3,5.6,4.1,8.9,5.3.7.2,1.3.5,2,.7,2.4.7,4.9,1.1,7.5,1.2h0s3.1,0,3.1,0h0c3.4-.2,6.8-.7,10.1-1.8,1-.3,2-.7,3-1.1,1-.4,1.9-.9,2.8-1.4,2.5-1.4,4.7-3,6.7-5,3-3,5.3-6.5,6.8-10.3.3-.8.6-1.5.8-2.3.9-2.9,1.4-5.9,1.5-8.9h0v-2.6h0ZM436.9,63.8h0c-1.6,1.5-3.3,2.6-5.3,3.6h-.1c-4.4,2.1-9.2,2.7-14,1.4-5.1-1.3-9.5-4.5-12.8-8.4-3.4-4.1-5.6-9.2-6.1-14.3h0c0-.6,0-1.1,0-1.6v-.4c0-7,4.3-13,10.9-16.1h.3c8.6-4,17.5-.9,24.4,4.6h.1c9.9,8.2,13,22.1,2.9,31.3h0Z"/>
        <path class="cls-3" d="M533.7,67.5h1.1c1.3,0,2.3-.4,2.3-1.5s-.6-1.6-2.3-1.6-.8,0-1.1,0v3h0ZM533.7,72.4h-1.5v-8.9c.8,0,1.6-.2,2.7-.2s2.4.3,3,.7c.6.4.9,1,.9,1.8s-.8,1.9-1.9,2.2h0c.8.2,1.4.9,1.6,2.2.2,1.4.5,1.9.6,2.2h-1.6c-.2-.3-.5-1.1-.6-2.3-.2-1.1-.8-1.6-2.1-1.6h-1.1v3.8h0ZM535.2,61h0c3.8,0,6.8,3,6.8,6.7s-3,6.7-6.8,6.7c-3.8,0-6.9-3-6.9-6.7s3.1-6.7,6.9-6.7h0ZM535.3,59.8c4.7,0,8.4,3.5,8.4,7.9s-3.7,8-8.4,8-8.5-3.5-8.5-8,3.8-7.9,8.5-7.9h0Z"/>
        <path class="cls-1" d="M252.5,68.2h52.1c1.6,0,2.8,1.6,2.8,3.7h0c0,2-1.3,3.7-2.8,3.7h-52.1c-1.6,0-2.8-1.6-2.8-3.7h0c0-2,1.3-3.7,2.8-3.7h0ZM238.2,46.6c-1.2-1.2-1.2-3.1,0-4.3,1.2-1.2,3.1-1.2,4.3,0,1.2,1.2,1.2,3.1,0,4.3,7.8,10.2,15,9.3,11.8-8.1-.8,0-1.7-.3-2.3-.9-1.2-1.2-1.2-3.1,0-4.3,1.2-1.2,3.1-1.2,4.3,0,1.2,1.2,1.2,3.1,0,4.3,0,0,0,0-.1.1,12.8,19.9,18,6.3,20.2-11.6-.3-.2-.5-.3-.7-.6-1.4-1.4-1.4-3.8,0-5.2,1.4-1.4,3.8-1.4,5.2,0,1.4,1.4,1.4,3.8,0,5.2-.3.3-.5.5-.8.6,2.8,17.9,7.2,31.1,20.4,11.7-.1,0-.2-.2-.3-.3-1.2-1.2-1.2-3.1,0-4.3,1.2-1.2,3.1-1.2,4.3,0,1.2,1.2,1.2,3.1,0,4.3-.6.6-1.5.9-2.3.9-2.3,17.6,3.3,18.3,11.6,8.1-1.1-1.2-1-3,.1-4.2,1.2-1.2,3.1-1.2,4.3,0,1.2,1.2,1.2,3.1,0,4.3-.6.6-1.4.9-2.2.9l-9.7,17.4h-56.3l-9.7-17.4c-.8,0-1.6-.3-2.2-.9h0Z"/>
      </g>
    </g>
  </g>
</svg>