<?xml version="1.0" encoding="UTF-8"?>
<svg id="Layer_1" xmlns="http://www.w3.org/2000/svg" version="1.1" viewBox="0 0 560.23 200">
  <!-- Generator: Adobe Illustrator 29.8.2, SVG Export Plug-In . SVG Version: 2.1.1 Build 3)  -->
  <defs>
    <style>
      .st0 {
        fill: #1a3561;
      }

      .st1 {
        fill: #e23c40;
      }
    </style>
  </defs>
  <path class="st0" d="M533.01,49.25c.72,0,1.26-.14,1.59-.42.34-.28.51-.71.51-1.3,0-.62-.17-1.08-.51-1.35-.34-.28-.87-.42-1.59-.42h-2.4v3.49h2.4ZM534.23,50.54c.56.15,1.04.55,1.44,1.19l1.97,3.31h-2.1l-2.02-3.47c-.2-.32-.42-.54-.66-.67-.24-.13-.54-.19-.91-.19h-1.34v4.33h-1.87v-10.8h4.5c1.2,0,2.12.28,2.77.85.65.57.97,1.35.97,2.37,0,.83-.24,1.51-.72,2.06-.48.55-1.16.89-2.04,1.03ZM532.56,57.65c1.48,0,2.83-.35,4.04-1.05,1.21-.7,2.15-1.66,2.85-2.88.69-1.22,1.04-2.59,1.04-4.09s-.35-2.83-1.04-4.05c-.69-1.21-1.64-2.17-2.85-2.87-1.21-.7-2.55-1.05-4.04-1.05s-2.83.35-4.05,1.05c-1.21.7-2.17,1.66-2.86,2.87-.69,1.21-1.04,2.56-1.04,4.05s.35,2.86,1.04,4.09c.69,1.22,1.64,2.18,2.86,2.88,1.21.7,2.56,1.05,4.05,1.05ZM532.56,40.52c1.7,0,3.25.4,4.64,1.2,1.39.8,2.49,1.9,3.29,3.29.8,1.39,1.2,2.93,1.2,4.62s-.4,3.25-1.2,4.64c-.8,1.39-1.9,2.49-3.3,3.3-1.4.81-2.94,1.21-4.63,1.21s-3.23-.4-4.63-1.21c-1.4-.81-2.5-1.91-3.3-3.3-.8-1.39-1.2-2.94-1.2-4.64s.4-3.25,1.2-4.63c.8-1.38,1.9-2.48,3.29-3.28,1.39-.8,2.94-1.2,4.64-1.2Z"/>
  <path class="st0" d="M93.89,46c0,4.54-.96,8.7-2.88,12.45-1.92,3.76-4.57,6.95-7.93,9.57-3.36,2.62-7.19,4.61-11.47,5.97-4.28,1.36-8.65,2.03-13.11,2.03-2.36,0-4.46-.18-6.29-.52,0,0-2.95-.27-6.13-1.31.08,13.36.36,26.19.88,38.41h-21.63c.61-14.34.92-29.67.92-46.02,0-19.23-.31-33.87-.92-43.92,4.54-.61,9.83-1.16,15.86-1.64,6.03-.48,11.06-.72,15.08-.72,5.33,0,10.27.48,14.81,1.44,4.55.96,8.52,2.47,11.93,4.52,3.41,2.06,6.07,4.74,8,8.06,1.92,3.32,2.88,7.21,2.88,11.67ZM72.13,48.22c0-3.5-.39-6.82-1.18-9.96-.79-3.15-1.95-5.9-3.47-8.26-1.53-2.36-3.47-4.2-5.83-5.51-2.36-1.31-5.03-1.97-8-1.97-2.71,0-4.98.18-6.82.52-.52,14.42-.79,29.15-.79,44.18,0,1.39.02,2.74.02,4.13,1.95.79,4.21,1.54,6.4,1.9.41.07.76.13,1.09.2.89.13,1.96.19,3.24.19,3.15,0,5.86-1.07,8.13-3.21,2.27-2.14,4.04-5.18,5.31-9.11,1.27-3.93,1.9-8.3,1.9-13.11Z"/>
  <path class="st0" d="M121.76,67.88c3.06-7.95,6.01-13.44,8.85-16.45,2.84-3.01,5.97-4.52,9.37-4.52,2.71,0,4.94.44,6.69,1.31v15.99c-5.71-5.01-20.75-2.35-24.91,7.21v40.51h-19.4v-37.63c0-3.8-.06-7.43-.18-10.89-.25-7.12,4.5-13.44,11.43-15.1l8.37-1.67-.22,21.24Z"/>
  <path class="st0" d="M176.62,87.22c1.09,3.54,2.69,6.53,4.78,8.98,2.1,2.45,4.59,4.3,7.47,5.57,2.88,1.27,5.99,1.9,9.31,1.9,2.97,0,6.01-.5,9.11-1.51,3.1-1.01,5.53-2.38,7.28-4.13l1.18,1.31c-7.34,9.35-16.78,14.03-28.32,14.03-4.54,0-8.83-.7-12.85-2.1-4.02-1.4-7.52-3.45-10.49-6.16-2.97-2.71-5.29-6.03-6.95-9.96-1.66-3.93-2.49-8.26-2.49-12.98s.87-9.38,2.62-13.7c1.75-4.33,4.22-8.11,7.41-11.34,3.19-3.23,7.01-5.75,11.47-7.54,4.46-1.79,9.26-2.69,14.42-2.69,8.74,0,15.49,2.51,20.26,7.54,4.76,5.03,6.58,12.04,5.44,21.04h-41.03c-.17,4.28.28,8.19,1.38,11.73ZM175.24,73.26c3.67.09,20.11.32,22.55,0,.17-2.71-.02-8-.59-11.41s-1.75-6.36-3.54-8.85c-1.79-2.49-3.95-3.74-6.49-3.74-3.5,0-6.27,2.21-8.33,6.62-2.05,4.41-3.26,10.2-3.6,17.37Z"/>
  <path class="st0" d="M275.2,84.27c1.36,2.27,2.03,4.98,2.03,8.13,0,3.93-1.07,7.43-3.21,10.49-2.14,3.06-5.31,5.57-9.5,7.54-4.2,1.97-9.22,2.95-15.08,2.95-3.32,0-7.21-.35-11.67-1.05-4.46-.7-8.57-1.79-12.32-3.28v-17.29h2.05c1.33,3.77,9.11,18.89,24.57,19.26,2.45.06,4.63-.98,6.56-2.95,1.92-1.97,2.88-4.35,2.88-7.15,0-2.62-1.01-4.89-3.02-6.82-2.01-1.92-5.75-4.02-11.21-6.29-5.46-2.27-9.4-4.24-11.8-5.9-2.4-1.66-4.28-3.65-5.64-5.97-1.35-2.32-2.03-5.09-2.03-8.32,0-6.29,2.47-11.32,7.41-15.08,4.94-3.76,11.43-5.64,19.47-5.64,3.06,0,6.56.24,10.49.72,3.93.48,7.17,1.12,9.7,1.9l.91,17.6h-1.96c-1.13-3.45-9.89-17.23-22.16-17.73-2.36-.1-4.28.94-5.77,2.82-1.49,1.88-2.23,4.09-2.23,6.62,0,1.4.35,2.84,1.05,4.33.7,1.49,2.03,2.93,4,4.33,1.97,1.4,5.35,3.15,10.16,5.24,4.81,2.1,8.39,3.98,10.75,5.64,2.36,1.66,4.22,3.63,5.57,5.9Z"/>
  <path class="st0" d="M334.93,101.18l1.05,1.44c-6.21,7.17-13.42,10.75-21.63,10.75-6.21,0-11.17-1.81-14.88-5.44-3.71-3.63-5.57-8.85-5.57-15.67v-35.4h-8.62v-2.26c9.77-1.38,19.81-9.77,21.99-22.42l5.8.03.1,21.89c2.01-.18,5.07-.9,9.18-2.16,4.11-1.27,8.52-2.99,13.24-5.18l.39,15.21c-4.72-2.09-10.9-5.51-22.81-5.51v33.82c0,4.81,1.07,8.39,3.21,10.75,2.14,2.36,5,3.54,8.59,3.54,1.66,0,3.43-.28,5.31-.85,1.88-.57,3.43-1.42,4.65-2.56Z"/>
  <path class="st1" d="M344.94,63.43c-.27-7.13,4.65-13.42,11.61-15l7.88-1.79v65.29h-19.27v-37.37c0-3.69-.07-7.41-.21-11.14Z"/>
  <path class="st0" d="M474.95,87.22c1.09,3.54,2.69,6.53,4.78,8.98,2.1,2.45,4.59,4.3,7.47,5.57,2.88,1.27,5.99,1.9,9.31,1.9,2.97,0,6.01-.5,9.11-1.51,3.1-1.01,5.53-2.38,7.28-4.13l1.18,1.31c-7.34,9.35-16.78,14.03-28.32,14.03-4.55,0-8.83-.7-12.85-2.1-4.02-1.4-7.52-3.45-10.49-6.16-2.97-2.71-5.29-6.03-6.95-9.96-1.66-3.93-2.49-8.26-2.49-12.98s.87-9.38,2.62-13.7c1.75-4.33,4.22-8.11,7.41-11.34,3.19-3.23,7.01-5.75,11.47-7.54,4.46-1.79,9.26-2.69,14.42-2.69,8.74,0,15.49,2.51,20.26,7.54s6.58,12.04,5.44,21.04h-41.03c-.18,4.28.28,8.19,1.38,11.73ZM473.57,73.26c3.67.09,20.11.32,22.55,0,.18-2.71-.02-8-.59-11.41-.57-3.41-1.75-6.36-3.54-8.85-1.79-2.49-3.96-3.74-6.49-3.74-3.5,0-6.27,2.21-8.33,6.62-2.05,4.41-3.26,10.2-3.6,17.37Z"/>
  <path class="st1" d="M346.97,25.84l1.84,3.31s0,0,0,0l-3.7.83,2.97,2.36-1.57,1.11c-3.49-2.22-6.3-5.57-7.81-9.76-.28,9.94,7.54,18.23,17.48,18.51,9.94.28,18.23-7.54,18.51-17.48-1.69,3.96-4.64,7.22-8.35,9.3l-1.51-1.2,3.1-2.18-3.64-1.04s0,0,0,0l2.03-3.2-3.76.43h0s.65-3.73.65-3.73l-3.31,1.84s0,0,0,0l-.83-3.7-2.36,2.97-2.18-3.1-1.04,3.64s0,0,0,0l-3.2-2.03.43,3.76h0s-3.73-.65-3.73-.65Z"/>
  <path class="st0" d="M443.11,45.2v-13.63c-16.69-1.44-25.49,10.48-26.28,16.26-3.32-.61-6.29-.92-8.92-.92-4.46,0-8.7.59-12.72,1.77-4.02,1.18-7.5,2.84-10.42,4.98-2.93,2.14-5.2,4.65-6.82,7.54-1.62,2.88-2.43,5.99-2.43,9.31,0,2.1.55,4.57,1.64,7.41,1.09,2.84,3.26,5.46,6.49,7.87,3.23,2.4,7.38,4.04,12.46,4.92-7.69,3.15-12.72,5.79-15.08,7.93-2.36,2.14-3.54,4.35-3.54,6.62,0,1.4.52,2.93,1.57,4.59,1.05,1.66,2.88,3.12,5.51,4.39,2.62,1.27,5.51,2.12,8.65,2.56-.7.35-2.21,1.03-4.52,2.03-2.31,1.01-4.48,2.01-6.49,3.01-2.01,1.01-3.89,2.16-5.64,3.47-1.75,1.31-2.86,2.49-3.34,3.54-.48,1.05-.74,1.79-.79,2.23-.04.44-.07.74-.07.92,0,3.5,2.6,6.38,7.8,8.65,5.2,2.27,11.91,3.41,20.12,3.41,6.47,0,12.24-.77,17.31-2.29,5.07-1.53,9.26-3.54,12.59-6.03,3.32-2.49,5.79-5.16,7.41-8,1.62-2.84,2.43-5.57,2.43-8.2,0-3.32-1.18-6.14-3.54-8.46-2.36-2.31-5.22-4-8.59-5.05-3.36-1.05-6.36-1.75-8.98-2.1l-16.78-2.23c-4.98-.61-7.47-2.32-7.47-5.12,0-.96.42-1.97,1.25-3.01.83-1.05,1.9-1.88,3.21-2.49l5.64.26c4.46,0,8.87-.68,13.24-2.03,4.37-1.36,8.02-3.37,10.95-6.03,2.93-2.67,4.92-5.35,5.96-8.06,1.05-2.71,1.57-5.29,1.57-7.73,0-4.72-1.62-8.74-4.85-12.06-3.23-3.32-7.47-5.68-12.72-7.08,4.37-6.8,21.91-3.76,24.18-3.15ZM395.86,117.17l14.82,1.71c3.93.35,6.99,1.38,9.18,3.08,2.19,1.7,3.28,3.87,3.28,6.49,0,2.45-.92,4.76-2.75,6.95-1.84,2.19-4.06,3.74-6.69,4.65-2.62.92-5.07,1.38-7.34,1.38-4.98,0-8.87-1.4-11.67-4.19-2.8-2.8-4.19-6.03-4.19-9.7,0-2.1.46-4.09,1.38-5.96.92-1.88,2.25-3.34,4-4.39ZM414.28,71.04l2.94,4.14-5.01-.47.46,5.03-4.16-2.99-2.04,4.67-2.04-4.67-4.16,2.99.46-5.03-5.01.47,2.94-4.14-4.61-2.08,4.61-2.08-2.94-4.14,5.01.47-.46-5.03,4.16,2.99,2.04-4.67,2.04,4.67,4.16-2.99-.46,5.03,5.01-.47-2.94,4.14,4.61,2.08-4.61,2.08Z"/>
  <polygon class="st0" points="222.21 144.99 219.21 144.99 220.71 142.4 222.21 139.81 223.71 142.4 225.21 144.99 222.21 144.99"/>
  <polygon class="st0" points="288.23 139.81 291.23 139.81 289.73 142.4 288.23 144.99 286.72 142.4 285.23 139.81 288.23 139.81"/>
  <polygon class="st0" points="234.21 144.99 231.21 144.99 232.71 142.4 234.21 139.81 235.72 142.4 237.21 144.99 234.21 144.99"/>
  <polygon class="st0" points="276.22 139.81 279.22 139.81 277.73 142.4 276.22 144.99 274.72 142.4 273.22 139.81 276.22 139.81"/>
  <polygon class="st0" points="246.22 144.99 243.22 144.99 244.71 142.4 246.22 139.81 247.72 142.4 249.22 144.99 246.22 144.99"/>
  <polygon class="st0" points="264.22 139.81 267.22 139.81 265.72 142.4 264.22 144.99 262.72 142.4 261.22 139.81 264.22 139.81"/>
  <polygon class="st0" points="258.22 144.99 255.22 144.99 256.72 142.4 258.22 139.81 259.72 142.4 261.22 144.99 258.22 144.99"/>
  <polygon class="st0" points="252.22 139.81 255.22 139.81 253.72 142.4 252.22 144.99 250.72 142.4 249.22 139.81 252.22 139.81"/>
  <polygon class="st0" points="270.22 144.99 267.22 144.99 268.72 142.4 270.22 139.81 271.72 142.4 273.22 144.99 270.22 144.99"/>
  <polygon class="st0" points="240.22 139.81 243.21 139.81 241.72 142.4 240.22 144.99 238.71 142.4 237.22 139.81 240.22 139.81"/>
  <polygon class="st0" points="282.23 144.99 279.23 144.99 280.72 142.4 282.23 139.81 283.73 142.4 285.22 144.99 282.23 144.99"/>
  <polygon class="st0" points="228.21 139.81 231.21 139.81 229.71 142.4 228.21 144.99 226.71 142.4 225.21 139.81 228.21 139.81"/>
  <polygon class="st0" points="294.23 144.99 291.23 144.99 292.73 142.4 294.23 139.81 295.73 142.4 297.23 144.99 294.23 144.99"/>
  <polygon class="st0" points="360.24 139.81 363.24 139.81 361.75 142.4 360.24 144.99 358.74 142.4 357.24 139.81 360.24 139.81"/>
  <polygon class="st0" points="306.23 144.99 303.23 144.99 304.73 142.4 306.23 139.81 307.73 142.4 309.23 144.99 306.23 144.99"/>
  <polygon class="st0" points="348.24 139.81 351.24 139.81 349.74 142.4 348.24 144.99 346.74 142.4 345.24 139.81 348.24 139.81"/>
  <polygon class="st0" points="318.23 144.99 315.23 144.99 316.73 142.4 318.23 139.81 319.74 142.4 321.23 144.99 318.23 144.99"/>
  <polygon class="st0" points="336.24 139.81 339.24 139.81 337.74 142.4 336.24 144.99 334.74 142.4 333.24 139.81 336.24 139.81"/>
  <polygon class="st0" points="330.24 144.99 327.24 144.99 328.73 142.4 330.24 139.81 331.74 142.4 333.24 144.99 330.24 144.99"/>
  <polygon class="st0" points="324.24 139.81 327.23 139.81 325.74 142.4 324.24 144.99 322.73 142.4 321.24 139.81 324.24 139.81"/>
  <polygon class="st0" points="342.24 144.99 339.24 144.99 340.74 142.4 342.24 139.81 343.74 142.4 345.24 144.99 342.24 144.99"/>
  <polygon class="st0" points="312.23 139.81 315.23 139.81 313.73 142.4 312.23 144.99 310.73 142.4 309.23 139.81 312.23 139.81"/>
  <polygon class="st0" points="354.24 144.99 351.24 144.99 352.74 142.4 354.24 139.81 355.74 142.4 357.24 144.99 354.24 144.99"/>
  <polygon class="st0" points="300.23 139.81 303.23 139.81 301.73 142.4 300.23 144.99 298.73 142.4 297.23 139.81 300.23 139.81"/>
  <polygon class="st0" points="174.2 144.99 171.2 144.99 172.7 142.4 174.2 139.81 175.7 142.4 177.2 144.99 174.2 144.99"/>
  <polygon class="st0" points="216.21 139.81 219.21 139.81 217.71 142.4 216.21 144.99 214.71 142.4 213.21 139.81 216.21 139.81"/>
  <polygon class="st0" points="186.2 144.99 183.2 144.99 184.7 142.4 186.2 139.81 187.7 142.4 189.2 144.99 186.2 144.99"/>
  <polygon class="st0" points="204.21 139.81 207.21 139.81 205.71 142.4 204.21 144.99 202.7 142.4 201.21 139.81 204.21 139.81"/>
  <polygon class="st0" points="198.2 144.99 195.2 144.99 196.7 142.4 198.2 139.81 199.71 142.4 201.2 144.99 198.2 144.99"/>
  <polygon class="st0" points="192.2 139.81 195.2 139.81 193.71 142.4 192.2 144.99 190.7 142.4 189.2 139.81 192.2 139.81"/>
  <polygon class="st0" points="210.21 144.99 207.21 144.99 208.71 142.4 210.21 139.81 211.71 142.4 213.21 144.99 210.21 144.99"/>
  <polygon class="st0" points="180.2 139.81 183.2 139.81 181.7 142.4 180.2 144.99 178.7 142.4 177.2 139.81 180.2 139.81"/>
  <g>
    <path class="st0" d="M194.51,169.63c0-5.56,4.51-10.07,10.07-10.07,3.76,0,7.03,2.06,8.76,5.1l-1.8,1.01c-1.34-2.42-3.96-4.02-6.96-4.02-4.41,0-7.98,3.53-7.98,7.98s3.56,7.98,7.98,7.98c3.01,0,5.62-1.6,6.96-4.02l1.8,1.01c-1.73,3.04-5,5.1-8.76,5.1-5.56,0-10.07-4.51-10.07-10.07Z"/>
    <path class="st0" d="M235.42,174.86h-8.73l-1.6,4.58h-2.29l7.1-19.62h2.32l7.1,19.62h-2.29l-1.6-4.58ZM234.74,172.87l-3.66-10.56-3.69,10.56h7.36Z"/>
    <path class="st0" d="M264.33,179.44h-2.39l-5.56-8.86h-3.69v8.86h-2.09v-19.62h7.03c3.01,0,5.46,2.42,5.46,5.49,0,2.65-1.96,4.81-4.55,5.17l5.79,8.96ZM257.5,168.58c1.99,0,3.5-1.34,3.5-3.33s-1.54-3.34-3.5-3.34h-4.81v6.67h4.81Z"/>
    <path class="st0" d="M288.4,165.28c0,3.04-2.42,5.43-5.46,5.43h-4.94v8.73h-2.09v-19.62h7.03c3.04,0,5.46,2.45,5.46,5.46ZM286.31,165.31c0-2.09-1.6-3.47-3.56-3.47h-4.74v6.87h4.74c1.96,0,3.56-1.24,3.56-3.4Z"/>
    <path class="st0" d="M302.5,161.85v6.77h7.52v2.03h-7.52v6.77h8.63v2.03h-10.73v-19.62h10.73v2.03h-8.63Z"/>
    <path class="st0" d="M335.23,161.91h-5.43v17.53h-2.09v-17.53h-5.43v-2.09h12.95v2.09Z"/>
  </g>
</svg>