<?xml version="1.0" encoding="UTF-8"?>
<svg xmlns="http://www.w3.org/2000/svg" version="1.1" viewBox="0 0 227.81 89.14">
  <defs>
    <style>
      .cls-1 {
        fill: #13171b;
      }

      .cls-2 {
        fill: #005aa9;
      }

      .cls-2, .cls-3 {
        fill-rule: evenodd;
      }

      .cls-3 {
        fill: #d92727;
      }
    </style>
  </defs>
  <!-- Generator: Adobe Illustrator 28.6.0, SVG Export Plug-In . SVG Version: 1.2.0 Build 709)  -->
  <g>
    <g id="Layer_1">
      <polygon class="cls-3" points="187.02 31.07 182.83 33 178.55 34.23 174.26 35.05 170.08 35.35 165.59 35.25 161.2 34.74 156.81 33.92 152.32 32.7 147.83 31.37 143.24 29.84 138.65 28.11 134.06 26.17 124.57 22.19 115.08 18.31 110.28 16.47 105.48 14.84 100.59 13.41 95.69 12.08 90.58 11.17 85.59 10.55 80.58 10.25 75.48 10.35 70.38 10.96 65.18 11.98 59.97 13.62 54.77 15.76 49.46 18.62 44.15 22.09 38.85 26.27 33.44 31.27 40.07 28.11 46.5 25.56 52.73 23.51 58.85 22.09 64.77 21.07 70.58 20.45 76.2 20.25 81.6 20.45 87.01 20.96 92.22 21.78 97.22 22.7 102.22 23.92 106.91 25.25 111.71 26.78 116.4 28.41 120.89 29.94 125.38 31.58 129.77 33.21 134.06 34.74 138.34 36.17 142.53 37.49 146.71 38.62 150.79 39.43 154.87 40.15 158.85 40.45 162.94 40.45 166.92 40.05 171 39.23 174.98 38 178.96 36.27 182.94 33.92 187.02 31.07"/>
      <polygon class="cls-2" points="156.61 4.94 157.73 5.04 158.96 5.25 160.08 5.45 161.1 5.86 162.22 6.37 163.14 6.88 164.06 7.49 164.87 8.21 165.59 9.02 166.3 9.74 166.92 10.66 167.32 11.68 167.73 12.6 168.04 13.72 168.24 14.74 168.24 15.86 168.24 16.98 168.04 18 167.73 19.02 167.32 20.15 166.92 21.07 166.3 21.98 165.59 22.8 164.77 23.51 163.96 24.23 163.04 24.84 162.12 25.35 161.1 25.86 159.98 26.17 158.85 26.47 157.63 26.68 156.51 26.68 155.28 26.58 154.16 26.47 153.04 26.17 151.92 25.76 150.89 25.35 149.98 24.74 149.06 24.13 148.24 23.41 147.43 22.7 146.71 21.88 146.2 20.96 145.69 19.94 145.28 19.02 144.98 18 144.77 16.88 144.77 15.76 144.87 14.64 144.98 13.62 145.28 12.6 145.69 11.57 146.2 10.55 146.81 9.74 147.43 8.92 148.24 8.1 149.06 7.39 149.98 6.78 151 6.27 152.02 5.86 153.04 5.45 154.16 5.15 155.38 5.04 156.61 4.94"/>
      <polygon class="cls-2" points="70.38 51.98 70.38 46.58 70.58 46.58 70.89 46.37 71.2 46.37 71.5 46.17 71.81 46.07 72.01 45.86 72.32 45.56 72.42 45.35 72.62 45.05 72.73 44.74 72.83 44.43 73.03 43.62 73.14 42.8 73.14 42.29 73.03 41.88 73.03 41.58 72.93 41.27 72.73 40.86 72.62 40.66 72.42 40.35 72.22 40.15 72.01 39.94 71.71 39.74 71.4 39.64 71.09 39.43 70.79 39.33 70.38 39.33 70.38 33.41 73.03 33.41 74.16 33.41 75.07 33.51 76.09 33.72 76.91 33.92 77.63 34.23 78.44 34.54 79.05 34.94 79.67 35.45 80.18 35.96 80.58 36.58 80.99 37.29 81.3 37.9 81.5 38.72 81.71 39.54 81.81 40.45 81.81 41.47 81.81 42.5 81.71 43.41 81.5 44.23 81.3 45.05 80.89 45.86 80.48 46.47 80.07 47.09 79.46 47.6 79.16 47.9 78.75 48.21 78.34 48.41 77.93 48.62 77.63 48.82 77.11 48.82 76.71 48.92 76.4 48.92 76.3 49.13 77.42 49.33 78.44 49.74 78.85 49.84 79.16 50.05 79.46 50.25 79.77 50.45 80.18 50.96 80.58 51.48 80.89 52.09 81.1 52.9 81.3 53.72 81.5 54.64 81.5 55.56 81.5 56.78 81.5 58.41 81.6 59.74 81.6 60.76 81.71 61.58 81.91 62.5 82.12 63.21 82.32 63.62 82.42 63.92 82.63 64.13 82.93 64.43 73.65 64.43 73.44 64.13 73.34 63.72 73.14 63.11 73.03 62.39 72.93 61.47 72.93 60.46 72.83 59.23 72.93 57.9 72.83 56.17 72.73 54.84 72.62 54.23 72.52 53.72 72.42 53.31 72.22 53.01 72.12 52.7 71.91 52.5 71.71 52.39 71.4 52.19 71.09 52.09 70.79 51.98 70.38 51.98"/>
      <polygon class="cls-2" points="220.39 64.95 211.41 64.95 205.39 53.11 203.45 56.17 203.35 64.84 195.39 64.84 195.49 33.92 203.45 33.92 203.45 46.47 210.69 33.92 219.37 33.92 210.59 47.19 220.39 64.95"/>
      <polygon class="cls-2" points="93.85 64.43 85.18 64.43 85.18 33.41 93.95 33.51 93.85 64.43"/>
      <polygon class="cls-2" points="120.69 64.54 111.3 64.54 105.38 44.54 105.38 64.54 97.32 64.43 97.52 33.51 106.81 33.51 112.42 53.31 112.53 53.21 112.63 33.51 120.79 33.51 120.69 64.54"/>
      <polygon class="cls-2" points="147.22 64.64 141.1 64.64 141.1 61.88 140.49 62.6 139.98 63.21 139.57 63.62 139.16 63.92 138.75 64.23 138.14 64.54 137.63 64.64 137.02 64.84 136.3 65.05 135.59 65.15 134.87 65.15 134.06 65.15 133.34 65.15 132.63 65.15 132.02 65.05 131.3 64.95 130.69 64.74 130.18 64.64 129.57 64.33 129.06 64.13 128.55 63.92 128.14 63.62 127.63 63.31 127.32 62.9 126.91 62.5 126.5 62.09 126.2 61.58 126 61.07 125.49 60.25 125.18 59.13 124.87 58.11 124.67 56.88 124.46 55.45 124.26 53.72 124.16 51.88 124.26 49.94 124.26 47.8 124.36 45.76 124.57 44.03 124.87 42.39 125.18 40.96 125.59 39.74 125.79 39.13 126.1 38.62 126.3 38.11 126.61 37.7 126.91 37.19 127.32 36.78 127.73 36.47 128.14 36.07 128.55 35.76 129.06 35.45 129.57 35.15 130.08 34.94 133.96 36.27 138.34 37.7 142.53 38.92 146.61 39.94 146.81 40.96 147.02 41.98 147.12 43.11 147.12 44.33 138.85 44.23 138.85 42.9 138.65 41.88 138.65 41.37 138.45 40.96 138.34 40.66 138.24 40.35 138.04 40.15 137.83 39.94 137.63 39.74 137.32 39.64 137.02 39.54 136.61 39.43 136.3 39.33 135.89 39.33 135.38 39.33 134.98 39.54 134.57 39.74 134.36 40.05 134.06 40.45 133.85 40.86 133.55 41.47 133.44 42.09 133.34 43.11 133.24 44.64 133.14 46.68 133.14 49.23 133.14 50.96 133.24 52.6 133.24 53.92 133.24 55.05 133.34 55.96 133.34 56.78 133.55 57.39 133.55 57.9 133.75 58.31 133.96 58.72 134.16 59.03 134.47 59.33 134.77 59.54 135.28 59.64 135.59 59.74 136.1 59.74 136.51 59.74 136.91 59.74 137.32 59.64 137.63 59.43 137.83 59.33 138.04 59.03 138.34 58.82 138.55 58.52 138.75 57.8 138.96 56.99 139.06 55.86 139.16 54.13 136 54.23 136 48.72 147.32 48.82 147.22 64.64"/>
      <polygon class="cls-2" points="170.49 44.64 163.96 44.54 163.85 64.74 155.18 64.74 155.18 44.54 148.65 44.43 148.65 40.45 151 40.86 155.18 41.58 159.36 41.78 163.55 41.78 167.73 41.27 170.49 40.76 170.49 44.64"/>
      <polygon class="cls-2" points="192.22 64.84 172.22 64.74 172.32 40.25 173.96 39.74 175.49 39.13 177.12 38.41 178.75 37.7 180.28 36.88 182.02 35.96 183.55 34.94 185.18 33.82 191.81 33.92 191.92 39.64 180.28 39.64 180.28 45.86 191.2 45.86 191.1 51.68 180.28 51.68 180.18 58.72 192.22 58.82 192.22 64.84"/>
      <polygon class="cls-2" points="70.38 33.41 70.38 39.33 70.38 39.23 69.97 39.23 69.56 39.23 67.73 39.23 67.73 46.58 69.77 46.58 70.07 46.58 70.38 46.58 70.38 51.98 69.97 51.98 67.73 51.98 67.73 64.33 58.95 64.33 59.05 33.31 70.38 33.41"/>
      <polygon class="cls-2" points="44.56 52.39 44.56 46.58 44.77 46.47 45.07 46.47 45.38 46.37 45.58 46.17 45.89 46.07 46.09 45.86 46.4 45.66 46.5 45.35 46.71 45.15 46.81 44.74 46.91 44.43 47.11 43.72 47.11 42.8 47.01 41.98 46.91 41.17 46.81 40.86 46.71 40.56 46.5 40.35 46.3 40.05 46.09 39.84 45.79 39.64 45.58 39.54 45.28 39.33 44.97 39.23 44.66 39.23 44.56 39.23 44.56 33.31 46.5 33.31 47.62 33.31 48.75 33.51 49.77 33.62 50.79 33.92 51.6 34.33 52.42 34.74 53.13 35.25 53.75 35.86 54.36 36.47 54.87 37.19 55.28 38.11 55.58 38.92 55.79 39.94 55.99 40.96 56.09 42.09 56.2 43.31 56.09 44.43 55.99 45.35 55.69 46.37 55.28 47.19 54.87 48.11 54.26 48.82 53.64 49.64 52.83 50.25 52.11 50.76 51.4 51.27 50.69 51.58 49.97 51.88 49.16 52.09 48.34 52.29 47.52 52.39 46.6 52.39 44.56 52.39"/>
      <polygon class="cls-2" points="44.56 33.31 44.56 39.23 44.26 39.13 43.85 39.13 42.11 39.13 42.11 46.58 44.05 46.58 44.36 46.58 44.56 46.58 44.56 52.39 42.11 52.39 42.01 64.23 33.34 64.23 33.44 33.31 44.56 33.31"/>
      <polygon class="cls-2" points="30.48 55.05 30.48 56.37 30.28 57.6 30.17 58.21 29.97 58.72 29.87 59.23 29.66 59.74 29.46 60.15 29.15 60.66 28.85 61.07 28.54 61.47 28.23 61.78 27.93 62.19 27.52 62.5 27.11 62.8 26.4 63.31 25.48 63.72 24.56 64.03 23.54 64.23 22.42 64.54 21.19 64.64 19.87 64.74 18.54 64.74 17.11 64.74 15.89 64.64 14.76 64.54 13.85 64.33 12.83 64.03 12.01 63.72 11.19 63.41 10.58 62.9 10.17 62.7 9.87 62.29 9.56 61.99 9.25 61.58 8.95 61.17 8.64 60.76 8.44 60.25 8.23 59.74 7.93 58.72 7.72 57.5 7.52 56.17 7.42 54.84 15.99 54.84 15.99 55.76 15.99 56.58 16.19 57.29 16.29 57.8 16.5 58.11 16.7 58.41 16.91 58.72 17.21 58.92 17.52 59.13 17.83 59.23 18.24 59.33 18.64 59.33 19.36 59.33 19.87 59.13 20.17 59.03 20.38 58.92 20.58 58.72 20.78 58.62 20.99 58.41 21.09 58.21 21.3 57.9 21.3 57.7 21.5 57.09 21.5 56.37 21.5 55.86 21.4 55.35 21.19 54.84 20.99 54.43 20.68 54.03 20.38 53.72 19.97 53.31 19.46 53.01 18.44 52.6 17.42 52.19 16.4 51.68 15.38 51.27 13.54 50.35 12.11 49.64 10.99 49.03 10.38 48.41 9.76 47.9 9.25 47.19 8.85 46.58 8.54 45.96 8.23 45.15 8.03 44.33 7.93 43.51 7.93 42.6 7.93 41.37 8.13 40.25 8.23 39.23 8.54 38.21 8.95 37.29 9.46 36.47 9.97 35.76 10.58 35.05 11.4 34.43 12.11 34.03 13.03 33.51 14.05 33.21 15.07 32.9 16.19 32.7 17.42 32.6 18.74 32.6 20.28 32.6 21.7 32.8 23.03 33 24.25 33.31 24.77 33.51 25.38 33.72 25.89 33.92 26.3 34.23 26.7 34.54 27.11 34.74 27.52 35.15 27.83 35.45 28.34 36.07 28.64 36.68 29.05 37.39 29.26 38.21 29.56 39.02 29.66 39.94 29.76 40.96 29.76 42.09 21.5 41.98 21.6 41.07 21.4 40.25 21.4 39.84 21.3 39.64 21.19 39.23 20.99 39.02 20.89 38.82 20.58 38.62 20.38 38.41 20.17 38.21 19.87 38.11 19.56 38.11 19.25 38 18.95 38 18.34 38 17.83 38.11 17.32 38.41 17.01 38.72 16.81 39.02 16.5 39.43 16.4 40.05 16.4 40.66 16.4 41.17 16.5 41.58 16.6 41.98 16.81 42.39 17.01 42.8 17.32 43.11 17.62 43.51 18.03 43.72 18.54 44.03 19.25 44.43 20.17 44.84 21.3 45.25 23.13 45.96 24.46 46.58 25.28 46.88 25.68 46.98 26.19 47.29 26.7 47.6 27.22 47.9 27.72 48.31 28.13 48.62 28.54 49.03 28.85 49.33 29.15 49.74 29.46 50.25 29.66 50.86 29.97 51.48 30.17 52.09 30.28 52.8 30.48 53.52 30.48 54.33 30.48 55.05"/>
      <path class="cls-1" d="M183.26,81.01v-4.05h-.81v-.72h.81v-1.6h.83v1.6h1v.72h-1v4.14c0,.14.03.23.09.29.06.06.17.09.33.09h.54v.7h-.92c-.27,0-.47-.04-.59-.12-.12-.08-.2-.2-.23-.35-.04-.15-.05-.39-.05-.72M177.79,82.17v-8.01h.85v2.71c.13-.22.34-.41.64-.56.3-.15.61-.23.93-.23.4,0,.73.13.99.38.26.26.39.66.39,1.22v4.49h-.85v-4.11c0-.43-.06-.75-.18-.96-.12-.21-.34-.32-.66-.32-.36,0-.65.12-.89.35-.24.23-.36.57-.36,1v4.03h-.85ZM173.02,79.33c0,.81.1,1.4.29,1.76.19.36.48.54.87.54.85,0,1.25-.78,1.22-2.35-.01-.78-.09-1.39-.24-1.82-.15-.43-.49-.65-1.02-.65-.75,0-1.12.84-1.12,2.52ZM172.18,79.33c-.01-.45.02-.92.11-1.42.09-.5.27-.93.56-1.29.28-.36.69-.54,1.23-.54.24,0,.46.06.64.17.19.11.34.24.48.38.13.14.2.2.2.17v-.57h.83v4.97c0,.91-.12,1.63-.37,2.16-.25.53-.82.8-1.7.83-.53,0-.94-.13-1.25-.39-.31-.26-.48-.61-.52-1.05h.82c0,.17.09.33.26.49.17.16.4.24.69.24.81,0,1.22-.57,1.22-1.71v-.31c-.36.6-.79.9-1.31.9-.73,0-1.23-.31-1.49-.92-.26-.62-.39-1.32-.39-2.11ZM170.07,75.25v-1.07h.81v1.07h-.81ZM170.07,82.19v-5.95h.81v5.95h-.81ZM164.71,82.19v-5.95h.85v.67c.02-.1.18-.26.49-.49.3-.23.61-.34.91-.34.53,0,.92.13,1.18.4.26.26.39.68.39,1.25v4.46h-.85v-4.05c0-.46-.05-.79-.15-1.01-.1-.22-.34-.33-.7-.34-.35-.01-.65.1-.89.34-.25.24-.37.57-.37.97v4.09h-.85ZM159.65,82.19v-8.03h.83v8.03h-.83ZM154.38,76.22h.83v4.59c0,.54.21.81.63.81.48,0,.84-.13,1.06-.41.22-.28.34-.62.34-1.01v-3.98h.85v5.97h-.85v-.79c-.33.63-.81.94-1.44.94-.95,0-1.42-.53-1.42-1.59v-4.53ZM151.59,82.19v-5.23h-.88v-.72h.88v-.9c0-.45.13-.76.39-.94.26-.18.57-.27.95-.27.11,0,.2,0,.26,0,.06,0,.12,0,.18.02v.73h-.42c-.35,0-.52.2-.52.59v.77h.94v.72h-.94v5.23h-.83ZM146.34,77.69c0-.32.07-.6.2-.84.14-.24.33-.43.6-.56.26-.14.59-.2.97-.2,1.21,0,1.82.58,1.82,1.75h-.83c.01-.38-.05-.64-.2-.8-.15-.15-.39-.23-.72-.23-.61,0-.93.26-.96.77,0,.25.03.44.11.58.08.14.2.25.36.33.16.09.47.22.93.41.54.21.93.43,1.16.67.23.24.35.54.35.9,0,.61-.19,1.08-.56,1.41-.37.33-.85.48-1.44.47-.71,0-1.19-.19-1.44-.56-.25-.37-.37-.81-.37-1.32h.81c0,.37.07.66.21.86.14.2.41.3.79.3.36,0,.64-.08.82-.24.19-.16.28-.38.3-.66,0-.36-.08-.6-.25-.74-.17-.14-.51-.29-1.02-.47-.36-.12-.65-.24-.87-.35-.21-.11-.4-.28-.55-.51-.15-.23-.23-.56-.23-.98ZM141.6,77.69c0-.32.07-.6.2-.84.14-.24.33-.43.6-.56.26-.14.59-.2.97-.2,1.21,0,1.82.58,1.82,1.75h-.83c.01-.38-.05-.64-.2-.8-.15-.15-.39-.23-.72-.23-.61,0-.93.26-.96.77,0,.25.03.44.11.58.08.14.2.25.36.33.16.09.47.22.93.41.54.21.93.43,1.16.67.23.24.35.54.35.9,0,.61-.19,1.08-.56,1.41-.37.33-.85.48-1.44.47-.71,0-1.19-.19-1.44-.56-.25-.37-.37-.81-.37-1.32h.81c0,.37.07.66.21.86.14.2.41.3.79.3.36,0,.64-.08.82-.24.19-.16.28-.38.3-.66,0-.36-.08-.6-.25-.74-.17-.14-.51-.29-1.02-.47-.36-.12-.65-.24-.87-.35-.21-.11-.4-.28-.55-.51-.15-.23-.23-.56-.23-.98ZM139.53,75.25v-1.07h.81v1.07h-.81ZM139.53,82.19v-5.95h.81v5.95h-.81ZM137.13,82.19v-8.03h.83v8.03h-.83ZM132.6,79.39c0,.8.1,1.37.29,1.72.2.35.5.53.92.53.73,0,1.1-.76,1.1-2.28v-.4c0-.67-.09-1.2-.27-1.6-.18-.4-.45-.59-.81-.59-.38,0-.66.13-.84.38-.18.26-.29.56-.34.91-.04.35-.06.79-.06,1.31ZM131.83,82.19v-8.03h.83v2.69c.35-.51.76-.77,1.24-.77,1.26,0,1.89.96,1.89,2.87,0,1.18-.15,2.04-.45,2.58s-.77.81-1.41.81c-.56,0-1-.28-1.34-.85v.7h-.77ZM126.69,78.98c-.26.14-.57.3-.94.46-.37.16-.61.33-.73.49-.12.16-.18.41-.19.76-.02.61.24.93.78.96.28-.01.53-.12.75-.33.22-.2.33-.47.33-.8v-1.55ZM123.96,80.75c0-.48.07-.85.24-1.09.17-.25.41-.43.74-.55l1.27-.52c.09-.04.17-.07.26-.1.09-.03.16-.08.21-.13.05-.06.07-.13.07-.22v-.62c0-.2-.07-.37-.2-.51-.14-.14-.36-.21-.67-.21-.36,0-.61.08-.73.23-.12.15-.19.43-.19.82h-.77c-.02-1.17.54-1.75,1.69-1.75.73,0,1.19.15,1.39.48.2.33.3.75.3,1.27v3.19c0,.23.02.38.06.45.04.07.11.11.22.13.05-.01.13-.02.25-.02v.61c-.26.03-.42.04-.5.04-.27,0-.46-.07-.57-.2-.11-.14-.18-.36-.2-.67-.3.66-.77.98-1.42.98-.56-.04-.94-.2-1.13-.48-.19-.28-.3-.66-.31-1.11ZM118.28,82.19v-5.97h.79v1.03c.21-.4.43-.68.66-.84.24-.16.61-.24,1.11-.23v.88c-.19-.03-.33-.04-.44-.04-.4,0-.71.15-.95.44-.23.3-.35.72-.35,1.27v3.48h-.83ZM113.48,79.15c0,.73.08,1.33.23,1.79.15.46.51.69,1.06.69.52,0,.85-.23.99-.69.14-.46.21-1.03.21-1.7s-.08-1.29-.24-1.75c-.16-.46-.49-.69-1.01-.69-.83,0-1.25.79-1.25,2.36ZM112.61,79.13c0-2.02.69-3.02,2.08-3.02.78,0,1.34.25,1.67.75.33.5.5,1.27.5,2.29,0,2.12-.69,3.19-2.06,3.21-.78,0-1.34-.29-1.68-.88-.34-.59-.51-1.37-.51-2.36ZM110.11,82.19v-5.23h-.88v-.72h.88v-.9c0-.45.13-.76.39-.94s.58-.27.95-.27c.11,0,.2,0,.26,0,.06,0,.12,0,.18.02v.73h-.42c-.35,0-.52.2-.52.59v.77h.94v.72h-.94v5.23h-.83ZM102.18,77.69c0-.32.07-.6.2-.84.14-.24.33-.43.6-.56.26-.14.59-.2.97-.2,1.21,0,1.82.58,1.82,1.75h-.83c.01-.38-.05-.64-.2-.8-.15-.15-.39-.23-.72-.23-.61,0-.93.26-.96.77,0,.25.03.44.11.58.08.14.2.25.36.33.16.09.47.22.93.41.54.21.93.43,1.16.67.23.24.35.54.35.9,0,.61-.19,1.08-.56,1.41-.37.33-.85.48-1.44.47-.71,0-1.19-.19-1.44-.56-.25-.37-.37-.81-.37-1.32h.81c0,.37.07.66.21.86.14.2.41.3.79.3.36,0,.64-.08.82-.24.19-.16.28-.38.3-.66,0-.36-.08-.6-.25-.74-.17-.14-.51-.29-1.02-.47-.36-.12-.65-.24-.87-.35-.21-.11-.4-.28-.55-.51-.15-.23-.23-.56-.23-.98ZM97.13,82.19v-5.95h.85v.67c.02-.1.18-.26.49-.49.3-.23.61-.34.91-.34.53,0,.92.13,1.18.4.26.26.39.68.39,1.25v4.46h-.85v-4.05c0-.46-.05-.79-.15-1.01-.1-.22-.34-.33-.7-.34-.35-.01-.65.1-.89.34-.25.24-.37.57-.37.97v4.09h-.85ZM92.44,79.15c0,.73.08,1.33.23,1.79.15.46.51.69,1.06.69.52,0,.85-.23.99-.69.14-.46.21-1.03.21-1.7s-.08-1.29-.24-1.75c-.16-.46-.49-.69-1.01-.69-.83,0-1.25.79-1.25,2.36ZM91.56,79.13c0-2.02.69-3.02,2.08-3.02.78,0,1.34.25,1.67.75.33.5.5,1.27.5,2.29,0,2.12-.69,3.19-2.06,3.21-.78,0-1.34-.29-1.68-.88-.34-.59-.51-1.37-.51-2.36ZM89.43,75.25v-1.07h.81v1.07h-.81ZM89.43,82.19v-5.95h.81v5.95h-.81ZM86.6,81.01v-4.05h-.81v-.72h.81v-1.6h.83v1.6h1v.72h-1v4.14c0,.14.03.23.09.29.06.06.17.09.33.09h.54v.7h-.92c-.27,0-.47-.04-.59-.12-.12-.08-.2-.2-.23-.35-.04-.15-.05-.39-.05-.72ZM81.17,76.22h.83v4.59c0,.54.21.81.63.81.48,0,.84-.13,1.06-.41.22-.28.34-.62.34-1.01v-3.98h.85v5.97h-.85v-.79c-.33.63-.81.94-1.44.94-.95,0-1.42-.53-1.42-1.59v-4.53ZM78.73,82.19v-8.03h.83v8.03h-.83ZM74.04,79.15c0,.73.08,1.33.23,1.79.15.46.51.69,1.06.69.52,0,.85-.23.99-.69.14-.46.21-1.03.21-1.7s-.08-1.29-.24-1.75c-.16-.46-.49-.69-1.01-.69-.83,0-1.25.79-1.25,2.36ZM73.16,79.13c0-2.02.69-3.02,2.08-3.02.78,0,1.34.25,1.67.75.33.5.5,1.27.5,2.29,0,2.12-.69,3.19-2.06,3.21-.78,0-1.34-.29-1.68-.88-.34-.59-.51-1.37-.51-2.36ZM68.37,77.69c0-.32.07-.6.2-.84.14-.24.33-.43.6-.56.26-.14.59-.2.97-.2,1.21,0,1.82.58,1.82,1.75h-.83c.01-.38-.05-.64-.2-.8-.15-.15-.39-.23-.72-.23-.61,0-.93.26-.96.77,0,.25.03.44.11.58.08.14.2.25.36.33.16.09.47.22.93.41.54.21.93.43,1.16.67.23.24.35.54.35.9,0,.61-.19,1.08-.56,1.41-.37.33-.85.48-1.44.47-.71,0-1.19-.19-1.44-.56-.25-.37-.37-.81-.37-1.32h.81c0,.37.07.66.21.86.14.2.41.3.79.3.36,0,.64-.08.82-.24.19-.16.28-.38.3-.66,0-.36-.08-.6-.25-.74-.17-.14-.51-.29-1.02-.47-.36-.12-.65-.24-.87-.35-.21-.11-.4-.28-.55-.51-.15-.23-.23-.56-.23-.98ZM61.48,79.26c0,.7.08,1.27.23,1.72.15.45.48.67.97.67.73,0,1.1-.79,1.1-2.37,0-.7-.07-1.3-.22-1.77-.15-.48-.46-.72-.92-.72s-.8.23-.94.69c-.14.46-.21,1.05-.21,1.77ZM60.64,84.2v-7.96h.81v.69c.33-.57.79-.85,1.36-.85s1.05.27,1.36.81c.32.54.48,1.23.48,2.06,0,.48-.03.96-.1,1.44-.07.48-.24.92-.52,1.33-.28.41-.7.61-1.27.61-.33,0-.57-.06-.71-.17-.14-.11-.33-.32-.57-.61v2.64h-.83ZM58.49,78.6c0-.56-.06-1-.18-1.32-.12-.33-.37-.49-.76-.49-.41,0-.7.18-.85.54-.16.36-.23.79-.21,1.28h2.01ZM55.6,79.3c0-.76.13-1.49.38-2.18.26-.69.77-1.04,1.54-1.04s1.25.24,1.48.72c.24.48.35,1.12.35,1.91v.59h-2.88c0,.11,0,.2-.02.29.01.61.09,1.1.22,1.47.13.38.41.57.83.57.44,0,.72-.14.85-.41.12-.27.19-.61.19-1.01h.8c0,.83-.19,1.4-.59,1.7-.4.3-.82.45-1.25.45-1.27,0-1.9-1.02-1.9-3.07ZM53.75,78.6c0-.56-.06-1-.18-1.32-.12-.33-.37-.49-.76-.49-.41,0-.7.18-.85.54-.16.36-.23.79-.21,1.28h2.01ZM50.87,79.3c0-.76.13-1.49.38-2.18.26-.69.77-1.04,1.54-1.04s1.25.24,1.48.72c.24.48.35,1.12.35,1.91v.59h-2.88c0,.11,0,.2-.02.29.01.61.09,1.1.22,1.47.13.38.41.57.83.57.44,0,.72-.14.85-.41.12-.27.19-.61.19-1.01h.8c0,.83-.19,1.4-.59,1.7-.4.3-.82.45-1.25.45-1.27,0-1.9-1.02-1.9-3.07ZM48.8,82.19v-8.03h.83v8.03h-.83ZM42.72,79.65h.88c0,.46.02.81.06,1.05.04.23.18.44.4.61.22.17.6.27,1.14.27.53,0,.92-.16,1.17-.48.25-.32.35-.76.29-1.31-.02-.24-.1-.43-.22-.58-.13-.15-.35-.29-.67-.42-.02-.01-.17-.07-.46-.18-.28-.1-.51-.19-.68-.26-.17-.07-.4-.15-.67-.26-.75-.31-1.12-.91-1.12-1.82,0-.76.22-1.34.67-1.73.45-.39.98-.58,1.6-.57.86.03,1.45.25,1.76.65.31.41.47.95.47,1.62h-.9c.02-.97-.44-1.45-1.38-1.45-.87,0-1.31.49-1.34,1.47,0,.29.08.52.25.69.16.17.4.31.69.42.3.11.58.21.85.31.72.29,1.24.56,1.56.81.32.25.49.68.49,1.3,0,.9-.22,1.56-.68,1.95-.46.4-1.03.61-1.72.62-1,0-1.67-.27-2.01-.8-.34-.53-.48-1.18-.43-1.93Z"/>
    </g>
  </g>
</svg>