<?xml version="1.0" encoding="UTF-8"?>
<svg xmlns="http://www.w3.org/2000/svg" version="1.1" viewBox="0 0 864 288">
  <defs>
    <style>
      .cls-1 {
        fill: #0f7666;
      }

      .cls-2 {
        fill: #090b0e;
      }

      .cls-3 {
        fill: #f5b229;
      }
    </style>
  </defs>
  <!-- Generator: Adobe Illustrator 28.6.0, SVG Export Plug-In . SVG Version: 1.2.0 Build 709)  -->
  <g>
    <g id="Layer_1">
      <g>
        <path class="cls-1" d="M201.48,107.01h17.41v54.47h9.55v-54.47h17.41v-8.56h-35.8l-8.56,8.56ZM112.61,126.66v34.82L240.37,32.88l-127.76,93.78ZM297.23,127.64c2.39-2.95,3.51-6.6,3.51-10.81,0-5.47-1.83-9.83-5.33-13.34-3.51-3.37-8.28-5.19-14.18-5.19h-24.43v63.18h9.55v-26.53h11.93l13.34,26.53h11.23l-14.6-27.94c3.65-.98,6.6-2.95,8.99-5.9M266.2,126.66v-19.65h14.18c3.23,0,5.76.84,7.72,2.67,1.97,1.82,2.95,4.21,2.95,7.3s-.98,5.47-2.95,7.3c-1.97,1.68-4.63,2.67-7.86,2.67h-14.04v-.28ZM10.83,161.48l90.69-91.39L10.83,126.66v34.82ZM394.52,161.48h40.29v-8.56h-30.75v-18.95h26.25v-8.56h-26.25v-18.39h30.75v-8.56h-40.29v63.04ZM504.58,98.3v8.56h17.41v54.47h9.55v-54.33h17.27v-8.56h-44.22v-.14ZM484.08,142.67l-11.23-16.99-17.97-27.24h-8.7v63.18h9.55v-44.36l9.97,15.02,19.09,29.2h8.84v-63.18h-9.55v44.36ZM377.39,104.34c-3.93-3.93-9.41-5.9-16.29-5.9h-22.18v63.18h22.18c6.88,0,12.35-1.97,16.29-5.9,2.67-2.67,4.49-6.04,5.19-9.97.7-3.93,1.12-9.27,1.12-16.15s-.42-11.79-1.12-15.58c-.56-3.79-2.39-7.02-5.19-9.69M373.74,141.82c-.42,2.81-1.26,5.05-2.81,6.74-2.53,2.81-6.18,4.21-10.67,4.21h-11.65v-45.77h11.65c4.49,0,8.14,1.4,10.67,4.21,1.54,1.68,2.39,3.79,2.81,6.46.42,2.67.56,6.6.56,11.79s-.28,9.55-.56,12.36M314.63,161.48h9.55v-63.18h-9.55v63.18Z"/>
        <path class="cls-3" d="M755.88,139.58c0,4.07-1.12,7.44-3.51,9.83-2.39,2.39-5.48,3.65-9.41,3.65s-7.02-1.26-9.27-3.65c-2.39-2.39-3.51-5.62-3.51-9.83v-41.27h-9.41v41.7c0,3.09.56,6.04,1.68,8.7,1.12,2.67,2.67,4.91,4.77,6.88,1.97,1.97,4.35,3.37,7.16,4.35,2.67.98,5.62,1.54,8.7,1.54s6.04-.56,8.84-1.54c2.67-.98,5.05-2.53,7.16-4.35,1.97-1.97,3.51-4.21,4.77-6.88,1.12-2.67,1.68-5.48,1.68-8.7v-41.7h-9.41v41.27h-.28ZM577.16,135.37h17.13v3.51c0,4.07-.98,7.3-3.09,9.83-2.53,2.95-5.9,4.35-10.11,4.35-1.82,0-3.51-.28-5.05-.98-1.54-.7-2.95-1.54-4.07-2.67-.84-.84-1.4-1.82-1.97-2.67-.42-.98-.84-2.11-1.12-3.51-.28-1.4-.42-3.09-.56-5.19-.14-2.11-.14-4.77-.14-8s0-5.9.14-7.86c.14-2.11.28-3.79.56-5.19.28-1.4.56-2.53,1.12-3.51.42-.98,1.12-1.82,1.82-2.67,1.12-1.26,2.53-2.11,4.07-2.81,1.54-.7,3.37-.98,5.05-.98,3.37,0,6.32.98,8.42,2.81,2.25,1.82,3.79,4.49,4.63,8h9.55c-.98-5.62-3.37-10.25-7.3-13.9-3.93-3.65-8.98-5.33-15.3-5.33s-11.93,2.25-16.28,6.6c-1.4,1.4-2.53,2.95-3.37,4.63-.84,1.68-1.4,3.37-1.83,5.19-.42,1.96-.56,3.93-.7,6.04-.14,2.11-.14,5.19-.14,8.99s0,6.88.14,8.99c.14,2.11.28,4.21.7,6.04.42,1.82.98,3.65,1.83,5.33.84,1.68,1.97,3.23,3.51,4.63,4.49,4.49,9.83,6.6,16.29,6.6,3.37,0,6.46-.56,9.27-1.68,2.81-1.12,5.48-2.95,7.72-5.33,2.11-2.11,3.51-4.63,4.35-7.3.84-2.81,1.26-6.18,1.26-10.25v-9.55h-18.67l-7.86,7.86ZM61.79,161.48l109.5-110.07L61.79,126.66v34.82ZM817.65,109.67c-.98-2.25-2.25-4.35-4.07-6.04-3.65-3.51-8.42-5.33-14.46-5.33h-23.59v63.04h9.41v-25.41h14.18c6.04,0,10.81-1.82,14.46-5.48,1.68-1.68,3.09-3.65,4.07-6.04.98-2.25,1.4-4.77,1.4-7.44,0-2.53-.56-4.91-1.4-7.3M806.56,124.7c-1.97,1.82-4.63,2.81-8,2.81h-13.62v-20.64h13.62c3.37,0,6.04.98,8,2.81,1.97,1.83,2.95,4.35,2.95,7.58s-.84,5.62-2.95,7.44M709.83,114.73c-.42-1.97-.98-3.65-1.82-5.19-.84-1.54-1.97-3.09-3.23-4.49-4.49-4.35-9.83-6.6-16.43-6.6s-11.93,2.25-16.29,6.6c-1.4,1.4-2.53,2.95-3.37,4.63-.84,1.68-1.4,3.37-1.83,5.19-.42,1.97-.56,3.93-.7,6.04,0,2.11-.14,5.19-.14,8.98s0,6.88.14,8.99c.14,2.11.28,4.21.7,6.04.42,1.82.98,3.65,1.83,5.33.84,1.68,1.96,3.23,3.51,4.63,4.35,4.49,9.83,6.6,16.28,6.6s11.93-2.25,16.43-6.6c1.4-1.4,2.53-2.81,3.23-4.49.84-1.54,1.4-3.37,1.83-5.19.42-1.97.56-3.93.7-6.18.14-2.25.14-5.19.14-9.13s0-6.88-.14-9.13c-.28-2.11-.56-4.21-.84-6.04M701.13,137.89c-.14,2.11-.28,3.79-.56,5.19-.28,1.4-.7,2.53-1.12,3.51-.42.98-1.12,1.83-1.83,2.67-1.12,1.12-2.39,2.11-4.07,2.81-1.68.7-3.37.98-5.19.98s-3.51-.42-5.2-.98c-1.68-.7-2.95-1.68-4.07-2.81-.84-.84-1.4-1.83-1.82-2.67-.42-.98-.7-2.11-.98-3.51-.28-1.4-.42-3.09-.56-5.19-.14-2.11-.14-4.77-.14-7.86s0-5.9.14-7.86c.14-2.11.28-3.79.56-5.19.28-1.4.56-2.53,1.12-3.51.56-.98,1.12-1.82,1.83-2.67,1.12-1.26,2.53-2.11,4.07-2.81,1.68-.7,3.37-.98,5.19-.98s3.51.28,5.19.98c1.68.7,2.95,1.54,4.07,2.81.84.84,1.4,1.83,1.97,2.67.42.98.84,2.11,1.12,3.51.28,1.4.42,3.09.56,5.19,0,2.11.14,4.63.14,7.86-.42,3.09-.42,5.76-.42,7.86M653.54,127.22c2.25-2.81,3.51-6.46,3.51-10.67,0-5.33-1.83-9.69-5.33-13.06-3.51-3.37-8.14-5.05-14.04-5.05h-24.01v63.04h9.41v-27.24h11.79l13.62,27.24h10.95l-14.88-28.5c3.79-.98,6.74-2.95,8.99-5.76M623.07,126.24v-19.51h13.9c3.09,0,5.62.84,7.58,2.67,1.97,1.68,2.95,4.07,2.95,7.16s-.98,5.33-2.95,7.02c-1.96,1.68-4.49,2.53-7.72,2.53h-13.76v.14Z"/>
        <path class="cls-2" d="M819.9,85.95h5.19v16.43h2.81v-16.43h5.19v-2.53h-13.34v2.53h.14ZM850.36,83.28l-5.48,11.79-5.62-11.79h-2.81v18.95h2.81v-12.64l4.49,9.27h2.11l4.35-9.27v12.64h2.95v-18.95h-2.81Z"/>
        <path class="cls-1" d="M225.07,240.52c.84.14,2.25.14,3.79.14,4.77,0,9.13-1.68,9.13-6.88,0-4.91-4.21-6.88-9.27-6.88h-3.79v13.62h.14ZM225.07,223.53h4.21c4.91,0,7.72-2.53,7.72-6.04,0-4.21-3.23-5.76-7.86-5.76-2.11,0-3.37.14-4.07.28v11.51ZM220.43,208.93c1.97-.42,5.19-.7,8.42-.7,4.63,0,7.58.84,9.83,2.53,1.83,1.4,2.95,3.51,2.95,6.32,0,3.37-2.25,6.46-6.04,7.86v.14c3.37.84,7.3,3.65,7.3,8.99,0,3.09-1.26,5.33-2.95,7.16-2.53,2.25-6.46,3.37-12.35,3.37-3.23,0-5.62-.28-7.16-.42v-35.24Z"/>
        <path class="cls-1" d="M267.88,228.73c0-2.95-1.26-7.58-6.46-7.58-4.77,0-6.74,4.35-7.16,7.58h13.62ZM254.13,232.09c.14,6.32,4.07,8.84,8.84,8.84,3.37,0,5.33-.56,7.02-1.26l.84,3.37c-1.69.7-4.49,1.54-8.56,1.54-7.86,0-12.64-5.19-12.64-12.92s4.49-13.76,11.93-13.76c8.28,0,10.53,7.3,10.53,12.07,0,.98-.14,1.68-.14,2.11h-17.83Z"/>
        <path class="cls-1" d="M280.66,218.48h4.63v25.55h-4.63v-25.55ZM285.85,211.32c0,1.54-1.12,2.81-2.95,2.81-1.68,0-2.81-1.26-2.81-2.81,0-1.68,1.26-2.95,2.95-2.95s2.81,1.26,2.81,2.95"/>
        <path class="cls-1" d="M295.68,225.36c0-2.67,0-4.77-.28-6.88h4.07l.28,4.21h.14c1.26-2.39,4.21-4.77,8.42-4.77,3.51,0,8.99,2.11,8.99,10.95v15.3h-4.63v-14.74c0-4.07-1.54-7.58-5.9-7.58-3.09,0-5.48,2.11-6.18,4.77-.28.56-.28,1.4-.28,2.11v15.44h-4.63v-18.81Z"/>
        <path class="cls-1" d="M344.82,228.58c0-.84,0-1.54-.28-2.11-.84-2.67-3.09-4.91-6.46-4.91-4.49,0-7.58,3.79-7.58,9.69,0,5.05,2.53,9.27,7.58,9.27,2.81,0,5.48-1.82,6.46-4.77.28-.84.42-1.68.42-2.53v-4.63h-.14ZM349.73,218.48c-.14,1.82-.28,3.93-.28,7.02v14.88c0,5.9-1.12,9.41-3.65,11.65-2.53,2.39-6.04,3.09-9.27,3.09s-6.46-.7-8.56-2.11l1.12-3.51c1.68,1.12,4.35,1.97,7.44,1.97,4.77,0,8.28-2.53,8.28-8.99v-2.81h-.14c-1.4,2.39-4.21,4.21-8.14,4.21-6.32,0-10.95-5.33-10.95-12.49,0-8.7,5.62-13.62,11.51-13.62,4.49,0,6.88,2.39,8,4.49h.14l.28-3.79h4.21Z"/>
        <path class="cls-1" d="M391.15,228.87c0-.56,0-1.4-.28-1.97-.7-2.95-3.23-5.33-6.74-5.33-4.77,0-7.72,4.21-7.72,9.83,0,5.19,2.53,9.41,7.58,9.41,3.09,0,6.04-2.11,6.88-5.62.14-.7.28-1.26.28-1.97v-4.35ZM395.78,206.54v30.89c0,2.25,0,4.91.28,6.6h-4.21l-.28-4.49h-.14c-1.4,2.81-4.49,5.05-8.7,5.05-6.18,0-10.95-5.19-10.95-13.06,0-8.56,5.19-13.76,11.51-13.76,3.93,0,6.6,1.83,7.72,3.93h.14v-15.3h4.63v.14Z"/>
        <path class="cls-1" d="M406.17,218.48h4.63v25.55h-4.63v-25.55ZM411.36,211.32c0,1.54-1.12,2.81-2.95,2.81-1.69,0-2.81-1.26-2.81-2.81,0-1.68,1.26-2.95,2.95-2.95s2.81,1.26,2.81,2.95"/>
        <path class="cls-1" d="M436.91,244.03v-22.04h-10.67v22.04h-4.63v-22.04h-3.65v-3.51h3.65v-.84c0-3.65.84-6.74,2.81-8.7,1.55-1.54,3.65-2.39,6.46-2.39,1.54,0,2.81.42,3.65.84l-.98,3.37c-.7-.28-1.68-.7-2.81-.7-3.65,0-4.63,3.09-4.63,7.16v1.12h10.67v-1.26c0-3.65.84-6.88,2.95-8.99,1.68-1.68,4.07-2.39,6.18-2.39,1.68,0,3.09.42,3.93.7l-.56,3.65c-.7-.28-1.68-.56-2.95-.56-3.93,0-4.91,3.51-4.91,7.44v1.4h6.18v3.51h-6.18v22.04h-4.49v.14Z"/>
        <path class="cls-1" d="M470.75,228.73c0-2.95-1.26-7.58-6.46-7.58-4.77,0-6.74,4.35-7.16,7.58h13.62ZM457.13,232.09c.14,6.32,4.07,8.84,8.84,8.84,3.37,0,5.33-.56,7.02-1.26l.84,3.37c-1.68.7-4.49,1.54-8.56,1.54-7.86,0-12.64-5.19-12.64-12.92s4.49-13.76,11.93-13.76c8.28,0,10.53,7.3,10.53,12.07,0,.98-.14,1.68-.14,2.11h-17.83Z"/>
        <path class="cls-1" d="M483.66,226.48c0-2.95,0-5.62-.28-8h4.07l.14,5.05h.28c1.12-3.37,3.93-5.62,7.02-5.62.56,0,.84,0,1.26.14v4.35c-.42-.14-.98-.14-1.55-.14-3.23,0-5.62,2.53-6.18,6.04-.14.7-.14,1.4-.14,2.11v13.62h-4.63v-17.55Z"/>
        <path class="cls-1" d="M519.74,228.73c0-2.95-1.26-7.58-6.46-7.58-4.77,0-6.74,4.35-7.16,7.58h13.62ZM506.13,232.09c.14,6.32,4.07,8.84,8.84,8.84,3.37,0,5.33-.56,7.02-1.26l.84,3.37c-1.69.7-4.49,1.54-8.56,1.54-7.86,0-12.64-5.19-12.64-12.92s4.49-13.76,11.93-13.76c8.42,0,10.53,7.3,10.53,12.07,0,.98-.14,1.68-.14,2.11h-17.83Z"/>
        <path class="cls-1" d="M532.52,225.36c0-2.67,0-4.77-.28-6.88h4.07l.28,4.21h.14c1.26-2.39,4.21-4.77,8.42-4.77,3.51,0,8.99,2.11,8.99,10.95v15.3h-4.63v-14.74c0-4.07-1.54-7.58-5.9-7.58-3.09,0-5.48,2.11-6.18,4.77-.28.56-.28,1.4-.28,2.11v15.44h-4.63v-18.81Z"/>
        <path class="cls-1" d="M570.14,211.04v7.3h6.6v3.51h-6.6v13.76c0,3.23.84,4.91,3.51,4.91,1.26,0,2.11-.14,2.67-.28l.28,3.51c-.84.42-2.39.7-4.07.7-2.11,0-3.93-.7-5.05-1.97-1.26-1.4-1.83-3.65-1.83-6.6v-13.9h-3.93v-3.51h3.93v-6.18l4.49-1.26Z"/>
        <path class="cls-1" d="M598.64,218.48h4.63v25.55h-4.63v-25.55ZM603.7,211.32c0,1.54-1.12,2.81-2.95,2.81-1.69,0-2.81-1.26-2.81-2.81,0-1.68,1.26-2.95,2.95-2.95,1.83,0,2.81,1.26,2.81,2.95"/>
        <path class="cls-1" d="M612.96,239.25c1.4.84,3.79,1.82,6.18,1.82,3.37,0,4.91-1.68,4.91-3.79,0-2.25-1.26-3.37-4.77-4.77-4.63-1.68-6.74-4.21-6.74-7.3,0-4.07,3.37-7.44,8.84-7.44,2.53,0,4.91.7,6.32,1.54l-1.12,3.37c-.98-.7-2.81-1.54-5.19-1.54-2.81,0-4.35,1.54-4.35,3.51,0,2.11,1.54,3.09,4.91,4.35,4.49,1.68,6.74,3.93,6.74,7.72,0,4.49-3.51,7.72-9.55,7.72-2.81,0-5.33-.7-7.16-1.68l.98-3.51Z"/>
        <path class="cls-1" d="M650.87,225.36c0-2.67,0-4.77-.14-6.88h4.07l.28,4.21h.14c1.26-2.39,4.21-4.77,8.42-4.77,3.51,0,8.98,2.11,8.98,10.95v15.3h-4.63v-14.74c0-4.07-1.54-7.58-5.9-7.58-3.09,0-5.47,2.11-6.18,4.77-.28.56-.28,1.4-.28,2.11v15.44h-4.63v-18.81h-.14Z"/>
        <path class="cls-1" d="M685.83,231.25c0,5.62,3.23,9.83,7.72,9.83s7.72-4.21,7.72-9.97c0-4.35-2.11-9.83-7.72-9.83s-7.72,5.19-7.72,9.97M706.04,230.97c0,9.41-6.6,13.62-12.78,13.62-6.88,0-12.21-5.05-12.21-13.2,0-8.56,5.62-13.62,12.64-13.62,7.44.14,12.35,5.48,12.35,13.2"/>
        <path class="cls-1" d="M714.61,226.48c0-2.95,0-5.62-.28-8h4.07l.14,5.05h.14c1.12-3.37,3.93-5.62,7.02-5.62.56,0,.84,0,1.26.14v4.35c-.42-.14-.98-.14-1.54-.14-3.23,0-5.62,2.53-6.18,6.04-.14.7-.28,1.4-.28,2.11v13.62h-4.63v-17.55h.28Z"/>
        <path class="cls-1" d="M734.4,225.36c0-2.67,0-4.77-.28-6.88h4.07l.28,4.07h.14c1.4-2.39,3.79-4.77,8-4.77,3.51,0,6.18,2.11,7.3,5.19h.14c.84-1.4,1.83-2.53,2.81-3.37,1.54-1.12,3.23-1.82,5.62-1.82,3.37,0,8.42,2.25,8.42,11.09v15.02h-4.49v-14.46c0-4.91-1.82-7.86-5.62-7.86-2.67,0-4.63,1.97-5.48,4.21-.28.7-.42,1.54-.42,2.39v15.86h-4.49v-15.3c0-4.07-1.83-7.02-5.34-7.02-2.95,0-5.05,2.39-5.76,4.63-.28.7-.42,1.54-.42,2.25v15.44h-4.49v-18.67Z"/>
        <path class="cls-1" d="M794.63,230.97c-5.05-.14-10.81.84-10.81,5.76,0,2.95,1.96,4.49,4.35,4.49,3.37,0,5.47-2.11,6.18-4.35.14-.42.28-.98.28-1.54v-4.35ZM795.33,244.03l-.42-3.23h-.14c-1.4,1.97-4.21,3.79-7.86,3.79-5.19,0-7.86-3.65-7.86-7.3,0-6.18,5.48-9.55,15.44-9.55v-.56c0-2.11-.56-5.9-5.76-5.9-2.39,0-4.91.7-6.6,1.97l-1.12-3.09c2.11-1.4,5.2-2.25,8.42-2.25,7.86,0,9.69,5.33,9.69,10.53v9.55c0,2.25.14,4.35.42,6.18h-4.21v-.14Z"/>
        <rect class="cls-1" x="809.23" y="206.54" width="4.63" height="37.48"/>
      </g>
    </g>
  </g>
</svg>