<?xml version="1.0" encoding="UTF-8"?>
<svg id="Layer_1" data-name="Layer 1" xmlns="http://www.w3.org/2000/svg" viewBox="0 0 977.9 210.64">
  <defs>
    <style>
      .cls-1 {
        fill: #f8b517;
      }

      .cls-2 {
        fill: #231f20;
      }

      .cls-3 {
        fill: #0e8578;
      }
    </style>
  </defs>
  <path class="cls-3" d="M246.38.26c-.12,9.11-.25,18.21-.37,27.32h30.07v99.57h29.11V27.57h31.82V.26h-90.64Z"/>
  <path class="cls-3" d="M879.31.26c-.12,9.11-.25,18.21-.37,27.32h30.07v99.57h29.11V27.57h31.82V.26h-90.64Z"/>
  <path class="cls-3" d="M425.86,73.37c4.88-2.38,9.14-5.8,12.74-10.24,5.12-6.32,7.71-14.21,7.71-23.43,0-11.31-3.86-20.9-11.46-28.5-7.66-7.36-18.02-11.2-30.04-11.2h-50.48v127.14h29.11v-48.5h12.38l22.76,45.29,1.62,3.21h33.75l-4.46-8.53-23.64-45.23ZM383.19,27.57h20.09c4.48,0,7.71,1.05,10.14,3.32,2.41,2.23,3.53,5.12,3.53,9.07s-1.12,6.84-3.53,9.07c-2.48,2.12-6.13,3.32-10.4,3.32h-19.83v-24.77Z"/>
  <polygon class="cls-3" points="655.04 .26 649.21 .26 649.21 6.09 649.21 121.31 649.21 127.14 655.04 127.14 728.69 127.14 734.52 127.14 734.52 121.31 734.52 105.65 734.52 99.82 728.69 99.82 678.32 99.82 678.32 76.84 720.48 76.84 726.31 76.84 726.31 71.01 726.31 55.36 726.31 49.53 720.48 49.53 678.32 49.53 678.32 27.57 728.69 27.57 734.52 27.57 734.52 21.74 734.52 6.09 734.52 .26 728.69 .26 655.04 .26"/>
  <polygon class="cls-3" points="832.79 0 826.95 0 826.95 5.83 826.95 67.52 817.12 52.65 784.28 2.88 782.55 .26 779.41 .26 763.5 .26 757.67 .26 757.67 6.09 757.67 121.56 757.67 127.4 763.5 127.4 780.95 127.4 786.78 127.4 786.78 121.56 786.78 59.81 794.31 71.16 829.19 124.5 830.91 127.14 834.07 127.14 850.24 127.14 856.07 127.14 856.07 121.31 856.07 5.83 856.07 0 850.24 0 832.79 0"/>
  <path class="cls-3" d="M609.85,12.64c-8.18-8.18-19.58-12.38-33.78-12.38h-46.38v127.14h46.38c14.2,0,25.61-4.2,33.89-12.49,5.82-5.82,9.66-13.19,11.11-21.32,1.42-7.96,2.14-18.23,2.14-30.54s-.72-21.84-2.15-29.55c-1.15-7.82-4.94-14.91-11.21-20.87ZM559.06,27.57h15.47c6.62,0,11.72,1.94,15.17,5.77,1.94,2.12,3.08,4.83,3.71,8.81.66,4.19.95,10.55.95,20.64s-.54,17.45-1,22c-.61,3.99-1.77,6.93-3.63,8.96-3.48,3.87-8.58,5.81-15.2,5.81h-15.47V27.57Z"/>
  <polygon class="cls-3" points="479.04 0 473.2 0 473.2 5.83 473.2 121.31 473.2 127.14 479.04 127.14 496.49 127.14 502.32 127.14 502.32 121.31 502.32 5.83 502.32 0 496.49 0 479.04 0"/>
  <path class="cls-1" d="M110.63,79.55l-25.15,41.05c-2.38,3.89-9.07,2.5-12.19.54-2.83-1.78-6.01-6.07-6.15-10.83l-1.28-46.32c-.06-2.07-1.39-4.22-2.33-4.7-8.45-4.34-18.13,48.69-20.47,57.79-1.38,5.37-2.52,10.13-7.87,10.02-20.98-.43-7.3-47.36-3.43-60.57,2.08-7.1,1.69-13.17-2.84-17-11.01-9.31-22.23,3.11-27.07-.5-1.96-1.46-3.06-6.36.31-8.86,7.23-5.39,16.78-5.37,25.41-5.68,11.24-.41,16.52,9.5,21.54,16.98,5.86-5.12,11.33-14.62,19.62-13.74,8.63.92,17.13,6.98,17.75,16.86l2.26,35.97c8.78-12.81,17.05-49.75,33.78-46.31,23.25,4.79-6.25,54.4,25.04,76.18-7.31,5.7-14.25,1.25-19.68-3.44-10.7-8.94-11.86-20.96-17.25-37.43Z"/>
  <path class="cls-1" d="M227.99,142.46c-13.71,20.74-45.67,76.35-74.33,67.17-7.83-2.51-11.74-10.49-12.71-16.36-4.47-27.11,44.49-51.11,61.11-62.49,13.23-9.05,18.53-27.78,20.46-43.8-12.35,17.41-35.57,44.05-57.26,30.52-21.56-13.46-5.92-79.06,7.26-74.19,9.55,3.53-8.39,57.8,4.84,62.27s39.86-44.13,46.82-55.5c3.09-5.05,7.29-6.77,12.51-6.11,16.67,2.11,3.87,69.68-1.87,83.61,17.92,4.51,33.32,6.57,48.31,16.89l-55.15-2.01ZM167.16,188.87c3.55,1.28,8.39-2.8,18.31-14.15,4.49-5.13,10.27-12.04,16.7-20.59-33.09,21.13-38.78,29.25-37.36,32.67.38.91,1.35,1.72,2.35,2.08Z"/>
  <path class="cls-2" d="M959,118.49c-.87-1.57-1.31-3.32-1.31-5.25s.44-3.67,1.31-5.23c.88-1.55,2.08-2.78,3.62-3.67,1.54-.89,3.25-1.34,5.15-1.34s3.67.45,5.2,1.34c1.54.89,2.74,2.12,3.62,3.67.87,1.55,1.31,3.3,1.31,5.23s-.44,3.73-1.31,5.28c-.88,1.56-2.08,2.78-3.62,3.67-1.54.89-3.27,1.34-5.2,1.34s-3.61-.45-5.15-1.34c-1.54-.89-2.74-2.13-3.62-3.7ZM976.13,113.23c0-1.64-.36-3.12-1.07-4.42-.72-1.3-1.72-2.32-3-3.06-1.29-.73-2.72-1.1-4.29-1.1-2.39,0-4.37.8-5.92,2.41s-2.33,3.66-2.33,6.17.78,4.61,2.33,6.22,3.53,2.41,5.92,2.41,4.43-.81,6.01-2.44,2.36-3.69,2.36-6.19ZM968.41,107.44c1.18,0,2.1.29,2.76.88.66.59.99,1.42.99,2.49,0,.79-.17,1.45-.53,1.98-.36.54-.88.93-1.56,1.18l2.36,4.93h-2.09l-2.25-4.72h-2.14v4.72h-1.93v-11.47h4.4ZM970.29,110.82c0-1.11-.65-1.66-1.93-1.66h-2.41v3.32h2.41c1.29,0,1.93-.55,1.93-1.66Z"/>
</svg>